<svg width="200" height="200" version="1.1" viewBox="0 0 200 200" xml:space="preserve"
	xmlns:xlink="http://www.w3.org/1999/xlink" xmlns="http://www.w3.org/2000/svg">
	<style>
		.eleventy {
			fill: #FFFFFF;
		}
	</style>
	<rect width="200" height="200" style="fill: var(--bg, #222); rx: var(--rx, 24px);" />
	<path class="eleventy" d="M71,143.2c-1.2,0-1.8-1.6-1.8-4.8v-79c0-1.5-0.3-2.2-0.9-2.1c-3.8,1-5.7,1.4-5.7,1.4c-1,0.1-1.6-1-1.6-3.1v-6.9
	c0-1.9,0.6-3,1.7-3.2l18.9-4.9c0.1,0,0.4-0.1,0.6-0.1c1,0,1.6,1.1,1.6,3.4v94.5c0,3.2-0.6,4.8-1.9,4.8L71,143.2z M119.8,143.4
	c-1.9,0-3.6-0.1-5-0.4c-1.4-0.3-2.9-0.9-4.4-1.8s-2.8-2.2-3.8-3.8c-1-1.6-1.8-3.9-2.4-6.8c-0.6-2.9-0.9-6.4-0.9-10.4V83.6
	c0-1-0.3-1.4-0.8-1.4h-4.4c-1.2,0-1.8-1.1-1.8-3.4v-3.9c0-2.3,0.6-3.5,1.8-3.5h4.4c0.5,0,0.8-0.6,0.8-1.9l1.3-27.8
	c0.1-2.5,0.8-3.8,1.9-3.8h7.2c1.2,0,1.8,1.3,1.8,3.8v27.8c0,1.3,0.3,1.9,0.9,1.9h9.1c1.2,0,1.8,1.2,1.8,3.5v3.9
	c0,2.3-0.6,3.4-1.8,3.4h-9.1c-0.3,0-0.6,0.1-0.7,0.3c-0.1,0.2-0.2,0.6-0.2,1.2v36.9c0,2.8,0.2,5.1,0.5,6.9c0.4,1.8,0.9,3.2,1.6,4
	c0.7,0.8,1.4,1.4,2.1,1.7c0.7,0.3,1.5,0.4,2.5,0.4h5.1c1.3,0,1.9,0.9,1.9,2.6v4.3c0,2-0.7,2.9-2.1,2.9L119.8,143.4z M147.3,152
	c1.1,0,2-0.9,2.9-2.7c0.8-1.8,1.2-4.3,1.2-7.6c0-0.8-0.5-3.4-1.4-7.9l-14-58.2c-0.1-0.7-0.1-1.2-0.1-1.6c0-1.7,0.4-2.6,1.1-2.6h8.7
	c0.7,0,1.2,0.2,1.6,0.7s0.8,1.4,1,2.7l9.3,49.2c0.2,0.6,0.3,0.9,0.4,0.9c0.2,0,0.3-0.3,0.3-0.8l7.3-49c0.2-1.4,0.5-2.4,0.9-2.9
	c0.4-0.5,0.9-0.8,1.5-0.8h6c0.8,0,1.2,0.9,1.2,2.8c0,0.4-0.1,1-0.1,1.6L162.1,142c-1,5.5-2.1,9.7-3.3,12.6c-1.2,2.9-2.5,4.9-4,5.9
	c-1.5,1-3.4,1.6-5.9,1.6h-0.7c-3.9,0-6.5-1-7.9-3.1c-0.4-0.4-0.6-1.5-0.6-3.3c0-3.5,0.6-5.3,1.7-5.3c0.1,0,1,0.2,2.6,0.7
	C145.8,151.7,146.8,152,147.3,152L147.3,152z M35,143.4c-1.2,0-1.8-1.6-1.8-4.8v-79c0-1.5-0.3-2.2-0.9-2.1c-3.8,1-5.7,1.4-5.7,1.4
	c-1,0.1-1.6-1-1.6-3.1v-6.9c0-1.9,0.6-3,1.7-3.2l18.9-4.9c0.1,0,0.4-0.1,0.6-0.1c1,0,1.6,1.1,1.6,3.4v94.5c0,3.2-0.6,4.8-1.9,4.8H35
	z" />
</svg>