<svg width="200" height="200" version="1.1" viewBox="0 0 200 200" xml:space="preserve"
	xmlns:xlink="http://www.w3.org/1999/xlink" xmlns="http://www.w3.org/2000/svg">
	<style>
		.adonis {
			fill: #fff;
		}
	</style>
	<rect width="200" height="200" style="fill: var(--bg, #000); rx: var(--rx, 24px); filter: var(--filter);" />
	<path class="adonis" d="M32.1,127.2l35.7-81.1C73.8,32.4,85.4,25,100,25s26.2,7.4,32.2,21.1l35.7,81.1c1.6,3.9,3,9,3,13.4
	c0,20.2-14.1,34.3-34.3,34.3c-6.9,0-12.3-1.8-17.9-3.5c-5.7-1.8-11.4-3.7-18.8-3.7c-7.3,0-13.2,1.9-18.9,3.7
	c-5.6,1.8-11.1,3.5-17.7,3.5c-20.2,0-34.3-14.1-34.3-34.3C29.1,136.3,30.4,131.2,32.1,127.2z M100,60.2L64.8,140
	c10.4-4.9,22.5-7.2,35.2-7.2c12.3,0,24.8,2.3,34.8,7.2L100,60.2z" />
</svg>