<svg width="200" height="200" version="1.1" viewBox="0 0 200 200" xml:space="preserve"
	xmlns:xlink="http://www.w3.org/1999/xlink" xmlns="http://www.w3.org/2000/svg">
	<style>
		.after-effects {
			fill: #9999FF;
		}
	</style>
	<rect width="200" height="200" style="fill: var(--bg, #00005B); rx: var(--rx, 24);" />
	<path class="after-effects" d="M81.9,123.1H50.2l-6.5,20.6c-0.2,0.8-0.9,1.3-1.6,1.3H26.1c-0.9,0-1.2-0.5-1-1.5l27.5-80.8
	c0.3-0.8,0.5-1.7,0.8-2.8c0.4-1.9,0.5-3.8,0.5-5.7c-0.1-0.6,0.4-1.1,1-1h21.8c0.6,0,1,0.2,1.1,0.7l31.2,89.7c0.3,0.9,0,1.4-0.8,1.4
	H90.3c-0.6,0.1-1.2-0.4-1.4-1L81.9,123.1z M55.2,105.7h21.7C73.3,93.6,69.3,81.5,66,69.3C62.3,82,58.9,93.8,55.2,105.7z
	M132.2,115.2c1.3,10.5,10,15.4,19.8,15.2c5.5-0.1,11.3-1,16.5-3c0.5-0.4,0.7-0.1,0.7,0.7v13.4c0,0.7-0.2,1.3-0.8,1.7
	c-6.4,2.9-13.7,3.8-20.6,3.7c-20.6,0-34.7-14.5-34.7-35.6c-0.1-20,12.9-36.9,33.1-36.9c17.1-0.4,28.9,13.2,29,30.3
	c0,3.1-0.2,6.2-0.5,9.3c-0.1,0.6-0.6,1.1-1.2,1.1C159.6,115,145.9,115.2,132.2,115.2z M132.2,102.3c7.6,0,15.3,0.3,22.9-0.1
	c1.1-0.1,2-0.3,2-1.5c-0.2-6.3-5.5-11.5-11.7-11.3C137.9,89,133.1,95.3,132.2,102.3z" />
</svg>