<svg width="200" height="200" version="1.1" viewBox="0 0 200 200" xml:space="preserve"
	xmlns:xlink="http://www.w3.org/1999/xlink" xmlns="http://www.w3.org/2000/svg">
	<style>
		.airtable--fragment-0 {
			fill: #FFBF00;
		}

		.airtable--fragment-1 {
			fill: #26B5F8;
		}

		.airtable--fragment-2 {
			fill: #ED3049;
		}

		.airtable--fragment-3 {
			fill: #9f323a;
		}
	</style>
	<rect width="200" height="200" style="fill: var(--bg, #fff); rx: var(--rx, 24px); filter: var(--filter);" />
	<g>
		<path class="airtable--fragment-0" d="M91.8,37.4L35.9,60.5c-3.1,1.3-3.1,5.7,0.1,6.9l56.2,22.3c4.9,2,10.4,2,15.4,0l56.2-22.3
		c3.1-1.2,3.2-5.7,0.1-6.9l-55.9-23.1C102.6,35.3,96.9,35.3,91.8,37.4" />
		<path class="airtable--fragment-1" d="M104.7,101.9v55.6c0,2.6,2.7,4.5,5.1,3.5l62.6-24.3c1.4-0.6,2.4-1.9,2.4-3.5V77.6c0-2.6-2.7-4.5-5.1-3.5
		l-62.6,24.3C105.7,99,104.7,100.3,104.7,101.9" />
		<path class="airtable--fragment-2" d="M90.1,104.8l-18.6,9l-1.9,0.9l-39.2,18.8c-2.5,1.2-5.7-0.6-5.7-3.4V77.8c0-1,0.5-1.9,1.2-2.5
		c0.3-0.3,0.6-0.5,0.9-0.7c0.9-0.6,2.3-0.7,3.4-0.3l59.4,23.6C92.8,99.1,93.1,103.3,90.1,104.8" />
		<path class="airtable--fragment-3" d="M90.1,104.8l-18.6,9L26,75.3c0.3-0.3,0.6-0.5,0.9-0.7c0.9-0.6,2.3-0.7,3.4-0.3l59.4,23.6
		C92.8,99.1,93.1,103.3,90.1,104.8" />
	</g>
</svg>