<svg width="200" height="200" version="1.1" viewBox="0 0 200 200" xml:space="preserve"
	xmlns:xlink="http://www.w3.org/1999/xlink" xmlns="http://www.w3.org/2000/svg">
	<style>
		.analog--fragment-0 {
			fill: #C30F2E;
		}

		.analog--fragment-1 {
			fill: #DD0330;
		}

		.analog--fragment-2 {
			fill: #FFFFFF;
		}
	</style>
	<rect width="200" height="200" style="fill: var(--bg, #fff); rx: var(--rx, 24px); filter: var(--filter);" />
	<g>
		<path class="analog--fragment-0" d="M114.2,46.8L175,152.9H53.4L114.2,46.8" />
		<path class="analog--fragment-1" d="M76.7,62.6l51.7,90.6H25L76.7,62.6" />
		<path class="analog--fragment-2" d="M164.7,124.7h-12.2c-0.1-1.5-0.3-2.9-0.5-4.3c-0.5-4-1.3-6.2-2.5-6.7c-0.5-0.2-1-0.1-1.4,0.2
		c-0.8,0.6-1.3,2.2-1.1,3.8c0.3,2.4,0.5,4.7,0.6,7h-5.3c0-1.7,0-3.4,0-5c0.1-14.4,0-20.3-2.1-21c-0.5-0.2-0.9-0.1-1.3,0.2
		c-1.7,1.2-1.9,7.1-2,16.5c0,3.2-0.1,6.4-0.2,9.3h-2.5c-0.4-3.2-0.8-6.1-1.2-7.4c-0.2-0.5-0.6-1.7-1.6-1.6c-1.2,0.1-1.7,2.1-2.8,7.7
		c-0.1,0.4-0.2,0.9-0.2,1.3h-3.1c-0.2-9.4-1.2-14.5-3.1-15.5c-0.6-0.3-1.1-0.2-1.4,0c-2.2,1-2.2,5.4-2.3,11.4c0,1.3,0,2.7-0.1,4.1
		H116c-0.1-1.8-0.4-3.6-1.4-4.5c-0.7-0.7-1.4-0.7-1.8-0.6c-1.4,0.4-2.2,2.5-2.9,4.5c-0.1,0.2-0.1,0.4-0.2,0.6c0,0,0,0,0,0h-3.5
		c-0.2-0.6-0.4-1.1-0.6-1.7c-0.5-1.2-1.8-1.8-3.2-1.5c-1.8,0.3-2.6,1.7-2.9,3.2h-4.2c-0.1-1.4-0.2-2.8-0.1-4.2
		c0-3.8-0.6-6.1-1.8-6.8c-0.6-0.3-1.2-0.2-1.7,0.1c-1,0.7-1.6,2.3-1.4,3.8c0.3,2.4,0.5,4.7,0.6,7h-5.3c0-1.7,0-3.4,0-5
		c0.1-14.4,0-20.3-2.1-21c-0.5-0.2-0.9-0.1-1.3,0.2c-1.7,1.2-1.9,7.1-2,16.5c0,3.2-0.1,6.4-0.2,9.3h-2.5c-0.4-3.2-0.7-6.1-1.2-7.4
		c-0.2-0.5-0.6-1.7-1.6-1.6c-1.2,0.1-1.7,2.1-2.8,7.7c-0.1,0.4-0.2,0.9-0.2,1.3h-3.1c-0.2-9.4-1.2-14.5-3.1-15.5
		c-0.6-0.3-1.1-0.2-1.4,0c-2.2,1-2.2,5.4-2.3,11.4c0,1.3,0,2.7-0.1,4.1h-2.4c-0.1-1.8-0.4-3.6-1.4-4.5c-0.7-0.7-1.4-0.7-1.9-0.6
		c-1.4,0.4-2.2,2.5-2.9,4.5c-0.1,0.2-0.1,0.4-0.2,0.6c0,0,0,0,0,0h-3.5c-0.2-0.6-0.4-1.1-0.6-1.7c-0.5-1.2-1.8-1.8-3.2-1.5
		c-1.8,0.3-2.7,1.7-3.2,3.2h-6.6v1.4h6.2c-0.1,0.7-0.2,1.4-0.3,2l-0.1,0.5l1.4,0.2l0.1-0.5c0.1-0.8,0.2-1.5,0.3-2.2h4.9
		c0.2,0.5,0.3,1,0.5,1.5c0.4,1.1,0.9,1.7,1.4,2c0.4,0.2,0.9,0.3,1.3,0.1c1.1-0.4,1.7-2,2.3-3.6h3.9c0,0.5,0,0.9,0,1.3
		c0,0.4,0,0.7,0,1c0,0.9,0.1,8.6,2.3,8.8c1,0.1,1.8-0.9,2.4-5.6c0.2-1.8,0.4-3.6,0.5-5.4H67c0,0.4,0,0.8,0,1.2
		c0.1,1.8,0.6,4.8,2.1,5.1c1.1,0.2,1.9-1,2.4-1.9c0.5-0.9,0.8-2.5,1.2-4.4h3.4c0.9,7.1,1.3,8.9,2.5,9c0.9,0.1,1.3-0.9,1.6-2
		c0.5-1.7,0.8-4.2,1-7H84c0,10.9,0.4,18.1,2.4,20.1c0.8,0.8,2,0.8,2.8-0.1c2.1-2.3,3.2-10.8,3-20h1.8c0.5,5.3,1.7,11.4,3.6,11.6
		c1.1,0.1,1.8-1.2,2.3-4.3c0.2-1.2,0.5-4.8,0.5-4.9c0.1-0.4,0.1-0.8,0.1-1.2c0-0.4,0.1-0.8,0.1-1.2h4.6c0.2,0.5,0.3,1,0.5,1.5
		c0.4,1.1,0.9,1.7,1.4,2c0.4,0.2,0.9,0.3,1.3,0.1c1.1-0.4,1.7-2,2.3-3.6h3.9c0,0.5,0,0.9,0,1.3c0,0.4,0,0.7,0,1
		c0,0.9,0.1,8.6,2.3,8.8c1,0.1,1.8-0.9,2.4-5.6c0.2-1.8,0.4-3.6,0.5-5.4h4.2c0,0.4,0,0.8,0,1.2c0.1,1.8,0.6,4.8,2.1,5.1
		c1.1,0.2,1.9-1,2.4-1.9c0.5-0.9,0.8-2.5,1.2-4.4h3.4c0.9,7.1,1.3,8.9,2.5,9c0.9,0.1,1.3-0.9,1.6-2c0.5-1.7,0.8-4.2,1-7h2.8
		c0,10.9,0.4,18.1,2.4,20.1c0.4,0.4,0.9,0.6,1.4,0.6l0,0c0.5,0,1-0.3,1.5-0.7c2.1-2.3,3.2-10.8,3-20h2.1c0.8,8.2,1.2,11.3,2.8,11.5
		c1,0.1,1.8-1,2.8-4l-1.4-0.4c-0.6,2-1.1,2.7-1.3,3c-0.7-1.1-1.2-6.1-1.5-9.9h12V124.7z M45.6,122.9c0.8-0.1,1.4,0.1,1.6,0.7
		c0.2,0.4,0.3,0.8,0.4,1.1h-4C44.1,123.7,44.7,123,45.6,122.9z M50.8,128.4c-0.1-0.1-0.4-0.3-0.8-1.3c-0.1-0.3-0.2-0.6-0.4-1h2.5
		C51.9,127,51.4,128.2,50.8,128.4z M54.2,124.7c0-0.1,0-0.1,0.1-0.2c0.3-0.8,1.1-3.4,1.9-3.6c0.2,0,0.4,0.1,0.5,0.3
		c0.7,0.6,0.9,2.1,1,3.5H54.2z M60.9,131.3c-0.4,2.6-0.7,3.7-0.9,4.1c-0.4-0.9-1-3.5-1-7.1c0-0.3,0-0.6,0-0.9c0-0.4,0-0.8,0-1.3h2.3
		C61.3,127.9,61.2,129.6,60.9,131.3z M62.9,124.7c0-1.4,0.1-2.8,0.1-4.1c0.1-4.7,0.1-9.5,1.5-10.1l0.1,0l0.1,0
		c0.4,0.2,2.1,1.7,2.3,14.2H62.9z M70.2,129.8c-0.5,0.9-0.8,1.1-0.8,1.2c-0.4-0.3-0.8-2.1-1-3.8c0-0.4,0-0.8,0-1.1h2.8
		C70.9,127.7,70.6,129.2,70.2,129.8z M73.2,123.6c0.4-2.1,1-5.2,1.4-6.3c0,0.1,0.1,0.2,0.2,0.4c0.4,1.2,0.8,4,1.1,6.9H73
		C73,124.3,73.1,124,73.2,123.6z M78.8,132.7c-0.1,0.2-0.1,0.4-0.2,0.5c-0.4-1.4-0.8-4.6-1.1-7.1h2.2
		C79.6,128.8,79.3,131.1,78.8,132.7z M81.5,115.4c0.1-5.9,0.2-14.9,1.4-15.4c1.3,0.9,1.2,11.7,1.1,19.6c0,1.7,0,3.4,0,5h-2.8
		C81.4,121.8,81.4,118.6,81.5,115.4z M88.2,145.1c-0.2,0.2-0.3,0.3-0.4,0.3c0,0-0.2,0-0.4-0.2c-1.7-1.7-2-10.4-2-19.1h5.3
		C91,135.3,89.8,143.3,88.2,145.1z M92.1,124.7c-0.1-2.4-0.3-4.8-0.6-7.2c-0.1-1.1,0.3-2.1,0.8-2.5c0.2-0.1,0.2-0.1,0.3-0.1
		c0.4,0.2,1.1,1.6,1.1,5.5c0,1.1,0,2.6,0.2,4.2H92.1z M99.1,127.1c0,0.4-0.1,0.8-0.1,1.2c0,0-0.3,3.7-0.5,4.8c-0.3,2-0.6,2.7-0.8,3
		c-0.8-0.9-1.8-5.2-2.3-10.1h3.8C99.1,126.4,99.1,126.8,99.1,127.1z M102.6,122.9c0.8-0.1,1.4,0.1,1.6,0.7c0.2,0.4,0.3,0.8,0.4,1.1
		h-3.8C101.2,123.7,101.6,123,102.6,122.9z M107.8,128.4c-0.1-0.1-0.4-0.3-0.8-1.3c-0.1-0.3-0.2-0.6-0.4-1h2.5
		C108.9,127,108.3,128.2,107.8,128.4z M111.2,124.7c0-0.1,0-0.1,0.1-0.2c0.3-0.8,1.1-3.4,1.9-3.6c0.2,0,0.4,0.1,0.5,0.3
		c0.7,0.6,0.9,2.1,1,3.5H111.2z M117.9,131.3c-0.4,2.6-0.7,3.7-0.9,4.1c-0.4-0.9-1-3.5-1-7.1c0-0.3,0-0.6,0-0.9c0-0.4,0-0.8,0-1.3
		h2.3C118.3,127.9,118.2,129.6,117.9,131.3z M119.9,124.7c0-1.4,0.1-2.8,0.1-4.1c0.1-4.7,0.1-9.5,1.5-10.1l0.1,0l0.1,0
		c0.4,0.2,2.1,1.7,2.3,14.2H119.9z M127.2,129.8c-0.5,0.9-0.8,1.1-0.8,1.2c-0.4-0.3-0.8-2.1-1-3.8c0-0.4,0-0.8,0-1.1h2.8
		C127.9,127.7,127.6,129.2,127.2,129.8z M130.2,123.6c0.4-2.1,1-5.2,1.4-6.3c0,0.1,0.1,0.2,0.2,0.4c0.4,1.2,0.8,4,1.1,6.9H130
		C130,124.3,130.1,124,130.2,123.6z M135.8,132.7c-0.1,0.2-0.1,0.4-0.2,0.5c-0.4-1.4-0.8-4.6-1.1-7.1h2.2
		C136.6,128.8,136.3,131.1,135.8,132.7z M138.5,115.4c0.1-5.9,0.2-14.9,1.4-15.4c1.3,0.9,1.2,11.7,1.1,19.6c0,1.7,0,3.4,0,5h-2.8
		C138.4,121.8,138.4,118.6,138.5,115.4z M145.1,145.1c-0.1,0.2-0.3,0.3-0.4,0.3c0,0-0.2,0-0.4-0.2c-1.7-1.7-2-10.4-2-19.1h5.3
		C148,135.3,146.8,143.3,145.1,145.1z M148.5,117.5c-0.2-1.4,0.3-2.4,0.5-2.5c0,0,1,0.5,1.6,5.6c0.2,1.3,0.3,2.7,0.4,4.1h-2
		C149,122.3,148.8,119.8,148.5,117.5z" />
	</g>
</svg>