<svg width="200" height="200" version="1.1" viewBox="0 0 200 200" xml:space="preserve"
	xmlns:xlink="http://www.w3.org/1999/xlink" xmlns="http://www.w3.org/2000/svg">
	<style>
		.ansible {
			fill: #fff;
		}
	</style>
	<rect width="200" height="200" style="fill: var(--bg, #000); rx: var(--rx, 24px); filter: var(--filter);" />
	<path class="ansible" d="M165.2,159.8l-36.8-87.9c-5.7-13.2-11.4-27.4-17-40.7c-0.8-2.7-3-4.8-5.7-5.7c-5.7-1.9-9.5,1-12.3,6.6
	c-19.9,46.3-38.8,93.6-58.6,140c0,1-1,1.9-1,2.8h18.9c1.9,0,1.9-1,2.8-1.9c3.8-8.5,6.6-18,10.4-26.4c3.5-10.6,7.6-21.1,12.3-31.3
	c1,1,1,1,1.9,1c19.9,16,39.7,31.1,58.6,47.3c3.9,3.4,8,6.6,12.3,9.5c4.4,3.1,10.4,2,13.5-2.4c0.9-1.2,1.4-2.7,1.6-4.2
	C166.3,164.2,166,162,165.2,159.8z M129.3,133.4c-14.2-11.4-28.4-21.8-42.5-33.1c-1-1-1.9-1-1-2.8c4.8-14.2,10.4-28.4,17.1-43.5
	c11.4,29.3,23.6,57.7,35,86.1C135,138.1,132.1,135.3,129.3,133.4z" />
</svg>