<svg width="200" height="200" version="1.1" viewBox="0 0 200 200" xml:space="preserve"
	xmlns:xlink="http://www.w3.org/1999/xlink" xmlns="http://www.w3.org/2000/svg">
	<style>
		.apollo {
			fill: #15252D;
		}
	</style>
	<rect width="200" height="200" style="fill: var(--bg, #ffeadb); rx: var(--rx, 24px); filter: var(--filter);" />
	<path class="apollo" d="M132.4,120.7l-3.4-9.7l-4.5-12.8l-3.3-9.3L117,76.7l-5-14.1H87.9l-3.8,10.9l-3.4,9.7l-17,48.3h15.9l5-14.1h24.1
	l-4.3-12.1H88.8l3.3-9.3l6.8-19.4l1.1-3.2l1.1,3.2l19.3,54.9l0,0h15.9L132.4,120.7L132.4,120.7z M165.4,63.2
	c-0.4-0.7-1.1-1.2-1.8-1.4c-0.8-0.2-1.6-0.1-2.3,0.3c-0.7,0.4-1.2,1.1-1.4,1.8c-0.2,0.8-0.1,1.6,0.3,2.3
	c8.1,14.4,10.8,31.3,7.5,47.5s-12.3,30.7-25.5,40.8c-13.1,10.1-29.4,15.1-46,14.2c-16.5-0.9-32.2-7.8-44-19.3
	c-11.9-11.5-19.2-26.9-20.7-43.4C29.9,89.5,34.5,73,44.2,59.6c9.7-13.4,23.9-22.9,40-26.7c16.1-3.8,33.1-1.7,47.7,6
	c-0.5,2.2-0.2,4.4,0.9,6.4c1,2,2.7,3.5,4.8,4.3c4.2,1.7,9.1,0.1,11.5-3.8c1.2-1.9,1.6-4.1,1.3-6.3c-0.7-4.5-4.6-7.9-9.1-7.9
	c-2.2,0-4.4,0.7-6.1,2.1c-15.9-8.5-34.4-10.9-52-6.8S50,41.2,39.4,55.8c-10.6,14.6-15.7,32.5-14.1,50.5c1.5,18,9.5,34.8,22.4,47.4
	c12.9,12.6,29.9,20.1,48,21.2s35.8-4.4,50.1-15.4c14.3-11,24.2-26.8,27.8-44.5C177.1,97.3,174.2,79,165.4,63.2
	C165.4,63.2,165.4,63.2,165.4,63.2z" />
</svg>