<svg width="200" height="200" version="1.1" viewBox="0 0 200 200" xml:space="preserve"
	xmlns:xlink="http://www.w3.org/1999/xlink" xmlns="http://www.w3.org/2000/svg">
	<style>
		.appwrite {
			fill: #FD366E;
		}
	</style>
	<rect width="200" height="200" style="fill: var(--bg, #19191c); rx: var(--rx, 24px);" />
	<path class="appwrite" d="M175,133.6v33.6H91c-24.5,0-45.9-13.5-57.3-33.6c-1.7-2.9-3.1-6-4.3-9.2c-2.4-6.2-3.9-12.9-4.4-19.9v-9.1
	c0.1-1.6,0.3-3.1,0.5-4.6c0.4-3.1,1-6.2,1.9-9.2C35.2,53.4,60.7,32.8,91,32.8c30.3,0,55.8,20.7,63.6,48.9h-35.9
	c-5.9-9.2-16.1-15.3-27.7-15.3c-11.6,0-21.8,6.1-27.7,15.3c-1.8,2.8-3.2,5.9-4.1,9.2c-0.8,2.9-1.2,6-1.2,9.2c0,9.6,4,18.3,10.4,24.4
	c5.9,5.7,13.9,9.2,22.7,9.2H175z M175,90.8v33.6h-61.3c6.4-6.1,10.4-14.8,10.4-24.4c0-3.2-0.4-6.3-1.2-9.2H175z" />
</svg>