<svg width="200" height="200" version="1.1" viewBox="0 0 200 200" xml:space="preserve"
	xmlns:xlink="http://www.w3.org/1999/xlink" xmlns="http://www.w3.org/2000/svg">
	<style>
		.arch-linux {
			fill: #1793D1;
		}
	</style>
	<rect width="200" height="200" style="fill: var(--bg, #333333); rx: var(--rx, 24px);" />
	<path class="arch-linux" d="M100,25c-6.6,16.4-10.8,26.7-18.3,42.7c4.7,5.2,10.3,10.8,19.2,16.9c-9.8-3.8-16.4-8-21.1-12.2
	C70,92.5,55,120.6,25,175.5c23.4-14.1,42.2-22.5,59.5-25.8c-0.9-3.3-1.4-6.6-1.4-10.3v-0.5c0.5-15.5,8.4-27.2,17.8-26.3
	c9.4,0.5,16.9,13.6,16.4,29.1l-0.9,8c16.9,3.3,35.2,12.2,58.6,25.3l-12.7-23.4c-6.1-4.7-12.7-10.8-25.8-17.8
	c8.9,2.3,15.5,5.2,20.6,8C116.9,67.2,113.6,57.3,100,24.5V25z" />
</svg>