<svg width="200" height="200" version="1.1" viewBox="0 0 200 200" xml:space="preserve"
	xmlns:xlink="http://www.w3.org/1999/xlink" xmlns="http://www.w3.org/2000/svg">
	<style>
		.astro--fragment-0 {
			fill: url(#gradientSegment0);
		}

		.astro--fragment-1 {
			fill: #FFFFFF;
		}
	</style>
	<rect width="200" height="200" style="fill: var(--bg, #17191e); rx: var(--rx, 24);" />
	<g>
		<linearGradient id="gradientSegment0" gradientUnits="userSpaceOnUse" x1="65.3937" y1="40.07" x2="130.8258"
			y2="70.9857" gradientTransform="matrix(1 0 0 -1 0 201)">
			<stop stop-color="#D83333" offset="0" />
			<stop stop-color="#F041FF" offset="1" />
		</linearGradient>
		<path class="astro--fragment-0" d="M79.2,152.8c-6.8-6.2-8.8-19.2-5.9-28.6C78.2,130.1,85,132,92,133c10.8,1.6,21.5,1,31.6-3.9
		c1.2-0.6,2.2-1.3,3.5-2.1c0.9,2.7,1.2,5.5,0.9,8.3c-0.8,6.9-4.2,12.2-9.7,16.2c-2.2,1.6-4.5,3-6.7,4.6c-6.9,4.7-8.8,10.1-6.2,18.1
		c0.1,0.2,0.1,0.4,0.3,0.9c-3.5-1.6-6.1-3.9-8-6.9c-2.1-3.2-3.1-6.7-3.1-10.5c0-1.9,0-3.7-0.3-5.6c-0.6-4.5-2.7-6.5-6.6-6.6
		c-4-0.1-7.2,2.4-8.1,6.3C79.4,152.1,79.3,152.4,79.2,152.8L79.2,152.8z" />
		<path class="astro--fragment-1" d="M40.5,122.6c0,0,20.1-9.8,40.2-9.8l15.2-47c0.6-2.3,2.2-3.8,4.1-3.8s3.5,1.5,4.1,3.8l15.2,47
		c23.8,0,40.2,9.8,40.2,9.8s-34.1-92.9-34.2-93c-1-2.7-2.6-4.5-4.9-4.5H79.6c-2.2,0-3.8,1.8-4.9,4.5
		C74.6,29.7,40.5,122.6,40.5,122.6z" />
	</g>
</svg>