<svg width="200" height="200" version="1.1" viewBox="0 0 200 200" xml:space="preserve"
	xmlns:xlink="http://www.w3.org/1999/xlink" xmlns="http://www.w3.org/2000/svg">
	<style>
		.auth0 {
			fill: #fff;
		}
	</style>
	<rect width="200" height="200" style="fill: var(--bg, #111); rx: var(--rx, 24px);" />
	<path class="auth0"
		d="M46.2,90.1c24.6-4.1,43.9-24.4,47.9-49l1.4-11.8c0.3-1.9-0.9-4.5-3.3-4.3C73.5,26.5,56,32.6,46.2,36.6
	c-4.8,2-8,6.7-8,11.9v38.6c0,2.3,2,4,4.3,3.7L46.2,90.1L46.2,90.1z M105.9,41.2c4.1,24.6,23.3,44.9,47.9,49l3.6,0.6
	c2.3,0.4,4.3-1.4,4.3-3.7V48.5c0-5.2-3.2-9.9-8-11.9c-9.8-4-27.3-10.1-45.9-11.6c-2.4-0.2-3.6,2.5-3.3,4.3L105.9,41.2L105.9,41.2z
	M153.8,100.9c-33.6,6.6-49.2,29-49.2,71.3c0,2.1,2.1,3.6,3.9,2.4c15.5-10.4,49.5-37.6,53-71.7C161.6,98.6,156.2,100.6,153.8,100.9z
	M46.2,100.9c33.6,6.6,49.2,29,49.2,71.3c0,2.1-2.1,3.6-3.9,2.4c-15.5-10.4-49.5-37.6-53-71.7C38.4,98.6,43.8,100.7,46.2,100.9z" />
</svg>