<svg width="200" height="200" version="1.1" viewBox="0 0 200 200" xml:space="preserve"
	xmlns:xlink="http://www.w3.org/1999/xlink" xmlns="http://www.w3.org/2000/svg">
	<style>
		.aws--fragment-0 {
			fill: #252F3E;
		}

		.aws--fragment-1 {
			fill: #FF9900;
		}
	</style>
	<rect width="200" height="200" style="fill: var(--bg, #fff); rx: var(--rx, 24px);" />
	<g>
		<path class="aws--fragment-0" d="M67.3,87.7c0,1.8,0.2,3.3,0.5,4.4c0.4,1.1,0.9,2.3,1.6,3.6c0.2,0.4,0.3,0.8,0.3,1.1c0,0.5-0.3,1-0.9,1.5
		l-3.1,2.1c-0.4,0.3-0.9,0.4-1.3,0.4c-0.5,0-1-0.2-1.5-0.7c-0.7-0.7-1.3-1.5-1.8-2.3c-0.5-0.8-1-1.8-1.5-2.9
		c-3.9,4.6-8.8,6.9-14.7,6.9c-4.2,0-7.5-1.2-10-3.6c-2.4-2.4-3.7-5.6-3.7-9.6c0-4.2,1.5-7.7,4.5-10.3c3-2.6,7.1-3.9,12.2-3.9
		c1.7,0,3.4,0.1,5.3,0.4c1.8,0.2,3.7,0.6,5.7,1.1v-3.6c0-3.8-0.8-6.4-2.3-8c-1.6-1.5-4.3-2.3-8.1-2.3c-1.7,0-3.5,0.2-5.4,0.6
		c-1.8,0.4-3.6,1-5.4,1.7c-0.8,0.3-1.4,0.5-1.7,0.6c-0.3,0.1-0.6,0.1-0.8,0.1c-0.7,0-1-0.5-1-1.5v-2.4c0-0.8,0.1-1.4,0.3-1.7
		c0.2-0.3,0.7-0.7,1.4-1c1.7-0.9,3.8-1.6,6.3-2.2c2.4-0.6,5-0.9,7.8-0.9c5.9,0,10.3,1.3,13.1,4c2.7,2.7,4.1,6.8,4.1,12.3L67.3,87.7
		L67.3,87.7z M47,95.3c1.6,0,3.3-0.3,5.1-0.9c1.8-0.6,3.4-1.7,4.7-3.2c0.8-0.9,1.4-2,1.7-3.2c0.3-1.2,0.5-2.6,0.5-4.3v-2.1
		c-1.4-0.3-3-0.6-4.6-0.8c-1.6-0.2-3.1-0.3-4.7-0.3c-3.3,0-5.8,0.6-7.4,2c-1.6,1.3-2.4,3.2-2.4,5.7c0,2.3,0.6,4.1,1.8,5.3
		C43,94.7,44.7,95.3,47,95.3z M87.1,100.7c-0.9,0-1.5-0.1-1.9-0.5c-0.4-0.3-0.7-1-1-1.9L72.4,59.7c-0.3-1-0.4-1.6-0.4-2
		c0-0.8,0.4-1.2,1.2-1.2H78c0.9,0,1.6,0.1,1.9,0.5c0.4,0.3,0.7,1,1,1.9l8.4,33l7.8-33c0.2-1,0.5-1.6,0.9-1.9s1.1-0.5,2-0.5h4
		c0.9,0,1.6,0.1,2,0.5c0.4,0.3,0.7,1,0.9,1.9l7.9,33.4l8.6-33.4c0.3-1,0.6-1.6,1-1.9c0.4-0.3,1-0.5,1.9-0.5h4.6
		c0.8,0,1.2,0.4,1.2,1.2c0,0.2,0,0.5-0.1,0.8c0,0.3-0.1,0.7-0.3,1.2l-12,38.6c-0.3,1-0.6,1.6-1,1.9c-0.4,0.3-1,0.5-1.9,0.5h-4.3
		c-0.9,0-1.6-0.1-2-0.5c-0.4-0.3-0.7-1-0.9-2L102,66.1l-7.7,32.1c-0.2,1-0.5,1.6-0.9,2c-0.4,0.3-1.1,0.5-2,0.5H87.1z M151.2,102
		c-2.6,0-5.2-0.3-7.7-0.9c-2.5-0.6-4.4-1.2-5.7-2c-0.8-0.4-1.3-0.9-1.5-1.4s-0.3-0.9-0.3-1.4v-2.5c0-1,0.4-1.5,1.1-1.5
		c0.3,0,0.6,0,0.9,0.1s0.7,0.3,1.2,0.5c1.7,0.7,3.5,1.3,5.5,1.7c2,0.4,3.9,0.6,5.9,0.6c3.1,0,5.6-0.5,7.3-1.6
		c1.7-1.1,2.6-2.7,2.6-4.7c0-1.4-0.4-2.5-1.3-3.5c-0.9-0.9-2.6-1.8-5-2.6l-7.2-2.2c-3.6-1.1-6.3-2.8-8-5.1c-1.6-2.2-2.5-4.6-2.5-7.2
		c0-2.1,0.4-3.9,1.3-5.5s2.1-3,3.6-4.1c1.5-1.1,3.2-2,5.2-2.6c2-0.6,4.1-0.8,6.3-0.8c1.1,0,2.2,0,3.3,0.2c1.1,0.1,2.2,0.3,3.2,0.5
		c1,0.2,1.9,0.5,2.8,0.8s1.6,0.6,2.1,0.9c0.7,0.4,1.2,0.8,1.5,1.2c0.3,0.4,0.4,0.9,0.4,1.6v2.3c0,1-0.4,1.6-1.1,1.6
		c-0.4,0-1-0.2-1.9-0.6c-2.8-1.3-6-1.9-9.6-1.9c-2.8,0-5.1,0.4-6.6,1.4c-1.5,0.9-2.3,2.4-2.3,4.4c0,1.4,0.5,2.6,1.5,3.5
		c1,0.9,2.8,1.9,5.5,2.7l7.1,2.2c3.6,1.1,6.2,2.7,7.7,4.8s2.3,4.4,2.3,7c0,2.1-0.4,4.1-1.3,5.8c-0.9,1.7-2.1,3.2-3.6,4.4
		c-1.5,1.2-3.4,2.1-5.5,2.8C156.1,101.7,153.7,102,151.2,102z" />
		<path class="aws--fragment-1" d="M160.6,126.3c-16.4,12.1-40.3,18.6-60.8,18.6c-28.7,0-54.6-10.6-74.2-28.3c-1.5-1.4-0.1-3.3,1.7-2.2
		c21.2,12.3,47.2,19.7,74.2,19.7c18.2,0,38.2-3.8,56.6-11.6C161,121.3,163.3,124.3,160.6,126.3z M167.4,118.5
		c-2.1-2.7-13.9-1.3-19.2-0.6c-1.6,0.2-1.8-1.2-0.4-2.2c9.4-6.6,24.8-4.7,26.6-2.5c1.8,2.2-0.5,17.7-9.3,25c-1.3,1.1-2.6,0.5-2-0.9
		C165.1,132.3,169.5,121.2,167.4,118.5z" />
	</g>
</svg>