<svg width="200" height="200" version="1.1" viewBox="0 0 200 200" xml:space="preserve"
	xmlns:xlink="http://www.w3.org/1999/xlink" xmlns="http://www.w3.org/2000/svg">
	<style>
		.azure {
			fill: #0089D6;
		}
	</style>
	<rect width="200" height="200" style="fill: var(--bg, #fff); rx: var(--rx, 24);" />
	<path class="azure"
		d="M94.4,159.7c19.3-3.9,35.2-7.2,35.4-7.2l0.3-0.1l-18.2-24.9c-10-13.7-18.2-25-18.2-25
	c0-0.1,18.8-59.7,18.9-59.9c0-0.1,12.8,25.3,31,61.6l31.2,62.2l0.2,0.5h-57.8H59.4L94.4,159.7z M25,152.1c0,0,8.6-17.2,19-38.1
	l19-38l22.2-21.4c12.2-11.8,22.2-21.5,22.3-21.5c-0.1,0.4-0.2,0.7-0.4,1L83.1,93.7l-23.7,58.5H42.2C32.7,152.2,25,152.2,25,152.1z" />
</svg>