<svg width="200" height="200" version="1.1" viewBox="0 0 200 200" xml:space="preserve"
	xmlns:xlink="http://www.w3.org/1999/xlink" xmlns="http://www.w3.org/2000/svg">
	<style>
		.bash {
			fill: #000;
		}
	</style>
	<rect width="200" height="200" style="fill: var(--bg, #fff); rx: var(--rx, 24);" />
	<path class="bash" d="M164.6,49.3l-54.1-32.1c-3.2-1.9-6.8-2.9-10.4-2.9s-7.2,1-10.4,2.9L35.4,49.3C29,53.1,25,60.2,25,67.9v64.3
	c0,7.7,4,14.8,10.4,18.6l54.1,32.1c3.2,1.9,6.8,2.9,10.4,2.9s7.2-1,10.4-2.9l54.1-32.1c6.5-3.8,10.4-10.9,10.4-18.6V67.9
	C175,60.2,171,53.1,164.6,49.3z M122.6,149.6l0.1,4.6c0,0.6-0.4,1.2-0.8,1.4l-2.7,1.6c-0.4,0.2-0.8-0.1-0.8-0.6l0-4.5
	c-2.3,1-4.7,1.2-6.2,0.6c-0.3-0.1-0.4-0.5-0.3-1l1-4.2c0.1-0.3,0.3-0.7,0.5-0.9c0.1-0.1,0.2-0.1,0.3-0.2c0.2-0.1,0.3-0.1,0.4,0
	c1.6,0.5,3.7,0.3,5.7-0.7c2.6-1.3,4.3-3.9,4.2-6.5c0-2.3-1.3-3.3-4.4-3.3c-3.9,0-7.6-0.8-7.7-6.6c-0.1-4.8,2.4-9.7,6.3-12.9l0-4.7
	c0-0.6,0.3-1.2,0.8-1.4l2.6-1.7c0.4-0.2,0.8,0.1,0.8,0.6l0,4.7c2-0.8,3.7-1,5.2-0.6c0.3,0.1,0.5,0.5,0.3,1.1l-1,4.1
	c-0.1,0.3-0.3,0.6-0.5,0.8c-0.1,0.1-0.2,0.2-0.3,0.2c-0.1,0.1-0.3,0.1-0.4,0.1c-0.7-0.2-2.4-0.5-5,0.8c-2.8,1.4-3.7,3.8-3.7,5.6
	c0,2.1,1.1,2.8,4.9,2.8c5,0.1,7.2,2.3,7.2,7.3C129.3,141.1,126.7,146.4,122.6,149.6z M151,141.8c0,0.4-0.1,0.8-0.4,1l-13.7,8.3
	c-0.4,0.2-0.6,0-0.6-0.4v-3.5c0-0.4,0.3-0.7,0.6-0.9l13.5-8.1c0.4-0.2,0.6,0,0.6,0.4C151,138.7,151,141.8,151,141.8z M160.4,62.8
	l-51.2,31.6c-6.4,3.7-11.1,7.9-11.1,15.6v63.1c0,4.6,1.9,7.6,4.7,8.5c-0.9,0.2-1.9,0.3-2.8,0.3c-3,0-5.9-0.8-8.5-2.4l-54.1-32.1
	c-5.3-3.1-8.6-9-8.6-15.3V67.9c0-6.3,3.3-12.2,8.6-15.3l54.1-32.1c2.6-1.5,5.6-2.4,8.5-2.4c3,0,6,0.8,8.6,2.4l54.1,32.1
	c4.5,2.6,7.5,7.2,8.3,12.4C169.2,61.1,165.1,60.1,160.4,62.8z" />
</svg>