<svg width="200" height="200" version="1.1" viewBox="0 0 200 200" xml:space="preserve"
	xmlns:xlink="http://www.w3.org/1999/xlink" xmlns="http://www.w3.org/2000/svg">
	<style>
		.big-query--fragment-0 {
			fill: #34A853;
		}

		.big-query--fragment-1 {
			fill: #FBBC04;
		}

		.big-query--fragment-2 {
			fill: #EA4335;
		}

		.big-query--fragment-3 {
			fill: #4285F4;
		}
	</style>
	<rect width="200" height="200" style="fill: var(--bg, #fff); rx: var(--rx, 24px); filter: var(--filter);" />
	<g>
		<path class="big-query--fragment-0" d="M117.3,151.9c-3.2,0-5.8-2.6-5.8-5.8V100c0-3.2,2.6-5.8,5.8-5.8s5.8,2.6,5.8,5.8v46.1
		C123.1,149.3,120.5,151.9,117.3,151.9z M65.4,151.9c-3.2,0-5.8-2.6-5.8-5.8V82.7c0-3.2,2.6-5.8,5.8-5.8s5.8,2.6,5.8,5.8v63.4
		C71.2,149.3,68.6,151.9,65.4,151.9z M91.3,157.7c-3.2,0-5.8-2.6-5.8-5.8V65.4c0-3.2,2.6-5.8,5.8-5.8c3.2,0,5.8,2.6,5.8,5.8v86.5
		C97.1,155.1,94.5,157.7,91.3,157.7z" />
		<path class="big-query--fragment-1" d="M91.3,157.7c-36.6,0-66.3-29.8-66.3-66.3h11.5c0,30.2,24.6,54.8,54.8,54.8s54.8-24.6,54.8-54.8h11.5
		C157.7,127.9,127.9,157.7,91.3,157.7z" />
		<path class="big-query--fragment-2" d="M157.7,91.3h-11.5c0-30.2-24.6-54.8-54.8-54.8S36.5,61.1,36.5,91.3H25C25,54.8,54.8,25,91.3,25
		S157.7,54.8,157.7,91.3z" />
		<path class="big-query--fragment-3" d="M173.3,165.2L142.2,134c10.1-11.9,15.5-26.9,15.5-42.7c0-17.7-6.9-34.4-19.4-46.9l-8.2,8.2
		c20,20,21.3,51.7,3.9,73.2l0,0c-2.4,3-5.2,5.7-8.2,8.2l4.3,4.3c0,0,0,0,0,0l35.1,35.1c0.7,0.7,1.5,1.2,2.4,1.5
		c0.5,0.2,1.1,0.2,1.6,0.2l0,0c0,0,0,0,0,0l0,0c1.5,0,3-0.6,4.1-1.7c0.3-0.3,0.5-0.6,0.7-0.9c0.6-1,1-2.1,1-3.2
		C175,167.8,174.4,166.3,173.3,165.2z" />
	</g>
</svg>