<svg width="200" height="200" version="1.1" viewBox="0 0 200 200" xml:space="preserve"
	xmlns:xlink="http://www.w3.org/1999/xlink" xmlns="http://www.w3.org/2000/svg">
	<style>
		.bitcoin {
			fill: #fff;
		}
	</style>
	<rect width="200" height="200" style="fill: var(--bg, #F7931A); rx: var(--rx, 24px); filter: var(--filter);" />
	<path class="bitcoin"
		d="M156.4,85.3c2.4-15.8-9.6-24.2-26.1-29.9l5.3-21.4l-13-3.2l-5.2,20.8c-3.4-0.9-6.9-1.7-10.4-2.5l5.2-20.9
	l-13-3.2l-5.3,21.3c-2.8-0.6-5.6-1.3-8.3-2l0-0.1l-17.9-4.5l-3.5,13.9c0,0,9.6,2.2,9.4,2.3c5.3,1.3,6.2,4.8,6.1,7.6L73.7,88
	c0.4,0.1,0.8,0.2,1.4,0.4c-0.4-0.1-0.9-0.2-1.4-0.3l-8.5,34.1c-0.6,1.6-2.3,4-6,3.1c0.1,0.2-9.4-2.4-9.4-2.4l-6.5,14.9l16.9,4.2
	c3.1,0.8,6.2,1.6,9.3,2.4l-5.4,21.6l13,3.2l5.3-21.4c3.5,1,7,1.9,10.4,2.7l-5.3,21.3l13,3.2l5.4-21.6c22.2,4.2,38.8,2.5,45.8-17.5
	c5.7-16.1-0.3-25.4-11.9-31.5C148.3,102.4,154.7,96.8,156.4,85.3z M126.7,126.9c-4,16.1-31.2,7.4-40,5.2l7.1-28.6
	C102.6,105.8,130.9,110.1,126.7,126.9z M130.7,85.1c-3.7,14.7-26.3,7.2-33.6,5.4l6.5-25.9C110.9,66.3,134.5,69.8,130.7,85.1z" />
</svg>