<svg width="200" height="200" version="1.1" viewBox="0 0 200 200" xml:space="preserve"
	xmlns:xlink="http://www.w3.org/1999/xlink" xmlns="http://www.w3.org/2000/svg">
	<style>
		.blender--fragment-0 {
			fill: #FFFFFF;
		}

		.blender--fragment-1 {
			fill: #265787;
		}

		.blender--fragment-2 {
			fill: #EA7600;
		}
	</style>
	<rect width="200" height="200" style="fill: var(--bg, #fff); rx: var(--rx, 24px); filter: var(--filter);" />
	<g>
		<path class="blender--fragment-0" d="M83.8,106.6c0.5-9.7,5.3-18.3,12.5-24.4c7-6,16.5-9.6,26.9-9.6c10.3,0,19.8,3.6,26.9,9.6
		c7.2,6.1,11.9,14.6,12.5,24.4c0.5,10-3.5,19.3-10.5,26.2c-7.2,7-17.4,11.4-28.9,11.4c-11.4,0-21.7-4.4-28.9-11.4
		C87.3,125.8,83.3,116.6,83.8,106.6z" />
		<path class="blender--fragment-1" d="M103,107.4c0.3-5,2.7-9.4,6.4-12.5c3.6-3.1,8.5-4.9,13.8-4.9c5.3,0,10.2,1.9,13.8,4.9
		c3.7,3.1,6.1,7.5,6.4,12.5c0.3,5.1-1.8,9.9-5.4,13.4c-3.7,3.6-8.9,5.8-14.8,5.8c-5.9,0-11.1-2.3-14.8-5.8
		C104.8,117.3,102.7,112.6,103,107.4z" />
		<path class="blender--fragment-2" d="M70.9,117.7c0,2,0.7,5.8,1.6,8.7c2,6.3,5.3,12.1,10,17.2c4.8,5.3,10.6,9.5,17.4,12.5
		c7.1,3.2,14.9,4.8,22.9,4.8c8,0,15.7-1.7,22.9-4.8c6.8-3,12.6-7.3,17.4-12.6c4.6-5.1,8-11,10-17.3c1-3.2,1.6-6.4,1.9-9.6
		c0.2-3.2,0.1-6.4-0.3-9.6c-0.9-6.2-3-12.1-6.3-17.4c-3-4.9-6.9-9.2-11.6-12.8l0,0l-46.9-36c0,0-0.1-0.1-0.1-0.1
		c-3.1-2.4-8.2-2.4-11.6,0c-3.4,2.4-3.8,6.3-0.8,8.8l0,0l19.5,15.9l-59.6,0.1h-0.1c-4.9,0-9.7,3.2-10.6,7.3c-1,4.2,2.4,7.6,7.5,7.6
		l0,0l30.2-0.1l-53.9,41.4c-0.1,0.1-0.1,0.1-0.2,0.2c-5.1,3.9-6.7,10.4-3.5,14.5c3.2,4.2,10.2,4.2,15.3,0l29.4-24.1
		C71.3,112.5,70.9,115.7,70.9,117.7z M146.5,128.6c-6.1,6.2-14.5,9.7-23.7,9.7c-9.2,0-17.7-3.5-23.7-9.6c-3-3-5.1-6.5-6.5-10.1
		c-1.3-3.6-1.8-7.5-1.5-11.3c0.3-3.8,1.4-7.4,3.2-10.7c1.8-3.2,4.2-6.1,7.2-8.6c5.9-4.8,13.4-7.4,21.2-7.4c7.8,0,15.3,2.6,21.2,7.3
		c3,2.4,5.4,5.3,7.2,8.5c1.8,3.3,2.9,6.9,3.3,10.7c0.3,3.9-0.2,7.7-1.5,11.3C151.6,122.1,149.5,125.6,146.5,128.6z" />
	</g>
</svg>