<svg width="200" height="200" version="1.1" viewBox="0 0 200 200" xml:space="preserve"
	xmlns:xlink="http://www.w3.org/1999/xlink" xmlns="http://www.w3.org/2000/svg">
	<style>
		.bower--fragment-0 {
			fill: #543729;
		}

		.bower--fragment-1 {
			fill: #00ACEE;
		}

		.bower--fragment-2 {
			fill: #2BAF2B;
		}

		.bower--fragment-3 {
			fill: #FFCC2F;
		}

		.bower--fragment-4 {
			fill: #CECECE;
		}

		.bower--fragment-5 {
			fill: #EF5734;
		}

		.bower--fragment-6 {
			fill: #FFFFFF;
		}
	</style>
	<rect width="200" height="200" style="fill: var(--bg, #ffcc2f); rx: var(--rx, 24px);" />
	<g>
		<path class="bower--fragment-0" d="M172.1,98.5c-7.7-7.4-46.3-12-58.5-13.4c0.6-1.4,1.1-2.8,1.5-4.3c1.7-0.7,3.5-1.4,5.3-2
		c0.2,0.7,1.3,3.2,1.9,4.4c24.5,0.7,25.7-18.2,26.7-23.4c1-5.1,0.9-9.9,9.3-18.9c-12.5-3.6-30.5,5.6-36.5,19.5
		c-2.3-0.8-4.5-1.5-6.8-1.9c-1.6-6.5-10-24.6-32-24.6C55.3,34.1,25,57,25,95.9c0,32.7,22.3,61.3,34.9,61.3c5.5,0,10.2-4.1,11.3-7.8
		c0.9,2.5,3.8,10.4,4.7,12.4c1.4,3,7.8,5.5,10.6,2.5c3.6,2,10.2,3.2,13.8-2.1c7,1.5,13.1-2.7,13.2-7.6c3.4-0.2,5.1-5,4.3-8.8
		c-0.5-2.8-6.4-12.9-8.7-16.4c4.5,3.7,16,4.7,17.4,0c7.3,5.7,18.7,2.7,19.6-1.9c8.9,2.3,19.1-2.8,17.4-8.9
		C178,117.5,176.1,102.3,172.1,98.5L172.1,98.5z" />
		<path class="bower--fragment-1" d="M132.4,66.1c3.1-6.1,6.9-12.7,11.8-16.9c-5.4,2.2-10.7,8.6-13.8,15.5c-1.6-1-3.2-1.9-4.9-2.7
		c4.4-9.3,14.5-17.1,25.7-17.7c-7.5,6.8-4.8,20.9-11,28.4C138.5,71,134.5,67.6,132.4,66.1L132.4,66.1z M127.6,76
		c0-0.2,0.1-2,0.3-2.9c-0.4-0.1-3.1-0.6-4.5-0.6c-0.1,1.7,0.7,4.7,1.6,6.5c5.7-0.1,9.8-1.8,12.2-3.4c-2.1-1-5.6-1.8-8.3-2.3
		C128.6,74,127.8,75.6,127.6,76L127.6,76z" />
		<path class="bower--fragment-2" d="M106.4,124.3L106.4,124.3c-0.7-1.5-1.5-3.4-2.4-5.9c3.6,5.2,14.7,2.5,14.1-2.1c5.5,4.1,16.7-0.7,14.2-6.5
		c5.5,2.6,11.7-2.6,10.3-4.8c9.3,1.8,18.3,3.6,21.1,4.3c-1.9,3-6.1,5.2-12.5,3.7c3.5,4.7-3.3,10.4-12.6,7.3c2.1,4.6-6.3,8.8-15.7,4
		C123,128.8,111.1,129.4,106.4,124.3L106.4,124.3z M124.9,100.8c10.8,0.8,28.8,2.4,39.8,4c-0.7-3.6-2.6-4.6-8.6-6.3
		C149.7,99.3,133.2,100.9,124.9,100.8L124.9,100.8z" />
		<path class="bower--fragment-3" d="M118.2,116.2c5.5,4.1,16.7-0.7,14.2-6.5c5.5,2.6,11.7-2.6,10.3-4.8c-11-2.1-22.6-4.3-25.2-4.6
		c1.6,0.1,4.2,0.3,7.5,0.5c8.3,0,24.7-1.6,31.2-2.3c-10.5-2.7-31.9-6.5-46.7-7.5c-0.7,1-1.9,2.7-4.1,4.5
		c-6.5,13.7-18.2,22.8-31.2,22.8c-3.8,0-8-0.6-12.7-2.2c-3,3.2-15.6,5.6-25.8,0.5c8.1,19,26.9,31.7,47.7,31.7
		c17.5,0,25.3-17.9,23.6-22.6c-0.4-1.2-2-5-3-7.4C107.6,123.6,118.8,120.9,118.2,116.2L118.2,116.2z" />
		<path class="bower--fragment-4" d="M107.5,80.2c1.5-0.8,6.9-4.1,12-5.3c-0.1-0.6-0.1-1.1-0.2-1.7c-3.3,0.8-9.7,3.5-13.3-0.2c7.6,2.3,11.4-2,17-2
		c3.3,0,8.1,0.9,11.9,2.4c-3-2.8-12.9-11.2-25.2-11.2C107.1,65.4,104.1,72.6,107.5,80.2L107.5,80.2z" />
		<path class="bower--fragment-5" d="M61.4,116.2c4.7,1.5,9,2.2,12.7,2.2c13,0,24.7-9.1,31.2-22.8c-4.8,4-13.1,7.4-26.1,7.4
		c11.6-2.6,21.5-8.4,26.6-16.8c-3.6-5.7-7.4-18.2,2.4-28.1c-1.5-4.8-8.8-17.6-25-17.6c-28.3,0-51.7,23.7-51.7,55.4
		c0,7.5,1.5,14.6,4.2,20.9C45.9,121.8,58.5,119.4,61.4,116.2L61.4,116.2z" />
		<path class="bower--fragment-3"
			d="M69.9,67.9C69.9,75.1,75.8,81,83,81S96,75.1,96,67.9c0-7.2-5.9-13.1-13.1-13.1S69.9,60.7,69.9,67.9L69.9,67.9z" />
		<path class="bower--fragment-0" d="M75.2,67.9c0,4.3,3.5,7.8,7.8,7.8c4.3,0,7.8-3.5,7.8-7.8c0-4.3-3.5-7.8-7.8-7.8C78.7,60.1,75.2,63.6,75.2,67.9
		L75.2,67.9z" />
		<ellipse class="bower--fragment-6" cx="83" cy="64.5" rx="4.6" ry="2.8" />
	</g>
</svg>