<svg width="200" height="200" version="1.1" viewBox="0 0 200 200" xml:space="preserve"
	xmlns:xlink="http://www.w3.org/1999/xlink" xmlns="http://www.w3.org/2000/svg">
	<style>
		.bun--fragment-0 {
			fill: #FBF0DF;
		}

		.bun--fragment-1 {
			fill: #F6DECE;
		}

		.bun--fragment-2 {
			fill: #FFFEFC;
		}

		.bun--fragment-3 {
			fill: #CCBEA7;
		}

		.bun--fragment-4 {
			fill: #B71422;
		}

		.bun--fragment-5 {
			fill: #FF6164;
		}

		.bun--fragment-6 {
			fill: #FEBBD0;
		}

		.bun--fragment-7 {
			fill: #000000;
		}

		.bun--fragment-8 {
			fill: #FFFFFF;
		}
	</style>
	<rect width="200" height="200" style="fill: var(--bg, #14151a); rx: var(--rx, 24);" />
	<g>
		<path d="M159,72.8c-0.3-0.3-0.6-0.6-0.9-0.9s-0.6-0.6-0.9-0.9c-0.3-0.3-0.6-0.6-0.9-0.9c-0.3-0.3-0.6-0.6-0.9-0.9
		c-0.3-0.3-0.6-0.6-0.9-0.9s-0.6-0.6-0.9-0.9c-0.3-0.3-0.6-0.6-0.9-0.9c9.4,9.3,14.8,21.8,15,35.1c0,31.5-31.9,57.1-71.2,57.1
		c-22,0-41.7-8-54.7-20.6l0.9,0.9l0.9,0.9l0.9,0.9l0.9,0.9l0.9,0.9l0.9,0.9l0.9,0.9c13.1,13.1,33.2,21.6,55.7,21.6
		c39.3,0,71.2-25.6,71.2-57C175,95.5,169.2,82.8,159,72.8z" />
		<g>
			<path class="bun--fragment-0" d="M162.7,101.2c0,28.9-29.8,52.3-66.5,52.3s-66.5-23.4-66.5-52.3c0-17.9,11.4-33.7,28.9-43.1
			s28.4-19,37.6-19s17,7.8,37.6,19C151.3,67.5,162.7,83.3,162.7,101.2z" />
			<path class="bun--fragment-1" d="M162.7,101.2c0-3.7-0.5-7.4-1.5-11c-5.2,63.2-82.3,66.3-112.6,47.4
			c13.6,10.6,30.5,16.2,47.7,15.9C132.8,153.5,162.7,130.1,162.7,101.2z" />
			<path class="bun--fragment-2" d="M70.6,54.6C79.1,49.6,90.4,40,101.5,40c-1.7-0.6-3.5-0.8-5.3-0.9c-4.6,0-9.5,2.4-15.7,5.9
			c-2.1,1.3-4.4,2.6-6.7,4.1c-4.4,2.7-9.5,5.8-15.2,8.9C40.6,67.9,29.7,84,29.7,101.2c0,0.8,0,1.5,0,2.3
			C41.3,62.8,62.2,59.7,70.6,54.6z" />
			<path class="bun--fragment-3" d="M90.7,43.9C90.8,53,86.9,61.6,80,67.6c-0.5,0.5-0.1,1.4,0.6,1.1c6.4-2.5,15-9.9,11.4-24.9
			C91.9,42.9,90.7,43.2,90.7,43.9z M95,43.9c4.7,7.7,5.8,17,3.1,25.6c-0.2,0.7,0.6,1.2,1,0.7c4.2-5.3,7.8-15.9-3.1-27.3
			C95.5,42.4,94.7,43.2,95,43.9L95,43.9z M100.3,43.6c7.4,5.2,12.1,13.4,13,22.3c0,0.3,0.2,0.7,0.5,0.7c0.3,0,0.6-0.2,0.7-0.5
			c1.7-6.6,0.8-17.9-13.6-23.8C100.2,42.1,99.7,43.1,100.3,43.6L100.3,43.6z M65.2,63.4c8.8-2.6,16-8.8,19.9-17.1
			c0.3-0.7,1.4-0.4,1.3,0.3C83.1,61.8,72.1,65,65.3,64.6C64.5,64.6,64.6,63.6,65.2,63.4z" />
			<path d="M96.2,158.3c-39.3,0-71.2-25.6-71.2-57.1c0-19,11.7-36.7,31.4-47.3c5.7-3,10.6-6.1,14.9-8.8
			c2.4-1.5,4.7-2.9,6.8-4.2c6.7-3.9,12.4-6.6,18.1-6.6c5.7,0,10.7,2.3,16.9,6c1.9,1.1,3.8,2.3,5.8,3.6c4.7,2.9,10.1,6.2,17.1,10
			c19.7,10.6,31.4,28.3,31.4,47.3C167.4,132.7,135.5,158.3,96.2,158.3z M96.2,39.1c-4.6,0-9.5,2.4-15.7,5.9
			c-2.1,1.3-4.4,2.6-6.7,4.1c-4.4,2.7-9.5,5.8-15.2,8.9C40.6,67.9,29.7,84,29.7,101.2c0,28.8,29.8,52.3,66.5,52.3
			s66.5-23.5,66.5-52.3c0-17.2-10.8-33.4-28.9-43.1c-7.2-3.8-12.8-7.4-17.3-10.2c-2.1-1.3-4-2.4-5.7-3.5
			C105,41,100.8,39.1,96.2,39.1z" />
		</g>
		<g>
			<path class="bun--fragment-4" d="M109.6,115.1c-0.9,3.5-2.8,6.6-5.5,8.9c-2.1,2-4.7,3.3-7.6,3.6c-2.9-0.3-5.7-1.5-7.8-3.6
			c-2.7-2.3-4.6-5.5-5.5-8.9c-0.1-0.7,0.4-1.4,1.2-1.5c0.1,0,0.2,0,0.3,0h23.4c0.8-0.1,1.4,0.5,1.5,1.2
			C109.6,114.9,109.6,115,109.6,115.1z" />
			<path class="bun--fragment-5" d="M88.6,124.2c2.1,2,4.9,3.3,7.8,3.6c2.9-0.3,5.7-1.6,7.8-3.6c0.7-0.6,1.3-1.3,1.9-2
			c-2.4-2.7-5.7-4.3-9.3-4.4c-3.8,0.1-7.4,2.1-9.5,5.3C87.8,123.4,88.2,123.8,88.6,124.2z" />
			<path d="M110.2,113.4c-0.5-0.6-1.3-1-2.1-1H84.7c-0.8,0-1.6,0.3-2.1,1c-0.4,0.5-0.6,1.2-0.5,1.9c0.9,3.7,3,7.1,5.9,9.6
			c2.3,2.2,5.3,3.5,8.4,3.8c3.2-0.3,6.1-1.6,8.4-3.8c2.9-2.5,5-5.8,5.9-9.6C110.8,114.7,110.7,114,110.2,113.4z M103.3,123.2
			c-1.9,1.8-4.3,3-6.9,3.3c-2.6-0.3-5.1-1.5-6.9-3.3c-0.2-0.2-0.3-0.3-0.5-0.5c1.9-2.4,4.8-3.9,7.9-3.9c2.8,0.1,5.6,1.2,7.6,3.2
			c0.4-0.5,0.9-1,1.3-1.5c-2.4-2.3-5.6-3.6-8.9-3.7c-3.6,0-7,1.7-9.2,4.4c-1.6-1.8-2.7-4-3.3-6.4c0,0,0.1-0.2,0.4-0.2l23.4,0
			c0.1,0,0.3,0,0.4,0.2C107.7,118.1,105.9,121,103.3,123.2z" />
		</g>
		<g>
			<path class="bun--fragment-6" d="M125.1,103.2c6.1,0,11.1,2.9,11.1,6.5s-5,6.5-11.1,6.5c-6.1,0-11.1-2.9-11.1-6.5S119,103.2,125.1,103.2z
			M67.6,103.2c6.1,0,11.1,2.9,11.1,6.5s-5,6.5-11.1,6.5c-6.1,0-11.1-2.9-11.1-6.5S61.5,103.2,67.6,103.2z" />
			<path class="bun--fragment-7" d="M72.8,107.1c5.8,0,10.5-4.7,10.5-10.4c0-5.8-4.7-10.5-10.4-10.5c-5.8,0-10.5,4.7-10.5,10.4
			c0,0,0,0,0,0C62.4,102.4,67.1,107.1,72.8,107.1z M119.9,107.1c5.8,0,10.5-4.6,10.5-10.4c0-5.8-4.6-10.5-10.4-10.5
			c-5.8,0-10.5,4.6-10.5,10.4c0,0,0,0.1,0,0.1C109.5,102.4,114.1,107.1,119.9,107.1z" />
			<path class="bun--fragment-8" d="M69.6,97.3c2.2,0,3.9-1.7,3.9-3.9c0-2.2-1.7-3.9-3.9-3.9c-2.2,0-3.9,1.7-3.9,3.9c0,0,0,0,0,0
			C65.7,95.5,67.5,97.3,69.6,97.3z M116.7,97.3c2.2,0,3.9-1.7,3.9-3.9c0-2.2-1.7-3.9-3.9-3.9s-3.9,1.7-3.9,3.9c0,0,0,0,0,0
			C112.7,95.5,114.5,97.3,116.7,97.3L116.7,97.3z" />
		</g>
	</g>
</svg>