<svg width="200" height="200" version="1.1" viewBox="0 0 200 200" xml:space="preserve"
	xmlns:xlink="http://www.w3.org/1999/xlink" xmlns="http://www.w3.org/2000/svg">
	<style>
		.c-plus-plus--fragment-0 {
			fill: #00599C;
		}

		.c-plus-plus--fragment-1 {
			fill: #004482;
		}

		.c-plus-plus--fragment-2 {
			fill: #659AD2;
		}

		.c-plus-plus--fragment-3 {
			fill: #FFFFFF;
		}
	</style>
	<rect width="200" height="200" style="fill: var(--bg, #fff); rx: var(--rx, 24px);" />
	<g>
		<path class="c-plus-plus--fragment-0"
			d="M164.9,137.5c1-1.8,1.7-3.9,1.7-5.7V68.2c0-1.8-0.6-3.9-1.7-5.7L100,100L164.9,137.5L164.9,137.5z" />
		<path class="c-plus-plus--fragment-1" d="M105.7,173.6l55.1-31.8c1.6-0.9,3-2.5,4.1-4.3L100,100L35,137.5c1,1.8,2.5,3.4,4.1,4.3l55.1,31.8
		C97.4,175.5,102.6,175.5,105.7,173.6L105.7,173.6z" />
		<path class="c-plus-plus--fragment-2" d="M164.9,62.5c-1-1.8-2.5-3.4-4.1-4.3l-55.1-31.8c-3.2-1.8-8.4-1.8-11.5,0L39.1,58.2c-3.2,1.8-5.8,6.3-5.8,10
		v63.6c0,1.8,0.6,3.9,1.7,5.7L100,100L164.9,62.5L164.9,62.5z" />
		<path class="c-plus-plus--fragment-3" d="M100,144.4c-24.5,0-44.4-19.9-44.4-44.4S75.5,55.6,100,55.6c15.8,0,30.6,8.5,38.5,22.2l-19.2,11.1
		c-4-6.9-11.3-11.1-19.3-11.1c-12.3,0-22.2,10-22.2,22.2c0,12.3,10,22.2,22.2,22.2c7.9,0,15.3-4.3,19.3-11.1l19.2,11.1
		C130.5,135.9,115.8,144.4,100,144.4L100,144.4z M144.4,97.6h-4.9v-4.9h-4.9v4.9h-4.9v4.9h4.9v4.9h4.9v-4.9h4.9V97.6L144.4,97.6z
		M162.9,97.6H158v-4.9h-4.9v4.9h-4.9v4.9h4.9v4.9h4.9v-4.9h4.9V97.6L162.9,97.6z" />
	</g>
</svg>