<svg width="200" height="200" version="1.1" viewBox="0 0 200 200" xml:space="preserve"
	xmlns:xlink="http://www.w3.org/1999/xlink" xmlns="http://www.w3.org/2000/svg">
	<style>
		.c-sharp--fragment-0 {
			fill: #A179DC;
		}

		.c-sharp--fragment-1 {
			fill: #280068;
		}

		.c-sharp--fragment-2 {
			fill: #390091;
		}

		.c-sharp--fragment-3 {
			fill: #FFFFFF;
		}
	</style>
	<rect width="200" height="200" style="fill: var(--bg, #fff); rx: var(--rx, 24px);" />
	<g>
		<path class="c-sharp--fragment-0" d="M175,65.3c0-2.8-0.6-5.3-1.8-7.5c-1.2-2.1-3-3.9-5.4-5.3c-20-11.5-40-23-59.9-34.5c-5.4-3.1-10.6-3-15.9,0.2
		c-7.9,4.7-47.7,27.5-59.6,34.4c-4.9,2.8-7.3,7.2-7.3,12.8c0,23.2,0,46.3,0,69.5c0,2.8,0.6,5.2,1.8,7.3c1.2,2.2,3,4,5.5,5.4
		c11.9,6.9,51.7,29.7,59.6,34.4c5.3,3.2,10.6,3.3,15.9,0.2c20-11.5,40-23,59.9-34.5c2.5-1.4,4.3-3.3,5.5-5.4
		c1.2-2.1,1.8-4.6,1.8-7.3C175,134.7,175,88.4,175,65.3" />
		<path class="c-sharp--fragment-1" d="M100.2,99.8l-73.5,42.3c1.2,2.2,3,4,5.5,5.4c11.9,6.9,51.7,29.7,59.6,34.4c5.3,3.2,10.6,3.3,15.9,0.2
		c20-11.5,40-23,59.9-34.5c2.5-1.4,4.3-3.3,5.5-5.4L100.2,99.8" />
		<path class="c-sharp--fragment-2"
			d="M175,65.3c0-2.8-0.6-5.3-1.8-7.5l-72.9,42l73,42.3c1.2-2.1,1.8-4.6,1.8-7.3C175,134.7,175,88.4,175,65.3" />
		<path class="c-sharp--fragment-3" d="M143.5,84v7.9h7.9V84h4v7.9h7.9v4h-7.9v7.9h7.9v4h-7.9v7.9h-4v-7.9h-7.9v7.9h-4v-7.9h-7.9v-4h7.9v-7.9h-7.9v-4
		h7.9V84H143.5z M151.4,95.8h-7.9v7.9h7.9V95.8z M100.4,44.2c20.6,0,38.6,11.2,48.3,27.9l-0.1-0.2l-24.3,14
		c-4.8-8.1-13.5-13.6-23.6-13.7l-0.3,0c-15.3,0-27.8,12.4-27.8,27.8c0,5,1.3,9.7,3.7,13.8c4.8,8.4,13.8,14,24.1,14
		c10.4,0,19.4-5.7,24.2-14.2l-0.1,0.2l24.2,14c-9.5,16.5-27.3,27.7-47.7,27.9l-0.6,0c-20.7,0-38.7-11.3-48.4-28
		c-4.7-8.2-7.4-17.6-7.4-27.7C44.6,69.2,69.6,44.2,100.4,44.2z" />
	</g>
</svg>