<svg width="200" height="200" version="1.1" viewBox="0 0 200 200" xml:space="preserve"
	xmlns:xlink="http://www.w3.org/1999/xlink" xmlns="http://www.w3.org/2000/svg">
	<style>
		.cake-php {
			fill: #FFFFFF;
		}
	</style>
	<rect width="200" height="200" style="fill: var(--bg, #d33c44); rx: var(--rx, 24px); filter: var(--filter);" />
	<path class="cake-php" d="M100,88.3l58.7,14.6c10.2-4,16.3-9.1,16.3-14.6V64.9c0-12.9-33.6-23.4-75-23.4c-41.4,0-75,10.5-75,23.4v23.4
	c0,12.9,33.6,23.4,75,23.4V88.3z M158.7,126.3L100,111.7v23.4l58.7,14.6c10.2-4,16.3-9.1,16.3-14.6v-23.4
	C175,117.2,168.9,122.3,158.7,126.3 M25,111.7v23.4c0,12.9,33.6,23.4,75,23.4v-23.4C58.6,135.1,25,124.6,25,111.7" />
</svg>