<svg width="200" height="200" version="1.1" viewBox="0 0 200 200" xml:space="preserve"
	xmlns:xlink="http://www.w3.org/1999/xlink" xmlns="http://www.w3.org/2000/svg">
	<style>
		.cassandra--fragment-0 {
			fill: #BBE6FB;
		}

		.cassandra--fragment-1 {
			fill: #FFFFFF;
		}

		.cassandra--fragment-2 {
			fill: #373535;
		}

		.cassandra--fragment-3 {
			fill: #1287B1;
		}

		.cassandra--fragment-4 {
			fill: #373535;
			fill-opacity: 0.35;
		}
	</style>
	<rect width="200" height="200" style="fill: var(--bg, #fff); rx: var(--rx, 24px); filter: var(--filter);" />
	<g>
		<path class="cassandra--fragment-0" d="M144.8,87c1.1,12.8-19.1,25.1-45.1,27.3s-48-6.4-49.1-19.2S69.6,70,95.7,67.8
		C121.7,65.5,143.7,74.1,144.8,87" />
		<path class="cassandra--fragment-1" d="M122.5,71.6c-6.9-1.1-16.5-2.2-26.1-2.4c-0.3,0-0.6,0-0.9,0c-1.4-0.1-3,0-4.8,0.3c-8.5,1-17.4,4.2-24.5,7.2
		c-0.9,2.6-1.4,5.3-1.4,8.2c0,15.2,13.8,27.6,30.7,27.6s30.8-12.3,30.8-27.6C126.3,80.1,124.9,75.6,122.5,71.6z" />
		<path class="cassandra--fragment-2" d="M81.4,82.1c0.7-1.5,1.7-2.2,2.7-3.5c-0.1-0.3-0.4-1.3-0.4-1.6c0-1.5,1.2-2.7,2.7-2.7c0.4,0,0.7,0.1,1,0.2
		c4.5-3.5,10.4-4.9,16.4-3.6c0.5,0.1,1.1,0.3,1.6,0.4c-5.9-0.8-12.5,1.3-17,4.9c0.1,0.4,0.5,1.2,0.5,1.6c0,1.5-1,1.9-2.5,1.9
		c-0.4,0-0.6-0.1-1-0.2c-1,1.3-2.3,4-2.9,5.6c2.5,2.2,4.7,3,7.7,4.2c0-0.1,0.1-0.3,0.1-0.4c0-4.5,4-8.2,8.5-8.2
		c4,0,7.4,2.9,8.1,6.8c2-1.3,4-2.3,5.4-4.2c-0.4-0.4-0.7-1.6-0.7-2.2c0-1.3,1.1-2.5,2.5-2.5c0.2,0,0.4,0,0.6,0.1
		c0.8-1.6,1.3-3.2,1.7-4.9c-7.1-5.3-20.8-4.5-20.8-4.5s-10.9-0.6-18.3,3C77.9,75.8,79.3,79.2,81.4,82.1 M115.3,80.1
		c0.5,0.5,0.8,0.8,1,1.2c0.6,1.2-0.6,2.3-2,2.3c-0.1,0-0.3,0-0.4-0.1c-1.5,2.4-4.2,5.4-6.6,7c3.7,0.6,7.1,2,9.8,4.3
		c2-3.6,3.5-8.8,3.5-13.2c0-3.3-1.5-5.8-3.7-7.6C116.8,75.9,115.8,78.4,115.3,80.1 M85.5,102.8c1.2-3.4,4.2-6,7.1-8.3
		c-0.4-0.6-1.1-2-1.3-2.6c-3.5-1.1-6.5-3-8.9-5.6c0,0.1-0.1,0.2-0.1,0.2c-0.5,2-0.5,4-0.3,6c1.6,0.3,2.9,1.8,2.9,3.5
		c0,1.1-0.9,2.5-1.6,3.2C84.1,100.7,84.6,101.6,85.5,102.8 M85.3,105.6c-1.5-1.5-2.5-4.3-3.4-6.1c-0.2,0-0.4,0.1-0.5,0.1
		c-2,0-4-1.6-3.6-3.6c0.2-1.1,1-1.8,2.2-2.3c-0.3-2.2-0.4-5.3,0.2-7.6c0.1-0.6,0.5-0.9,0.6-1.6c-2.2-3.2-3.6-7.4-3.6-11.5v-0.5
		c-3.7,1.9-6.4,4.7-6.4,9.3C70.8,91.8,76.6,101.8,85.3,105.6L85.3,105.6 M106.7,91.6c-1.1,3.2-4.2,5.5-7.7,5.5
		c-1.9,0-3.7-0.6-5-1.8c-2.9,2.2-5.5,6.1-6.8,9.6c0.6,0.6,1,1.2,1.7,1.8c2,0.5,4.8,0,7,0c8.7,0,16.5-3.9,21-10.7
		C113.7,93.9,110.2,91.9,106.7,91.6" />
		<path class="cassandra--fragment-3" d="M81.2,83.3c0.7-1.5,1.5-2.9,2.5-4.2c-0.1-0.3-0.2-0.6-0.2-0.9c0-1.5,1.2-2.7,2.7-2.7c0.4,0,0.7,0.1,1,0.2
		c4.5-3.5,10.4-4.9,16.4-3.6c0.5,0.1,1.1,0.3,1.6,0.4c-5.9-0.8-11.9,1-16.5,4.6c0.1,0.4,0.2,0.7,0.2,1.1c0,1.5-1.2,2.7-2.7,2.7
		c-0.4,0-0.6-0.1-1-0.2c-1,1.3-1.9,2.9-2.5,4.5c2.2,2.3,4.8,4.2,7.7,5.2V90c0-4.5,3.7-8.2,8.2-8.2c4,0,7.4,2.9,8.1,6.8
		c2-1.3,3.8-2.9,5.3-4.9c-0.4-0.4-0.6-0.9-0.6-1.5c0-1.3,1.1-2.5,2.5-2.5c0.2,0,0.4,0,0.6,0.1c0.8-1.6,1.3-3.2,1.7-4.9
		c-7.1-5.3-20.8-4.5-20.8-4.5s-10.9-0.6-18.3,3C77.7,77,79.1,80.4,81.2,83.3 M115.6,80.5c0.5,0.5,0.8,1.1,0.8,1.8
		c0,1.3-1.1,2.5-2.5,2.5c-0.1,0-0.3,0-0.4-0.1c-1.5,2.4-3.6,4.4-6,6c3.5,0.5,6.9,2,9.6,4.3c2-3.6,3.2-7.7,3.2-12.1
		c0-3.3-1.5-5.8-3.7-7.6C116.6,77.1,116.2,78.8,115.6,80.5 M85.9,103.5c1.2-3.4,3.3-6.4,6.2-8.7c-0.4-0.6-0.8-1.2-1-1.9
		c-3.5-1.1-6.5-3-8.9-5.6c0,0.1-0.1,0.2-0.1,0.2c-0.5,2-0.5,4-0.3,6c1.6,0.3,2.9,1.8,2.9,3.5c0,1.1-0.5,2-1.2,2.6
		C84.2,101.1,85,102.4,85.9,103.5 M85.3,105.5c-1.5-1.5-2.7-3.1-3.6-4.9c-0.2,0-0.4,0.1-0.5,0.1c-2,0-3.6-1.6-3.6-3.6
		c0-1.4,0.8-2.6,2-3.2c-0.3-2.2-0.2-4.4,0.4-6.7c0.1-0.6,0.4-1.3,0.5-1.9c-2.2-3.2-3.5-7-3.5-11.2v-0.5c-3.7,1.9-6.4,4.7-6.4,9.3
		C70.6,93,76.6,101.7,85.3,105.5C85.3,105.6,85.3,105.6,85.3,105.5 M106.4,92.8c-1.1,3.2-4.2,5.5-7.7,5.5c-1.9,0-3.7-0.6-5-1.8
		c-2.9,2.2-5,5.3-6.4,8.7c0.6,0.6,1.2,1.2,1.9,1.8c2,0.5,4.1,0.8,6.3,0.8c8.7,0,16.5-4.5,20.9-11.4
		C113.4,94.4,110,93.1,106.4,92.8" />
		<path class="cassandra--fragment-1"
			d="M106.7,90.7l7.6-1.8l-7.6-0.4l6.2-4.7l-7,2.5l4.7-6.6L104,84l2.3-7.7l-4.5,6.4l-0.1-8.1l-3,7.2l-2.5-7.3
		l0.1,8.5L92,75.4l2.3,8.1l-7-5l5.4,6.9l-8.7-3.2l6.8,5l-8.7,0.3l9,2.3l-9,1.9l8.8,0.6l-7.4,4.7l7.7-2.8l-5.3,6.7l6.7-5.4l-2.4,9
		l5.2-7.4l-0.7,8.7l2.9-7.9l2.5,8.3l0.6-8.3l3.7,7.1l-2.2-8.1l6.8,5.3l-4.4-6.7l7.5,2.9l-5.7-5.6l7.7,0.6L106.7,90.7L106.7,90.7z" />
		<path class="cassandra--fragment-4" d="M26.1,105.1c23.5-23.5,42.2-30.7,59.3-34c2.2-0.4,2.7-5.4,2.7-5.4s0.3,3.6,1.9,4.1c1.6,0.5,3.6-5.7,3.6-5.7
		s-1.9,5.5,0,5.9c1.9,0.3,5.4-5.4,5.4-5.4s-1.4,4.9-0.5,5.2c0.9,0.3,5.7-7.1,5.7-7.1s-2.8,4.9-0.2,5.4c2.7,0.5,6.6-3.3,6.6-3.3
		s-3,3.5-1.7,4c5.9,2,10.5-5.5,10.5-5.5s-1.1,3.3-3.9,7c6.1,1.6,10.7-7.7,10.7-7.7l-4.6,9.3c2.3,1.2,11.8-9.7,11.8-9.7
		s-4.9,8.5-7.7,10.2c1.6,1.3,7.3-3.8,7.3-3.8s-4.6,5.7-2.8,6C132.7,76.6,142,64,142,64s-3.6,7.4-9,13.2
		c4.4,2.3,15.6-12.1,15.6-12.1s-0.3,4.6-8.4,11.8c6-0.8,13.7-12.1,13.7-12.1s-2.8,8.5-9.6,14.5c5.9-0.6,15.3-15.1,15.3-15.1
		s-3.6,10.1-11,15.9c8.2,1.8,20-10.4,20-10.4S164,78.4,157.9,82c6.8,2.6,16.1-8.1,16.1-8.1s-9.3,14.3-24.1,13.7
		C145,87.3,130.3,72.8,98.8,74C57.1,75.5,48.4,93.2,26.1,105.1 M25.5,107.7c12.4,6.2,23.8-0.9,38.1,3.1c10.9,3,24.1,6.9,42.1,4.2
		c18-2.6,33.3-10.4,40.7-24.4c2.3-6.2,11.6,1.4,11.6,1.4s-6.8-2.8-6.6-1.5c0.2,1.3,10.2,6,10.2,6s-9.1-2.8-8.5-0.7
		c0.5,2.1,11.4,10.7,11.4,10.7s-12.4-9.3-13.3-8c-1.1,1.3,5.2,6.4,5.2,6.4s-10.3-6.4-13.9-4.5c-2.6,1.3,10.7,10.1,10.7,10.1
		s-8.7-6.6-10.7-4.9c-2,1.8,9.8,15.9,9.8,15.9s-13.5-14.5-14.8-13.8c-1.3,0.7,3.7,7.7,3.7,7.7s-6.6-7.3-8.4-6
		c-1.8,1.3,9.5,20.1,9.5,20.1s-12.2-19.3-17.3-16c7.9,17.4,5,19.8,5,19.8s-1-17.7-10.9-17.3c-5,0.2,2.3,13.2,2.3,13.2
		s-6.7-11.9-11.2-11.7c8.3,15.7,5.3,22,5.3,22s1.3-13.4-9.8-20.8c4.3,3.8-2.7,20.8-2.7,20.8s6.1-25.1-4.5-20.3
		c-1.7,0.8-0.1,12.5-0.1,12.5S96,118.3,92.8,119c-1.9,0.4-11.8,18.7-11.8,18.7s8.1-19.7,5.7-18.9c-1.8,0.6-5.2,8.7-5.2,8.7
		s1.6-8,0-8.5c-1.6-0.5-10.9,8.5-10.9,8.5s6.9-8,5.7-9.7c-1.8-2.5-3.9-2.6-6.4-1.6c-3.6,1.4-8.5,8-8.5,8s4.9-6.7,4-9.2
		c-1.3-4-15.3,7.8-15.3,7.8s8.3-7.8,6.4-9.5c-1.9-1.6-12.2-1.2-15.3-1.2C31.7,112.2,28.4,110,25.5,107.7" />
		<path class="cassandra--fragment-2" d="M27,103.4c23.5-23.5,42.2-30.7,59.3-34C88.5,68.9,89,64,89,64s0.3,3.6,1.9,4.1s3.6-5.7,3.6-5.7
		s-1.9,5.5,0,5.9c1.9,0.3,5.4-5.4,5.4-5.4s-1.4,4.9-0.5,5.2c0.9,0.3,5.7-7.1,5.7-7.1s-2.8,4.9-0.2,5.4c2.7,0.5,6.6-3.3,6.6-3.3
		s-3,3.5-1.7,4c5.9,2,10.5-5.5,10.5-5.5s-1.1,3.3-3.9,7c6.1,1.6,10.7-7.7,10.7-7.7l-4.6,9.3c2.3,1.3,11.8-9.6,11.8-9.6
		s-4.9,8.5-7.7,10.2c1.6,1.1,7.3-3.9,7.3-3.9s-4.6,5.7-2.8,6c2.5,2,11.8-10.5,11.8-10.5s-3.7,7.4-9,13.2
		c4.4,2.2,15.6-12.1,15.6-12.1s-0.3,4.6-8.4,11.8c6-0.8,13.7-12.1,13.7-12.1s-2.8,8.5-9.6,14.5c5.9-0.6,15.3-15.1,15.3-15.1
		s-3.6,10.1-11,15.9c8.2,1.8,20-10.4,20-10.4s-4.6,8.7-10.7,12.2C165.7,82.8,175,72,175,72s-9.3,14.3-24.1,13.7
		C146,85.5,131.3,71,99.8,72.2C58.1,73.7,49.3,91.4,27,103.4 M25,106.3c12.4,6.2,23.8-0.9,38.1,3.1c10.9,3,24.1,6.9,42.1,4.2
		c18-2.6,33.3-10.4,40.7-24.4c2.3-6.2,11.6,1.4,11.6,1.4s-6.8-2.8-6.6-1.5c0.2,1.3,10.2,6,10.2,6s-9.1-2.8-8.5-0.7
		c0.5,2.1,11.4,10.7,11.4,10.7s-12.2-9.3-13.2-8s5.2,6.4,5.2,6.4s-10.3-6.4-13.9-4.5c-2.6,1.3,10.7,10.1,10.7,10.1
		s-8.7-6.6-10.7-4.9c-2,1.8,9.8,15.9,9.8,15.9s-13.4-14.5-14.8-13.8c-1.3,0.7,3.7,7.7,3.7,7.7s-6.7-7.2-8.5-6
		c-1.8,1.3,9.4,20.1,9.4,20.1s-12.2-19.3-17.3-16.1c8,17.4,5,19.9,5,19.9s-1-17.7-10.9-17.3c-5,0.2,2.3,13.2,2.3,13.2
		s-6.7-11.8-11.2-11.6c8.3,15.7,5.3,22,5.3,22s1.3-13.4-9.8-20.8c4.3,3.8-2.7,20.8-2.7,20.8s6.1-25.1-4.5-20.3
		c-1.7,0.8-0.1,12.5-0.1,12.5s-2.1-13.5-5.3-12.8c-1.9,0.4-11.8,18.7-11.8,18.7s8.1-19.7,5.7-18.9c-1.8,0.6-5.2,8.7-5.2,8.7
		s1.6-8,0-8.5c-1.6-0.5-10.9,8.5-10.9,8.5s6.9-8,5.7-9.7c-1.8-2.5-3.9-2.6-6.4-1.6c-3.6,1.4-8.5,8-8.5,8s4.9-6.7,4-9.2
		c-1.3-4-15.3,7.8-15.3,7.8s8.3-7.8,6.4-9.5c-1.9-1.6-12.2-1.2-15.3-1.2C31.1,110.8,27.9,108.6,25,106.3" />
	</g>
</svg>