<svg width="200" height="200" version="1.1" viewBox="0 0 200 200" xml:space="preserve"
	xmlns:xlink="http://www.w3.org/1999/xlink" xmlns="http://www.w3.org/2000/svg">
	<style>
		.clerk--fragment-0 {
			fill: #6C47FF;
		}

		.clerk--fragment-1 {
			fill: #BAB1FF;
		}
	</style>
	<rect width="200" height="200" style="fill: var(--bg, #f2f0e8); rx: var(--rx, 24px);" />
	<g>
		<path class="clerk--fragment-0" d="M106.7,76.6c12.9,0,23.4,10.5,23.4,23.4s-10.5,23.4-23.4,23.4S83.3,112.9,83.3,100S93.8,76.6,106.7,76.6z
		M148.9,155.5c2,2,1.8,5.3-0.5,6.9c-11.9,8-26.3,12.6-41.7,12.6s-29.8-4.7-41.7-12.6c-2.3-1.6-2.5-4.9-0.5-6.9l17.1-17.1
		c1.5-1.5,3.9-1.8,5.9-0.8c5.8,3,12.3,4.6,19.2,4.6c6.9,0,13.4-1.7,19.2-4.6c1.9-1,4.4-0.8,5.9,0.8L148.9,155.5z" />
		<path class="clerk--fragment-1" d="M148.4,37.6c2.3,1.6,2.5,4.9,0.5,6.9l-17.1,17.1c-1.5,1.5-3.9,1.8-5.9,0.8c-5.8-3-12.3-4.6-19.2-4.6
		c-23.3,0-42.2,18.9-42.2,42.2c0,6.9,1.7,13.4,4.6,19.2c1,1.9,0.8,4.4-0.8,5.9l-17.1,17.1c-2,2-5.3,1.8-6.9-0.5
		c-8-11.9-12.6-26.3-12.6-41.7c0-41.4,33.6-75,75-75C122.1,25,136.5,29.7,148.4,37.6z" />
	</g>
</svg>