<svg width="200" height="200" version="1.1" viewBox="0 0 200 200" xml:space="preserve"
	xmlns:xlink="http://www.w3.org/1999/xlink" xmlns="http://www.w3.org/2000/svg">
	<style>
		.clickhouse {
			fill: #ffffff;
		}
	</style>
	<rect width="200" height="200" style="fill: var(--bg, #141413); rx: var(--rx, 24px); filter: var(--filter);" />
	<path class="clickhouse" d="M26.8,25h13.2c1,0,1.8,0.8,1.8,1.8v146.5c0,1-0.8,1.8-1.8,1.8H26.8c-1,0-1.8-0.8-1.8-1.8V26.8
	C25,25.8,25.8,25,26.8,25z M60.1,25h13.2c1,0,1.8,0.8,1.8,1.8v146.5c0,1-0.8,1.8-1.8,1.8H60.1c-1,0-1.8-0.8-1.8-1.8V26.8
	C58.3,25.8,59.1,25,60.1,25z M93.4,25h13.2c1,0,1.8,0.8,1.8,1.8v146.5c0,1-0.8,1.8-1.8,1.8H93.4c-1,0-1.8-0.8-1.8-1.8V26.8
	C91.7,25.8,92.5,25,93.4,25z M126.7,25h13.2c1,0,1.8,0.8,1.8,1.8v146.5c0,1-0.8,1.8-1.8,1.8h-13.2c-1,0-1.8-0.8-1.8-1.8V26.8
	C125,25.8,125.8,25,126.7,25z M160.1,83.3h13.2c1,0,1.8,0.8,1.8,1.8v29.8c0,1-0.8,1.8-1.8,1.8h-13.2c-1,0-1.8-0.8-1.8-1.8V85.1
	C158.3,84.1,159.1,83.3,160.1,83.3z" />
</svg>