<svg width="200" height="200" version="1.1" viewBox="0 0 200 200" xml:space="preserve"
	xmlns:xlink="http://www.w3.org/1999/xlink" xmlns="http://www.w3.org/2000/svg">
	<style>
		.clojure--fragment-0 {
			fill: #466ACD;
		}

		.clojure--fragment-1 {
			fill: #53A526;
		}

		.clojure--fragment-2 {
			fill: #71AEFD;
		}

		.clojure--fragment-3 {
			fill: #81D837;
		}
	</style>
	<rect width="200" height="200" style="fill: var(--bg, #fff); rx: var(--rx, 24px);" />
	<g>
		<path class="clojure--fragment-0" d="M38.8,56.4C63,22.7,109.9,15,143.7,39.2c19.7,14.1,31.3,36.8,31.3,61c0,39.6-41.7,34.1-41.7,34.1
		c18.6-18.8,18.5-49.1-0.3-67.7c-13.8-13.6-34.4-17.6-52.3-10.1C57.6,43.2,38.8,56.4,38.8,56.4" />
		<path class="clojure--fragment-1" d="M161.2,143.6C137,177.3,90.1,185,56.3,160.8C36.7,146.7,25,124,25,99.9c0-39.6,41.7-34.1,41.7-34.1
		c-18.6,18.8-18.5,49.1,0.3,67.7c13.8,13.6,34.4,17.6,52.3,10.1C142.4,156.8,161.2,143.6,161.2,143.6" />
		<path class="clojure--fragment-2" d="M87.2,62.6c20.7-7.1,43.2,3.9,50.3,24.7c5.6,16.5-0.1,34.7-14.2,44.9c-10.9,0.9-20-31.7-21.4-36.7
		C100.4,90.5,96.3,72.3,87.2,62.6" />
		<path class="clojure--fragment-3"
			d="M76.4,132.1c-17.7-12.8-21.7-37.6-8.8-55.3c2.6-3.6,5.8-6.7,9.4-9.2C87.5,73.1,94.3,94,94.3,94
		S78.4,123.9,76.4,132.1 M86.1,137.4c0,0,11.2,5.3,26.1,0.6c-8.8-7.3-14.1-32.6-15.6-36.1C94.6,106,84,127.4,86.1,137.4" />
	</g>
</svg>