<svg width="200" height="200" version="1.1" viewBox="0 0 200 200" xml:space="preserve"
	xmlns:xlink="http://www.w3.org/1999/xlink" xmlns="http://www.w3.org/2000/svg">
	<style>
		.comfy {
			fill: #ECFF00;
		}
	</style>
	<rect width="200" height="200" style="fill: var(--bg, #090b0f); rx: var(--rx, 24px); filter: var(--filter);" />
	<path class="comfy" d="M133.6,161.3c-2.2,7.5-10,13.6-17.5,13.6L84.9,175l-22.8,0c-3.6,0-6.5-1.3-8.3-3.8c-1.9-2.6-2.4-6.1-1.4-9.8
	l4.2-14.8c0.3-1.2,0.1-2.4-0.6-3.4c-0.7-1-1.9-1.6-3.1-1.6H40.7c-3.6,0-6.5-1.3-8.3-3.8c-1.9-2.6-2.4-6.1-1.4-9.8l11.3-39.4
	c0-0.1,0.1-0.2,0.1-0.3l3.7-12.7c0-0.1,0.1-0.2,0.1-0.3l1-3.4c2.2-7.5,10-13.6,17.5-13.6h14.6c1.7,0,3.3-1.2,3.7-2.8l4.8-16.8
	c2.2-7.5,10-13.6,17.5-13.6l31.2-0.1h22.7c3.6,0,6.5,1.3,8.3,3.8c1.9,2.6,2.4,6.1,1.4,9.8l-6.5,22.7c-2.2,7.5-10,13.6-17.5,13.6
	l-31.2,0.1H99.2c-1.7,0-3.3,1.2-3.7,2.8L89,100.2c0,0.1-0.1,0.2-0.1,0.3L83.3,120c-0.3,1.2-0.1,2.4,0.6,3.4c0.7,1,1.9,1.6,3.1,1.6
	c0,0,20.6,0,20.6,0h22.7c3.6,0,6.5,1.3,8.3,3.8c1.9,2.6,2.4,6.1,1.4,9.8C139.7,140.1,134.2,159.1,133.6,161.3z" />
</svg>