<svg width="200" height="200" version="1.1" viewBox="0 0 200 200" xml:space="preserve"
	xmlns:xlink="http://www.w3.org/1999/xlink" xmlns="http://www.w3.org/2000/svg">
	<style>
		.cordova {
			fill: #32383d;
		}
	</style>
	<rect width="200" height="200" style="fill: var(--bg, #dfdfdf); rx: var(--rx, 24px); filter: var(--filter);" />
	<path class="cordova" d="M140.9,28.4H59.1L25,83l13.6,88.6h24.3l-1.7-20.5h11.9l1.7,20.5h50.3l1.7-20.5h11.9l-1.7,20.5h24.3L175,83L140.9,28.4z
	M140.9,137.5H59.1L52.3,83l13.6-27.3h21.9l-1.5,10.2h27.3l-1.5-10.2h21.9L147.7,83L140.9,137.5z M122.2,94c1.9,0,3.4,5.7,3.4,12.7
	c0,7-1.5,12.7-3.4,12.7s-3.4-5.7-3.4-12.7C118.8,99.7,120.3,94,122.2,94z M79.1,95.1c1.9,0,3.4,5.7,3.4,12.7c0,7-1.5,12.7-3.4,12.7
	s-3.4-5.7-3.4-12.7C75.7,100.8,77.2,95.1,79.1,95.1z" />
</svg>