<svg width="200" height="200" version="1.1" viewBox="0 0 200 200" xml:space="preserve"
	xmlns:xlink="http://www.w3.org/1999/xlink" xmlns="http://www.w3.org/2000/svg">
	<style>
		.cucumber--fragment-1 {
			fill-rule: evenodd;
			clip-rule: evenodd;
			fill: #00A818;
		}

		.cucumber--fragment-2 {
			fill-rule: evenodd;
			clip-rule: evenodd;
			fill: #FFFFFF;
		}
	</style>
	<rect width="200" height="200" style="fill: var(--bg, #fff); rx: var(--rx, 24px); filter: var(--filter);" />
	<g>
		<path class="cucumber--fragment-1" d="M100.7,25c-36.6,0-66.2,29.6-66.2,66.2c0,32.2,23.1,58.9,53.5,64.9V175c39.6-6,74.7-37.4,77.3-78.7
		c1.6-24.8-10.8-50.2-31.7-62.5c-2.4-1.5-5-2.7-7.6-3.8l-1.3-0.5c-1.2-0.4-2.3-0.9-3.5-1.3C114.6,26.1,107.7,25,100.7,25
		C100.7,25,100.7,25,100.7,25z" />
		<path class="cucumber--fragment-2" d="M114.3,49.5c-2.4-0.3-4.8,0.7-6.3,2.5c-1.2,1.6-2,3.2-2.8,4.8c-2.4,5.7-1.6,11.7,2,16.2
		c5.7-1.2,10.5-4.8,12.9-10.5c0.8-1.6,1.3-3.7,1.3-5.3C121.6,52.9,118.1,49.9,114.3,49.5z M84.9,49.9c-3.7,0.4-7.2,3.3-7.2,7.3
		c0,1.6,0.5,3.7,1.3,5.3c2.4,5.7,7.6,9.3,13.3,10.5c3.2-4.4,4.1-10.5,1.6-16.2c-0.8-1.6-1.6-3.2-2.8-4.4
		C89.6,50.6,87.3,49.6,84.9,49.9C84.9,49.9,84.9,49.9,84.9,49.9z M65.1,69.3c-6.4,0.3-9.2,8.3-3.9,12.5c1.6,1.2,3.2,2.1,4.8,2.9
		c5.7,2.4,12.2,1.6,17-1.6c-1.2-5.3-5.3-10.1-11-12.5c-2-0.8-3.7-1.3-5.7-1.3C65.9,69.3,65.5,69.3,65.1,69.3z M127.3,93.8
		c-3.7-0.1-7.4,1-10.5,3c1.2,5.3,5.3,10.1,11,12.5c2,0.8,3.7,1.3,5.7,1.3c7.3,0.4,10.8-8.6,5.2-12.6c-1.6-1.2-3.2-2-4.8-2.8
		C131.8,94.3,129.6,93.8,127.3,93.8z M72.2,94.2c-2.2,0-4.4,0.5-6.6,1.4c-2,0.8-3.6,1.7-4.8,2.9c-5.3,4.4-1.7,12.9,5.6,12.5
		c2,0,4.1-0.5,5.7-1.3c5.7-2.4,9.7-7.2,10.5-12.5C79.4,95.2,75.8,94.1,72.2,94.2L72.2,94.2z M92.6,106.6
		c-5.7,1.2-10.5,4.8-12.9,10.5c-0.8,1.6-1.3,3.6-1.3,5.2c-0.4,6.9,9,10.6,13,5.3c1.2-1.6,2-3.2,2.8-4.8
		C96.7,117.5,95.8,111.4,92.6,106.6z M107.6,106.9c-3.2,4.4-4.1,10.5-1.6,16.2c0.8,1.6,1.6,3.2,2.8,4.4c4.4,4.8,13.8,1.3,13.4-4.8
		c0-1.6-0.5-3.7-1.3-5.3C118.5,111.8,113.3,108.2,107.6,106.9L107.6,106.9z" />
	</g>
</svg>