<svg width="200" height="200" version="1.1" viewBox="0 0 200 200" xml:space="preserve"
	xmlns:xlink="http://www.w3.org/1999/xlink" xmlns="http://www.w3.org/2000/svg">
	<style>
		.cypress {
			fill: #FFFFFF;
		}
	</style>
	<rect width="200" height="200" style="fill: var(--bg, #5c5c5e); rx: var(--rx, 24px); filter: var(--filter);" />
	<path class="cypress" d="M148,135.8c-2.7,9.6-8.3,18.2-15.9,24.6c-8.5,6.2-18.6,9.7-29.1,10.1l-2.4-15.9c6.2-0.4,12.3-2.3,17.7-5.5
	c1.5-1.3,2.9-2.7,4.2-4.2l0,0L93.6,52.7h23.9l16.6,68.9l17.7-68.9H175L148,135.8z M64.5,49.5c5.1-0.2,10.1,0.7,14.9,2.4
	c4.7,1.8,9,4.4,12.8,7.6l-9.7,13.2c-2.5-1.8-5.1-3.3-8-4.5c-2.7-1-5.5-1.5-8.3-1.4c-11.8,0-17.7,9-17.7,27.4
	c-0.7,6.9,0.9,13.8,4.5,19.7c3.1,4.1,8.1,6.3,13.2,5.9c2.7,0.1,5.4-0.4,8-1.4c3-1.3,5.9-2.8,8.7-4.5l9.7,13.9
	c-7.7,6.4-17.4,9.9-27.4,9.7c-7.5,0.2-14.9-1.6-21.5-5.2c-6.1-3.6-10.9-8.9-13.9-15.3c-3.3-7.3-5-15.2-4.8-23.2
	c-0.1-8,1.5-15.9,4.8-23.2c3-6.5,7.8-12.1,13.8-15.9C50.1,51.3,57.2,49.5,64.5,49.5z" />
</svg>