<svg width="200" height="200" version="1.1" viewBox="0 0 200 200" xml:space="preserve"
	xmlns:xlink="http://www.w3.org/1999/xlink" xmlns="http://www.w3.org/2000/svg">
	<style>
		.dart--fragment-0 {
			fill: #01579B;
		}

		.dart--fragment-1 {
			fill: #40C4FF;
		}

		.dart--fragment-2 {
			fill: #29B6F6;
		}

		.dart--fragment-3 {
			opacity: 0.2;
			fill: #FFFFFF;
		}

		.dart--fragment-4 {
			opacity: 0.2;
			fill: #263238;
		}
	</style>
	<rect width="200" height="200" style="fill: var(--bg, #1c2834); rx: var(--rx, 24);" />
	<g>
		<path class="dart--fragment-0"
			d="M55.6,144.4l-25.7-25.7c-3-3.1-4.9-7.5-4.9-11.8c0-2,1.1-5.1,2-6.9l23.7-49.3L55.6,144.4z" />
		<path class="dart--fragment-1"
			d="M143.4,55.6l-25.7-25.7c-2.2-2.2-6.9-4.9-10.9-4.9c-3.4,0-6.7,0.7-8.9,2L50.7,50.7L143.4,55.6z" />
		<polygon class="dart--fragment-1" points="86.2,175 148.4,175 148.4,148.4 102,133.5 59.5,148.4 	" />
		<path class="dart--fragment-2" d="M50.7,130.6c0,7.9,1,9.9,4.9,13.8l3.9,3.9h88.8L104.9,99L50.7,50.7V130.6z" />
		<path class="dart--fragment-0"
			d="M129.6,50.7H50.7l97.7,97.7H175V87.2l-31.6-31.6C139,51.1,135,50.7,129.6,50.7z" />
		<path class="dart--fragment-3"
			d="M56.6,145.4c-3.9-4-4.9-7.9-4.9-14.8V51.6l-1-1v79.9C50.7,137.5,50.7,139.4,56.6,145.4l3,3l0,0L56.6,145.4z" />
		<polygon class="dart--fragment-4" points="174,86.2 174,147.4 147.4,147.4 148.4,148.4 175,148.4 175,87.2 	" />
		<path class="dart--fragment-3"
			d="M143.4,55.6c-4.9-4.9-8.9-4.9-14.8-4.9h-78l1,1h77C131.6,51.6,139,51.1,143.4,55.6L143.4,55.6z" />
	</g>
</svg>