<svg width="200" height="200" version="1.1" viewBox="0 0 200 200" xml:space="preserve"
	xmlns:xlink="http://www.w3.org/1999/xlink" xmlns="http://www.w3.org/2000/svg">
	<style>
		.datadog {
			fill: #fff;
		}
	</style>
	<rect width="200" height="200" style="fill: var(--bg, #632aa9); rx: var(--rx, 24px); filter: var(--filter);" />
	<path class="datadog" d="M127.4,88.9C127.4,88.9,127.4,88.9,127.4,88.9L127.4,88.9L127.4,88.9z M29.2,171.2h4.9c4.7,0,7-2.7,7-8.2c0-4.7-2.3-7-7-7
	h-4.9V171.2z M34.7,174.8H25v-22.4h9.7c7,0,10.5,3.5,10.5,10.6C45.2,170.9,41.7,174.8,34.7,174.8 M49.6,174.8h-4.3l9.5-22.4h4.5
	l9.7,22.4h-4.5l-2.8-6.1h-7.2l1.4-3.6h4.7l-3.7-8.4L49.6,174.8z M66.7,152.4h17v3.6h-6.4v18.8h-4.2V156h-6.4V152.4z M85.9,174.8
	h-4.3l9.5-22.4h4.5l9.7,22.4h-4.5l-2.8-6.1h-7.2l1.4-3.6h4.7l-3.7-8.4L85.9,174.8z M112.2,171.2h4.9c4.7,0,7-2.7,7-8.2
	c0-4.7-2.3-7-7-7h-4.9V171.2z M117.8,174.8h-9.7v-22.4h9.7c7,0,10.5,3.5,10.5,10.6C128.3,170.9,124.8,174.8,117.8,174.8
	M142.4,171.4c4.5,0,6.8-2.6,6.8-7.8c0-5.1-2.3-7.7-6.8-7.7c-4.6,0-7,2.6-7,7.7C135.5,168.8,137.8,171.4,142.4,171.4 M131.1,163.7
	c0-7.6,3.8-11.4,11.3-11.4c7.4,0,11.1,3.8,11.1,11.4c0,7.5-3.7,11.3-11.1,11.3C135.2,175,131.5,171.2,131.1,163.7 M170.8,165.8v5.2
	c-1,0.3-1.8,0.4-2.6,0.4c-5.1,0-7.6-2.7-7.6-8.1c0-5,2.7-7.4,8.1-7.4c2.2,0,4.3,0.4,6.3,1.3v-3.8c-1.9-0.7-4.1-1.1-6.6-1.1
	c-8.1,0-12.1,3.7-12.1,11c0,7.8,4,11.7,11.9,11.7c2.7,0,5-0.4,6.8-1.2v-11.7h-6.7l-1.4,3.7L170.8,165.8L170.8,165.8z M90.5,56.1
	c4.1-2.8,9.4-1.7,8.5-0.9c-1.7,1.6,0.6,1.1,0.8,4.1c0.2,2.2-0.5,3.4-1.1,4.1c-1.3,0.2-2.8,0.5-4.7,1.1c-1.1,0.4-2.1,0.8-2.9,1.2
	c-0.2-0.1-0.5-0.3-0.7-0.6C87.4,62.5,87.4,58.1,90.5,56.1 M114.9,73.3c0.7-0.6,4.1-1.7,7.2-2c1.6-0.2,4-0.3,4.5,0
	c1,0.5,1,2.2,0.3,3.8c-1,2.3-2.4,4.8-4,5c-2.6,0.3-5-1.1-7.8-3.1C114.2,76.2,113.5,74.3,114.9,73.3 M119.6,51.2
	c3.8,1.8,3.3,5.1,3.4,7.1c0,0.6,0,1,0,1.2c-0.5-0.3-1.4-0.5-2.7-0.4c-0.4,0-0.8,0.1-1.1,0.1c-1.4-0.8-2.2-2.2-3-3.8
	c-0.1-0.1-0.1-0.3-0.2-0.4c0-0.1,0-0.1-0.1-0.2c0,0,0-0.1,0-0.1c-0.4-1.3-0.1-1.6,0-2c0.2-0.4,0.9-0.8-0.1-1.1
	c-0.1,0-0.2-0.1-0.3-0.1C116.1,50.8,118.2,50.5,119.6,51.2 M98.8,91.5c-4.1-2.6-8.3-6.4-10.2-8.5c-0.3-0.2-0.3-1.3-0.3-1.3
	c1.7,1.3,8.6,6.3,16,8.5c2.6,0.8,6.6,1.1,10-0.9c2.6-1.5,5.8-4.1,7.7-6.8l0.3,0.6c0,0.4-0.9,2.3-1.3,3.1c0.8,0.5,1.4,0.6,2.3,0.8
	l6.1-0.9c2.2-3.5,3.7-9.2,2.1-14.6c-1-3.1-5.9-9.3-6.3-9.6c-1.2-1.2,0.2-5.8-2.3-10.9c-2.6-5.3-9.4-10.9-12.4-13.3
	c0.9,0.6,6.2,2.8,8.7,5.8c0.2-0.3,0.3-1.9,0.5-2.3c-2.1-2.8-2.3-7.8-2.3-9.2c0-2.5-1.2-5.2-1.2-5.2s2.1,1.7,2.7,4.6
	c0.7,3.5,2.1,6.2,3.9,8.5c3.5,4.4,6.7,6.6,8.3,5c1.9-1.9-1.9-10.6-6.9-15.4c-5.7-5.6-7.2-4.9-10.6-3.7c-2.7,1-4.1,8.6-11.1,8.4
	c-1.2-0.1-4.2-0.2-5.8-0.2c0.8-1.1,1.5-1.9,1.5-1.9S96,33.1,94,34.3L93.8,34c0.7-1.4,1.4-2.3,1.4-2.3s-1.9,1.1-3.6,2.5
	c0.3-1.7,1.5-2.8,1.5-2.8s-2.4,0.4-5.4,3.7c-3.4,0.9-4.3,1.6-7,2.8c-4.4-1-6.5-2.5-8.5-5.4c-1.5-2.2-4.2-2.5-7-1.4
	c-4,1.7-9.1,4-9.1,4s1.7-0.1,3.4,0c-2.4,0.9-4.7,2.1-4.7,2.1s1.1,0,2.5,0c-0.9,0.8-1.5,1.2-2.4,1.8c-2.2,1.6-3.9,3.4-3.9,3.4
	s1.5-0.7,2.8-1c-0.9,2.1-2.8,3.7-2.4,6.3c0.3,2.4,3.2,7.3,7,10.3c0.3,0.3,5.5,5,9.3,3.1c3.9-1.9,5.4-3.7,6-6.3
	c0.7-3.1,0.3-5.4-1.3-12c-0.5-2.2-1.9-6.7-2.6-8.9l0.1-0.1c1.3,2.7,4.5,9.7,5.8,14.4c2,7.4,1.4,11.1,0.5,12.5
	c-2.8,4.1-10,4.7-13.3,2.4c-0.5,7.9,1.3,11.4,1.9,13.2c-0.3,2,1,5.8,1,5.8s0.1-1.7,0.7-2.6c0.2,2,1.2,4.4,1.2,4.4s-0.1-1.5,0.4-2.7
	c0.6,1.1,1.1,1.4,1.7,2.2c0.6,2.1,1.8,3.7,1.8,3.7s-0.2-1.2-0.1-2.4c3,2.9,3.5,7.1,3.8,10.3c0.8,8.9-14,16-16.9,21.5
	c-2.2,3.3-3.5,8.5,0.2,11.6c8.9,7.4,5.5,9.5,10,12.7c6.1,4.5,13.8,2.5,16.4-1.2c3.6-5.1,2.7-9.9,1.4-14.3c-1.1-3.5-3.9-9.3-7.5-11.6
	c-3.6-2.3-7.2-2.7-10.2-2.4l0.3-0.3c4.3-0.9,8.8-0.4,12.1,1.7c3.7,2.4,7.1,6.5,8.8,12.7c2-0.3,2.3-0.4,4.1-0.7l-4.1-32.2L98.8,91.5z
	M101.2,131.8l-0.5-4.5l9.3-14.2l10.6,3.1l9.1-15.2l10.9,7.2l8.3-17.3l2.9,31.6L101.2,131.8z M151.9,84.5l-33.2,6
	c-0.8,1.1-2.9,2.9-3.8,3.4c-4.2,2.1-7,1.5-9.5,0.9c-1.6-0.4-2.5-0.6-3.8-1.2l-8.1,1.1l4.9,41.1l56.9-10.3L151.9,84.5z" />
</svg>