<svg width="200" height="200" version="1.1" viewBox="0 0 200 200" xml:space="preserve"
	xmlns:xlink="http://www.w3.org/1999/xlink" xmlns="http://www.w3.org/2000/svg">
	<style>
		.debian {
			fill: #A80030;
		}
	</style>
	<rect width="200" height="200" style="fill: var(--bg, #fff); rx: var(--rx, 24px);" />
	<path class="debian" d="M43.8,57.3c0.2,1,2.4-1.5,0.7,2.4C41.2,62.1,44.1,60.7,43.8,57.3L43.8,57.3z M43.9,57.5c0-0.1,0-0.3,0-0.4
	C43.8,57.3,43.8,57.4,43.9,57.5L43.9,57.5z M41.1,68.5c-2.2,2.8-1,3.3-1.2,5.2C40.6,71.3,40.8,69.9,41.1,68.5L41.1,68.5z M108.7,25
	c-2.3,0.2-4.6,0.3-6.9,0.6l1,0.1C104.5,25.1,107,25.4,108.7,25L108.7,25z M104.9,27.9l0.1-0.2l-0.9,0.4L104.9,27.9L104.9,27.9z
	M102.3,26.9c1.3,0.2,2.9,0.4,2.6,0.7C106.4,27.4,106.8,27.1,102.3,26.9L102.3,26.9z M88.5,107.5c-0.9-1-1.4-2.1-1.9-3.3
	c0.5,2,1.7,3.7,2.7,5.5L88.5,107.5L88.5,107.5z M115.5,106c0.9-0.7,1.7-1.4,2.4-2.1c-2,0.5-4.1,0.5-6.1,0.3
	C109.3,104.3,112.2,105.5,115.5,106L115.5,106z M125.1,100.9c1.5-2,2.6-4.3,2.9-6.6c-0.3,1.6-1.2,3.1-2.1,4.6
	c-4.6,2.9-0.4-1.7,0-3.5C121,101.7,125.3,99.2,125.1,100.9L125.1,100.9z M130,88.1c0.3-4.5-0.9-3.1-1.3-1.4
	C129.2,87,129.6,89.9,130,88.1L130,88.1z M101.5,120.3c-3.6-1.7-6.9-4.2-9.5-7.3c1.4,2.1,3,4.1,5,5.7c-3.4-1.1-7.9-8.2-9.2-8.5
	c5.8,10.4,23.6,18.3,32.9,14.4c-4.3,0.2-9.8,0.1-14.6-1.7c-1.8-0.9-4.3-2.8-4.4-3.5C101.6,119.7,101.4,119.9,101.5,120.3
	L101.5,120.3z M101.8,119.3c-0.1,0.1-0.1,0.2-0.1,0.3C101.7,119.5,101.8,119.4,101.8,119.3L101.8,119.3z M84.3,109.4
	c1.6,2.2,2.9,4.6,5,6.4c-1.5-2.9-2.6-4.1-4.7-8.1L84.3,109.4L84.3,109.4z M155.1,78.6c0-2.3,0.6-1.2,0.9-1.8c-0.4-0.3-1.6-2-2.3-5.4
	c0.5-0.8,1.4,2,2.1,2.2c-0.5-2.7-1.2-4.7-1.3-6.8c-2.1-4.3-0.7,0.6-2.4-1.8c-2.2-6.8,1.8-1.6,2.1-4.7c3.3,4.8,5.2,12.3,6.1,15.4
	c-0.7-3.8-1.7-7.4-3-11c1,0.4-1.6-7.8,1.3-2.3c-3.1-11.6-13.4-22.3-22.9-27.4c1.2,1.1,2.6,2.4,2.1,2.6c-4.7-2.8-3.9-3-4.6-4.2
	c-3.8-1.6-4.1,0.1-6.6,0c-7.2-3.8-8.6-3.4-15.3-5.8l0.3,1.4c-4.8-1.6-5.6,0.6-10.8,0c-0.3-0.2,1.7-0.9,3.3-1.1
	c-4.6,0.6-4.4-0.9-9,0.2c1.1-0.8,2.3-1.3,3.5-2c-3.8,0.2-9,2.2-7.4,0.4c-6.2,2.8-17.1,6.6-23.3,12.4l-0.2-1.3
	c-2.8,3.4-12.3,10.1-13,14.5L54,52.2c-1.5,2.5-2.4,5.3-3.6,7.8c-1.9,3.3-2.8,1.3-2.5,1.8c-3.8,7.6-5.6,14.1-7.3,19.3
	c1.2,1.7,0,10.4,0.5,17.3c-1.9,34.2,24,67.3,52.3,75c4.1,1.5,10.3,1.4,15.6,1.6c-6.2-1.8-7-0.9-13-3c-4.3-2-5.3-4.4-8.4-7.1l1.2,2.2
	c-6-2.1-3.5-2.6-8.4-4.2l1.3-1.7c-2-0.1-5.2-3.3-6.1-5l-2.1,0.1c-2.6-3.2-3.9-5.5-3.8-7.2l-0.7,1.2c-0.8-1.3-9.5-11.9-5-9.4
	c-0.8-0.8-1.9-1.2-3.2-3.4l0.9-1c-2.2-2.8-4-6.4-3.9-7.6c1.2,1.6,2,1.9,2.8,2.1c-5.5-13.6-5.8-0.7-9.9-13.8l0.9-0.1
	c-0.7-1-1.1-2.1-1.6-3.2l0.4-3.8c-3.9-4.6-1.1-19.4-0.5-27.5c0.4-3.3,3.3-6.8,5.5-12.3l-1.3-0.2c2.6-4.5,14.6-18,20.2-17.3
	c2.7-3.4-0.5,0-1.1-0.9c6-6.2,7.8-4.4,11.8-5.5c4.3-2.6-3.7,1-1.7-1c7.5-1.9,5.3-4.3,15.1-5.3c1,0.6-2.4,0.9-3.3,1.7
	c6.2-3.1,19.7-2.4,28.5,1.7c10.2,4.8,21.6,18.8,22.1,32l0.5,0.1c-0.3,5.3,0.8,11.3-1,16.9l1.3-2.6c0.1,4-1.2,6-2.4,9.4l-2.1,1.1
	c-1.8,3.4,0.2,2.2-1.1,4.9c-2.7,2.4-8.3,7.6-10.1,8.1c-1.3,0,0.9-1.5,1.2-2.1c-3.7,2.5-2.9,3.8-8.6,5.3l-0.2-0.4
	c-13.9,6.5-33.1-6.4-32.9-24c-0.1,1.1-0.4,0.8-0.7,1.3c-0.7-9.1,4.2-18.2,12.5-21.9c8.1-4,17.6-2.4,23.4,3c-3.2-4.2-9.5-8.6-17-8.2
	c-7.4,0.1-14.2,4.8-16.5,9.9c-3.8,2.4-4.2,9.1-5.8,10.4c-2.2,16.2,4.2,23.2,14.9,31.5c0.9,0.6,1,0.9,0.9,1.2c0,0,0,0,0,0
	c12.7,4.7,25.8,3.6,36.8-5.2c2.8-2.2,5.8-5.9,6.7-5.9c-1.3,2,0.2,1-0.8,2.7c2.8-4.5-1.2-1.8,2.9-7.8l1.5,2.1
	c-0.6-3.7,4.6-8.3,4.1-14.2c1.2-1.8,1.3,1.9,0.1,6.1c1.8-4.6,0.5-5.3,0.9-9.1c0.5,1.3,1.1,2.6,1.5,4c-1.1-4.4,1.2-7.5,1.7-10.1
	C156.6,81.6,155.4,83.9,155.1,78.6L155.1,78.6z" />
</svg>