<svg width="200" height="200" version="1.1" viewBox="0 0 200 200" xml:space="preserve"
	xmlns:xlink="http://www.w3.org/1999/xlink" xmlns="http://www.w3.org/2000/svg">
	<style>
		.deno {
			fill: #000;
		}
	</style>
	<rect width="200" height="200" style="fill: var(--bg, #fff); rx: var(--rx, 24);" />

	<path class="deno" d="M170.7,131.2c-0.2,0.6-0.4,1.2-0.6,1.8c-0.3,0.8-0.6,1.6-1,2.4c-0.1,0.2-0.2,0.5-0.3,0.7
	c-0.9,2.1-1.9,4.2-3.1,6.2c-0.1,0.1-0.1,0.2-0.2,0.4c-0.5,0.9-1,1.7-1.5,2.6c-0.1,0.2-0.2,0.4-0.4,0.6c-0.5,0.8-1,1.6-1.5,2.3
	c-0.1,0.2-0.3,0.4-0.4,0.6c-0.5,0.8-1.1,1.5-1.6,2.3c-0.1,0.2-0.2,0.3-0.4,0.5c-0.6,0.8-1.3,1.7-2,2.5c0,0.1-0.1,0.1-0.1,0.2
	c-0.7,0.9-1.5,1.8-2.3,2.6c-0.3,0.3-0.5,0.5-0.8,0.8c-0.3,0.2-0.5,0.5-0.8,0.7c-0.3,0.3-0.6,0.5-0.8,0.7c-0.3,0.2-0.5,0.5-0.8,0.7
	c-0.3,0.2-0.6,0.5-0.9,0.7c-0.3,0.2-0.5,0.4-0.8,0.6c-0.3,0.2-0.6,0.4-0.9,0.6c-0.3,0.2-0.6,0.4-0.8,0.6c-0.3,0.2-0.6,0.4-0.9,0.6
	c-0.3,0.2-0.6,0.4-0.9,0.5c-0.3,0.2-0.6,0.3-0.9,0.5c-0.3,0.2-0.6,0.3-0.9,0.5c-0.3,0.2-0.6,0.3-0.9,0.5c-0.3,0.1-0.6,0.3-0.9,0.4
	c-0.3,0.1-0.6,0.3-0.9,0.4c-0.3,0.1-0.6,0.3-0.8,0.4c-0.3,0.1-0.6,0.2-0.9,0.4c-0.3,0.1-0.6,0.2-0.9,0.3c-0.3,0.1-0.6,0.2-0.9,0.3
	c-0.3,0.1-0.6,0.2-0.9,0.3c-0.3,0.1-0.6,0.2-1,0.3c-0.3,0.1-0.6,0.2-0.8,0.2c-0.3,0.1-0.7,0.1-1,0.2c-0.3,0.1-0.5,0.1-0.8,0.2
	c-0.3,0.1-0.7,0.1-1,0.2c-0.2,0-0.5,0.1-0.7,0.1c-0.3,0-0.7,0.1-1,0.1c-0.2,0-0.5,0.1-0.7,0.1c-0.4,0-0.8,0.1-1.2,0.1
	c-0.2,0-0.3,0-0.5,0c-0.6,0-1.1,0-1.7,0c-6.4-0.1-12.7-2.7-17-6.4c-2.7-2.3-4.7-4.8-6.2-7.4c-0.4-0.7-0.8-1.5-1.1-2.3
	c-0.2-0.4-0.3-0.8-0.5-1.2c-0.6-1.6-1-3.2-1.4-4.8c-0.2-0.8-0.3-1.7-0.4-2.5c0-0.1,0-0.2,0-0.4c0-0.3,0-0.6,0-0.9c0-0.7,0-1.4,0-2.3
	c0-0.4,0-0.9,0.1-1.3c0.1-1.6,0.4-3.2,0.8-4.6c0.7-2.4,2.3-7,4.8-9c-2.8-1.2-6.5-3.9-7.7-5.2c-0.3-0.3-0.2-0.8,0-1.1
	c0.3-0.3,0.7-0.5,1.1-0.3c0.6,0.2,1.3,0.4,1.9,0.6c2,0.6,4.3,1.2,6.6,1.6c3.1,0.5,6.8,1.1,10.6,1.5c1.3,0.1,2.6,0.2,3.9,0.3
	c12.7,0.6,26-5.1,30.1-16.4c1.4-3.9,2.1-7.8,1.9-11.4c0,0,0-0.1,0-0.1c0-0.6-0.1-1.2-0.2-1.8c-0.1-0.8-0.3-1.6-0.5-2.4
	c-0.1-0.4-0.3-0.8-0.4-1.2c-0.1-0.3-0.2-0.5-0.3-0.8c-0.1-0.3-0.3-0.6-0.5-1c-0.2-0.3-0.4-0.7-0.5-1c-0.3-0.5-0.6-1-1-1.5
	c-0.3-0.5-0.7-0.9-1.1-1.4c-0.1-0.1-0.1-0.1-0.2-0.2c-2.2-2.5-5.3-4.7-9.5-6.6c-14.8-6.7-21.6-14.7-33.5-19.6
	c-1.9-0.8-3.8-1.2-5.8-1.4c-0.1,0-0.2,0-0.3,0C96.8,55.9,92,57,87,59c-1.6,0.7-3.3,1.5-5,2.4c-3.7,2.1-7.4,4.8-11,8.2
	C55,85,42.4,112.6,44.2,140.6c0,0.2,0,0.3,0,0.5c0.3,4.8,1.1,9.6,2.3,14.3c0,0.1,0,0.2,0,0.4c0,0,0,0,0,0c0,0.4-0.3,0.8-0.6,1
	c-0.1,0.1-0.2,0.1-0.4,0.1c0,0-0.1,0-0.1,0c-0.1,0-0.2,0-0.2,0c0,0-0.1,0-0.1,0c-0.1,0-0.1,0-0.2-0.1c0,0-0.1-0.1-0.1-0.1
	c-0.1,0-0.1-0.1-0.2-0.1c-0.3-0.3-0.6-0.7-0.9-1c-0.4-0.5-0.9-1-1.3-1.5c-0.3-0.4-0.6-0.8-0.9-1.2c-0.4-0.5-0.8-1.1-1.2-1.6
	c-0.3-0.4-0.6-0.8-0.9-1.2c-0.4-0.6-0.8-1.1-1.2-1.7c-0.3-0.4-0.5-0.8-0.8-1.2c-0.5-0.7-1-1.5-1.4-2.2c-0.1-0.1-0.2-0.3-0.3-0.4
	c-0.6-0.9-1.1-1.9-1.6-2.9c-0.1-0.2-0.2-0.5-0.4-0.7c-0.4-0.9-0.9-1.7-1.3-2.6c-0.1-0.2-0.2-0.3-0.2-0.5c-0.2-0.4-0.4-0.9-0.6-1.4
	c-0.3-0.7-0.7-1.5-1-2.3c-0.2-0.4-0.3-0.9-0.5-1.3c-0.3-0.8-0.6-1.6-0.9-2.4c-0.1-0.4-0.3-0.8-0.4-1.2c-0.3-0.8-0.5-1.7-0.8-2.5
	c-0.1-0.4-0.2-0.8-0.3-1.2c-0.2-0.9-0.5-1.8-0.7-2.7c-0.1-0.4-0.2-0.7-0.2-1.1c-0.2-1-0.4-1.9-0.6-2.9c-0.1-0.3-0.1-0.7-0.2-1
	c-0.2-1-0.3-2-0.4-3c0-0.3-0.1-0.7-0.1-1c-0.1-1-0.2-2-0.3-3.1c0-0.3,0-0.7-0.1-1c0-1-0.1-2-0.1-3c0-0.6,0-1.1,0-1.7
	c0-0.4,0-0.7,0-1.1c0-1.1,0.1-2.1,0.2-3.2c0-0.2,0-0.5,0.1-0.7c0.1-1.1,0.2-2.2,0.3-3.3c0-0.2,0.1-0.4,0.1-0.6
	c0.1-1.1,0.3-2.2,0.5-3.3c0-0.2,0.1-0.3,0.1-0.5c0.2-1.1,0.4-2.3,0.7-3.4c0-0.1,0-0.1,0.1-0.2c0.2-1,0.5-2.1,0.8-3.1
	c0.1-0.4,0.2-0.8,0.4-1.2c0.2-0.7,0.4-1.3,0.6-2c0.2-0.5,0.3-0.9,0.5-1.4c0.2-0.6,0.4-1.2,0.7-1.8c0.2-0.5,0.4-0.9,0.5-1.4
	c0.3-0.7,0.6-1.4,0.9-2.2c0.3-0.7,0.7-1.5,1-2.2c0.2-0.4,0.4-0.9,0.6-1.3c0.3-0.6,0.6-1.1,0.9-1.7c0.2-0.4,0.4-0.8,0.6-1.2
	c0.3-0.6,0.6-1.1,1-1.7c0.2-0.4,0.4-0.7,0.6-1c0.8-1.3,1.6-2.5,2.4-3.7c0.1-0.1,0.2-0.2,0.2-0.3c0.4-0.5,0.7-1,1.1-1.5
	c0.3-0.4,0.6-0.7,0.8-1.1c0.4-0.5,0.7-0.9,1.1-1.4c0.3-0.4,0.7-0.8,1-1.2c0.4-0.4,0.7-0.8,1.1-1.2c0.4-0.5,0.9-1,1.4-1.5
	c0.3-0.3,0.6-0.6,0.9-0.9c0.7-0.7,1.4-1.5,2.2-2.2c0.3-0.3,0.5-0.5,0.8-0.7c0.6-0.5,1.2-1.1,1.8-1.6c0.2-0.2,0.4-0.4,0.6-0.5
	c0.8-0.7,1.6-1.4,2.4-2c0.1-0.1,0.2-0.1,0.2-0.2c0.8-0.6,1.6-1.2,2.4-1.7c0.2-0.2,0.4-0.3,0.7-0.5c0.9-0.6,1.7-1.2,2.6-1.8
	c0.1-0.1,0.2-0.1,0.3-0.2c0.8-0.5,1.7-1,2.5-1.5c0.2-0.1,0.5-0.3,0.7-0.4c0.9-0.5,1.9-1,2.8-1.5c0.1,0,0.2-0.1,0.3-0.1
	c0.9-0.4,1.8-0.9,2.7-1.3c0.2-0.1,0.5-0.2,0.7-0.3c1-0.4,2-0.8,2.9-1.2c0.1,0,0.2-0.1,0.3-0.1c0.9-0.4,1.9-0.7,2.8-1
	c0.3-0.1,0.5-0.2,0.8-0.3c1-0.3,2-0.7,3.1-1c0.1,0,0.2-0.1,0.3-0.1c1-0.3,1.9-0.5,2.9-0.7c0.3-0.1,0.5-0.1,0.8-0.2
	c0.6-0.1,1.2-0.2,1.8-0.4c0.7-0.1,1.4-0.3,2.2-0.4c0.5-0.1,1-0.2,1.5-0.2c0.8-0.1,1.5-0.2,2.3-0.3c0.5-0.1,1-0.1,1.5-0.2
	c0.8-0.1,1.6-0.1,2.3-0.2c0.5,0,1.1-0.1,1.6-0.1c0.7,0,1.5-0.1,2.2-0.1c0.7,0,1.4,0,2.1,0c0.3,0,0.7,0,1,0c1.1,0,2.3,0.1,3.5,0.2
	c1.2,0.1,2.4,0.2,3.6,0.4c0.4,0,0.8,0.1,1.2,0.2c0.8,0.1,1.6,0.2,2.4,0.4c0.5,0.1,0.9,0.2,1.4,0.3c0.7,0.1,1.4,0.3,2.2,0.4
	c0.5,0.1,0.9,0.2,1.4,0.3c0.7,0.2,1.4,0.3,2.1,0.5c0.5,0.1,0.9,0.3,1.4,0.4c0.7,0.2,1.4,0.4,2.1,0.6c0.4,0.1,0.9,0.3,1.3,0.4
	c0.7,0.2,1.4,0.5,2.1,0.8c0.4,0.1,0.8,0.3,1.2,0.4c0.9,0.3,1.7,0.7,2.6,1.1c0.2,0.1,0.4,0.2,0.6,0.3c1,0.4,1.9,0.9,2.9,1.4
	c0.3,0.2,0.6,0.3,0.9,0.5c0.7,0.4,1.4,0.7,2.1,1.1c0.3,0.2,0.6,0.3,0.9,0.5c0.9,0.5,1.8,1.1,2.6,1.6c0.3,0.2,0.5,0.3,0.8,0.5
	c0.7,0.4,1.3,0.9,1.9,1.3c0.3,0.2,0.6,0.4,0.9,0.6c0.8,0.6,1.5,1.1,2.3,1.7c0.1,0.1,0.2,0.1,0.3,0.2c0.8,0.6,1.6,1.3,2.4,2
	c0.3,0.3,0.7,0.6,1,0.9c0.5,0.5,1,0.9,1.5,1.4c0.3,0.3,0.7,0.7,1,1c0.5,0.5,1,0.9,1.4,1.4c0.3,0.3,0.7,0.7,1,1
	c0.5,0.5,0.9,1,1.4,1.5c0.3,0.4,0.6,0.7,0.9,1.1c0.5,0.5,0.9,1.1,1.3,1.6c0.3,0.3,0.6,0.7,0.8,1c0.5,0.6,0.9,1.2,1.4,1.8
	c0.2,0.3,0.5,0.6,0.7,0.9c0.6,0.9,1.3,1.8,1.9,2.8c0,0,0,0,0,0.1c0.6,1,1.2,1.9,1.8,2.9c0.2,0.3,0.4,0.7,0.5,1
	c0.4,0.7,0.7,1.4,1.1,2c0.2,0.4,0.4,0.8,0.6,1.2c0.3,0.6,0.6,1.3,0.9,1.9c0.2,0.4,0.4,0.9,0.6,1.3c0.3,0.6,0.5,1.3,0.8,1.9
	c0.2,0.5,0.4,0.9,0.5,1.4c0.2,0.6,0.5,1.3,0.7,1.9c0.2,0.5,0.3,0.9,0.5,1.4c0.2,0.7,0.4,1.3,0.6,2c0.1,0.5,0.3,0.9,0.4,1.4
	c0.2,0.7,0.4,1.4,0.5,2.1c0.1,0.4,0.2,0.9,0.3,1.3c0.2,0.8,0.3,1.7,0.5,2.5c0.1,0.3,0.1,0.6,0.2,1c0.2,1.1,0.4,2.3,0.5,3.4
	c0,0.4,0.1,0.8,0.1,1.1c0.1,0.8,0.2,1.6,0.2,2.3c0,0.5,0.1,1,0.1,1.5c0,0.7,0.1,1.4,0.1,2.1c0,0.5,0,1,0,1.5c0,0.8,0,1.6,0,2.4
	c0,0.3,0,0.7,0,1c0,1.2-0.1,2.3-0.2,3.5c-0.1,1-0.2,2-0.3,3c0,0.3-0.1,0.6-0.1,0.9c-0.1,0.7-0.2,1.4-0.3,2c-0.1,0.4-0.1,0.7-0.2,1.1
	c-0.1,0.6-0.2,1.3-0.3,1.9c-0.1,0.4-0.1,0.7-0.2,1.1c-0.1,0.7-0.3,1.3-0.4,1.9c-0.1,0.3-0.1,0.6-0.2,0.9c-0.2,0.9-0.5,1.7-0.7,2.6
	c0,0.1,0,0.1-0.1,0.2c-0.3,0.9-0.6,1.8-0.9,2.8C170.9,130.6,170.8,130.9,170.7,131.2z M88.9,73.2c-0.4,3.9,1.5,10.2,7.8,10.1
	c7.4-0.1,9.6-6.5,8.8-12.6c-0.6-4.6-4.1-8-8.2-7.7C92.5,63.4,89.3,69.4,88.9,73.2z" />
</svg>