<svg width="200" height="200" version="1.1" viewBox="0 0 200 200" xml:space="preserve"
	xmlns:xlink="http://www.w3.org/1999/xlink" xmlns="http://www.w3.org/2000/svg">
	<style>
		.discord {
			fill: #5865F2;
		}
	</style>
	<rect width="200" height="200" style="fill: var(--bg, #2c2f33); rx: var(--rx, 24px); filter: var(--filter);" />
	<path class="discord" d="M152.1,52.7c-9.9-4.5-20.3-7.7-30.9-9.5c-1.5,2.6-2.8,5.3-4,8.1c-11.4-1.7-23-1.7-34.3,0
	c-1.2-2.8-2.5-5.4-4-8.1c-10.7,1.8-21.1,5-31,9.5c-19.6,29-24.9,57.2-22.2,85.1l0,0c11.5,8.5,24.3,14.9,38,19.1
	c3.1-4.1,5.8-8.5,8.1-13.1c-4.4-1.7-8.7-3.7-12.8-6.1c1.1-0.8,2.1-1.6,3.1-2.4c24,11.3,51.9,11.3,75.9,0c1,0.8,2.1,1.6,3.1,2.4
	c-4.1,2.4-8.4,4.5-12.8,6.1c2.3,4.6,5.1,9,8.1,13.1c13.7-4.1,26.5-10.6,38-19l0,0C177.5,105.5,169,77.5,152.1,52.7z M75.1,120.7
	c-7.4,0-13.5-6.7-13.5-15s5.9-15,13.5-15c7.6,0,13.7,6.8,13.5,15C88.4,113.9,82.6,120.7,75.1,120.7z M124.9,120.7
	c-7.4,0-13.5-6.7-13.5-15s5.9-15,13.5-15c7.6,0,13.6,6.8,13.5,15S132.5,120.7,124.9,120.7z" />
</svg>