<svg width="200" height="200" version="1.1" viewBox="0 0 200 200" xml:space="preserve"
	xmlns:xlink="http://www.w3.org/1999/xlink" xmlns="http://www.w3.org/2000/svg">
	<style>
		.django {
			fill: #fff;
		}
	</style>
	<rect width="200" height="200" style="fill: var(--bg, #0c4b33); rx: var(--rx, 24px); filter: var(--filter);" />
	<path class="django" d="M94.6,25h24.8v113.6c-10.6,2.2-21.3,3.3-32.1,3.3c-30.3,0-46-13.6-46-39.5c0-25,16.7-41.3,42.6-41.3
	c3.6-0.1,7.3,0.3,10.8,1.3V25L94.6,25z M94.6,82.1c-2.7-0.9-5.5-1.3-8.4-1.3c-12.5,0-19.8,7.6-19.8,21c0,13,6.9,20.2,19.6,20.2
	c2.8,0,5.7-0.2,8.5-0.6V82.1L94.6,82.1z M158.8,62.9v56.9c0,19.6-1.5,29-5.8,37.1c-4.4,8.3-11.6,14.7-20.3,18.1l-23-10.8
	c8.4-2.9,15.3-8.7,19.6-16.4c3.5-7,4.7-15.1,4.7-36.5V62.9H158.8z M134,25.1h24.8v25.2H134V25.1z" />
</svg>