<svg width="200" height="200" version="1.1" viewBox="0 0 200 200" xml:space="preserve"
	xmlns:xlink="http://www.w3.org/1999/xlink" xmlns="http://www.w3.org/2000/svg">
	<style>
		.docker {
			fill: #ffffff;
		}
	</style>
	<rect width="200" height="200" style="fill: var(--bg, #1D63ED); rx: var(--rx, 24px); filter: var(--filter);" />
	<path class="docker" d="M106.8,42H93.2v13.6h13.6V42z M52.3,62.5h13.6v13.6H52.3V62.5z M25,109.8C26.2,129.6,38,158,79.5,158
	c46.4,0,67-34.1,71.6-51.1c5.7,0,18.4-3.4,23.9-17c-3.4-3.4-17-3.4-23.9,0c0-5.5-3.4-17-10.2-20.5c-4.5,4.5-11.6,16.4-3.4,27.3
	c-3.4,6.8-12.5,6.8-17,6.8h-89C27.8,103.4,24.8,106.2,25,109.8z M45.5,83H31.8v13.6h13.6V83z M52.3,83h13.6v13.6H52.3V83z M86.4,83
	H72.7v13.6h13.6V83z M93.2,83h13.6v13.6H93.2V83z M127.3,83h-13.6v13.6h13.6V83z M86.4,62.5H72.7v13.6h13.6V62.5z M93.2,62.5h13.6
	v13.6H93.2V62.5z" />
</svg>