<svg width="200" height="200" version="1.1" viewBox="0 0 200 200" xml:space="preserve"
	xmlns:xlink="http://www.w3.org/1999/xlink" xmlns="http://www.w3.org/2000/svg">
	<style>
		.dotnet {
			fill: #000;
		}
	</style>
	<rect width="200" height="200" style="fill: var(--bg, #fff); rx: var(--rx, 24px); filter: var(--filter);" />
	<path class="dotnet" d="M35.9,122.8c0,1.4-0.6,2.7-1.6,3.7h0c-1,0.9-2.4,1.5-3.8,1.5s-2.8-0.6-3.8-1.5l0,0c-1-0.9-1.6-2.2-1.6-3.7s0.6-2.7,1.6-3.7
	h0c1-0.9,2.4-1.5,3.8-1.5s2.8,0.6,3.8,1.5l0,0C35.2,120,35.9,121.3,35.9,122.8L35.9,122.8L35.9,122.8z M90.3,127.1h-9.7L54.9,86.6
	c-0.6-0.9-1.1-2-1.6-3.1l0-0.1H53c0.2,1.8,0.3,3.9,0.3,6.1c0,0.5,0,1,0,1.6V91v36.1h-8.6v-55h10.4l24.8,39.5c1,1.6,1.7,2.8,2,3.4
	h0.2c-0.3-1.9-0.4-4-0.4-6.2c0-0.4,0-0.8,0-1.2v0.1V72.1h8.6L90.3,127.1z M132.2,127.1H102v-55H131v7.8h-20v15.6h18.5v7.7h-18.5
	v16.3h21.2L132.2,127.1z M175,79.8h-15.4v47.3h-8.9V79.8h-15.4v-7.8H175L175,79.8z" />
</svg>