<svg width="200" height="200" version="1.1" viewBox="0 0 200 200" xml:space="preserve"
	xmlns:xlink="http://www.w3.org/1999/xlink" xmlns="http://www.w3.org/2000/svg">
	<style>
		.drizzle {
			fill: #c5f74f;
		}
	</style>
	<rect width="200" height="200" style="fill: var(--bg, #000); rx: var(--rx, 24px); filter: var(--filter);" />
	<path class="drizzle" d="M56,90L56,90c3.2,1.8,4.3,5.7,2.5,8.9l-21.1,36.9c-1.8,3.1-5.8,4.3-9,2.5l0,0c-3.2-1.8-4.3-5.7-2.5-8.9L47,92.5
	C48.8,89.4,52.8,88.2,56,90z M101.6,61.7L101.6,61.7c3.2,1.8,4.3,5.7,2.5,8.9l-21.1,36.9c-1.8,3.1-5.8,4.3-9,2.5l0,0
	c-3.2-1.8-4.3-5.7-2.5-8.9l21.1-36.9C94.4,61.1,98.4,60,101.6,61.7z M171.7,61.7L171.7,61.7c3.2,1.8,4.3,5.7,2.5,8.9L153,107.5
	c-1.8,3.1-5.8,4.3-9,2.5l0,0c-3.2-1.8-4.3-5.7-2.5-8.9l21.1-36.9C164.5,61.1,168.5,60,171.7,61.7z M126.1,90L126.1,90
	c3.2,1.8,4.3,5.7,2.5,8.9l-21.1,36.9c-1.8,3.1-5.8,4.3-9,2.5l0,0c-3.2-1.8-4.3-5.7-2.5-8.9l21.1-36.9
	C118.9,89.4,122.9,88.2,126.1,90z" />
</svg>