<svg width="200" height="200" version="1.1" viewBox="0 0 200 200" xml:space="preserve"
	xmlns:xlink="http://www.w3.org/1999/xlink" xmlns="http://www.w3.org/2000/svg">
	<style>
		.drupal {
			fill: #009DDE;
		}
	</style>
	<rect width="200" height="200" style="fill: var(--bg, #fff); rx: var(--rx, 24px);" />
	<g>
		<path class="drupal" d="M100,25c-3,11.3-13.1,21.4-23.6,31.9c-15.8,15.8-33.8,33.8-33.8,60.7c0,31.7,25.7,57.3,57.3,57.4
		c31.7,0,57.4-25.7,57.5-57.4c0-26.9-17.9-44.8-33.8-60.7l0,0l-1.4-1.4C112.2,45.5,102.8,35.8,100,25z M100.8,110.9
		c6.6,7,10.8,11.9,15.1,17.2c0.3,0.4,0.6,0.8,0.9,1.3c5.3,7.7,4.6,18-1.7,24.8c-7.4,8.1-20,8.6-28,1.1c-8.1-7.4-8.6-20-1.1-28
		C90.1,122.2,95.2,117.3,100.8,110.9z M74.6,84.6l2.8,2.6l12.9,13.1c0.5,0.6,0.5,1.4,0,1.9l0,0l-13.4,14.9l-4.7,5.7
		c-1.8,2.2-3.3,4.6-4.5,7.1c-0.2,0.4-0.5,0.7-1,0.8l0,0h-0.5c-1.3-0.1-2.8-2.5-2.8-2.5l0,0l-0.2-0.4c-0.3-0.5-0.6-1-0.9-1.5l0,0
		l-0.3-0.5c-1.8-6-2-12.4-0.4-18.4l0,0l0.2-0.6c1.4-5,3.7-9.8,6.7-14.1C70.2,89.9,72.3,87.2,74.6,84.6L74.6,84.6z M100.1,58
		c3.4,3.9,7.3,7.8,10.9,11.4l0,0l0.1,0.3c7.6,7.1,14.5,14.9,20.5,23.4c5.1,7.2,7.9,15.8,8,24.7c0,3.8-0.6,7.6-1.7,11.3l0,0l-0.1,0.2
		c-0.3,0.7-1,1.3-1.8,1.4l0,0h-0.4c-0.8-0.3-1.4-0.8-1.9-1.5l0,0l-0.6-0.9c-3.3-4.9-7-9.4-11-13.6l0,0L117,109L99.5,90.8
		c-3-2.8-8.2-7.9-10.5-10.7c-0.1-0.2-0.2-0.3-0.3-0.4c-0.6-0.8-1.1-1.7-1.4-2.7l0,0v-0.5c-0.3-1.8-0.1-3.6,0.7-5.2
		c0.5-1,1.2-2,2-2.8C93.5,65,96.9,61.7,100.1,58z" />
	</g>
</svg>