<svg width="200" height="200" version="1.1" viewBox="0 0 200 200" xml:space="preserve"
	xmlns:xlink="http://www.w3.org/1999/xlink" xmlns="http://www.w3.org/2000/svg">
	<style>
		.elastic--fragment-0 {
			fill: #FFFFFF;
		}

		.elastic--fragment-1 {
			fill: #FED10A;
		}

		.elastic--fragment-2 {
			fill: #24BBB1;
		}

		.elastic--fragment-3 {
			fill: #EF5098;
		}

		.elastic--fragment-4 {
			fill: #1BA9F5;
		}

		.elastic--fragment-5 {
			fill: #93C83E;
		}

		.elastic--fragment-6 {
			fill: #0B64DD;
		}
	</style>
	<rect width="200" height="200" style="fill: var(--bg, #fff); rx: var(--rx, 24px); filter: var(--filter);" />
	<g>
		<path class="elastic--fragment-0" d="M175,103.6c0-12.6-7.8-23.6-19.5-27.8c0.5-2.7,0.8-5.3,0.8-8.1c0-23.4-19-42.4-42.3-42.4
		c-13.7,0-26.4,6.5-34.4,17.6c-3.9-3-8.7-4.7-13.8-4.7c-12.4,0-22.5,10.1-22.5,22.5c0,2.7,0.5,5.4,1.4,7.9C33,72.7,25,84,25,96.4
		c0,12.6,7.9,23.6,19.6,27.9c-0.5,2.6-0.8,5.3-0.8,8.1c0,23.3,19,42.3,42.3,42.3c13.7,0,26.4-6.6,34.3-17.6
		c3.9,3.1,8.7,4.8,13.8,4.8c12.4,0,22.5-10.1,22.5-22.5c0-2.7-0.5-5.4-1.4-7.9C166.9,127.3,175,116.1,175,103.6z" />
		<path class="elastic--fragment-1" d="M84,89.7l32.8,15l33.1-29c0.5-2.4,0.7-4.8,0.7-7.3c0-20.4-16.6-37-37-37c-12.2,0-23.6,6-30.5,16.1L77.6,76
		L84,89.7z" />
		<path class="elastic--fragment-2" d="M50,124.4c-0.5,2.4-0.7,4.9-0.7,7.4c0,20.5,16.7,37.1,37.2,37.1c12.3,0,23.8-6.1,30.7-16.2l5.5-28.5l-7.3-13.9
		l-33-15L50,124.4z" />
		<path class="elastic--fragment-3" d="M49.8,67.6l22.5,5.3l4.9-25.5c-3-2.3-6.8-3.6-10.8-3.6c-9.8,0-17.8,7.9-17.8,17.8
		C48.7,63.6,49.1,65.7,49.8,67.6z" />
		<path class="elastic--fragment-4"
			d="M47.8,73c-10,3.3-17.1,12.9-17.1,23.5c0,10.3,6.4,19.5,16,23.2l31.6-28.5l-5.8-12.4L47.8,73z" />
		<path class="elastic--fragment-5" d="M122.8,152.7c3.1,2.3,6.8,3.7,10.7,3.7c9.8,0,17.8-7.9,17.8-17.8c0-2.2-0.4-4.2-1.1-6.1l-22.4-5.3L122.8,152.7
		z" />
		<path class="elastic--fragment-6"
			d="M127.4,121.3l24.7,5.8c10.1-3.3,17.1-12.9,17.1-23.6c0-10.3-6.4-19.5-16-23.1l-32.3,28.3L127.4,121.3z" />
	</g>
</svg>