<svg width="200" height="200" version="1.1" viewBox="0 0 200 200" xml:space="preserve"
	xmlns:xlink="http://www.w3.org/1999/xlink" xmlns="http://www.w3.org/2000/svg">
	<style>
		.elysia--fragment-0 {
			fill-rule: evenodd;
			clip-rule: evenodd;
			fill: #333333;
		}

		.elysia--fragment-1 {
			fill: #CCCCCC;
		}

		.elysia--fragment-2 {
			fill: #EDEDED;
		}

		.elysia--fragment-3 {
			fill: #B2B2B2;
		}

		.elysia--fragment-4 {
			fill: #FFFFFF;
		}

		.elysia--fragment-5 {
			fill: #666666;
		}

		.elysia--fragment-6 {
			fill: #5E5E5E;
		}
	</style>
	<rect width="200" height="200" style="fill: var(--bg, #fff); rx: var(--rx, 24);" />
	<g>
		<path class="elysia--fragment-0" d="M149.3,163.5c15.7-13.7,25.7-34,25.7-56.5c0-41.4-33.6-75-75-75s-75,33.6-75,75c0,21.9,9.4,41.6,24.3,55.3
		l0.1-0.5l98.4-32.2L149.3,163.5z" />
		<path class="elysia--fragment-1" d="M80.6,41l-13.3-2l2-0.6c1.2-0.4,2.3-0.9,3.3-1.7l0.3-0.2c1.2-0.9,2.2-2.1,2.8-3.5c0.3-0.7,0.6-1.5,0.7-2.3
		l0.1-0.9c0.2-1,0.2-2,0-3c-0.1-0.4,0.3-0.8,0.7-0.6l0.5,0.2c0.7,0.3,1.3,0.6,2,1l2.3,1.4c3,1.8,5.6,4.2,7.8,7l1.5,2
		c0.6,0.7,1.2,1.4,2,1.9c0.8,0.6,1.7,1.1,2.7,1.4l1,0.4l-5.5,0.2C87.9,41.8,84.3,41.6,80.6,41z" />
		<path class="elysia--fragment-1" d="M77.2,52.8l3.9-7.2c0-0.1,0-0.2,0-0.2l-1.3-2.8c-0.8-1.8-2.6-2.9-4.6-2.9l-0.4,0c-2.6-0.1-5.1-0.5-7.6-1.1
		l-0.5-0.1c-2-0.5-4-1.3-5.9-2.2L60,35.8c-1.3-0.6-2.4-1.4-3.6-2.2l-1.1-0.9c-0.3-0.3-0.8-0.2-1.1,0.1c-0.8,1-1.2,2.3-1.4,3.5
		l-0.2,1.8c-0.1,0.9-0.1,1.9,0,2.8l0.5,5.5c0.4,4.1,1.8,8,4.1,11.4l0.5,0.7c0.7,1,1.5,2,2.5,2.8c0.1,0.1,0.3,0.2,0.5,0.2
		C67.5,62.2,74,58.8,77.2,52.8z" />
		<path class="elysia--fragment-2" d="M62.3,61.8l4.7-2c2.1-0.9,2.7-3.5,1.3-5.3c-1.2-1.4-3.3-1.6-4.7-0.5l-1.1,0.9c-0.3,0.2-0.5,0.4-0.7,0.7
		l-2.7,3.2c-0.4,0.5-0.3,1.1,0.1,1.5l0.8,0.9c0.1,0.2,0.3,0.3,0.5,0.4C61,62,61.7,62,62.3,61.8z" />
		<path class="elysia--fragment-3" d="M68.4,38.7l-0.1,0l0.4,0.1c1.9,0.6,3.8,0.9,5.7,1c0.1,0,0.2,0,0.3,0l0.9-0.3l0.4-0.1l-2.8-0.6
		c-0.4-0.1-0.7-0.2-1-0.5c-0.2-0.2-0.2-0.5,0-0.7l0.4-0.3c0.5-0.4,0.9-0.9,1.2-1.5C72.1,37.1,70.3,38.1,68.4,38.7z" />
		<path class="elysia--fragment-4" d="M84.4,89.9l-38.2,68.3c-0.2,0.3-0.7,0.4-0.9,0.1l-0.8-0.8l-3.2-3.7l-2.1-2.7c-1.9-2.5-3.7-5.2-5.2-8l-0.3-0.5
		c-1.6-3-3-6.1-4-9.3l-1-3.1c-1.5-5.6-1.9-11.5-1-17.2l0-0.2c0.4-2.5,1-5,1.8-7.4l1.7-5l1.3-2.7c2-4.1,4.7-7.9,8-11l1.6-1.5
		c3.3-3.2,7.4-5.5,11.8-6.7c-1,0.3-2.1,0.5-3.2,0.6l-2.1,0.2L47,79.5l-1.8,0.3l-1.8,0.2l-1.2,0.1l-0.8,0.1c-0.3,0-0.4-0.3-0.2-0.5h0
		l1.2-0.6c3.8-1.8,6.9-4.8,8.9-8.5l1.3-2c1.6-2.4,3.6-4.5,6.1-6l0.5-0.3c0.9-0.6,1.9-1,2.9-1.4l4.6-1.6c0.9-0.3,1.5-0.9,1.9-1.8
		l0.1-0.2c0.2-0.4,0.2-0.8,0.2-1.2c-0.1-0.6-0.3-1.2-0.8-1.6l-0.8-0.7c0,0-0.1-0.1-0.1-0.1l-5.2-7l-4.2-5.7
		c-0.8-1.1-1.3-2.5-1.4-3.9c0-0.2,0.2-0.4,0.4-0.3l4.5,2.2c3.9,1.9,8.3,2.3,12.5,1.1c1-0.3,2-0.5,3-0.6l2.1-0.2
		c5.2-0.5,10.4-0.1,15.5,1.3l0.4,0.1l4.9,1.8c6.2,2.2,11.1,7,13.4,13.2l1,4c0.3,1.1,0.7,2.2,1.2,3.2c1.2,2.4,3,4.5,5.3,6.1l2.6,1.8
		c1.2,0.8,2.4,1.5,3.6,2.2l5.8,2.9c0.3,0.1,0.3,0.5,0.2,0.7c-1.6,2.1-3.7,3.8-6.1,4.8l-3.4,1.5c-1.3,0.6-2.7,1.1-4.1,1.4l-2.5,0.7
		c-3.5,0.9-7,1.4-10.6,1.4h-5.9c-1.2,0-2.4-0.2-3.6-0.7C92,83.8,86.8,85.6,84.4,89.9z" />
		<path class="elysia--fragment-5" d="M104.4,65.2l2.6,0c0.4,0,0.4-0.5,0.1-0.6c-0.5-0.2-1.1-0.4-1.6-0.7l-2-1c-1.4-0.7-2.6-1.6-3.8-2.5l-0.4-0.3
		c-0.9-0.7-1.7-1.6-2.4-2.5L96.4,57c-0.2-0.2-0.5-0.1-0.5,0.2C96.3,61.7,100,65.2,104.4,65.2z" />
		<path class="elysia--fragment-1" d="M49.1,159.3l43.7-39c4.1-3.7,7.7-7.9,10.6-12.6l0.3-0.4c1.4-2.9,2-6.1,1.8-9.3l-0.4-4.4
		c-0.2-2.7-1.4-5.3-3.2-7.3c-0.1-0.1-0.2-0.1-0.3-0.2l-7-1.4c-5.1-1.5-10.5-1.8-15.7-0.6l-0.3,0.1l-4.1,1
		c-11.9,2.8-22.4,9.8-29.5,19.7l-0.2,0.3c-2,2.7-3.6,5.7-5,8.8l-0.2,0.6c-3.4,7.8-4.5,16.4-3.3,24.8l0.4,2.8
		c0.4,2.8,1.3,5.6,2.5,8.2c1.2,2.4,2.7,4.6,4.5,6.5l2.2,2.4C46.7,160.1,48.2,160.1,49.1,159.3z" />
		<path class="elysia--fragment-6"
			d="M87.3,107.3l-0.1,0.1c-3.7,2.1-5.7,6.1-5.5,10.3c0.1,1.2,1.3,2.3,2.4,2l2.1-0.6c2.8-0.8,5.3-2.2,7.5-4l6.2-5.4
		l1.8-1.4c10.7-7.9,24.2-11.2,37.3-9.1c0.4,0.1,0.4,0.6,0,0.7l-1.6,0.3l-0.7,0.2c-1.4,0.5-2.7,1.4-3.6,2.7c-0.2,0.2,0.1,0.5,0.3,0.5
		l0.5-0.2c2.9-0.9,5.9-1.2,8.9-1l1.2,0.1c6.4,0.3,12.3,3.4,16.2,8.5l1.4,1.9c4.3,5.7,6.1,12.9,5,19.9l-0.6,3.7
		c-0.8,5-2.6,9.8-5.3,14l-0.2,0.3l-3.1,4.1l-3.4,3.8l-3.1,3c-2.8,2.7-5.9,5.1-9.2,7.2l-1,0.7l-2,1c-0.5,0.2-0.9-0.5-0.5-0.8l2.8-2.6
		l0.6-0.6c1.5-1.6,2.7-3.6,3.2-5.8l0.3-1c0.1-0.4,0.2-0.9,0.2-1.4c0-2.5-1.8-4.8-4.3-5.3c-1.5-0.3-3.1,0.1-4.4,1.1l-2.8,2.2l-4.9,4
		c-3.2,2.6-6.7,4.9-10.3,6.8l-5,2.6l-8.5,3.2l-1.8,0.5c-3.1,0.8-6.3,1.4-9.5,1.8l-2.4,0.2h-7.6l-10.1-1.1l-5.5-1.2
		c-2.9-0.6-5.7-1.6-8.3-3c-2.1-1.1-4.2-2.4-6-3.9L50,163c-5.1-3.9-8.3-9.8-8.8-16.3l-0.3-3.4l0.3-4.7c0.5-7.4,3.3-14.4,8.1-20.1
		c1.9-2.3,4.1-4.3,6.6-6l0.9-0.6c3.7-2.6,7.9-4.6,12.3-5.7l3-0.8c3.9-1,7.9-1.1,11.8-0.3l3.1,0.6C87.9,105.8,88,106.9,87.3,107.3z" />
	</g>
</svg>