<svg width="200" height="200" version="1.1" viewBox="0 0 200 200" xml:space="preserve"
	xmlns:xlink="http://www.w3.org/1999/xlink" xmlns="http://www.w3.org/2000/svg">
	<style>
		.ember {
			fill: #E24B31;
		}
	</style>1c1e24
	<rect width="200" height="200" style="fill: var(--bg, #1c1e24); rx: var(--rx, 24);" />
	<path class="ember" d="M128.6,114.1c0,0-0.7-2.5,1.9-7.2c2.6-4.7,4.6-2.1,4.6-2.1s2.2,2.4-0.3,6C132.3,114.4,128.6,114.1,128.6,114.1
	M108.8,117.5c-3,7.7-10.1,4.6-10.1,4.6s-0.8-2.8,1.5-10.5c2.3-7.7,7.8-4.7,7.8-4.7S111.8,109.8,108.8,117.5 M103.5,85.1
	c0,0,4.5-11.7,5.6-6c1.1,5.7-9.4,22.5-9.4,22.5C99.7,97.9,103.5,85.1,103.5,85.1 M39.5,114.1c0.2-7.5,5.1-10.8,6.8-9.1
	s1.1,5.2-2.1,7.4C41,114.6,39.5,114.1,39.5,114.1 M175,112.9c-0.2-2.5-2.5-1.6-2.5-1.6s-3.7,2.8-6.9,2.5c-3.2-0.3-2.2-7.5-2.2-7.5
	s0.7-6.6-1.2-7.1c-1.9-0.6-4.2,1.7-4.2,1.7s-2.9,3.2-4.3,7.3l-0.4,0.1c0,0,0.4-7.2-0.1-8.8c-0.4-0.8-3.8-0.7-4.4,0.7
	c-0.6,1.4-3.3,11.5-3.5,15.7c0,0-5.4,4.6-10.1,5.4c-4.7,0.7-5.9-2.2-5.9-2.2s12.9-3.6,12.4-13.8c-0.4-10.3-10.4-6.5-11.5-5.6
	c-1.1,0.8-6.9,4.3-8.6,14c0,0.3-0.2,1.8-0.2,1.8s-5,3.3-7.7,4.2c0,0,7.7-13-1.7-19c-4.3-2.6-7.7,2.8-7.7,2.8s12.8-14.2,9.9-26.3
	c-1.3-5.7-4.2-6.3-6.8-5.4c-4,1.6-5.5,3.9-5.5,3.9s-5.2,7.5-6.4,18.6s-3,24.6-3,24.6s-2.5,2.4-4.7,2.5c-2.3,0.1-1.2-6.7-1.2-6.7
	s1.8-10.5,1.6-12.2c-0.1-1.8-0.2-2.7-2.3-3.3c-2.1-0.6-4.3,2-4.3,2s-6,9.1-6.5,10.5l-0.3,0.6l-0.3-0.4c0,0,4.2-12.4,0.2-12.5
	c-4-0.2-6.7,4.4-6.7,4.4s-4.6,7.7-4.8,8.6l-0.3-0.4c0,0,1.9-8.9,1.5-11.2C64,98.5,62,99,62,99s-2.6-0.3-3.3,1.4
	c-0.7,1.7-3.2,13-3.5,16.6c0,0-6.6,4.7-11,4.8c-4.3,0.1-3.9-2.8-3.9-2.8s15.9-5.5,11.6-16.2c-1.9-2.8-4.2-3.6-7.4-3.6
	c-3.2,0.1-7,2-9.6,7.8c-1.2,2.8-1.7,5.4-1.7,7.4l0,0c0,0-3,0.6-4.5-0.7c-1.5-1.2-2.4,0-2.4,0s-2.6,3.8-0.1,4.8
	c2.6,1,6.6,1.9,6.6,1.9l0,0c0.4,1.6,1.4,4.3,4.6,6.7c4.7,3.6,13.8-0.6,13.8-0.6l3.7-2.2c0,0,0.1,3.3,2.8,3.8c2.7,0.5,3.8,0,8.6-11.5
	c2.8-5.9,3-5.6,3-5.6l0.3-0.1c0,0-2.1,11.2-1.3,14.2c0.8,3,4.4,2.7,4.4,2.7s1.9,0.7,3.5-4.9c1.6-5.6,4.6-11.3,4.6-11.3H81
	c0,0-1.3,11.2,0.7,14.8c2,3.7,7.2,1.1,7.2,1.1s3.7-1.9,4.2-2.5c0,0,4.3,3.7,10.5,3c13.7-2.7,18.5-6.3,18.5-6.3s2.4,5.9,9.6,6.5
	c8.3,0.6,12.9-4.6,12.9-4.6s-0.1,3.4,2.8,4.6c2.9,1.2,4.9-5.1,4.9-5.1l4.9-13h0.4c0,0,0.2,8.3,5,9.7c4.8,1.4,11.1-3.4,11.1-3.4
	S175.2,115.4,175,112.9" />
</svg>