<svg width="200" height="200" version="1.1" viewBox="0 0 200 200" xml:space="preserve"
	xmlns:xlink="http://www.w3.org/1999/xlink" xmlns="http://www.w3.org/2000/svg">
	<style>
		.eta {
			fill: #ffffff;
		}
	</style>
	<rect width="200" height="200" style="fill: var(--bg, #32BEBE); rx: var(--rx, 24);" />
	<path class="eta" d="M125.6,35.5c0.5-0.3,0.9,0,1.5,0.3c28.4,14.4,48.4,39.9,47.9,72c-0.1,3.9-0.5,7.9-1.6,11.5
	c-0.3,1-0.6,2.5-1.2,3c-0.6-0.5-0.6-1.7-0.7-2.5c-4.8-34.6-39.9-32.3-48.4,0.7c-0.6,0-0.6-0.3-1-0.6c-13.7-12.1-54.2-45-40.1-63.3
	c6.7-7.9,13.7-5.6,15.7-5.2c-0.7-1-3.7-4.4-3.7-5.4c9.4,2,15.9,4.4,21.4,12.8c2.3,3.5,3.7,10,1.4,14.2l-0.2-0.2c0,0,0,0-0.1-0.1
	c-0.9-1.5-2.8-4.3-3.8-5.9c-2.3-3.6-2.2-1.6-4.7,1.5c-0.3,0.4-2.7,3.6-3.1,3.8c-0.2-3.6-0.5-6.3-2.1-9c-3.6-5.9-14-5.9-14.3,2.1
	c1.1,28.1,59.4,28.3,44-16.2c-1.5-4.2-2.6-6.6-4.9-10.4C127,37.9,125.6,36.3,125.6,35.5z M25,115.7L25,115.7l0.3-8
	c1.3-32,12-62.3,46.3-71.5c0.8-0.2,2.5-0.8,3.2-0.8c-0.7,1.3-2.3,3.1-3.2,4.6c-33.3,53.2,67,69.4,48.2,111.8
	c-13.1,23.5-38.9,8.5-37.9,1.9l13.5,2c0.6,0.8-1.7,2.3-1.6,3c0.1,0.7,4.7,4.1,9.3,1.4c19.4-11.7,7.1-46.1-28-41.3
	c-0.2-0.3-0.3-0.9-0.4-1.3c-5-25.9-33.4-30-47.5-5.6C26.8,112.7,25.5,115.5,25,115.7z" />
</svg>