<svg width="200" height="200" version="1.1" viewBox="0 0 200 200" xml:space="preserve"
	xmlns:xlink="http://www.w3.org/1999/xlink" xmlns="http://www.w3.org/2000/svg">
	<style>
		.excel--fragment-0 {
			fill: #185C37;
		}

		.excel--fragment-1 {
			fill: #21A366;
		}

		.excel--fragment-2 {
			fill: #107C41;
		}

		.excel--fragment-3 {
			fill: #000;
			opacity: 0.1;
		}

		.excel--fragment-4 {
			fill: #000;
			opacity: 0.2;
		}

		.excel--fragment-5 {
			fill: url(#gradientFragment1);
		}

		.excel--fragment-6 {
			fill: #FFFFFF;
		}

		.excel--fragment-7 {
			fill: #33C481;
		}
	</style>
	<defs>
		<linearGradient id="gradientFragment1" gradientUnits="userSpaceOnUse" x1="1.5343" y1="2297.7327" x2="3.5354"
			y2="2294.2673" gradientTransform="matrix(25 0 0 -25 0 57500)">
			<stop stop-color="#18884F" offset="0" />
			<stop stop-color="#117E43" offset="0.5" />
			<stop stop-color="#0B6631" offset="1" />
		</linearGradient>
	</defs>
	<rect width="200" height="200" style="fill: var(--bg, #fff); rx: var(--rx, 24px); filter: var(--filter);" />
	<g>
		<path class="excel--fragment-0" d="M119.2,96.5L59.9,86.1v77.2c0,3.5,2.9,6.4,6.4,6.4c0,0,0,0,0,0h102.3c3.5,0,6.4-2.8,6.4-6.4c0,0,0,0,0,0l0,0
				v-28.4L119.2,96.5z" />
		<path class="excel--fragment-1"
			d="M119.2,30.4H66.3c-3.5,0-6.4,2.9-6.4,6.4v0l0,0v28.4l59.3,34.8l31.4,10.4L175,100V65.2L119.2,30.4z" />
		<path class="excel--fragment-2" d="M59.9,65.2h59.3V100H59.9V65.2z" />
		<path class="excel--fragment-3"
			d="M102.3,58.2H59.9v87.1h42.4c3.5,0,6.4-2.9,6.4-6.4V64.6C108.7,61.1,105.8,58.2,102.3,58.2z" />
		<path class="excel--fragment-4"
			d="M98.8,61.7h-39v87.1h39c3.5,0,6.4-2.9,6.4-6.4V68.1C105.2,64.6,102.4,61.7,98.8,61.7z" />
		<path class="excel--fragment-4"
			d="M98.8,61.7h-39v80.1h39c3.5,0,6.4-2.9,6.4-6.4V68.1C105.2,64.6,102.4,61.7,98.8,61.7z" />
		<path class="excel--fragment-4"
			d="M95.3,61.7H59.9v80.1h35.5c3.5,0,6.4-2.9,6.4-6.4V68.1C101.7,64.6,98.9,61.7,95.3,61.7z" />
		<path class="excel--fragment-5" d="M31.4,61.7h64c3.5,0,6.4,2.9,6.4,6.4v63.8c0,3.5-2.9,6.4-6.4,6.4h-64c-3.5,0-6.4-2.8-6.4-6.4c0,0,0,0,0,0
				V68.1C25,64.6,27.9,61.7,31.4,61.7C31.4,61.7,31.4,61.7,31.4,61.7z" />
		<path class="excel--fragment-6" d="M44.8,120.7l13.5-20.8L46,79.3h9.9l6.7,13.2c0.6,1.3,1.1,2.2,1.3,2.8h0.1c0.4-1,0.9-2,1.4-2.9l7.2-13.1h9.1
				L69,99.8l13,20.9h-9.7l-7.8-14.5c-0.4-0.6-0.7-1.3-0.9-2h-0.1c-0.2,0.7-0.5,1.3-0.9,1.9l-8,14.6H44.8z" />
		<path class="excel--fragment-7"
			d="M168.6,30.4h-49.4v34.8H175V36.7C175,33.2,172.1,30.4,168.6,30.4C168.6,30.4,168.6,30.4,168.6,30.4z" />
		<path class="excel--fragment-2" d="M119.2,100H175v34.8h-55.8V100z" />
	</g>
</svg>