<svg width="200" height="200" version="1.1" viewBox="0 0 200 200" xml:space="preserve"
	xmlns:xlink="http://www.w3.org/1999/xlink" xmlns="http://www.w3.org/2000/svg">
	<style>
		.fastify {
			fill: #000;
		}
	</style>
	<rect width="200" height="200" style="fill: var(--bg, #fff); rx: var(--rx, 24px); filter: var(--filter);" />
	<path class="fastify" d="M170.3,65.6l4.7-12.2l-0.2-0.8l-46.7,12.3c5-7.2,3.3-13,3.3-13s-14.9,9.5-26.2,9.3c-11.3-0.3-14.9-3.3-32.2,2.3
	S50.8,85.9,45.8,89.5C40.7,93.2,25,105,25,105l0,0.2l14.2-4.5c0,0-3.9,3.7-12.2,14.8l-0.4-0.4l0,0.1c0,0,6.6,10.2,13.2,8.3
	c0.8-0.2,1.5-0.5,2.2-0.9c2.6,1.5,6,2.9,9.8,3.3c0,0-2.6-3-4.7-6.4l1.5-1l5.4,2l-0.6-5.1c0,0,0,0,0,0l5.3,1.9l-0.7-4.6
	c0.7-0.4,1.3-0.7,2-1l5.5-20.9l22.9-15.6l-1.8,4.6c-4.6,11.4-13.3,14.1-13.3,14.1l-3.6,1.4c-2.7,3.2-3.8,4-4.8,14.7
	c2.2-0.6,4.3-0.7,6.2-0.2c9.8,2.6,13.2,14.4,10.5,17.7c-0.7,0.8-2.2,2.2-4.2,3.9h-4l0,3.2l-0.4,0.3h-4L69,138l-1.1,0.8
	c-3.8,0.1-8.6-3.2-8.6-3.2c0,3,2.5,7.7,2.5,7.7l0.4-0.2l-0.4,0.3c0,0,10.2,6.8,16.5,4.3c5.7-2.2,20.4-13.8,33.1-19.3l38.4-10.1
	l5.1-13.1l-29.3,7.7v-11.8l34.4-9l5.1-13.1l-39.4,10.4V77.3L170.3,65.6z M100.5,90.6l9.1-2.4l0.1,0.5l-2.8,7.4l-9.5,2.5L100.5,90.6z
	M103.7,106.4l-9.4,2.5l3.1-7.9l9.1-2.4l0.1,0.5L103.7,106.4z M116,103.7l-9.5,2.5l3.1-7.9l9.1-2.4l0.1,0.5L116,103.7z" />
</svg>