<svg width="200" height="200" version="1.1" viewBox="0 0 200 200" xml:space="preserve"
	xmlns:xlink="http://www.w3.org/1999/xlink" xmlns="http://www.w3.org/2000/svg">
	<style>
		.fedora--fragment-0 {
			fill: #294172;
		}

		.fedora--fragment-1 {
			fill: #3C6EB4;
		}

		.fedora--fragment-2 {
			fill: #FFFFFF;
		}
	</style>
	<rect width="200" height="200" style="fill: var(--bg, #fff); rx: var(--rx, 24px); filter: var(--filter);" />
	<g>
		<path class="fedora--fragment-0" d="M175,100c0-41.4-33.6-75-75-75C58.6,25,25,58.6,25,100v58c0,9.4,7.6,17,17.1,17h58
		C141.4,175,175,141.4,175,100" />
		<path class="fedora--fragment-1" d="M122,42.8c-19.4,0-35.2,15.8-35.2,35.2v18.7H68.2c-19.4,0-35.2,15.8-35.2,35.2c0,19.4,15.8,35.2,35.2,35.2
		s35.2-15.8,35.2-35.2v-18.7H122c19.4,0,35.2-15.8,35.2-35.2C157.2,58.5,141.4,42.8,122,42.8L122,42.8z M87,131.8
		c0,10.3-8.4,18.7-18.7,18.7s-18.7-8.4-18.7-18.7c0-10.3,8.4-18.7,18.7-18.7h18.6v0.1H87V131.8L87,131.8z M122,96.7h-18.6v-0.1h-0.1
		V77.9c0-10.3,8.4-18.7,18.7-18.7s18.7,8.4,18.7,18.7S132.3,96.7,122,96.7L122,96.7z" />
		<path class="fedora--fragment-2" d="M129.8,43.8c-2.7-0.7-4.8-1-7.8-1c-19.4,0-35.2,15.8-35.2,35.2v18.7H72.1c-4.6,0-8.3,3.6-8.3,8.2
		c0,4.6,3.7,8.2,8.2,8.2l12.2,0c1.4,0,2.6,1.2,2.6,2.6v16.1c0,10.2-8.3,18.6-18.6,18.6c-3.5,0-4.3-0.5-6.7-0.5c-5,0-8.3,3.3-8.3,7.9
		c0,3.8,3.3,7.1,7.2,8.1c2.7,0.7,4.8,1,7.8,1c19.4,0,35.2-15.8,35.2-35.2v-18.7h14.7c4.6,0,8.3-3.6,8.3-8.2c0-4.6-3.7-8.2-8.2-8.2
		l-12.2,0c-1.4,0-2.6-1.2-2.6-2.6V77.9c0-10.2,8.3-18.6,18.6-18.6c3.5,0,4.3,0.5,6.7,0.5c5,0,8.3-3.3,8.3-7.9
		C137,48.1,133.8,44.9,129.8,43.8" />
	</g>
</svg>