<svg width="200" height="200" version="1.1" viewBox="0 0 200 200" xml:space="preserve"
	xmlns:xlink="http://www.w3.org/1999/xlink" xmlns="http://www.w3.org/2000/svg">
	<style>
		.firebase--fragment-0 {
			fill: #FF9100;
		}

		.firebase--fragment-1 {
			fill: #FFC400;
		}

		.firebase--fragment-2 {
			fill: #DD2C00;
		}
	</style>
	<rect width="200" height="200" style="fill: var(--bg, #fff); rx: var(--rx, 24px);" />
	<g>
		<path class="firebase--fragment-0" d="M77.7,170.7c6.3,2.5,13.1,4,20.2,4.3c9.7,0.3,18.9-1.7,27.1-5.5c-9.9-3.9-18.8-9.5-26.4-16.6
		C93.7,160.8,86.4,167.1,77.7,170.7z" />
		<path class="firebase--fragment-1"
			d="M98.6,152.9c-17.4-16.1-28-39.4-27.1-64.9c0-0.8,0.1-1.7,0.1-2.5c-3.1-0.8-6.4-1.3-9.7-1.4
		c-4.8-0.2-9.4,0.4-13.8,1.7c-4.6,8.1-7.4,17.5-7.8,27.5C39.4,139,55,161.6,77.7,170.7C86.4,167.1,93.7,160.8,98.6,152.9z" />
		<path class="firebase--fragment-0" d="M98.6,152.9c4-6.5,6.5-14.1,6.8-22.2c0.7-21.5-13.7-40-33.7-45.2c0,0.8-0.1,1.7-0.1,2.5
		C70.6,113.5,81.2,136.8,98.6,152.9z" />
		<path class="firebase--fragment-2" d="M103.2,25c-11.4,9.1-20.4,21.2-25.9,35.1c-3.1,7.9-5.1,16.5-5.7,25.4c20,5.2,34.5,23.7,33.7,45.2
		c-0.3,8.2-2.7,15.8-6.8,22.2c7.6,7.1,16.6,12.7,26.4,16.6c19.8-9.2,33.8-28.8,34.7-52.1c0.5-15.1-5.3-28.5-13.5-39.9
		C137.6,65.5,103.2,25,103.2,25z" />
	</g>
</svg>