<svg width="200" height="200" version="1.1" viewBox="0 0 200 200" xml:space="preserve"
	xmlns:xlink="http://www.w3.org/1999/xlink" xmlns="http://www.w3.org/2000/svg">
	<style>
		.flask {
			fill: #000;
		}
	</style>
	<rect width="200" height="200" style="fill: var(--bg, #fff); rx: var(--rx, 24px); filter: var(--filter);" />
	<path class="flask" d="M67.7,61.4c-0.5-4.5,3.5-2.6,3,0.1C70,62.2,68.6,61.6,67.7,61.4z M72.5,60.6c1-0.1,2-0.3,2.3-1.1
	c-1.4-0.9-3.5,1.3-2.6,2.3C72.6,61.7,72.2,60.8,72.5,60.6z M59,63.3c0.8-0.4,2.2-0.2,2.6-1.1c-2.5-0.9-7.1-0.2-7.8,1.4
	C55.8,63.6,57.4,62,59,63.3z M53.4,63.8c-0.5-0.1-0.8,0.5-0.5,0.8C53.3,64.6,53.4,64.2,53.4,63.8z M52.1,66.2
	c-0.1-1.1-2.9-2.1-3.1-0.5C49.2,66.6,51.4,67.2,52.1,66.2z M47.4,65.1c-0.6,0-0.9,0.3-1.2,0.6C46.6,66,47.6,65.9,47.4,65.1z
	M45.9,68.4c2.1-0.1,2.8,1.8,4.6,1.6C50.8,67.8,46.5,65,45.9,68.4z M74.6,78.8c-0.6-2.1,1.3-3.9,0.1-5.5C73,73.4,71.6,81,74,81
	c1.7,0,2.3-4.6,2.4-6.1C75.1,75.6,75.7,78,74.6,78.8z M54.5,78c0-0.3-0.2-0.4-0.5-0.4C54,78,54.3,78.2,54.5,78z M60.4,81.5
	c0-0.7,0-1.4-0.6-1.6c-0.5-0.1-0.4,0.4-0.7,0.5C59.2,81,59.5,81.5,60.4,81.5z M54.6,85.3c2.3,0.3,3.9,1.9,6,1.9
	c-1.7-1.2-3.5-2.3-6.3-2.4C54.3,85.2,54.6,85.1,54.6,85.3z M72.8,87.1c-0.2-0.8-0.5-1.5-1-2C71.9,85.9,72.2,86.7,72.8,87.1z
	M59.5,89.8c-1.5-2-3.9-3.8-6.6-4.2C53.3,88.8,56.9,88.8,59.5,89.8z M55.4,90.5c-1-1.7-2.8-2.7-4.9-3.4
	C51.7,88.6,52.8,90.8,55.4,90.5z M49.9,88.8c0.4,0.7,1.4,1.4,1.2,2.4c-1.1-0.3-1.6-1.2-2.6-1.4c0.6,0.8,2.8,4.3,4.1,4.2
	c0.8-0.1,1.2-1,1.1-2.5C53,90.1,50.9,89.5,49.9,88.8z M56,91.9c0.3,0.7,0.4,1.6,1.3,1.7C57.2,92.8,56.7,92.3,56,91.9z M55.2,92.3
	c-0.4,0-0.7,0.1-0.7,0.5c0.1,0,0.2,0.1,0.2,0.2C55.1,93,55.2,92.8,55.2,92.3z M75.8,95.1c0.1-0.7,0.3-2,0-2.6
	C75.6,93.1,75,94.6,75.8,95.1z M67.3,92.5c0.1,0.7-0.3,1.9,0.4,2C67.7,94.1,67.9,92.9,67.3,92.5z M73,95.3c-0.3-0.3-0.8,0.2-1.1-0.1
	c-0.2-0.8-0.1-1.9-0.8-2.3c-0.1,0-0.2,0-0.2,0c-1,2.1-0.9,6.5,0.8,7.6c0.3,0.6,0.4,1.4,1.2,1.4c0.7-0.6,0.9-1.6,1-2.8
	C72.3,98.8,73.7,96.3,73,95.3z M76.6,96.6c0.1-1.1,1.1-2.6,0.4-3.7C76.7,94,76.3,95.4,76.6,96.6z M55.4,97.6c0.2-0.5,0-1.5-0.4-1.8
	C54.8,96.3,54.6,97.5,55.4,97.6z M57.6,98.1c0.5,0.3,0.5,1.1,1.2,1.2C59.6,98.2,58,96.3,57.6,98.1z M78.2,100.5
	c0,0.4-0.5,0.9-0.1,1.2C78.1,101.4,78.5,100.8,78.2,100.5z M79.2,105.2c0-0.6,0.1-1.2-0.2-1.4C79,104.2,78.6,105.1,79.2,105.2z
	M64,110.1c0.1,0.4,0.1,0.9,0.6,1C64.9,110.7,64.7,109.9,64,110.1z M69.4,110.7c0.2,0.3,0.6,0.9,1,0.7
	C70.1,111.2,69.7,110.4,69.4,110.7z M80.8,112c-0.3,1.4,0.5,2.7,1.1,3.6C82.2,114.2,82.1,112.2,80.8,112z M83.8,121.3
	c0.2-0.4,0.2-1.5-0.1-1.7C83.4,120,83.1,121.1,83.8,121.3z M89.2,127.1c-0.2-0.9-0.9-1.8-1.6-1.8C87.9,126.1,88,127.2,89.2,127.1z
	M90.3,128.8c0,0.6-0.1,1.2,0.2,1.4C90.6,129.6,90.6,129.1,90.3,128.8z M50.6,128.9c0,0.4,0.2,0.6,0.5,0.8
	C51.1,129.3,51,128.9,50.6,128.9z M94.6,135.5c-0.3-2.3-1.5-3.6-3-4.7C91.9,133.1,93,134.6,94.6,135.5z M114,147.4
	c-0.1-0.1-0.6-0.3-0.6,0C113.6,147.5,113.9,147.8,114,147.4z M175,156.3c0,0.4,0,0.9,0,1.3c-0.2,0.4-0.3,0.9-0.4,1.4
	c-3.3,2.1-9.6,1.4-12.4,4.1c-4.8-2.6-9.3,1.5-14.4,1.9c-0.8,0.1-1.8-0.1-2.6,0c-3,0.2-5.9,0.9-9,1.2c-3.2,0.3-6.3,0.5-9.6,0.6
	c-1.2,0-2.4,0-3.6,0c-14.9-0.8-29.7-2.8-40.7-7.7c-5.5-2.4-10.5-5.5-15.2-9c-4.5-3.5-9.1-7.3-12.4-11.7c-3.5-4.6-6.9-9.1-10-14.2
	c-3-4.9-5.7-10.1-8.2-15.9c-2.4-5.7-4.1-11.3-5.8-18.3c-1.1-4.5-2.2-9.7-4.1-14c-0.7-1.7-1.6-3-1.7-4.6c0-0.4,0-0.7,0-1.1
	c0.6-5.1,4.5-8,9.1-9.4c1.2-0.3,2.3-0.7,3.4-1.3c0.1,0,0.8-0.1,0.5-0.5c-2.1-0.5-3.8,2.5-6,1.7c-2-0.8-0.9-3.9,1.3-4.8
	c1-0.4,3-0.6,4-1.1c1.6-0.9,2.3-2.8,2-4.6c-0.2-1-1.2-1.6-1.2-2.4c0.1-1.2,2.1-2.2,3.1-2.9c1.2-0.9,2.6-2,2.5-3.4
	c-0.1-1.5-1.8-1.9-2.6-3c-1.3-1.7-1.5-4.3,0.6-5.3c2.2-1.1,6.3-0.5,6.7,2.3c0.4,2.4-1.3,3.4-0.6,5.2c1.4,3.4,11.9-2,9.3,5.1
	c2.3,3.6,11.3,0.5,11.5,6.3c3.8,0.1,5.5,2.9,8.5,4.1c0.8,0.3,1.8,0.3,2.6,0.6c5.1,1.7,11.5,3.6,13.6,8.5c-1.9,1.3-4.5,0.4-6.7-0.4
	c-1.9-0.7-4.8-2-6.7-1.2c-1.9,0.8-1.8,4.1-1.6,7.5c0.7,8.8,1.1,18,2.4,25.9c1.8,11,5.5,19.9,10.8,26.8c5.1,6.7,11.2,13.7,19,18.6
	c6.6,4.1,14,7.4,23.5,9.5c1.4,0.3,3.1,1,3.8,0.8c1.1-0.2,3.6-3.5,4.5-4.3c2.1-1.9,4.9-4.6,7.8-2.3c-0.4,3.2-3.3,3.9-4,6.9
	c1.8,1.1,3.7,0.1,5.9,0.2c2.6,0.2,4.6,1.6,6.7,1.3c1.4-0.2,2.1-1.2,3.1-1.9C164.4,156.5,173.6,152,175,156.3z M148.9,147.4
	c-0.1-0.4,0.2-1-0.2-1.1C148.3,146.5,148,147.6,148.9,147.4z M88.4,62.7c1.2,0.7,2.2,1.6,3.2,2.4c0.6-1.8-1.2-3-3.2-2.9
	C88.4,62.4,88.4,62.6,88.4,62.7z M120.7,151.4c0.5,0.1,0.8,0.2,0.8-0.4C121.2,151,120.9,151.1,120.7,151.4z M104.1,140.8
	c0,0.6,1.1,0.6,1.3,0.5C105.3,140.9,104.7,140.4,104.1,140.8z M101.3,138.5c0.2,0.2,0.7,0.1,1.1,0.1c0-0.4-0.1-0.7-0.2-1
	C101.5,137.6,101.3,138,101.3,138.5z M78.2,89.3c-0.3-0.3-0.6,0.2-0.7,0c0.4-3,1-7.6-0.2-10.1c-0.3-0.3-0.8,0.1-1-0.1
	c0.8-2,1.4-6.2,1.1-8.7c-0.1-0.9-0.6-2.4-1.1-2.8c-1.3-0.9-2.5,0.5-3.4,0.7c-0.6,0.2-1.2,0-1.8,0.1c-2.4,0.3-5,1-6.6,1.8
	c0.8,0.6,2,0.8,2.4,1.8c-2.1-0.1-3.7-0.8-5.5-1.2c0.2,2.7-3.1,1.9-5.2,2c0.7,0,0.8,0.4,0.8,0.8c0.1,1.6-5.2,3.5-7,2.3
	c-2.6,2.1,1.1,4.2,1,6.9c-0.5,0.4-0.7,1-1.2,1.4c-2.6,0.1-5.3,0.6-4.8,3.2c-0.3-0.2-0.9-0.3-1.3-0.1c-0.7,1.7,0.4,3.5,1.9,3.9
	c0.4-0.1,0.5-0.5,1-0.5c3.3,0.6,4.5,2.9,4.3,7.1c0,0.7,0,1.7-0.5,2.2c-1.9-0.1-3.7-4.8-0.6-4.9c-0.7-1.1-1.3-2.7-2.6-2.6
	c-1.6,0-2.3,2.5-3.4,3.4c1.6,0.9,5.4,3.3,2.3,4.9c1.5,0.2,2.4,0.8,3,1.7c1.1,1.4,1,3.5,1.8,4.7c1.6,2.3,2.4-2.1,4.3-0.2
	c0.4,0.2-0.2-0.4-0.2-0.5c-1.6-1.8-4.1-3.2-5.1-5.3c0.7-0.3,1.7,0,2.4,0.1c0.3-1.4-0.7-3-0.4-4.1c0.2-0.8,0.7-0.4,1.2-0.7
	c0.3-0.2,0.1-0.8,0.6-0.6c0,1.7-1,4.4,0.1,5.7c1.6,0.3,2.1-2.5,3.5-2.5c0.8,0,1.5,1.4,2,2c0.6,0.8,1.5,1.8,1.3,2.8
	c-0.4,1.9-3.7,0.5-4.8-0.4c0.7,2.7,4.9,3.1,5.1,6.6c0,0.4-0.2,0.9-0.1,1.3c0.2,1.8,2,3.2,3.7,2c0.3,0.7,0.3,1.6,1,1.8
	c0.6-0.5,0.4-1.8,0.7-2.5c2.1,0.4,3.2,1.5,3.8,3.1c0.3,0.8,0.2,2.4,1.6,2.4c0.2-2.1-1.4-3.3-1.7-5.3c1.1,1.7,5,3.6,4.8,6.4
	c-0.1,1.8-2.3,2-4.3,2.3c2,0.7,2.8,2.9,4.9,3.6c0.6,0.2,1.3,0,1.9,0.2c1.6,0.5,4.1,3.7,3.4,5.8c-3.3,1.7-5.9-2.9-9.6-2.8
	c1.6,2,4.1,2.7,6.3,3.6c2.3,1,4.6,2.1,6.9,3.1c5.3,2.5,8.9,5.7,12.4,9.7c-2.4,1.3-9.7-0.9-5.3-2.4c-1.5-0.1-3.1-1-4.5-0.5
	c0.7,4.6,6.7,3.8,11.3,4.6c-0.4,0.8-1,1.4-1.4,2.2c0.4,0.2,0.8,0.3,1.4,0.2c-0.3,0.5-1.1,0.5-1.1,1.2c0.6,0.8,1.7,1,2.5,1.6
	c3.1-2.2,3.4,2.8,5.4,2.9c1.9,0.1,2.2-2.6,4.1-2.9c-0.5,1-1.4,1.5-1.8,2.5c1.8-0.4,2.3-1.4,3.8-1.8c5.4-1.4,9.8,3.1,14.2,3.6
	c1.6,0.2,3.2,1.1,4.6,1.3c1.8,0.3,2.9-0.3,4.3-1c-2.1-2-7-1.2-8.8-3.6c0.1-0.4,0.4-0.6,0.6-0.8c-5.6,1.2-9.2-2.1-11.5-5.3
	c-6.9-1.8-13-4.4-16-10.2c-0.1-0.5,0.5-0.3,0.4-0.8c-2.4-2.7-4.9-5.5-6.9-8.7c-0.7-1.1-1.1-2.5-1.9-3.4c-0.5-0.6-1.3-0.9-1.8-1.4
	c-0.5-0.6-0.6-1.4-1.4-1.7c-0.3,0.5-0.1,1.5-0.4,2c-0.6-2.3-1.9-4.5-4.3-4.6c0-1.7,1.3-2,2-2.9c-1-1.1-1.2-2.6-1.7-4.3
	c-1.2-4.2-2.2-8.6-3.2-12.5c-1.4,0.5-1.7,2-2.4,3.2c0.1-1.7,0.1-3.5,1.1-4.3c0.4,0.1,0.5,0.5,0.7,0.7c0.2-0.8,1-1.6,0.6-2.6
	c-0.3-0.5-1.2-0.3-1.4-0.2C78.4,93.6,78.9,91,78.2,89.3z M126.5,160.6c1-0.4,2-1,2.4-2C127.8,158.9,126.2,159.3,126.5,160.6z
	M126.6,158.2c-0.7,0.4-1.5,0.7-1.9,1.3C125.7,159.6,126.9,158.6,126.6,158.2z M122.9,160c0.7-0.2,1.4-0.9,1.3-1.4
	C123.4,158.7,122.2,159.2,122.9,160z M123.4,157.3c-1.1-0.3-2,0.5-2,1.6C122.3,158.6,123,158,123.4,157.3z M120,157.5
	c-1.1,0.2-1.8,0.6-2.2,1.6C119.2,159.6,119.8,158.5,120,157.5z M118.3,160.6c0.3,0,0.6,0,0.6-0.2
	C118.8,160.2,118.3,160.2,118.3,160.6z M120.3,155.5c-1.7-0.1-3.7,1-2.6,2.4C118.7,157.3,119.9,156.8,120.3,155.5z M112,157.7
	c1.1,0.1,1.3-1.1,2-0.8c0.4,0.3,0.2,1.2,0.8,1.2c1.6-0.3,2.1-2.5,1.2-4C113.9,154.5,112,155.7,112,157.7z M112.4,154.6
	c-0.6,0.3-1.3,0.6-1.7,1.2C111.6,155.8,112.7,154.9,112.4,154.6z M109.1,155.2c0.1,0.3-0.5,0.6-0.1,0.8
	C109.1,155.9,109.7,155.3,109.1,155.2z M106.9,158.1c0,0.2-0.2,0.2-0.1,0.5c0.2,0,0.3,0,0.5,0C107.3,158.3,107.2,158.1,106.9,158.1z
	M105.1,157.5c-0.6,0-0.8,0.4-0.8,1.1C104.8,158.5,105.3,158.3,105.1,157.5z M93,151.4c-0.7,0-1,0.1-0.1,0.2c0.8,0.1,2.2,0.2,2.8,0
	C95,151.6,93.3,151.4,93,151.4z M96.6,149.4c-0.6-0.5-1.9-0.1-2.5,0.1C94.4,150.6,96.2,150.1,96.6,149.4z M92.7,158.5
	c3,1.6,7.1,3.3,11.4,2.8C101,159.7,96.4,159.1,92.7,158.5z M88.3,157.1c0.3,0.4,1,0.4,1.4,0.6C90.6,156.9,88.7,156.4,88.3,157.1z
	M77,147.4c-0.8,0.1-1.7,0.1-1.9,0.7C75.8,148.4,76.9,148.2,77,147.4z M74.7,150.5c0.3,0.3,0.8,0.6,1,0
	C75.5,150.4,74.8,150.3,74.7,150.5z M76.1,140.3c0.1-0.5-0.8-0.7-1-0.2C75.4,140.2,75.7,140.4,76.1,140.3z M77.7,144.4
	c0-0.2,0.1-0.3,0.1-0.4c-0.4-0.4-1.1-0.4-1.7-0.2C76.2,144.4,77.2,144.6,77.7,144.4z M77.8,152.1c0.2,0.2,0.6,0.2,0.7,0
	c0.1-0.4-0.2-0.5-0.4-0.6C78.1,151.7,77.9,151.8,77.8,152.1z M81.5,138.3c-0.4-1.1-1.7-0.8-2.5-1.2c-1.4-0.6-2.6-2-4.3-2
	c-0.1,0-0.2,0-0.2,0C76,136.8,78,138.8,81.5,138.3z M75.3,133.8c-1.1-0.8-2.4-1.4-4-1.7C71.8,133.4,73.8,133.9,75.3,133.8z
	M79,139.5c0.8,0.9,1.9,1.5,3.7,1.4C82,140,80.4,139.4,79,139.5z M83.6,144.9c-1.2-0.9-3.2-2.3-4.8-1.9
	C79.7,144.2,81.6,145.1,83.6,144.9z M79,149.4c0,0.2-0.2,0.2-0.2,0.4C79.1,150.2,79.5,149.5,79,149.4z M81.8,153.1
	c0.1,0.5,0.5,0.6,1,0.7c0.2-0.3,0.5-0.4,0.4-1C82.8,152.6,81.8,152.5,81.8,153.1z M84.1,147.8c-0.4-0.2-1.7-0.5-2,0
	C82.6,148,83.7,148.6,84.1,147.8z M84.4,143.7c0.1-0.9-0.9-0.9-1.3-0.6C83.1,143.7,83.9,143.5,84.4,143.7z M85.7,137.2
	c-0.5-0.8-2.1-0.7-3.1-1c-0.8-1-2.7-1.3-4.3-1.1C80.2,136.4,82.4,137.4,85.7,137.2z M85.5,148.7c0.5,0.4,1.3,0.6,2,0.8
	c0-0.3,0.2-0.5,0.1-0.8C87.3,148.3,85.8,148.1,85.5,148.7z M75.3,129.2c0.1-0.6-0.2-0.7-0.7-0.6C74.4,129.3,75,129.1,75.3,129.2z
	M78.2,130.7c-0.4-0.1-0.2-0.6-0.7-0.6C77,130.5,77.8,131.1,78.2,130.7z M69.9,131.5c-0.4-0.9-1.3-1.3-1.9-1.9
	c1.2-1.7-1.4-2.4-1.9-3.6c0-0.4,0.3-0.5,0.4-0.7c-1-0.6-2.2-1-2.8-2c0.5-0.3,1.7,0.1,2.2-0.2c-0.7-0.3-1.5-0.6-1.8-1.3
	c0.4-1,2.1-0.7,2.5-1.7c-2.1-0.5-4.1-1.6-6.4-1.4c0,0.9,0.8,1,1.1,1.6c-0.7-0.3-1.2-0.7-2.2-0.7c-0.1,0.6,0.3,0.7,0.2,1.3
	c-0.7,0.1-1-0.2-1.7-0.1c0.5,1.1,1.8,1.4,2.2,2.6c-0.5,0.1-1.2-0.2-1.3,0c1.3,1.1,3.1,2.2,3.8,3.4c-1.2-0.2-1.9-0.9-3-1.2
	c1,1.9,3.3,2.3,5.1,3.2C66.1,129.6,67.7,131.2,69.9,131.5z M67.2,133c0.5,0.3,1.5,1.1,2.2,0.5C68.8,133.2,68,132.6,67.2,133z
	M66.3,132.4c-0.3-0.5-2.1-0.8-2.5-0.5C64.5,132.1,65.3,132.7,66.3,132.4z M64.1,132.7c0,0.2-0.2,0.2-0.1,0.5
	c0.2-0.1,0.7,0.1,0.7-0.1C64.5,133,64.4,132.7,64.1,132.7z M62.5,116.7c-0.3-1.1-0.8-2.4-1.7-3.2c-0.5-0.5-1-0.5-1.3-1.1
	c-0.9-1.6-0.5-3.9-1.7-5.7c-0.3-0.1-0.8-0.2-1.1,0c0,0.8,1.9,2.7,0.6,3.6c-2.8,0.1-3.8-2.1-6.5-1.7c-0.6,1.6,1.5,2.4,1,3.5
	C55.7,113.4,58.7,116,62.5,116.7z M53.9,120.3c0.7,0.5,1.7,1.4,2.6,1.3C55.8,121.1,55.1,119.9,53.9,120.3z M52.5,119.3
	c-0.3-1-0.9-1.7-2-1.8C50.7,118.5,51.9,118.6,52.5,119.3z M50.5,122.4c0.6,0.4,1.3,1.5,1.9,1.6C52,123.3,51.4,122.2,50.5,122.4z
	M51.3,114.1c0.1-0.2,0.2-0.3,0.2-0.5c-0.3-0.4-1.1-0.2-1.2,0.2C50.6,114,51.1,114,51.3,114.1z M70,118.9c0-1-1.2-1.6-2-1.1
	C68.2,118.6,69.1,118.8,70,118.9z M58.7,103.1c0-0.2-0.7-0.2-0.7,0C58.1,103.2,58.7,103.7,58.7,103.1z M54,102.7c-0.2,0-0.3,0-0.5,0
	c-0.2,0.2-0.1,0.5-0.1,0.8c0.2,0,0.7,0.4,0.8,0.1C53.9,103.5,54.3,102.8,54,102.7z M45,102.5c0.4,0.9,2,0.8,2.3-0.1
	C46.6,102.1,45.6,102.3,45,102.5z M45.3,99.2c-0.5,0-0.9,0-1.2,0.1C44.2,99.8,45.3,99.7,45.3,99.2z M46.4,79.8
	c-0.6,0.3-1.9-0.3-2.5,0c0.5,2.2,4.6,1,4.3-0.7c-0.2-1.5-4.1-1.1-5.4-1C43.8,78.9,45.5,79,46.4,79.8z M41.6,82.1
	c0.2,0.3,0.8,0.3,1.2,0.5c0.1-0.3,0.3-0.3,0.2-0.7C42.7,81.7,41.6,81.5,41.6,82.1z M47.7,81.6c-0.1,0.3-0.3,0.8,0.1,0.8
	C48.1,82.2,48.1,81.8,47.7,81.6z M51.1,74.4c0-0.4,0.3-0.4,0.2-0.7c-0.5,0-0.8,0-0.8,0.5C50.7,74.2,50.8,74.4,51.1,74.4z M51,47.7
	c-0.5,2.9,2.2,6.5,5.3,5.4c0.1-1.1-0.4-1.6-0.4-2.5c0.8-0.2,1.3,0.6,1.7,0.4C56.4,48.8,53.3,48.6,51,47.7z M49.7,44.9
	c1.1,0.2,2.7,0.1,3.1-0.7C52,43.7,49.6,43.5,49.7,44.9z M46.8,36.5c0.2-2.3-2.6-3.6-4.3-2c-1.1,1-1.5,3.4,0.1,4.2
	c-0.2-0.6-0.7-0.9-0.6-1.8C43.2,36.1,45.5,37.2,46.8,36.5z M45.9,44.2c0.3-0.2,0.8-0.2,0.7-0.7C46.3,43.5,45.7,43.9,45.9,44.2z
	M43.4,53.1c1.5,0,2.6-0.8,4.1-0.8c1.3,0,2.5,0.3,4,0.2C50.4,49.3,45.2,52.1,43.4,53.1z M41.1,58.6c2.8-0.4,6.8-2.2,10.6-1.8
	c1.4,0.2,2.7,1,3.5,1.6c-0.4-0.4-0.9-2.2,0-2.5c2,0.4,2,4.1,4.5,3.6c1.2-0.3,1.6-2.6,1-4.1c0.9,0.6,1.4,1.7,2.6,2
	c-0.3-1.2-1.1-1.8-1.7-2.6c0.4-0.4,0.8-0.8,0.7-1.7c-3.4-0.3-6.5,1.5-9.7,2.2c-2.5,0.5-4.4,1-6.6,1.6C44.3,57.3,42.4,57.6,41.1,58.6
	z M31,83.5c-0.2,0.2-0.2,0.7,0.1,0.7C31.2,84.2,31.5,83.4,31,83.5z M35.2,69.2c-5.3,0.8,0.3,6.4,3.5,5.1c0.4-0.6,0.3-1.2,0.2-2
	c1.8,0.2,3.2-0.7,4.8-0.4c0.3,0.6-0.2,1-0.4,1.6c5.5-0.3,8.2-4.6,14.1-5.3c0.7-0.1,1.6,0,2.4,0c2.5-0.1,5.2-0.6,7.8-1.1
	c2.5-0.5,4.8-1.4,7-1.9c2.7-0.7,6.8-2.4,6.3-6c-0.1-0.4-0.3-0.8-0.6-1.2C66,56.5,55.3,62.1,44,64.4c-1.4,0.3-3,0.1-4.1,1.2
	c0.4,1,1.8,0.9,2.4,1.7c-0.3,0.4-1.1,0.3-1.2,0.8c0.3,1,1.8,0.8,1.9,1.9c-2.4,1.7-7.4-0.5-6.3-3.8c-3.6,0.8-8.9,1.6-8.9,5.7
	c0,1.8,1.1,3.5,2.3,4.5C29.3,72.5,30.8,66.9,35.2,69.2z M39.7,91.7c0.1-0.8-1.2-1.4-1.7-0.8C38.4,91.3,39.1,91.4,39.7,91.7z
	M35.5,93.3c0.9,3,1.1,6.5,3.4,8.1C38.5,97.9,37.3,95.3,35.5,93.3z M40.5,90.1c0.4-1.7-2.1-2.4-2.3-1.2C38.1,90,39.7,89.8,40.5,90.1
	z M41,86.9c-0.5-0.6-1.9-1-2.9-0.7C38.5,87,40.6,88.3,41,86.9z M39.6,81.6c0.5-0.3,1.1-0.6,1.2-1.4c-0.7-0.5-2.4-0.6-2.5,0.2
	C38.1,81,39,81.3,39.6,81.6z M41.1,83.6c0.1-0.4,0-0.7-0.1-1c-0.6,0-0.9,0.3-1,0.8C40.3,83.6,40.7,83.7,41.1,83.6z M32.7,83
	c-0.1-0.3-0.1-0.7-0.4-0.8C32,82.5,32,83.1,32.7,83z M33.9,74.9c-0.5-0.2-1.3,0-1.6,0.5c0.3,0.2,0.6,0.3,1,0.5
	C33.4,75.4,34,75.5,33.9,74.9z M35.2,90.4c-0.3-0.7-0.4-1.7-1-2C32.6,88.6,34.2,90.9,35.2,90.4z M37.5,103.4
	c1.2,2.8,2.4,5.9,4.9,7.2c-1.9-2.1-2.3-5.6-3.6-8.1c-0.4-0.9-1.2-1.5-1.6-2.4c-1-2.1-1.4-4.5-3.4-5.4
	C34.7,97.7,36.3,100.5,37.5,103.4z M70.6,148.5c-0.7-2.5-2.7-3.7-5.4-4.2c-0.7-1.6-2.6-1.9-3-3.8c-0.1-0.4,0.7-0.5,0.5-0.7
	c-3.7,0.7-3.8-3.2-5.5-4.8c-4.4,0.1-3.6-5.4-6-8.2c-0.7-0.8-1.4-1-2.2-1.8c-1.2-3.7-4.3-5.6-6.1-8.9c-1.6-2.9-1.9-6.2-4.6-8.3
	c2.1,7.1,6.6,13.1,10.6,19c3.2,4.8,5.4,9.3,9,13.1c1.2,1.3,2.6,2.2,4.1,3.4C64.4,145.2,66.2,149.1,70.6,148.5z M70.1,140.3
	c-0.1-0.5-1.1-0.9-1.6-0.6C69,140,69.5,140.2,70.1,140.3z M74.6,137.2c-0.8-0.9-2.5-1.3-4.1-1.9c-1.9-0.8-4.7-1.5-6.1-0.6
	c0.1,1.2,1.1,1.6,1.7,2.3c1.7,0.3,2.6,1.1,4.2,1.2C72.1,138.3,73.8,138.2,74.6,137.2z M131.9,164.6c-3.6-1.7-9,0.2-12.9-0.7
	c-0.7-0.2-1.4-0.7-2-0.7c-0.7,0-1.4,0.3-2,0.4c-3.3,0.3-6.4,0-9.5-0.5c-2.2-0.3-4.5-0.4-6.5-1c-1.9-0.5-3.8-1.7-5.8-2.4
	c-2-0.8-4-1.5-5.9-2.3c-3.7-1.5-7.7-4.1-11.5-5.2c2.6,2.8,7.1,3.7,10.2,6c-4.4-1.2-7.6-3.5-11.5-5.2c3,2.7,7.3,4.4,11.5,6.1
	c4.2,1.8,8.8,3.2,13.8,4C109.7,164.6,121.3,166.8,131.9,164.6z M135.1,164.2c-0.6,0-1.4-0.1-1.4,0.5
	C134.1,165.2,135,165.1,135.1,164.2z M141.6,150c0.2,0.9,1.5,0.6,1.3-0.4C142.2,149.6,141.9,149.9,141.6,150z M151.5,156.3
	c-3.2-0.1-7.2-1.2-10.6-1.1c-1.3,0-2.9,0.4-3.2,1.7c1,0.4,2.1,0.2,3.2,0.1C144.9,156.9,149.6,158.6,151.5,156.3z M154.8,156.1
	c-0.6,0-0.7,0.4-0.8,0.8c0.2,0.2,0.5,0.1,0.8,0.1C154.7,156.5,155,156.4,154.8,156.1z M161.9,155.6c-0.6-0.1-0.8,0.6-0.6,1
	c0.4,0.1,0.5-0.2,0.7-0.2C162.1,155.9,161.8,155.9,161.9,155.6z M171.9,156.3c-2.5-0.3-5.3-0.1-7.6,0.2
	C165.6,157.8,170.3,157,171.9,156.3z M56.2,83.2c1.2,0.7,2.3,2,3.8,1.9c-0.4-0.6-1-1-1.4-1.6c0.4,0,0.8-0.1,1-0.5
	c-1.5-1-3.3-2.3-4.1-3.6C55.9,80.4,56.7,81.9,56.2,83.2z M71.6,84.1c-0.3-0.3-0.1-0.9-0.5-1.1C71,83.6,71.3,84.3,71.6,84.1z
	M60.5,94.6c0.2,2,1.5,2.9,1.6,4.9c-1.4-1.6-2.2-3.8-3.1-5.9c-0.1,2.5,0.7,4.1,1.3,5.8c0.5,1.3,1,2.9,2.3,3.2c0.6-0.1,0.6-0.9,1.2-1
	c0.7,0.1,1,1.1,1.4,1.1c-0.3-0.4-0.4-0.9-0.5-1.6c0.1-0.4,0.8-0.4,1-0.7C64.4,98,62.7,96.1,60.5,94.6z" />
</svg>