<svg width="200" height="200" version="1.1" viewBox="0 0 200 200" xml:space="preserve"
	xmlns:xlink="http://www.w3.org/1999/xlink" xmlns="http://www.w3.org/2000/svg">
	<style>
		.freebsd {
			fill: #9B2718;
		}
	</style>
	<rect width="200" height="200" style="fill: var(--bg, #fff); rx: var(--rx, 24px); filter: var(--filter);" />
	<path class="freebsd" d="M173.3,28.7c8,7.9-14.1,42.9-17.8,46.6c-3.7,3.7-13.2,0.3-21.1-7.7c-8-7.9-11.4-17.4-7.7-21.1
	C130.4,42.8,165.3,20.7,173.3,28.7L173.3,28.7z M61.8,37.1C49.6,30.2,32.4,22.5,26.9,28c-5.6,5.6,2.4,23.2,9.3,35.4
	C42.4,52.7,51.2,43.6,61.8,37.1L61.8,37.1z M161.2,72.5c1.1,3.8,0.9,6.9-0.9,8.7c-4.2,4.2-15.7-0.3-26-10.1c-0.7-0.6-1.4-1.3-2.1-2
	c-3.7-3.7-6.6-7.7-8.5-11.4c-3.6-6.5-4.5-12.2-1.8-14.9c1.5-1.5,3.9-1.9,6.8-1.4c1.9-1.2,4.1-2.5,6.6-3.9c-10-5.2-21.3-8.1-33.3-8.1
	c-39.9,0-72.2,32.3-72.2,72.2c0,39.9,32.3,72.2,72.2,72.2c39.9,0,72.2-32.3,72.2-72.2c0-12.9-3.4-24.9-9.3-35.4
	C163.5,68.6,162.3,70.7,161.2,72.5L161.2,72.5z" />
</svg>