<svg width="200" height="200" version="1.1" viewBox="0 0 200 200" xml:space="preserve"
	xmlns:xlink="http://www.w3.org/1999/xlink" xmlns="http://www.w3.org/2000/svg">
	<style>
		.gamemaker {
			fill: #ffffff;
		}
	</style>
	<rect width="200" height="200" style="fill: var(--bg, #000); rx: var(--rx, 24px);" />
	<path class="gamemaker"
		d="M100.1,25L100.1,25l74.9,75l0,0c-14.5,0-28.9,0-43.3,0c0,14.5,0,29,0,43.5c-10.5,10.5-21,21-31.5,31.5l0,0L25,100l0,0
	L100.1,25z M68.5,100l31.5,31.6c0-10.5,0-21.1,0-31.6c10.5,0,21,0,31.5,0c-10.4-10.6-21-21-31.5-31.5C89.5,79,79,89.5,68.5,100z" />
</svg>