<svg width="200" height="200" version="1.1" viewBox="0 0 200 200" xml:space="preserve"
	xmlns:xlink="http://www.w3.org/1999/xlink" xmlns="http://www.w3.org/2000/svg">
	<style>
		.gatsby {
			fill: #fff;
		}
	</style>
	<rect width="200" height="200" style="fill: var(--bg, #663399); rx: var(--rx, 24);" />
	<path class="gatsby" d="M98.1,175c-39.2-1-70.9-31.9-73-70.8l-0.1-2.3L98.1,175L98.1,175z M100,25c24.5,0,47.4,11.9,61.5,32l-12.3,8.6
		c-19-27.2-56.5-33.8-83.6-14.7C55.8,57.7,48.3,67.3,44,78.4l77.6,77.6c18.1-7,31.7-22.3,36.5-41h-31.9v-15H175
		c0,35.5-24.6,65.2-57.6,73L27,82.7C34.8,49.6,64.5,25,100,25z" />
</svg>