<svg width="200" height="200" version="1.1" viewBox="0 0 200 200" xml:space="preserve"
	xmlns:xlink="http://www.w3.org/1999/xlink" xmlns="http://www.w3.org/2000/svg">
	<style>
		.gimp--fragment-0 {
			fill: #FFFFFF;
		}

		.gimp--fragment-1 {
			fill: #000;
		}
	</style>
	<rect width="200" height="200" style="fill: var(--bg, #0e2426); rx: var(--rx, 24px); filter: var(--filter);" />
	<g>
		<path class="gimp--fragment-0" d="M172.4,40c-6,7.5-15.9,40.5-71.6,41.9C74.2,82.6,61,52.4,61,52.4l-2.1,48.6c-4.6-5.8-10.7-9.7-16.6-10.7
		c-4.3-0.7-8.2,0.2-11.3,2.5c-8.1,6.1-8.1,20.6,0,32.4c4.8,6.9,11.5,11.7,18.2,12.8c1,0.2,1.9,0.2,2.8,0.2c0.7,0,1.3-0.1,2-0.1
		C91.8,168,192.5,190.9,172.4,40z" />
		<path class="gimp--fragment-1" d="M126.3,121.4c0,0,3.6,3.1,5.7,6c-7.9,6.4-21.5,11.6-48.1,6c13.4,5,24.8,7.3,33.5,6.7c-5.3,1.9-12,3.2-20.6,3.6
		c19.2,1.9,33.6-1.9,38.6-9.7c1.3,1.5,2.6,4.1,3.9,7.4c0.9-5.7,2.9-8.4-0.4-12.8C135.6,124.1,126.3,121.4,126.3,121.4L126.3,121.4z
		M58.8,104.2C54.4,97.7,48.1,93.2,42,92.3c-0.8-0.1-1.7-0.2-2.5-0.2c-2.7,0-5.2,0.8-7.3,2.3c-7.2,5.5-7,18.8,0.4,29.7
		c4.4,6.5,10.7,10.9,16.8,11.9c3.7,0.6,7.1-0.1,9.7-2.1C66.5,128.3,66.3,115,58.8,104.2z M37.7,114c-3.9,0-7-3.9-7-8.8
		s3.1-8.8,7-8.8c3.9,0,7,3.9,7,8.8S41.6,114,37.7,114z M112.2,81.4c-8.2,0-15.3,5.3-18.3,12.7c-1.9-7.9-8.4-13.8-16.3-13.8
		c-9.3,0-16.9,8.2-16.9,18.3c0,10.1,7.6,18.3,16.9,18.3c6.7,0,12.5-4.3,15.2-10.4c1.9,9.4,9.9,16.5,19.4,16.5
		c11,0,19.9-9.3,19.9-20.8C132,90.7,123.1,81.4,112.2,81.4z M62.9,98.6c0-8.8,6.6-16,14.6-16s14.6,7.2,14.6,16c0,0.7-0.1,1.3-0.2,2
		c-1-4.9-5.2-8.6-10.2-8.6c0,0,0,0,0,0c-5.8,0-10.5,4.9-10.5,11c0,0,0,0,0,0c0,5.9,4.5,10.8,10.1,10.9c-1.2,0.4-2.5,0.6-3.9,0.6
		C69.5,114.5,62.9,107.4,62.9,98.6z M81.9,99.3c0,2.4-1.8,4.3-4.1,4.3c-2.3,0-4.1-1.9-4.1-4.3c0,0,0,0,0,0c0-2.4,1.9-4.3,4.1-4.3
		c0,0,0,0,0,0C80.1,95,81.9,96.9,81.9,99.3z M94.3,102.2c0-10.4,8-18.8,17.9-18.8c9.8,0,17.9,8.4,17.9,18.8c0,0.1,0,0.2,0,0.4
		c-1.1-6.7-6.5-11.8-13.2-11.8c0,0,0,0,0,0c-7.4,0-13.4,6.3-13.4,14.1c0,7.8,6,14.1,13.4,14.1c0,0,0,0,0,0c1.9,0,3.7-0.4,5.4-1.2
		c-2.9,2-6.3,3.2-10,3.2C102.3,120.9,94.3,112.5,94.3,102.2z M119.4,100.2C119.4,100.2,119.4,100.2,119.4,100.2
		c0,3.6-2.8,6.6-6.3,6.6c-3.5,0-6.3-3-6.3-6.6c0-3.6,2.8-6.6,6.3-6.6c0,0,0,0,0,0C116.6,93.6,119.4,96.6,119.4,100.2z" />
	</g>
</svg>