<svg width="200" height="200" version="1.1" viewBox="0 0 200 200" xml:space="preserve"
	xmlns:xlink="http://www.w3.org/1999/xlink" xmlns="http://www.w3.org/2000/svg">
	<style>
		.git {
			fill: #EE513B;
		}
	</style>
	<rect width="200" height="200" style="fill: var(--bg, #f0f0e8); rx: var(--rx, 24px); filter: var(--filter);" />
	<path class="git" d="M171.9,92.4l-64.3-64.3c-4.2-4.2-11-4.2-15.1,0L79.3,41.3l17.4,17.4c1.1-0.3,2.2-0.5,3.4-0.5
	c6.3,0,11.4,5.1,11.4,11.4c0,1.2-0.2,2.3-0.5,3.4l17.3,17.3c1.1-0.4,2.3-0.5,3.5-0.5c6.3,0,11.4,5.1,11.4,11.4s-5.1,11.4-11.4,11.4
	c-6.3,0-11.4-5.1-11.4-11.4c0-1.7,0.4-3.3,1-4.7l-16.1-16.1v41.6c3.7,1.9,6.2,5.7,6.2,10.1c0,6.3-5.1,11.4-11.4,11.4
	c-6.3,0-11.4-5.1-11.4-11.4c0-4.9,3.1-9,7.4-10.7V80.2c-4.3-1.6-7.4-5.8-7.4-10.7c0-1.7,0.4-3.3,1.1-4.8L72.8,47.8L28.1,92.4
	c-4.2,4.2-4.2,11,0,15.1l64.3,64.3c4.2,4.2,11,4.2,15.1,0l64.3-64.3C176,103.4,176,96.6,171.9,92.4z" />
</svg>