<svg width="200" height="200" version="1.1" viewBox="0 0 200 200" xml:space="preserve"
	xmlns:xlink="http://www.w3.org/1999/xlink" xmlns="http://www.w3.org/2000/svg">
	<style>
		.github {
			fill: #FFFFFF;
		}
	</style>
	<rect width="200" height="200" style="fill: var(--bg, #000); rx: var(--rx, 24);" />
	<path class="github" d="M132.4,195.2c0-3.7,0.1-15.7,0.1-30.7c0-10.4-3.5-17.2-7.4-20.7c24.3-2.8,49.9-12.2,49.9-55.2
	c0-12.2-4.2-22.2-11.2-30c1.1-2.8,4.9-14.2-1.1-29.6c0,0-9.2-3-30,11.5c-8.7-2.5-18.1-3.7-27.4-3.8c-9.3,0-18.6,1.3-27.3,3.8
	C57.1,25.9,48,28.9,48,28.9c-5.9,15.4-2.2,26.8-1.1,29.6c-7,7.8-11.2,17.8-11.2,30c0,42.9,25.5,52.5,49.7,55.3
	c-3.1,2.8-6,7.7-6.9,15c-6.2,2.9-22,7.8-31.8-9.3c0,0-5.8-10.8-16.7-11.5c0,0-10.6-0.1-0.7,6.8c0,0,7.2,3.4,12.1,16.4
	c0,0,6.4,20,36.8,13.2c0.1,9.4,0.2,18.2,0.2,20.8c0,1.8-0.7,3.7-2.4,4.8h59C133.1,198.9,132.4,197,132.4,195.2z" />
</svg>