<svg width="200" height="200" version="1.1" viewBox="0 0 200 200" xml:space="preserve"
	xmlns:xlink="http://www.w3.org/1999/xlink" xmlns="http://www.w3.org/2000/svg">
	<style>
		.gitlab--fragment-0 {
			fill: #FC6D26;
		}

		.gitlab--fragment-1 {
			fill: #FCA326;
		}

		.gitlab--fragment-2 {
			fill: #E24329;
		}
	</style>
	<rect width="200" height="200" style="fill: var(--bg, #fff); rx: var(--rx, 24);" />
	<g>
		<path class="gitlab--fragment-0" d="M100,169.1l-27.6-85H33.7L100,169.1z M100,169.1l27.6-85h38.7L100,169.1z" />
		<path class="gitlab--fragment-1" d="M33.7,84.1L33.7,84.1l-8.4,25.8c-0.8,2.4,0.1,4.9,2.1,6.4l72.6,52.8L33.7,84.1z M166.3,84.1L166.3,84.1
		l8.4,25.8c0.8,2.4-0.1,4.9-2.1,6.4L100,169.1L166.3,84.1z" />
		<path class="gitlab--fragment-2" d="M100,169.1L100,169.1l27.6-85H72.4L100,169.1z M33.7,84.1h38.7L55.7,32.9c-0.5-1.5-2.1-2.3-3.6-1.8
		c-0.9,0.3-1.5,1-1.8,1.8L33.7,84.1z M166.3,84.1h-38.7l16.6-51.2c0.5-1.5,2.1-2.3,3.6-1.8c0.9,0.3,1.5,1,1.8,1.8L166.3,84.1
		L166.3,84.1z" />
	</g>
</svg>