<svg width="200" height="200" version="1.1" viewBox="0 0 200 200" xml:space="preserve"
	xmlns:xlink="http://www.w3.org/1999/xlink" xmlns="http://www.w3.org/2000/svg">
	<style>
		.godot--fragment-0 {
			fill: #FFFFFF;
		}

		.godot--fragment-1 {
			fill: #478CBF;
		}

		.godot--fragment-2 {
			fill: #414042;
		}
	</style>
	<g>
		<rect width="200" height="200" style="fill: var(--bg, #fff); rx: var(--rx, 24);" />
		<path class="godot--fragment-0"
			d="M165.8,125.7c0,0-0.2-1.3-0.3-1.3l-24.3,2.3c-1.9,0.2-3.4,1.7-3.6,3.7l-0.7,9.6l-18.8,1.3l-1.3-8.7
		c-0.3-1.9-2-3.4-3.9-3.4H87.2c-2,0-3.6,1.5-3.9,3.4l-1.3,8.7l-18.8-1.3l-0.7-9.6c-0.1-1.9-1.6-3.5-3.6-3.7l-24.4-2.3
		c-0.1,0-0.2,1.3-0.3,1.3l0,5.3l20.6,3.3l0.7,9.7c0.1,2,1.7,3.5,3.7,3.7l25.9,1.9c0.1,0,0.2,0,0.3,0c1.9,0,3.6-1.5,3.9-3.4l1.3-8.9
		h18.8l1.3,8.9c0.3,1.9,2,3.4,3.9,3.4c0.1,0,0.2,0,0.3,0l25.9-1.9c2-0.1,3.5-1.7,3.7-3.7l0.7-9.7l20.6-3.3L165.8,125.7z" />
		<path class="godot--fragment-1" d="M84.7,29.3c-6.9,1.5-13.6,3.6-20,6.8c0.1,5.6,0.5,11,1.2,16.4c-2.5,1.6-5.1,2.9-7.4,4.8
		c-2.3,1.8-4.7,3.5-6.9,5.6c-4.2-2.8-8.7-5.4-13.3-7.8c-5,5.4-9.6,11.1-13.4,17.6c2.9,4.6,5.8,9,9.1,13.1h0.1v39.7
		c0.1,0,0.1,0,0.2,0l24.4,2.3c1.3,0.1,2.3,1.2,2.4,2.4l0.8,10.8l21.2,1.5l1.5-9.9c0.2-1.3,1.3-2.2,2.6-2.2h25.7c1.3,0,2.4,1,2.6,2.2
		l1.5,9.9l21.2-1.5l0.8-10.8c0.1-1.3,1.1-2.3,2.4-2.4l24.3-2.3c0.1,0,0.1,0,0.2,0v-3.2l0,0V85.9h0.1c3.2-4.1,6.2-8.5,9.1-13.1
		c-3.8-6.5-8.5-12.3-13.4-17.6c-4.6,2.3-9.1,5-13.3,7.8c-2.1-2.1-4.5-3.8-6.9-5.6c-2.3-1.9-4.9-3.2-7.4-4.8
		c0.7-5.5,1.1-10.8,1.2-16.4c-6.4-3.2-13.1-5.3-20-6.8c-2.7,4.6-5.2,9.6-7.4,14.5c-2.6-0.4-5.2-0.6-7.8-0.6v0c0,0,0,0-0.1,0
		c0,0,0,0,0,0v0c-2.6,0-5.2,0.2-7.8,0.6C90,38.9,87.5,33.9,84.7,29.3L84.7,29.3z M34.1,130.9c0,2.4,0,4.9,0,5.4
		c0,23.1,29.3,34.2,65.8,34.4h0.1c36.5-0.1,65.8-11.2,65.8-34.4c0-0.5,0-3.1,0-5.4L144,133l-0.8,10.8c-0.1,1.3-1.1,2.3-2.4,2.4
		l-25.9,1.9c-0.1,0-0.1,0-0.2,0c-1.3,0-2.4-0.9-2.6-2.2l-1.5-10.1H89.4l-1.5,10.1c-0.2,1.4-1.4,2.3-2.8,2.2l-25.9-1.9
		c-1.3-0.1-2.3-1.1-2.4-2.4L56,133L34.1,130.9L34.1,130.9z" />
		<path class="godot--fragment-0" d="M65.5,87.4c-8.1,0-14.7,6.6-14.7,14.7c0,8.1,6.6,14.7,14.7,14.7c8.1,0,14.7-6.6,14.7-14.7
		C80.2,94,73.6,87.4,65.5,87.4z M134.5,87.4c-8.1,0-14.7,6.6-14.7,14.7c0,8.1,6.6,14.7,14.7,14.7c8.1,0,14.7-6.6,14.7-14.7
		C149.2,94,142.6,87.4,134.5,87.4z M100,96c-2.6,0-4.7,1.9-4.7,4.3v13.5c0,2.4,2.1,4.3,4.7,4.3c2.6,0,4.7-1.9,4.7-4.3v-13.5
		C104.7,97.9,102.6,96,100,96z" />
		<path class="godot--fragment-2" d="M66.9,93.2c-5.4,0-9.7,4.4-9.7,9.7c0,5.4,4.4,9.7,9.7,9.7c5.4,0,9.7-4.4,9.7-9.7
		C76.6,97.5,72.3,93.2,66.9,93.2z M133.1,93.2c-5.4,0-9.7,4.4-9.7,9.7c0,5.4,4.4,9.7,9.7,9.7c5.4,0,9.7-4.4,9.7-9.7
		C142.9,97.5,138.5,93.2,133.1,93.2z" />
	</g>
</svg>