<svg width="200" height="200" version="1.1" viewBox="0 0 200 200" xml:space="preserve"
	xmlns:xlink="http://www.w3.org/1999/xlink" xmlns="http://www.w3.org/2000/svg">
	<style>
		.golang {
			fill: #00ACD7;
		}
	</style>
	<rect width="200" height="200" style="fill: var(--bg, #fff); rx: var(--rx, 24px); filter: var(--filter);" />
	<path class="golang" d="M110.7,75.9l0.3,0.2c3.9,2.6,6.6,6.1,8.5,10.3c0.4,0.7,0.1,1-0.7,1.2l-1.5,0.4c-3.4,0.9-6,1.6-9.3,2.5l-1.9,0.5
		c-0.7,0.2-0.9,0.1-1.6-0.7l-0.1-0.1c-1-1.2-1.8-1.9-3.2-2.6l-0.3-0.1c-4.6-2.3-9.1-1.6-13.2,1.1c-5,3.2-7.5,8-7.4,13.9
		c0.1,5.8,4.1,10.7,9.9,11.5c5,0.7,9.1-1.1,12.4-4.8c0.7-0.8,1.2-1.7,2-2.7H90.4c-1.5,0-1.9-0.9-1.4-2.2l0.3-0.6
		c0.9-2.2,2.4-5.3,3.3-7.1l0.2-0.4c0.3-0.4,0.8-1,1.8-1l23.5,0c1.1-3.3,2.8-6.5,5.1-9.5c5.3-7,11.8-10.7,20.4-12.2
		c7.4-1.3,14.5-0.6,20.8,3.7c5.8,3.9,9.3,9.3,10.3,16.3c1.2,9.9-1.6,17.9-8.4,24.8c-4.8,4.9-10.7,8-17.5,9.3c-2,0.4-3.9,0.4-5.8,0.7
		c-6.6-0.1-12.7-2-17.8-6.4c-3.6-3.1-6.1-6.9-7.3-11.4c-0.9,1.7-1.9,3.4-3.1,4.9c-5.3,6.9-12.1,11.2-20.8,12.4
		c-7.2,0.9-13.8-0.4-19.6-4.8c-5.4-4.1-8.5-9.5-9.3-16.2c-0.9-8,1.4-15.1,6.2-21.4c5.2-6.8,12.1-11.1,20.4-12.6
		C98.4,71.3,104.9,72,110.7,75.9L110.7,75.9z M145.4,86.3l-0.2,0.1c-6.8,1.5-11.2,5.8-12.8,12.7c-1.3,5.7,1.5,11.5,6.7,13.8
		c4,1.8,8,1.5,11.9-0.4c5.8-3,8.9-7.7,9.3-13.9c-0.1-0.9-0.1-1.7-0.2-2.4C158.8,89,152.3,84.9,145.4,86.3L145.4,86.3z M59.1,99.7
		c0.3,0,0.4,0.2,0.4,0.5l-0.1,1.8c0,0.3-0.3,0.5-0.5,0.5L43,102.4c-0.3,0-0.4-0.2-0.2-0.4l1-1.8c0.1-0.2,0.4-0.4,0.7-0.4H59.1z
		M60.7,93c0.3,0,0.4,0.2,0.4,0.4l-0.6,1.8c-0.1,0.3-0.4,0.4-0.7,0.4l-34.5,0.1c-0.3,0-0.4-0.1-0.2-0.4l1.5-2
		c0.1-0.2,0.5-0.4,0.8-0.4H60.7z M64.5,86.2c0.3,0,0.4,0.2,0.2,0.4l-1.2,1.9C63.3,88.8,63,89,62.8,89l-26.4-0.1
		c-0.3,0-0.4-0.1-0.2-0.4l1.5-2c0.1-0.2,0.5-0.4,0.8-0.4H64.5z" />
</svg>