<svg width="200" height="200" version="1.1" viewBox="0 0 200 200" xml:space="preserve"
	xmlns:xlink="http://www.w3.org/1999/xlink" xmlns="http://www.w3.org/2000/svg">
	<style>
		.gradle {
			fill: #02303A;
		}
	</style>
	<rect width="200" height="200" style="fill: var(--bg, #fff); rx: var(--rx, 24px); filter: var(--filter);" />
	<path class="gradle" d="M166.8,51.9c-9.1-9.1-23.7-9.3-33-0.6c-0.4,0.4-0.7,1-0.7,1.6s0.2,1.2,0.7,1.6l3,3.1c0.8,0.8,2.1,0.9,3,0.2
	c2.3-1.8,5.2-2.7,8.2-2.7c5.5,0,10.5,3.3,12.6,8.4s0.9,11-3,14.9c-18.9,18.9-44.1-34-101.3-6.8c-2,0.9-3.5,2.6-4.1,4.7
	c-0.7,2.1-0.4,4.3,0.7,6.2l9.8,17c2.1,3.7,6.8,5,10.5,2.9l0.2-0.1l-0.2,0.1l4.3-2.4c4.8-3,9.4-6.4,13.7-10.2c0.9-0.8,2.2-0.8,3.1,0
	l0,0c0.5,0.4,0.8,1.1,0.8,1.7c0,0.7-0.3,1.3-0.7,1.7c-4.5,4-9.3,7.6-14.4,10.7h-0.1l-4.3,2.4c-1.8,1-3.9,1.6-6,1.6
	c-4.4,0-8.5-2.4-10.8-6.2l-9.3-16c-17.8,12.6-28.6,36.8-22.8,67.6c0.2,1.1,1.1,1.8,2.2,1.8h10.6c1.1,0,2.1-0.8,2.2-2
	c1-7.7,7.6-13.5,15.3-13.5s14.4,5.8,15.3,13.5c0.1,1.1,1.1,2,2.3,2h10.3c1.1,0,2.1-0.8,2.2-2c1-7.7,7.6-13.5,15.4-13.5
	s14.4,5.8,15.4,13.5c0.1,1.1,1.1,2,2.2,2h10.2c1.2,0,2.2-1,2.3-2.2c0.2-14.3,4.1-30.8,15.1-39C185.7,85.3,175.7,60.8,166.8,51.9z
	M127.9,95.1l-7.3-3.7l0,0c0-2.2,1.5-4,3.6-4.5s4.3,0.6,5.1,2.6S129.7,93.8,127.9,95.1L127.9,95.1z" />
</svg>