<svg width="200" height="200" version="1.1" viewBox="0 0 200 200" xml:space="preserve"
	xmlns:xlink="http://www.w3.org/1999/xlink" xmlns="http://www.w3.org/2000/svg">
	<style>
		.grafana {
			fill: url(#fragmentGradient0);
		}
	</style>
	<defs>
		<linearGradient id="fragmentGradient0" gradientUnits="userSpaceOnUse" x1="-299.4843" y1="299.6012"
			x2="-299.4843" y2="299.7878" gradientTransform="matrix(734.0501 0 0 -797.7018 219936.5156 239210.5469)">
			<stop stop-color="#FFF100" offset="0" />
			<stop stop-color="#F05A28" offset="1" />
		</linearGradient>
	</defs>
	<rect width="200" height="200" style="fill: var(--bg, #fff); rx: var(--rx, 24);" />
	<path class="grafana" d="M174.8,90.4c-0.3-2.7-0.7-5.9-1.6-9.4c-0.9-3.5-2.2-7.3-4.2-11.2c-2-4-4.5-8-7.9-12c-1.3-1.6-2.7-3.1-4.3-4.6
	c2.3-9.1-2.8-17-2.8-17c-8.8-0.5-14.3,2.7-16.4,4.2c-0.4-0.1-0.7-0.3-1-0.4c-1.5-0.6-3-1.2-4.6-1.7c-1.6-0.5-3.2-0.9-4.8-1.3
	c-1.7-0.4-3.3-0.7-5-1c-0.3,0-0.6-0.1-0.9-0.1c-3.8-12.2-14.8-17.3-14.8-17.3c-12.3,7.8-14.5,18.6-14.5,18.6s0,0.2-0.1,0.6
	c-0.7,0.2-1.3,0.4-2,0.6c-0.9,0.3-1.9,0.6-2.8,1c-0.9,0.4-1.8,0.7-2.8,1.1c-1.8,0.8-3.7,1.7-5.5,2.7c-1.8,1-3.5,2.1-5.1,3.2
	c-0.2-0.1-0.4-0.2-0.4-0.2c-17-6.5-32,1.3-32,1.3c-1.4,18.1,6.8,29.4,8.4,31.5c-0.4,1.1-0.8,2.2-1.1,3.4c-1.3,4.1-2.2,8.3-2.8,12.6
	c-0.1,0.6-0.2,1.3-0.2,1.9C29.6,104.6,25,120.4,25,120.4c13.1,15,28.3,16,28.3,16l0,0c1.9,3.5,4.2,6.7,6.7,9.8
	c1.1,1.3,2.2,2.5,3.3,3.7c-4.8,13.7,0.7,25,0.7,25c14.5,0.5,24.1-6.4,26.1-7.9c1.4,0.5,2.9,0.9,4.4,1.3c4.5,1.2,9.1,1.8,13.7,2
	c1.1,0,2.3,0.1,3.4,0h0.5h0.4h0.7l0.7,0v0c6.9,9.8,18.9,11.2,18.9,11.2c8.6-9,9.1-18,9.1-19.9c0,0,0,0,0-0.1c0-0.2,0-0.3,0-0.3
	c0-0.1,0-0.3,0-0.4c1.8-1.3,3.5-2.6,5.1-4.1c3.4-3.1,6.4-6.6,8.9-10.5c0.2-0.4,0.4-0.7,0.7-1.1c9.7,0.5,16.6-6,16.6-6
	c-1.6-10.1-7.4-15-8.6-16c0,0,0,0-0.1-0.1c-0.1,0-0.1-0.1-0.1-0.1l0,0c0,0-0.1-0.1-0.2-0.1c0-0.6,0.1-1.2,0.1-1.8
	c0.1-1.1,0.1-2.2,0.1-3.3v-0.8v-0.4v-0.2c0-0.3,0-0.2,0-0.3l0-0.7l0-0.9c0-0.3,0-0.6-0.1-0.9s0-0.6-0.1-0.9l-0.1-0.9L164,111
	c-0.2-1.1-0.4-2.2-0.6-3.3c-1-4.4-2.7-8.5-4.9-12.2c-2.2-3.7-5-7-8.2-9.8c-3.1-2.8-6.7-5-10.4-6.7c-3.7-1.7-7.6-2.7-11.5-3.2
	c-1.9-0.3-3.9-0.4-5.8-0.3h-0.7h-0.2c0,0-0.3,0-0.2,0h-0.3l-0.7,0c-0.3,0-0.5,0-0.8,0c-1,0.1-2,0.2-2.9,0.4c-3.9,0.7-7.5,2.1-10.7,4
	c-3.2,1.9-6,4.3-8.2,7c-2.2,2.7-4,5.7-5.2,8.8s-1.9,6.3-2.1,9.4c0,0.8,0,1.6,0,2.3c0,0.2,0,0.4,0,0.6l0,0.6c0,0.4,0,0.8,0.1,1.1
	c0.1,1.6,0.4,3.1,0.9,4.5c0.9,2.9,2.2,5.6,3.9,7.8c1.7,2.2,3.7,4.1,5.8,5.6c2.1,1.4,4.4,2.5,6.6,3.1s4.5,0.9,6.6,0.9
	c0.3,0,0.5,0,0.8,0c0.1,0,0.3,0,0.4,0s0.3,0,0.4,0c0.2,0,0.4,0,0.7,0c0,0,0.1,0,0.2,0l0.2,0c0.1,0,0.3,0,0.4,0
	c0.3,0,0.5-0.1,0.8-0.1c0.3,0,0.5-0.1,0.7-0.2c0.5-0.1,0.9-0.3,1.4-0.4c0.9-0.3,1.8-0.7,2.6-1.1c0.8-0.4,1.5-0.9,2.2-1.3
	c0.2-0.1,0.4-0.3,0.6-0.4c0.7-0.6,0.9-1.7,0.3-2.4c-0.5-0.6-1.4-0.8-2.1-0.4c-0.2,0.1-0.4,0.2-0.5,0.3c-0.6,0.3-1.3,0.6-1.9,0.8
	c-0.7,0.2-1.4,0.4-2.1,0.5c-0.4,0-0.7,0.1-1.1,0.1c-0.2,0-0.4,0-0.6,0c-0.2,0-0.4,0-0.5,0c-0.2,0-0.4,0-0.5,0c-0.2,0-0.4,0-0.7,0
	c0,0-0.1,0,0,0h-0.1h-0.1c-0.1,0-0.2,0-0.3,0c-0.2,0-0.4,0-0.6-0.1c-1.7-0.2-3.3-0.7-4.9-1.4c-1.6-0.7-3.1-1.7-4.5-3
	c-1.4-1.3-2.6-2.7-3.5-4.4c-0.9-1.7-1.6-3.6-1.9-5.6c-0.1-1-0.2-2-0.2-3c0-0.3,0-0.5,0-0.8c0,0.1,0,0,0,0v-0.1v-0.2
	c0-0.1,0-0.3,0-0.4c0-0.5,0.1-1.1,0.2-1.6c0.8-4.3,2.9-8.5,6.2-11.7c0.9-0.8,1.8-1.5,2.7-2.2c0.9-0.7,2-1.3,3.1-1.8s2.2-0.9,3.3-1.2
	c1.1-0.3,2.3-0.5,3.5-0.6c0.6,0,1.2-0.1,1.8-0.1c0.2,0,0.3,0,0.4,0h0.5h0.3c0.1,0,0,0,0,0h0.1l0.5,0c1.3,0.1,2.6,0.3,3.8,0.6
	c2.5,0.5,5,1.5,7.3,2.7c4.6,2.6,8.5,6.5,10.9,11.3c1.2,2.4,2.1,4.9,2.5,7.6c0.1,0.7,0.2,1.3,0.2,2l0,0.5l0,0.5c0,0.2,0,0.4,0,0.5
	c0,0.2,0,0.4,0,0.5v0.4v0.5c0,0.3,0,0.9,0,1.2c0,0.7-0.1,1.5-0.2,2.2c-0.1,0.7-0.2,1.4-0.4,2.2c-0.1,0.7-0.3,1.4-0.5,2.1
	c-0.4,1.4-0.8,2.8-1.3,4.2c-1.1,2.7-2.5,5.3-4.2,7.7c-3.5,4.8-8.2,8.6-13.6,11.1c-2.7,1.2-5.5,2.1-8.4,2.6c-1.4,0.3-2.9,0.4-4.4,0.4
	h-0.3h-0.2H113h-0.7h-0.4c0.2,0,0,0,0,0h-0.1c-0.8,0-1.6,0-2.4-0.1c-3.1-0.2-6.2-0.8-9.3-1.7c-3-0.9-5.9-2.1-8.7-3.5
	c-5.5-3-10.5-7-14.4-11.9c-1.9-2.4-3.6-5.1-5-7.8c-1.4-2.7-2.5-5.7-3.3-8.6c-0.8-3-1.3-6-1.5-9l0-0.6v-0.1V106v-0.3v-0.5v-0.1v-0.2
	v-0.4v-0.7v-0.1c0,0,0,0,0,0v-0.3c0-0.4,0-0.8,0-1.1c0-1.5,0.2-3.1,0.4-4.6c0.2-1.5,0.4-3.1,0.8-4.6c0.3-1.5,0.7-3.1,1.1-4.6
	c0.9-3,1.9-5.9,3.2-8.7c2.6-5.5,5.9-10.4,9.9-14.3c1-1,2-1.9,3.1-2.8c1.1-0.9,2.2-1.7,3.4-2.4c1.1-0.8,2.3-1.4,3.5-2.1
	c0.6-0.3,1.2-0.6,1.8-0.9c0.3-0.1,0.6-0.3,0.9-0.4s0.6-0.3,0.9-0.4c1.3-0.5,2.6-1,3.9-1.4c0.3-0.1,0.7-0.2,1-0.3
	c0.3-0.1,0.7-0.2,1-0.3c0.7-0.2,1.3-0.4,2-0.5c0.3-0.1,0.7-0.1,1-0.2c0.4-0.1,0.7-0.1,1-0.2c0.4,0,0.7-0.1,1-0.2l0.5-0.1l0.5-0.1
	c0.4,0,0.7-0.1,1-0.1c0.4,0,0.8-0.1,1.2-0.1c0.3,0,0.9-0.1,1.2-0.1c0.2,0,0.5,0,0.7-0.1l0.5,0l0.2,0h0.3c0.4,0,0.8,0,1.2-0.1l0.6,0
	c0,0,0.2,0,0,0h0.1h0.3c0.3,0,0.7,0,1,0c1.3,0,2.6,0,4,0c2.6,0.1,5.2,0.4,7.6,0.9c5,0.9,9.7,2.5,13.9,4.6c4.3,2.1,8,4.6,11.4,7.4
	c0.2,0.2,0.4,0.4,0.6,0.5c0.2,0.2,0.4,0.4,0.6,0.5c0.4,0.4,0.8,0.7,1.2,1.1c0.4,0.4,0.8,0.7,1.1,1.1c0.4,0.4,0.7,0.7,1.1,1.1
	c1.4,1.5,2.7,3,3.9,4.5c2.3,3,4.2,6.1,5.7,8.9c0.1,0.2,0.2,0.4,0.3,0.5c0.1,0.2,0.2,0.4,0.3,0.5c0.2,0.4,0.4,0.7,0.5,1.1
	c0.2,0.4,0.3,0.7,0.5,1c0.1,0.4,0.3,0.7,0.4,1c0.5,1.3,1.1,2.6,1.5,3.9c0.7,2,1.2,3.7,1.6,5.3c0.1,0.6,0.7,1,1.3,0.9
	c0.7,0,1.2-0.6,1.2-1.3C175,94.6,175,92.6,174.8,90.4z" />
</svg>