<svg width="200" height="200" version="1.1" viewBox="0 0 200 200" xml:space="preserve"
	xmlns:xlink="http://www.w3.org/1999/xlink" xmlns="http://www.w3.org/2000/svg">
	<style>
		.graphql {
			fill-rule: evenodd;
			fill: #E535AB;
		}
	</style>
	<rect width="200" height="200" style="fill: var(--bg, #fff); rx: var(--rx, 24);" />
	<path class="graphql" d="M112.8,42.2L143.7,60c0.9-0.9,1.9-1.7,3-2.4c6.4-3.7,14.6-1.5,18.3,4.9c3.7,6.4,1.5,14.6-4.9,18.3
	c-1.1,0.7-2.3,1.1-3.6,1.4v35.6c1.2,0.3,2.4,0.8,3.5,1.4c6.4,3.7,8.6,11.9,4.9,18.3c-3.7,6.4-11.9,8.6-18.3,4.9
	c-1.3-0.7-2.4-1.6-3.3-2.7l-30.7,17.7c0.4,1.3,0.7,2.7,0.7,4.2c0,7.4-6,13.4-13.4,13.4s-13.4-6-13.4-13.4c0-1.3,0.2-2.6,0.5-3.8
	L56.3,140c-0.9,0.9-1.9,1.7-3,2.4c-6.4,3.7-14.6,1.5-18.3-4.9c-3.7-6.4-1.5-14.6,4.9-18.3c1.1-0.7,2.3-1.1,3.5-1.4V82.2
	c-1.2-0.3-2.4-0.8-3.6-1.4c-6.4-3.7-8.6-11.9-4.9-18.3s11.9-8.6,18.3-4.9c1.1,0.7,2.2,1.5,3,2.4l30.9-17.8c-0.4-1.2-0.5-2.5-0.5-3.8
	c0-7.4,6-13.4,13.4-13.4s13.4,6,13.4,13.4C113.4,39.7,113.2,41,112.8,42.2z M109.6,47.7l30.9,17.9c-1,3.4-0.6,7.1,1.3,10.3
	c1.9,3.3,4.9,5.4,8.4,6.3v35.7c-0.2,0-0.3,0.1-0.5,0.1L109.2,48C109.4,47.9,109.5,47.8,109.6,47.7z M90.8,48L50.4,118
	c-0.2-0.1-0.4-0.1-0.5-0.1V82.2c3.4-0.8,6.5-3,8.4-6.3c1.9-3.3,2.2-7,1.3-10.4l30.9-17.8C90.5,47.8,90.6,47.9,90.8,48z M103.7,51.2
	l40.4,69.9c-0.9,0.9-1.7,1.9-2.4,3c-0.6,1.1-1.1,2.3-1.4,3.5H59.7c-0.3-1.2-0.8-2.4-1.4-3.5c-0.7-1.1-1.5-2.1-2.3-3l40.4-69.9
	c1.2,0.3,2.4,0.5,3.7,0.5C101.3,51.7,102.6,51.6,103.7,51.2z M109.9,152.6l30.7-17.7c-0.1-0.3-0.2-0.6-0.2-0.9H59.6
	c0,0.2-0.1,0.3-0.1,0.5l30.9,17.8c2.4-2.5,5.8-4.1,9.6-4.1C103.9,148.3,107.4,149.9,109.9,152.6z" />
</svg>