<svg width="200" height="200" version="1.1" viewBox="0 0 200 200" xml:space="preserve"
	xmlns:xlink="http://www.w3.org/1999/xlink" xmlns="http://www.w3.org/2000/svg">
	<style>
		.grunt--fragment-0 {
			fill: #FBA919;
		}

		.grunt--fragment-1 {
			fill: #E78724;
		}

		.grunt--fragment-2 {
			fill: #FFFFFF;
		}

		.grunt--fragment-3 {
			fill: #C9C9C9;
		}

		.grunt--fragment-4 {
			fill: #463014;
		}
	</style>
	<rect width="200" height="200" style="fill: var(--bg, #fff); rx: var(--rx, 24px); filter: var(--filter);" />
	<g>
		<path class="grunt--fragment-0" d="M154.5,89.3c-1.1-3.7-7-8.8-7-8.8s-1.5-9.2-0.4-11.4c1.1-2.2,7.7-7.7,4-11.7c-3.7-4-10.3-4-10.3-4l-8.4,0.7
		c0,0-4.5-4.1-11.9-7.5l9.8,1.4c0,0,1.3-8.3,9.7-8.6c2-0.1,3.3-0.1,4-0.1l6.7-4.2c0,0-7.6-2.1-15.4-2.1c-7.7,0.1-12.6,5.2-14.3,7.8
		c-1.7,2.6-5.1,3.1-5.1,3.1l-2.2,0c-4.3-1.3-9.2-2.2-14.3-2c-4.3,0.2-8.3,0.9-11.8,2l-3.2,0c0,0-3.4-0.6-5.1-3.1
		c-1.7-2.6-6.6-7.7-14.3-7.8c-7.7-0.1-15.4,2.1-15.4,2.1l6.7,4.2c0.7,0,1.9,0,4,0.1c8.4,0.3,9.7,8.6,9.7,8.6l11-1.5
		C73.3,49.9,69,54.1,69,54.1s-6.2-2.2-11.7,0c-5.5,2.2-6.6,0-5.5,6.2c0,0,2.6,9.9,2.9,13.2c0.4,3.3-6.6,10.6-6.6,14.3
		c0,3.7,1.5,10.3,9.5,13.6c8.1,3.3,9.2,11.7,9.2,16.9c0,5.1-2.9,15-2.9,15s-1.8,24.6,8.1,29c9.9,4.4,7.7,4.4,9.9,4.4
		c2.2,0,18.3,6.6,27.9,4c9.5-2.6,12.1-5.5,12.1-5.5s9.5,0.7,12.5-7.7c2.9-8.4,4.8-26.1,3.7-34.1c-1.1-8.1-2.6-18.7,4-22.4
		C148.6,97.4,155.6,93,154.5,89.3z" />
		<path class="grunt--fragment-1" d="M78,135.3c0,0-6.2-0.1-5.3-1.3c5.3-7.9,12.6-19,12.6-19L78,135.3z M60.4,47.1c1.3,5.6,5.5,7.5,5.5,7.5l8.6-6.9
		c0,0-1.5-3.2-6.6-7.3c-5.1-4.1-12.8-2.6-12.8-2.6C60,39,59.1,41.6,60.4,47.1z M71.2,72.5c-7.4-0.6-11,2-11,2s12.2,0.5,15.7,5.1
		c1.3,1.7,2.7,3,4.1,4.2c-5.1-2.1-15.4-5.5-15.4-3.1c0,3,0.9,13.7,9.2,16.7c3.2,1.1,5.8,1.1,7.8,0.5c-0.5,5-2.5,7.1-2.5,7.1
		s5-1.6,6.3-4.7c1.2-2.9,3.4-8.4,3.4-8.4L87,91.7c-0.4-2-1.7-4-2.9-5.3c4.4,2,8.4,1.9,9.3,0.7c-1.8,0.1-3.7-0.8-5.8-2.7
		c-1.3-1.2-2.3-3.2-3.4-4.7C81,74.9,75.5,72.8,71.2,72.5z M68,53.2l3.1,1.5c-0.3,0.5-0.4,0.8-0.4,0.8l3.1,1.4c0,0,7.6,5.5,12.3,9.1
		C84.5,61.2,80,53.6,80,53.6s-1.3-3.5,1.5-7.3C75.8,49.2,68,53.2,68,53.2z M86.9,158.5c5.4,0,7.1-8.3,7.1-10l-15.1,0.2
		C78.9,148.7,80.5,158.5,86.9,158.5z M69.9,109.1c-0.2-4.9-0.9-11-6.2-12.9c0,0-7.3-2.5-10.1-5.7c1.1-0.9,3.1-3.2,3.8-8.6
		c1.1-7.9-1.3-14.7-1.3-14.7s0.2,10.9-1.1,13c-0.3,0.6-0.7,1-1,1.5c-0.2-1.4-0.7-2.1-0.7-2.1s-7.5,5.6-5.6,11.6
		c1.2,3.7,3.2,6.3,14,11.4c2.7,5,2.9,12.2,2.5,17.9c-0.4,2.9-1.5,10.3-2,13.2c2,0.4,3.6-0.8,6,0.2c0.6-1.6,2.6-7.9,3.2-13.7
		c0.8-6.9,0.5-17,0.5-17S71,106.8,69.9,109.1z M115.1,115l7.3,20.3c0,0,6.2-0.1,5.3-1.3C122.4,126.1,115.1,115,115.1,115z M140,47.1
		c1.3-5.6,0.4-8.1,5.3-9.2c0,0-7.7-1.5-12.8,2.6c-5.1,4.1-6.6,7.3-6.6,7.3l8.6,6.9C134.5,54.6,138.7,52.7,140,47.1z M106.9,87.1
		c0.9,1.2,4.9,1.3,9.4-0.7c-1.3,1.3-2.6,3.3-2.9,5.3l-1.7,0.2c0,0,2.2,5.5,3.4,8.4c1.3,3.1,6.3,4.7,6.3,4.7s-2-2-2.5-7.1
		c2,0.5,4.6,0.6,7.8-0.5c8.3-3,9.2-13.7,9.2-16.7c0-2.4-10.4,1-15.5,3.1c1.4-1.1,2.8-2.5,4.1-4.2c3.5-4.6,15.7-5.1,15.7-5.1
		s-3.5-2.6-11-2c-4.4,0.3-9.8,2.4-13.1,7.1c-1.1,1.5-2.1,3.5-3.4,4.7C110.6,86.3,108.7,87.1,106.9,87.1z M147.1,79.6
		c0,0-0.6,0.7-0.7,2.1c-0.3-0.4-0.7-0.9-1-1.5c-1.3-2.1-1.1-13-1.1-13s-2.4,6.8-1.3,14.7c0.7,5.4,2.6,7.7,3.8,8.6
		c-2.9,3.2-10.1,5.7-10.1,5.7c-5.3,1.9-6,8-6.2,12.9c-1.1-2.3-2-5.8-2-5.8s-0.3,10.1,0.5,17c0.6,5.8,2.6,12.1,3.2,13.7
		c2.4-1,4,0.2,6-0.2c-0.6-2.9-1.6-10.3-2-13.2c-0.4-5.7-0.2-12.9,2.5-17.9c10.9-5.1,12.9-7.8,14-11.4
		C154.6,85.2,147.1,79.6,147.1,79.6z M114.3,66c4.7-3.6,12.3-9.1,12.3-9.1l3.1-1.4c0,0-0.1-0.3-0.4-0.8l3.1-1.5c0,0-7.8-4-13.4-6.9
		c2.8,3.8,1.5,7.3,1.5,7.3S115.8,61.2,114.3,66z M100.2,163.5c-17.4,0-23.3-8.8-23.3-8.8l2.7,6.6c1,2.9,12,11.8,20.5,11.8v0
		c0,0,0,0,0,0c0,0,0,0,0,0v0c8.5,0,19.5-8.9,20.5-11.8l2.7-6.6C123.4,154.7,117.6,163.5,100.2,163.5z M113.5,158.5
		c6.4,0,8-9.8,8-9.8l-15.1-0.2C106.5,150.3,108.1,158.5,113.5,158.5z M100.2,78.1l0-0.8L100.2,78.1c5.8,0,9.5-6.5,9.5-6.5
		c-2.8,2-6.6,2.1-9.5,2.1c-2.9,0-6.7-0.1-9.5-2.1C90.7,71.5,94.4,78.1,100.2,78.1z" />
		<path class="grunt--fragment-2" d="M87.2,89.7c0,0-4,4-10.1,2.7c-6.1-1.3-9.8-4-10.1-8.7c-0.3-4.7,1.3-6.6,1.3-6.6s6.8,2.1,10.1,5
		C81.7,85,84.1,89.5,87.2,89.7L87.2,89.7L87.2,89.7z M77.7,140.7c-0.3-1.5-0.3-2.9,0-4.2c-1.2-0.9-3.4-1.3-5.1-1.8
		c-1.4-0.9-8.3,0.9-13.3-5.2c-6.3-7.6-5-12.2-5-12.2c-1.6,1.8-3.2,1.1-5.7,9.5c-2.5,8.4,1.2,14.2,7.9,20.1c3.2,2.8,7.7,3.9,11.6,4.4
		c-1.3-1.3,2.2-1.4,4.7-2.3c-0.2-2,0.1-3.9,1.6-5.4c0.9-0.9,2-1.5,3.2-1.9c0.1-0.2,0.1-0.3,0.2-0.4C77.7,141,77.7,140.9,77.7,140.7
		L77.7,140.7L77.7,140.7z M113.2,89.7c0,0,4,4,10.1,2.7c6.1-1.3,9.8-4,10.1-8.7c0.3-4.7-1.3-6.6-1.3-6.6s-6.8,2.1-10.1,5
		C118.7,85,116.3,89.5,113.2,89.7L113.2,89.7L113.2,89.7z M122.7,140.7c0.3-1.5,0.3-2.9,0-4.2c1.2-0.9,3.4-1.3,5.1-1.8
		c1.4-0.9,8.3,0.9,13.3-5.2c6.3-7.6,5-12.2,5-12.2c1.6,1.8,3.2,1.1,5.7,9.5c2.5,8.4-1.2,14.2-7.9,20.1c-3.2,2.8-7.7,3.9-11.6,4.4
		c1.3-1.3-2.2-1.4-4.7-2.3c0.2-2-0.1-3.9-1.6-5.4c-0.9-0.9-2-1.5-3.2-1.9c-0.1-0.2-0.1-0.3-0.2-0.4
		C122.7,141,122.7,140.9,122.7,140.7L122.7,140.7L122.7,140.7z" />
		<path class="grunt--fragment-3" d="M82.4,88.2c0,0-3.5,1.6-7.3,0.3c-5.1-1.7-5.4-7-5.4-7s-3.1,9.1,5.6,10.9c7,1.4,11.1-2.6,11.1-2.6L82.4,88.2
		L82.4,88.2z M72.8,148.9c-0.1-0.4-0.2-0.8-0.4-1.3c-0.1-0.5-0.7-1.8,0-0.3c-0.2-0.4-0.3-0.8-0.4-1.2c-11,0-20.5-7.5-18.7-23.4
		c-1.4-1.9-3.4,3.8-3.4,3.8s-5.5,15.9,8.7,22.1c4.7,2.1,8.9,3.5,9.9,2.9c2.1,0.4,3.9-1,4.6-2C73,149.5,72.9,149.2,72.8,148.9
		L72.8,148.9L72.8,148.9z M118,88.2c0,0,3.5,1.6,7.3,0.3c5.1-1.7,5.4-7,5.4-7s3.1,9.1-5.6,10.9c-7,1.4-11.1-2.6-11.1-2.6L118,88.2
		L118,88.2z M127.6,148.9c0.1-0.4,0.2-0.8,0.4-1.3c0.1-0.5,0.7-1.8,0-0.3c0.2-0.4,0.3-0.8,0.4-1.2c11,0,20.5-7.5,18.7-23.4
		c1.4-1.9,3.4,3.8,3.4,3.8s5.5,15.9-8.7,22.1c-4.7,2.1-8.9,3.5-9.9,2.9c-2.1,0.4-3.9-1-4.6-2C127.4,149.5,127.5,149.2,127.6,148.9
		L127.6,148.9L127.6,148.9z" />
		<path class="grunt--fragment-4" d="M61.9,79.3c-0.3,2.9,1.5,5.6,1.5,5.6c0.2-2.2,0.6-3.7,1.2-4.8c0.1,3,0.9,6.9,3.7,10c2,2.2,10.4,6.8,16.1,1.8
		c0.3,0.7,0.6,1.6,0.9,2.5c0.9,3-0.8,7.4-0.8,7.4s4.4-5,4.1-9.5c3.2-0.1,6.3-2.5,6.2-5.7c0,0-5.5,3-10.4-2.6
		c-2.8-3.3-12-12.3-24.4-9.3c1.3,0.3,2.6,0.7,4,1.2c0,0,0,0,0,0C62.7,76.4,62.1,77.9,61.9,79.3z M83.4,89.7
		C83.4,89.7,83.4,89.7,83.4,89.7L83.4,89.7C83.4,89.7,83.4,89.7,83.4,89.7c-1.7,1-6.4,3.1-11.1-0.5c-3-2.3-2.9-7.7-2-10.4
		C75.9,82,81.2,86.3,83.4,89.7z M93.4,147.3c0.6,0.7,0.4,1.5,0.3,2c-0.3,0.8-1.6,3.3-3.8,5.7c-0.8,0.8-1.9,1.3-3.2,1.3
		c-1.3,0-2.6-0.5-3.4-1.2c-0.7-0.6-3-2.7-4-5.3c-0.4-1-0.3-1.8,0.3-2.3c0.4-0.4,1.2-0.8,2.8-0.8l1.1,0c1.4,0,3.6,0,5.6,0h1.9
		C92,146.5,92.9,146.7,93.4,147.3z M111.8,92.2c-0.3,4.5,4.1,9.5,4.1,9.5s-1.6-4.4-0.8-7.4c0.3-0.9,0.6-1.8,0.9-2.5
		c5.6,5.1,14.1,0.4,16.1-1.8c2.8-3.1,3.6-7,3.7-10c0.5,1.1,1,2.7,1.2,4.9c0,0,1.9-2.7,1.5-5.6c-0.2-1.5-0.8-2.9-2-3.5c0,0,0,0,0,0
		c1.4-0.5,2.7-0.9,4-1.2c-12.4-3-21.5,6-24.4,9.3c-4.9,5.6-10.4,2.6-10.4,2.6C105.5,89.8,108.7,92.1,111.8,92.2z M130.2,78.8
		c0.9,2.7,1,8.1-2,10.4c-4.8,3.5-9.4,1.5-11.1,0.5c0,0,0,0,0,0C119.2,86.3,124.5,82,130.2,78.8z M121,147.3c0.6,0.6,0.6,1.3,0.3,2.3
		c-1,2.6-3.3,4.7-4,5.3c-0.9,0.8-2.2,1.2-3.4,1.2c-1.3,0-2.4-0.5-3.2-1.3c-2.2-2.4-3.5-4.9-3.8-5.7c-0.2-0.4-0.4-1.3,0.3-2
		c0.5-0.5,1.4-0.8,2.6-0.8h1.9c2,0,4.2,0,5.6,0l1.1,0C119.8,146.5,120.6,146.9,121,147.3z M92.2,73.6c2.9,1.8,5.5,2.4,8,2.4
		c2.5-0.1,5.1-0.7,8-2.4c0,0-4.2,5.2-8,5.2v0c0,0,0,0,0,0c0,0,0,0,0,0v0C96.4,78.8,92.2,73.6,92.2,73.6z M146.3,116.8
		c-0.7,5.2-3.8,9.9-7.2,12.8c-0.9-6.7-1.1-16.3-1.1-18.3c0-4.3,2.8-7.2,3.6-7.6c0.7-0.4,1.6-0.9,2.4-1.3c5.3-2.8,11.8-6.3,11.8-12.8
		c0-4.7-2.7-6.8-4.5-8.1c-0.2-0.2-0.4-0.3-0.6-0.5c-0.6-0.5-1.1-0.9-1.3-1.3c-1.3-2.9-1-10-0.5-11c0.2-0.2,4.9-6.1,3.4-11.5
		c-0.6-2.2-2-3.9-4.1-5c-1.6-0.8-3.5-1.2-5.7-1.3c0-0.6-0.2-1.2-0.3-1.7c-0.2-0.8-0.3-1.6-0.3-2.4c0.1-1.4,0.2-2.6,0.6-3.3
		c2.5-3.9,8.5-5.2,8.5-5.2l3.6-0.7l-2.4-2.8c0-0.1-5.1-5.1-13.6-5.1c-2.3,0-4.7,0.4-7.1,1.1c-7.1,2.3-12.6,8.9-14.5,11.5
		c-0.9-0.3-1.9-0.5-2.8-0.8c-1.2-4.6,2.6-11.3,2.6-11.3s-4-0.9-9.9,4.5c-0.8-1.9-2.4-6-0.5-10.9c-8.6,3-10.8,7.7-11.5,11.9
		c-2.2-1.6-2-6.8-2.1-8.1c-2.2,0.3-8.5,6.4-8.3,14.2c-0.6,0.2-1.2,0.3-1.7,0.5c-1.9-2.6-7.4-9.2-14.5-11.5c-2.4-0.8-4.7-1.1-7.1-1.1
		c-8.5,0-13.5,5.1-13.6,5.1l-2.4,2.8l3.6,0.7c0.1,0,6,1.3,8.5,5.2c0.4,0.6,0.5,1.9,0.6,3.3c0.1,0.8-0.1,1.6-0.3,2.4
		c-0.1,0.6-0.2,1.1-0.3,1.7c-2.2,0.1-4.2,0.5-5.7,1.3c-2.1,1.1-3.5,2.8-4.1,5c-1.5,5.3,3.3,11.3,3.4,11.5c0.6,1,0.8,8.2-0.5,11
		c-0.2,0.4-0.7,0.8-1.3,1.3c-0.2,0.2-0.4,0.3-0.6,0.5c-1.8,1.4-4.5,3.4-4.5,8.1c0,6.5,6.6,10,11.8,12.8c0.9,0.5,1.7,0.9,2.4,1.3
		c0.8,0.5,3.6,3.3,3.6,7.6c0,2-0.2,11.6-1.1,18.3c-3.4-2.9-6.5-7.6-7.2-12.8c0,0-8.6,6.6-6,20.8c1.5,8.6,6.8,13.5,13.8,16
		c2.6,5.6,8.6,13.4,19.7,14.5c4.2,3.5,10.1,5.7,18.6,5.7v0c0,0,0,0,0,0c0,0,0,0,0,0v0c8.5,0,14.4-2.3,18.6-5.7
		c11.1-1.1,17.1-9,19.7-14.5c7-2.5,12.2-7.4,13.8-16C154.8,123.4,146.3,116.8,146.3,116.8z M133.5,34.9c1.7-0.5,3.4-0.8,5.2-0.8
		c3.2,0,5.8,0.9,7.2,1.5c-0.9,0.4-1.9,0.9-2.8,1.6c-0.7-0.1-1.6-0.2-2.7-0.2c-3.1,0-6,0.9-8.4,2.6c-3.6,2.5-5.3,5-6.1,6.6
		c-0.6-0.4-1.3-0.7-2.1-1.1c-0.5-0.2-0.9-0.4-1.4-0.6C124.3,41.7,128.3,36.6,133.5,34.9z M133.1,52.2c-0.7-0.9-1.6-2.1-3.1-3.3
		c0.4-1.4,1.6-4.7,4-6.6c1.6-1.3,3.5-2,5.7-2.1c-0.2,0.3-0.5,0.6-0.7,1c-1,1.5-1.1,3.4-1.3,5.2c-0.2,1.9-0.3,3.7-1.3,5
		C135.2,51.6,134.1,51.9,133.1,52.2z M64,51.4c-1-1.3-1.1-3.1-1.3-5c-0.2-1.8-0.3-3.7-1.3-5.2c-0.2-0.3-0.4-0.6-0.7-1
		c2.2,0.1,4.1,0.8,5.7,2.1c2.3,1.9,3.5,5.2,4,6.6c-1.4,1.2-2.4,2.4-3.1,3.3C66.3,51.9,65.2,51.6,64,51.4z M74.5,46.1
		c-0.8-1.6-2.4-4-6.1-6.5c-2.4-1.7-5.3-2.6-8.4-2.6c-1.1,0-2,0.1-2.7,0.2c-1-0.6-1.9-1.2-2.8-1.6c1.4-0.6,4-1.5,7.2-1.5
		c1.8,0,3.5,0.3,5.2,0.8c5.2,1.7,9.3,6.8,11.1,9.4c-0.5,0.2-0.9,0.4-1.4,0.6C75.8,45.3,75.1,45.7,74.5,46.1z M61,100
		c-0.8-0.5-1.6-0.9-2.5-1.4c-4.4-2.4-8.9-4.8-8.9-8.9c0-3.2,1.3-4.3,2.6-5.3l0.1-0.1c0.2-0.2,0.4-0.3,0.6-0.5
		c-0.3,2.1-0.6,3.9-0.8,4.4c0,0,3.6-4.4,4.6-13c0.4-3.4-0.3-10-1.5-12.6c0,1.4,0,2.9-0.1,4.2c-0.1-0.2-0.2-0.5-0.4-0.6
		c-0.9-1.2-3.5-5.1-2.7-7.8c0.3-1,0.9-1.8,2-2.3c1.1-0.6,2.6-0.8,4.4-0.8c3.6,0,7.6,1.1,9.6,1.7c7.4,2.3,16.2,9,18.8,11.1
		C87,68,87.1,68,87.1,68l1.6,1.1l-1-1.7c-0.1-0.1-5.6-9.2-15.6-13.6c0.6-0.8,2.2-2.4,6.3-4.4c6.3-3.1,13.6-4.6,21.8-4.6
		c8.2,0,15.5,1.6,21.8,4.6c4.2,2,5.7,3.6,6.3,4.4c-10,4.4-15.5,13.5-15.6,13.6l-1,1.7l1.6-1.1c0,0,0.1,0,0.1-0.1
		c2.5-2,11.4-8.7,18.8-11.1c2.1-0.7,6-1.7,9.6-1.7c1.8,0,3.3,0.3,4.4,0.8c1,0.5,1.7,1.3,2,2.3c0.7,2.7-1.8,6.6-2.7,7.8
		c-0.1,0.2-0.3,0.4-0.4,0.6c-0.1-1.4-0.1-2.8-0.1-4.2c-1.2,2.6-1.9,9.2-1.5,12.6c1.1,8.6,4.6,13,4.6,13c-0.2-0.5-0.5-2.3-0.8-4.4
		c0.2,0.2,0.4,0.4,0.6,0.5l0.1,0.1c1.3,1.1,2.6,2.1,2.6,5.3c0,4.2-4.5,6.6-8.9,8.9c-0.8,0.5-1.7,0.9-2.5,1.4
		c-2.5,1.5-5.3,4.9-5.6,10c-0.3,4.3,0.3,14.6,1,22.2c-3.6,1.4-7.8,1.9-11.6,2c-0.6-1.2-1.2-2.5-1.6-3.9c-0.2-0.6-5.7-15-7.7-18.2
		c1.6,11.4,5.1,21.6,6.9,26.3c-1-0.1-2.1-0.2-3.4-0.2c0,0-12.2,0-17.1,0h0h0c-4.9,0-17.1,0-17.1,0c-1.3,0-2.4,0.1-3.4,0.2
		c1.8-4.7,5.3-14.8,6.9-26.3c-2,3.3-7.5,17.7-7.7,18.2c-0.5,1.3-1,2.6-1.6,3.9c-3.8-0.1-8-0.6-11.6-2c0.7-7.6,1.3-17.9,1-22.2
		C66.3,104.9,63.5,101.5,61,100z M54.1,142.4c-3.6-5.9-2.6-15.8-1.1-17.3c3.2,10.1,13.8,13,21.8,13.3c-0.8,1.2-1.5,2.2-2,2.9
		c-0.2,0.1-0.3,0.3-0.4,0.4c-2.1,2.3-2.5,5.4-1.2,9.3c-2.1,0-4.1-0.3-6.2-0.9c-0.3-0.9-0.5-1.5-0.5-1.8h-2.1l2.1,0l-3.9,0
		C58,147,55.7,145,54.1,142.4z M67.5,155.1c1.8,0.3,3.6,0.6,5.5,0.7c1,2.4,2.2,4.7,3.6,6.8C72.4,160.9,69.4,157.9,67.5,155.1z
		 M100.2,169.8c-17.7,0-22.9-13.4-24.9-19c-1.1-3.1-1-5.3,0.3-6.8c0.8-1,2.8-2.1,7.2-2.1l4.6,0c3.4,0,7.7,0,12.8,0
		c5.1,0,9.4,0,12.8,0l4.6,0c4.4,0,6.4,1.2,7.2,2.1c1.2,1.4,1.3,3.7,0.2,6.8C123.1,156.4,117.9,169.8,100.2,169.8z M123.8,162.6
		c1.4-2.1,2.6-4.4,3.6-6.8c1.9-0.1,3.7-0.4,5.4-0.7C130.9,157.9,128,160.9,123.8,162.6z M146.3,142.4c-1.6,2.6-3.9,4.6-6.5,6h-3.9
		c0,0.3-0.2,0.9-0.5,1.8c-2,0.6-4.1,0.9-6.1,0.9c1.3-3.9,0.9-7.1-1.2-9.3c-0.1-0.1-0.3-0.3-0.4-0.4c-0.5-0.7-1.3-1.7-2-2.9
		c8-0.3,18.6-3.2,21.8-13.3C148.8,126.6,149.8,136.6,146.3,142.4z" />
	</g>
</svg>