<svg width="200" height="200" version="1.1" viewBox="0 0 200 200" xml:space="preserve"
	xmlns:xlink="http://www.w3.org/1999/xlink" xmlns="http://www.w3.org/2000/svg">
	<style>
		.gulp {
			fill: #DA4648;
		}
	</style>
	<rect width="200" height="200" style="fill: var(--bg, #fff); rx: var(--rx, 24);" />
	<path class="gulp" d="M99.7,143.4c-6.3,0-12.7-0.7-18.8-2.1c-1.8-0.4-3.6-1-5.4-1.7l4.4,7.4l1.7,23.3c0,2.6,8.3,4.7,18.5,4.7
	s18.5-2.1,18.5-4.7l1.4-23.5l4.1-7.2c-1.8,0.7-3.6,1.3-5.4,1.7C112.4,142.7,106,143.4,99.7,143.4z M124.1,67.7
	c-8,1-16.1,1.5-24.1,1.4c-8.1,0.1-16.1-0.4-24.1-1.4c-2.5-0.3-5-0.8-7.5-1.6c-0.6-0.2-1.3-0.5-1.8-0.8l4,36.8
	c0.2-0.6,0.4-1.3,0.6-1.9c0.5-1.3,1-2.6,1.6-3.8c0.6-1.2,1.3-2.4,2-3.5c0.7-1.1,1.5-2.1,2.3-3c0.8-0.9,1.6-1.7,2.5-2.4
	c0.8-0.6,1.7-1.2,2.6-1.6c0.8-0.4,1.7-0.5,2.6-0.5c1,0,2,0.3,2.9,0.8c1.1,0.7,1.9,1.6,2.6,2.6c0.2,0.2,0.3,0.5,0.4,0.8
	c0,0.3,0.1,0.5,0.1,0.8c0,0.5-0.1,1-0.4,1.4c-0.2,0.3-0.6,0.5-1,0.5c-0.4,0-0.7-0.2-1-0.5c-0.4-0.5-0.7-1-1-1.6
	c-0.3-0.5-0.7-1-1.2-1.3c-0.4-0.3-0.9-0.4-1.4-0.4c-0.9,0-1.8,0.4-2.4,0.9c-1,0.7-1.8,1.6-2.6,2.5c-0.9,1.1-1.7,2.3-2.4,3.6
	c-0.8,1.3-1.5,2.7-2.1,4.1c-0.6,1.3-1.1,2.7-1.4,4.1c-0.3,1.2-0.5,2.4-0.5,3.7c0,0.4,0,0.7,0.1,1.1c0,0.4,0.1,0.7,0.3,1
	c0.1,0.3,0.3,0.6,0.5,0.8c0.2,0.2,0.6,0.3,0.9,0.3c0.5,0,1-0.2,1.4-0.4c0.6-0.3,1.1-0.7,1.6-1.1c0.6-0.5,1.1-1,1.7-1.5
	c0.6-0.6,1.1-1.1,1.6-1.7s0.9-1.1,1.3-1.6c0.3-0.4,0.6-0.9,0.8-1.4l1.5-4.6c0.1-0.4,0.4-0.8,0.7-1.1c0.3-0.2,0.6-0.3,0.9-0.3
	c0.2,0,0.3,0,0.5,0.1c0.3,0.1,0.6,0.4,0.7,0.7c0.1,0.2,0.1,0.4,0.1,0.6c0,0.6-0.1,1.2-0.2,1.7c-0.1,0.5-0.2,1.1-0.4,1.6
	c-0.2,0.5-0.4,1-0.6,1.6s-0.4,1.1-0.6,1.6c-0.1,0.2-0.2,0.4-0.2,0.6c-0.1,0.4-0.3,0.8-0.4,1.3c-0.2,0.5-0.3,1.1-0.5,1.7l-0.6,2
	c-0.2,0.7-0.4,1.3-0.6,2c-0.2,0.6-0.3,1.2-0.5,1.7l-0.4,1.3c-0.1,0.3-0.2,0.5-0.2,0.6c-0.1,0.2-0.2,0.5-0.3,0.7
	c-0.1,0.3-0.3,0.5-0.4,0.7c-0.2,0.2-0.3,0.4-0.5,0.5c-0.2,0.1-0.4,0.2-0.6,0.2c-0.3,0-0.6-0.1-0.8-0.3c-0.2-0.4-0.3-0.8-0.2-1.3
	v-0.3c0-0.1,0-0.2,0-0.3c0.1-0.4,0.2-0.8,0.3-1.2c0.2-0.6,0.3-1.2,0.5-1.9c0.2-0.7,0.4-1.5,0.7-2.2c0.2-0.8,0.5-1.5,0.7-2.1
	c-0.6,0.6-1.2,1.3-1.9,1.9c-0.7,0.6-1.3,1.2-2.1,1.7c-0.7,0.5-1.4,0.9-2.1,1.2c-0.7,0.3-1.4,0.5-2.1,0.5c-0.7,0-1.4-0.2-2-0.5
	c-0.1-0.1-0.2-0.1-0.3-0.2l2.2,23.3c0.6,1.5,11.5,5,25.9,5s25.3-3.6,25.9-5l3.2-27.7l-0.8,0.7c-0.8,0.8-1.7,1.5-2.6,2.2
	c-0.7,0.6-1.5,1-2.4,1.4c-0.8,0.3-1.6,0.5-2.5,0.5c-0.7,0-1.4-0.1-1.9-0.5c-0.5-0.4-0.7-0.9-0.7-1.5v-0.1c0-0.1,0-0.1,0-0.2
	c0.1-0.5,0.2-0.9,0.5-1.3c0.3-0.5,0.7-1.1,1.1-1.6c0.4-0.5,0.9-1.1,1.3-1.7c0.5-0.6,0.9-1.1,1.3-1.6c0.4-0.4,0.7-0.9,1-1.4
	c0.2-0.3,0.4-0.6,0.4-1c0-0.1-0.1-0.3-0.2-0.4c-0.2-0.1-0.3-0.1-0.5-0.1c-0.5,0-0.9,0.1-1.4,0.3c-0.5,0.2-1,0.6-1.4,0.9
	c-0.5,0.4-0.9,0.8-1.3,1.3c-0.4,0.5-0.8,1-1.2,1.5c-0.4,0.5-0.7,1.1-1,1.6c-0.3,0.5-0.6,1-0.8,1.5l-0.3,0.6
	c-0.1,0.3-0.3,0.5-0.4,0.9c-0.1,0.3-0.3,0.7-0.5,1c-0.2,0.4-0.3,0.7-0.4,1l-0.4,0.8c-0.1,0.2-0.2,0.4-0.2,0.5c0,0.1-0.1,0.3-0.3,0.7
	c-0.1,0.3-0.3,0.7-0.4,1.1l-0.5,1.4l-0.5,1.4l-0.4,1.1c-0.1,0.3-0.2,0.5-0.2,0.7c-0.1,0.3-0.2,0.6-0.4,0.9c-0.1,0.3-0.3,0.5-0.5,0.8
	c-0.2,0.2-0.4,0.4-0.7,0.5c-0.3,0.1-0.5,0.2-0.8,0.2c-0.3,0-0.7-0.1-1-0.3c-0.3-0.3-0.4-0.7-0.4-1.1c0-0.3,0-0.5,0.1-0.8
	c0.1-0.3,0.1-0.5,0.2-0.8c0.1-0.3,0.2-0.5,0.3-0.8c0.1-0.2,0.2-0.5,0.3-0.7c0.6-1.3,1.2-2.6,1.8-3.9c0.6-1.3,1.2-2.6,1.8-3.9
	c0.1-0.3,0.2-0.5,0.3-0.8l-0.1,0.1c-0.7,0.6-1.4,1.3-2.1,1.8c-0.7,0.5-1.4,0.9-2.1,1.2c-0.6,0.3-1.3,0.5-2,0.5
	c-0.4,0-0.8-0.1-1.1-0.2c-0.3-0.1-0.5-0.3-0.7-0.6c-0.2-0.3-0.3-0.6-0.4-0.9c0-0.1,0-0.2-0.1-0.4c-0.2,0.2-0.4,0.3-0.6,0.4
	c-0.6,0.4-1.3,0.8-2,1.2c-0.6,0.3-1.2,0.4-1.8,0.4c-0.5,0-0.9-0.2-1.3-0.5c-0.4-0.5-0.6-1.1-0.5-1.8c0-0.7,0.1-1.4,0.3-2.1
	c-0.3,0.5-0.7,1.1-1.1,1.5c-0.4,0.5-0.9,1-1.5,1.4c-0.6,0.4-1.2,0.8-1.8,1c-0.7,0.3-1.5,0.4-2.2,0.4c-0.4,0-0.7,0-1-0.1
	c-0.3-0.1-0.6-0.2-0.9-0.5c-0.3-0.2-0.5-0.5-0.6-0.9c-0.2-0.4-0.2-0.9-0.2-1.4c0,0,0-0.2,0.1-0.6c0.1-0.6,0.2-1.2,0.4-1.8
	c0.2-0.8,0.6-1.9,1.1-3.2c0.5-1.3,1.2-2.9,2.1-4.7c0.2-0.4,0.4-0.8,0.8-1.1c0.3-0.2,0.6-0.3,1-0.3c0.2,0,0.3,0,0.5,0.1
	c0.2,0,0.3,0.1,0.5,0.2c0.1,0.1,0.3,0.2,0.3,0.4c0.1,0.2,0.1,0.3,0.1,0.5c0,0.1,0,0.2,0,0.4c-0.1,0.3-0.2,0.6-0.4,0.9
	c-0.2,0.4-0.4,0.8-0.6,1.2c-0.2,0.5-0.5,1-0.8,1.5c-0.3,0.5-0.5,1.1-0.7,1.6c-0.2,0.6-0.4,1.1-0.6,1.7c-0.2,0.6-0.3,1.1-0.3,1.7
	c0,0.2,0.1,0.4,0.2,0.6c0.1,0.2,0.3,0.3,0.5,0.3c0.7,0,1.4-0.3,2-0.7c0.7-0.5,1.3-1.1,1.8-1.7c0.6-0.7,1-1.4,1.5-2.2
	c0.4-0.8,0.8-1.5,1.1-2.2c0.2-0.5,0.4-0.9,0.5-1.4c0.2-0.5,0.3-0.9,0.5-1.4c0.2-0.4,0.4-0.7,0.6-1.1c0.2-0.3,0.5-0.4,0.9-0.4
	c0.4,0,0.7,0.2,0.9,0.4c0.2,0.3,0.4,0.7,0.3,1.1c0,0.3-0.1,0.7-0.2,1c-0.1,0.4-0.3,0.9-0.5,1.4s-0.5,1.1-0.7,1.7
	c-0.3,0.6-0.5,1.2-0.7,1.8c-0.2,0.6-0.4,1.2-0.5,1.8c-0.1,0.5-0.2,1.1-0.2,1.6c0,0.3,0.2,0.7,0.5,0.7c0.1,0,0.1,0,0.2,0
	c0.4,0,0.9-0.1,1.3-0.3c0.6-0.3,1.1-0.6,1.6-1c0.1-0.1,0.3-0.2,0.4-0.3c0.1-0.6,0.3-1.2,0.5-1.8c0.4-1,0.8-2,1.2-3l1.1-2.7l5-12.5
	c0.1-0.4,0.4-0.8,0.8-1.1c0.3-0.2,0.6-0.3,1-0.3c0.3,0,0.7,0.1,0.9,0.3c0.3,0.3,0.5,0.7,0.4,1.1c0,0.3-0.1,0.5-0.1,0.7
	c-0.1,0.3-0.2,0.6-0.4,0.8c-0.3,0.6-0.6,1.4-1,2.2c-0.4,0.9-0.8,1.8-1.2,2.9c-0.4,1-0.9,2.1-1.3,3.2l-1.3,3.3
	c-0.4,1.1-0.8,2.1-1.2,3l-1,2.5c-0.1,0.3-0.3,0.7-0.4,1c-0.1,0.3-0.2,0.7-0.2,1.1c0,0.2,0,0.3,0.1,0.5c0.1,0.1,0.2,0.2,0.4,0.2
	c0.3,0,0.6-0.1,0.9-0.2c0.4-0.2,0.8-0.4,1.1-0.6c0.4-0.3,0.8-0.6,1.2-0.9c0.4-0.3,0.9-0.7,1.3-1.1c0.4-0.4,0.8-0.7,1.2-1.1
	c0.4-0.4,0.7-0.7,1-1c0.1-0.1,0.2-0.1,0.3-0.2c0.2-0.5,0.4-1.1,0.5-1.6c0.1-0.2,0.2-0.6,0.4-1c0.2-0.4,0.3-0.8,0.5-1.3
	c0.2-0.4,0.4-0.7,0.7-1.1c0.2-0.3,0.5-0.4,0.8-0.4c0.3,0,0.7,0.1,0.9,0.3c0.2,0.2,0.3,0.6,0.3,0.9c0,0.1,0,0.2,0,0.4
	c0,0.2,0,0.3-0.1,0.5s-0.1,0.4-0.1,0.5c0,0.1-0.1,0.2-0.1,0.4c0.4-0.4,0.8-0.9,1.3-1.3c0.5-0.4,0.9-0.8,1.5-1.2
	c0.5-0.3,1-0.6,1.5-0.9c0.5-0.2,1-0.3,1.6-0.3c0.4,0,0.7,0.1,1.1,0.2c0.3,0.1,0.7,0.3,0.9,0.5c0.3,0.2,0.5,0.5,0.7,0.8
	c0.2,0.3,0.3,0.7,0.3,1.1c0,0.6-0.1,1.2-0.4,1.7c-0.3,0.6-0.6,1.2-1,1.8c-0.4,0.6-0.8,1.2-1.3,1.8c-0.5,0.6-0.9,1.1-1.3,1.6l-1,1.2
	c-0.2,0.2-0.3,0.4-0.4,0.7c0,0.1,0.1,0.3,0.2,0.4c0.1,0.1,0.3,0.2,0.5,0.1c0.3,0,0.6-0.1,0.8-0.3c0.5-0.3,1-0.7,1.5-1.1
	c0.7-0.5,1.5-1.2,2.5-2.1c0.7-0.6,1.5-1.3,2.4-2.1l4.3-40.1c-0.6,0.3-1.2,0.6-1.8,0.8C129.2,66.9,126.7,67.4,124.1,67.7z M100,58.2
	c-18.7,0-33.9,2.1-33.9,4.7c0,2.6,15.1,4.7,33.9,4.7s33.9-2.1,33.9-4.7C133.9,60.3,118.7,58.2,100,58.2z M113.5,64.2
	c0,0.6-1.8,1.1-4,1.1c-2.2,0-4-0.5-4-1.1c0-0.6,1.8-1.1,4-1.1C111.7,63.2,113.5,63.6,113.5,64.2L113.5,64.2z M106.3,63.7
	C106.2,63.8,106.2,63.8,106.3,63.7c0,0.5,1.4,0.8,3.2,0.8s3.2-0.3,3.2-0.7l4.2-17.1l16.8-17.8l0,0c0.4-0.4-0.4-1.7-1.6-2.7
	c-1.2-1.1-2.5-1.4-2.9-1l0,0L111.4,44L106.3,63.7z" />
</svg>