<svg width="200" height="200" version="1.1" viewBox="0 0 200 200" xml:space="preserve"
	xmlns:xlink="http://www.w3.org/1999/xlink" xmlns="http://www.w3.org/2000/svg">
	<style>
		.hasura {
			fill: #3970FD;
		}
	</style>
	<rect width="200" height="200" style="fill: var(--bg, #f3f4f6); rx: var(--rx, 24px); filter: var(--filter);" />
	<path class="hasura"
		d="M169.8,76.1c4.3-13.5,1.7-40.3-6.6-50.2c-1.1-1.3-3.1-1.1-4,0.3L149,42.4c-2.5,3.2-7.1,4-10.5,1.7
	c-11.1-7.3-24.3-11.6-38.5-11.6s-27.5,4.3-38.5,11.6c-3.4,2.3-8,1.5-10.5-1.7L40.8,26.2c-0.9-1.4-2.9-1.6-4-0.3
	c-8.3,9.9-10.9,36.8-6.6,50.2c1.4,4.5,1.8,9.2,1,13.8c-0.8,4.6-1.7,10.1-1.7,13.9C29.5,143.1,61,175,100,175
	c39,0,70.5-31.9,70.5-71.2c0-3.8-0.8-9.3-1.7-13.9C168,85.3,168.4,80.6,169.8,76.1z M100,159.1c-30.1,0-54.6-24.7-54.6-55.2
	c0-1,0-2,0.1-3C46.6,80.2,59,62.5,76.7,54.1c7.1-3.4,15-5.3,23.3-5.3c8.4,0,16.3,1.9,23.3,5.3c17.6,8.4,30.1,26.2,31.2,46.9
	c0.1,1,0.1,2,0.1,3C154.6,134.4,130.1,159.1,100,159.1z M123.6,125.2l-14-24.4l-12-20.4c-0.3-0.5-0.8-0.8-1.4-0.8H84.9
	c-0.6,0-1.1,0.3-1.4,0.8c-0.3,0.5-0.3,1.1,0,1.6L95,101.4l-15.4,23.7c-0.3,0.5-0.3,1.1-0.1,1.6c0.3,0.5,0.8,0.8,1.4,0.8h11.5
	c0.5,0,1-0.3,1.3-0.7l8.3-13.1l7.5,13c0.3,0.5,0.8,0.8,1.4,0.8h11.3c0.6,0,1.1-0.3,1.4-0.8C123.9,126.3,123.9,125.7,123.6,125.2z" />
</svg>