<svg width="200" height="200" version="1.1" viewBox="0 0 200 200" xml:space="preserve"
	xmlns:xlink="http://www.w3.org/1999/xlink" xmlns="http://www.w3.org/2000/svg">
	<style>
		.hono--fragment-0 {
			fill: #FF5B11;
		}

		.hono--fragment-1 {
			fill: #FF9758;
		}
	</style>
	<rect width="200" height="200" style="fill: var(--bg, #1e1e20); rx: var(--rx, 24px);" />
	<g>
		<path class="hono--fragment-0" d="M101.2,24.6c0.4-0.1,0.7,0,1.1,0.3c11.2,13.7,21.7,27.8,31.6,42.5c7.3,11,13.5,22.7,18.7,34.9
		c8.2,21.9,3.9,40.9-12.8,57.1c-14.6,12.4-31.5,17.2-50.6,14.5c-22.8-4.7-38.3-17.9-46.5-39.6c-2.1-7.1-2.8-14.3-2.1-21.7
		c1.2-12.7,4.2-24.9,9-36.7c2-4.8,4.6-9.2,7.8-13.3c2.6,3.1,5.1,6.3,7.5,9.6c1.1,1.2,2.3,2.3,3.5,3.3
		C77.5,57.3,88.4,40.4,101.2,24.6z" />
		<path class="hono--fragment-1" d="M98.9,48.8c11.1,12.8,21,26.5,30,41c2.8,4.8,5.1,9.8,6.9,15.1c3.8,14.9-0.3,27.2-12.2,36.9
		c-11.5,8.1-24.2,10.5-38,7.2c-14.8-4.6-23.4-14.6-25.8-30c-0.6-4.8-0.1-9.6,1.5-14.2c2.2-5.7,4.9-11.1,8.1-16.3c3-4.4,6-8.8,9-13.3
		C85.4,66.5,92.1,57.7,98.9,48.8z" />
	</g>
</svg>