<svg width="200" height="200" version="1.1" viewBox="0 0 200 200" xml:space="preserve"
	xmlns:xlink="http://www.w3.org/1999/xlink" xmlns="http://www.w3.org/2000/svg">
	<style>
		.html--fragment-0 {
			fill: #FFFFFF;
		}

		.html--fragment-1 {
			fill: #EBEBEB;
		}

		@media (prefers-color-scheme: dark) {
			.theme-auto .html--fragment-0 {
				fill: #3d3d3d;
			}

			.theme-auto .html--fragment-1 {
				fill: #EBEBEB;
			}
		}


		@media (prefers-color-scheme: light) {
			.theme-auto .html--fragment-0 {
				fill: #000000;
			}

			.theme-auto .html--fragment-1 {
				fill: #141414;
			}
		}
	</style>
	<rect width="200" height="200" style="fill: var(--bg, #E14E1D); rx: var(--rx, 24px);" />
	<g>
		<path class="html--fragment-0" d="M37.5,29.5l6.7,75.5h86.5l-2.9,32.4l-27.8,7.5l-27.8-7.5l-1.9-20.8h-25l3.6,40.1l51.1,14.2l51.2-14.2L158,80
		h-91l-2.3-25.6h95.4h0.1l2.2-25H37.5z" />
		<path class="html--fragment-1" d="M100,29.5H37.5l6.7,75.5H100V80H67.1l-2.3-25.6H100V29.5z" />
		<path class="html--fragment-1" d="M100,144.9L100,144.9l-27.8-7.5l-1.9-20.8h-25l3.6,40.1l51.1,14.2l0,0V144.9z" />
	</g>
</svg>