<svg width="200" height="200" version="1.1" viewBox="0 0 200 200" xml:space="preserve"
	xmlns:xlink="http://www.w3.org/1999/xlink" xmlns="http://www.w3.org/2000/svg">
	<style>
		.hugging-face--fragment-0 {
			fill: #FFFFFF;
		}

		.hugging-face--fragment-1 {
			fill: #FF9D00;
		}

		.hugging-face--fragment-2 {
			fill: #FFD21E;
		}

		.hugging-face--fragment-3 {
			fill: #32343D;
		}

		.hugging-face--fragment-4 {
			fill: #FF323D;
		}

		.hugging-face--fragment-5 {
			fill: #FFAD03;
		}
	</style>
	<rect width="200" height="200" style="fill: var(--bg, #fff); rx: var(--rx, 24px); filter: var(--filter);" />
	<g>
		<path class="hugging-face--fragment-0" d="M174.5,132.7c-0.4-1.5-1-2.9-1.9-4.1c0.2-0.7,0.3-1.3,0.4-2c0.6-4.4-0.9-8.3-3.7-11.4
		c-1.5-1.7-3.2-2.8-4.9-3.5c1.1-4.9,1.7-9.9,1.7-15c0-2.3-0.1-4.6-0.3-6.8c-0.1-1.1-0.3-2.2-0.4-3.3c-0.5-3.3-1.2-6.5-2.2-9.6
		c-0.6-2.1-1.4-4.1-2.2-6.1c-1.3-3-2.7-5.8-4.4-8.6c-1.1-1.8-2.3-3.6-3.6-5.3c-0.6-0.9-1.3-1.7-2-2.5c-2-2.5-4.2-4.8-6.6-6.9
		c-0.8-0.7-1.6-1.4-2.4-2.1c-0.8-0.7-1.6-1.3-2.5-2c-1.7-1.3-3.5-2.5-5.3-3.6c-10-6.1-21.8-9.6-34.4-9.6
		c-36.6,0-66.3,29.7-66.3,66.3c0,5.1,0.6,10.2,1.8,15.2c-1.6,0.7-3.1,1.7-4.5,3.3c-2.8,3.1-4.4,7.1-3.7,11.4c0.1,0.7,0.2,1.4,0.4,2
		c-0.8,1.3-1.5,2.7-1.9,4.1c-0.9,3.3-0.6,6.3,0.5,8.9c-1.2,3.4-0.9,7.1,0.7,10.3c1.1,2.3,2.8,4.1,4.8,5.7c2.4,1.9,5.4,3.5,9,5.1
		c4.3,1.8,9.6,3.6,12,4.2c6.2,1.6,12.1,2.6,18.2,2.7c8.6,0.1,16-1.9,21.3-7.1c2.6,0.3,5.2,0.5,7.8,0.5c2.8,0,5.5-0.2,8.3-0.5
		c5.3,5.2,12.7,7.2,21.3,7.1c6,0,12-1.1,18.1-2.7c2.4-0.6,7.7-2.4,12-4.2c3.6-1.6,6.6-3.2,9-5.1c2-1.6,3.6-3.4,4.8-5.7
		c1.6-3.2,1.9-6.8,0.7-10.3C175.1,139.1,175.4,136.1,174.5,132.7z M168.3,141.5c1.2,2.3,1.3,4.9,0.2,7.3c-1.6,3.7-5.7,6.6-13.5,9.7
		c-4.9,1.9-9.4,3.2-9.4,3.2c-6.5,1.7-12.3,2.5-17.4,2.5c-8.4,0-14.6-2.3-18.6-6.9c-6.7,1.1-13.5,1.2-20.2,0.1
		c-4,4.5-10.2,6.8-18.5,6.8c-5.1,0-10.9-0.9-17.4-2.5c0,0-4.5-1.2-9.4-3.2c-7.9-3.1-11.9-6-13.5-9.7c-1.1-2.4-1-5,0.2-7.3
		c0.1-0.2,0.2-0.4,0.4-0.6c-0.7-1.1-1.2-2.3-1.4-3.6c-0.2-1.3-0.2-2.6,0.2-3.9c0.5-1.8,1.5-3.4,2.8-4.5c-0.7-1.1-1.1-2.3-1.3-3.5
		c-0.4-2.7,0.5-5.4,2.5-7.6c1.6-1.7,3.8-2.7,6.3-2.7h0.1c-1.9-5.9-2.8-12.1-2.8-18.4c0-34,27.6-61.5,61.6-61.5
		c34,0,61.6,27.6,61.6,61.5c0,6.2-0.9,12.5-2.8,18.4c0.3,0,0.6,0,0.9,0c2.5,0,4.7,0.9,6.3,2.7c2,2.2,2.9,4.9,2.5,7.6
		c-0.2,1.2-0.6,2.4-1.3,3.5c1.4,1.1,2.4,2.6,2.8,4.5c0.3,1.3,0.4,2.6,0.2,3.9c-0.2,1.3-0.7,2.5-1.4,3.6
		C168.1,141,168.2,141.2,168.3,141.5z" />
		<path class="hugging-face--fragment-1" d="M168,140.8c0.7-1.1,1.2-2.3,1.4-3.6c0.2-1.3,0.2-2.6-0.2-3.9c-0.5-1.8-1.5-3.4-2.8-4.5
		c0.7-1.1,1.1-2.3,1.3-3.5c0.4-2.7-0.5-5.4-2.5-7.6c-1.6-1.7-3.8-2.7-6.3-2.7c-0.3,0-0.6,0-0.9,0c1.9-6,2.8-12.2,2.8-18.4
		c0-34-27.6-61.5-61.5-61.5c-34,0-61.6,27.6-61.6,61.5c0,6.2,0.9,12.4,2.8,18.4h-0.1c-2.5,0-4.7,0.9-6.3,2.7c-2,2.2-2.9,4.9-2.5,7.6
		c0.2,1.2,0.6,2.4,1.3,3.5c-1.4,1.1-2.4,2.6-2.8,4.5c-0.3,1.3-0.4,2.6-0.2,3.9c0.2,1.3,0.7,2.5,1.4,3.6c-0.1,0.2-0.2,0.4-0.4,0.6
		c-1.2,2.3-1.3,4.9-0.2,7.3c1.6,3.7,5.7,6.6,13.5,9.7c4.9,1.9,9.4,3.2,9.4,3.2c6.5,1.7,12.3,2.5,17.4,2.5c8.3,0,14.5-2.3,18.5-6.8
		c6.7,1.1,13.5,1,20.2-0.1c4,4.6,10.2,6.9,18.6,6.9c5.1,0,10.9-0.9,17.4-2.5c0,0,4.5-1.2,9.4-3.2c7.9-3.1,11.9-6,13.5-9.7
		c1.1-2.4,1-5-0.2-7.3C168.2,141.2,168.1,141,168,140.8z M86.7,150.4c-0.3,0.6-0.7,1.2-1.1,1.7c-1,1.5-2.4,2.6-3.9,3.5
		c-3,1.6-6.8,2.2-10.6,2.2c-6.1,0-12.3-1.4-15.8-2.3c-0.2,0-21.4-6-18.7-11.1c0.5-0.9,1.2-1.2,2.1-1.2c3.8,0,10.7,5.6,13.6,5.6
		c0.7,0,1.1-0.3,1.3-1c1.3-4.5-19.1-6.4-17.4-13c0.3-1.2,1.1-1.6,2.3-1.6c5,0,16.2,8.8,18.5,8.8c0.2,0,0.3-0.1,0.4-0.2
		c0,0,0,0,0-0.1c1.1-1.8,0.5-3.1-7.1-7.8l-0.7-0.4c-8.3-5-14.1-8-10.8-11.6c0.4-0.4,0.9-0.6,1.6-0.6c0.8,0,1.7,0.3,2.8,0.7
		c4.4,1.8,10.5,6.9,13,9.1c0.4,0.3,0.8,0.7,1.2,1c0,0,3.2,3.3,5.2,3.3c0.4,0,0.8-0.2,1.1-0.6c1.4-2.3-12.8-13.1-13.6-17.5
		c-0.5-3,0.4-4.5,2.1-4.5c0.8,0,1.8,0.3,2.9,1c3.4,2.1,9.9,13.4,12.3,17.8c0.8,1.5,2.2,2.1,3.4,2.1c2.4,0,4.4-2.4,0.2-5.5
		c-6.2-4.7-4-12.3-1.1-12.7c0.1,0,0.3,0,0.4,0c2.7,0,3.9,4.7,3.9,4.7s3.5,8.8,9.5,14.8C89.1,140.4,89.8,144.9,86.7,150.4z
		M106.1,151.5l-0.3,0l-0.5,0.1c-0.3,0-0.6,0.1-0.8,0.1l-0.3,0l-0.2,0l-0.4,0l-0.4,0l-0.4,0l-0.1,0c-0.1,0-0.2,0-0.3,0l-0.1,0
		c-0.1,0-0.2,0-0.4,0l-0.4,0l-0.4,0l-0.3,0h-0.1c-0.1,0-0.2,0-0.2,0h-0.1c-0.1,0-0.2,0-0.2,0l-0.3,0h-0.5c-0.4,0-0.7,0-1.1,0l-0.3,0
		c-0.1,0-0.2,0-0.2,0l-0.3,0l-0.4,0l-0.3,0l-0.1,0l-0.3,0c-0.1,0-0.2,0-0.3,0l-0.2,0c-0.3,0-0.5,0-0.8-0.1l-0.3,0
		c-0.1,0-0.2,0-0.3,0c-0.1,0-0.3,0-0.4,0c-0.2,0-0.5,0-0.7-0.1h0c3.3-7.4,1.6-14.4-5.1-21.1c-4.4-4.4-7.3-10.9-8-12.3
		c-1.2-4.2-4.5-8.9-9.9-8.9c-0.5,0-0.9,0-1.4,0.1c-2.4,0.4-4.4,1.7-5.9,3.8c-1.6-2-3.2-3.6-4.6-4.5c-2.1-1.3-4.2-2-6.3-2
		c-2.6,0-4.9,1.1-6.5,3l0,0c0-0.1-0.1-0.3-0.1-0.4l0,0c-0.3-1.3-0.6-2.6-0.8-3.9c0,0,0,0,0,0c0-0.1,0-0.2,0-0.3
		c0-0.3-0.1-0.6-0.1-0.9c0-0.1,0-0.3-0.1-0.4l0-0.4c0-0.1,0-0.3,0-0.4l0,0c-0.1-0.5-0.1-1-0.2-1.6l0-0.2l0-0.3c0-0.1,0-0.2,0-0.3
		c0,0,0,0,0-0.1c0-0.3,0-0.5,0-0.8c0-0.1,0-0.3,0-0.4l0-0.4l0-0.1l0-0.3l0-0.3c0-0.1,0-0.2,0-0.3c0-0.1,0-0.2,0-0.4
		c0-0.1,0-0.2,0-0.4c0-0.1,0-0.2,0-0.4c0-30.5,24.7-55.2,55.2-55.2c30.5,0,55.2,24.7,55.2,55.2v0.7c0,0.1,0,0.2,0,0.4
		c0,0.1,0,0.2,0,0.3c0,0.1,0,0.2,0,0.3c0,0.1,0,0.2,0,0.3v0l0,0.4c0,0.1,0,0.2,0,0.3l0,0.1l0,0.4c0,0.8-0.1,1.5-0.2,2.3v0
		c0,0.1,0,0.3,0,0.4l0,0.3l-0.1,0.6l0,0.3l0,0.3c0,0.1,0,0.3-0.1,0.4c0,0.1,0,0.3-0.1,0.4l-0.1,0.3l-0.1,0.4c0,0.1,0,0.3-0.1,0.4
		c0,0.1,0,0.3-0.1,0.4c0,0.3-0.1,0.5-0.1,0.8c-0.1,0.4-0.1,0.7-0.2,1.1l-0.1,0.4c0,0.1-0.1,0.2-0.1,0.4c-1.6-1.5-3.6-2.3-5.9-2.3
		c-2.1,0-4.2,0.7-6.3,2c-1.4,0.9-3,2.5-4.6,4.5c-1.5-2.1-3.6-3.4-5.9-3.8c-0.5-0.1-0.9-0.1-1.4-0.1c-5.4,0-8.7,4.7-9.9,8.9
		c-0.6,1.4-3.5,7.9-8,12.3C104.5,137.2,102.8,144.1,106.1,151.5z M163,136.6L163,136.6c-0.1,0.2-0.1,0.4-0.2,0.5
		c-0.1,0.1-0.1,0.2-0.2,0.3c-0.1,0.2-0.3,0.4-0.4,0.5c0,0-0.1,0.1-0.1,0.1c-0.1,0.1-0.1,0.1-0.2,0.2c-1,1-2.5,1.8-4.2,2.6
		c-0.2,0.1-0.4,0.2-0.6,0.3l-0.2,0.1c-0.1,0.1-0.3,0.1-0.4,0.2c-0.1,0.1-0.3,0.1-0.4,0.2l-0.4,0.2c-1,0.4-1.9,0.8-2.9,1.1l-0.4,0.2
		l-0.4,0.2c-0.3,0.1-0.5,0.2-0.8,0.3l-0.4,0.2l-0.4,0.2l-0.2,0.1c-0.1,0.1-0.2,0.1-0.4,0.2c-2.8,1.2-4.8,2.4-4.4,3.9
		c0,0,0,0.1,0,0.1c0,0.1,0.1,0.2,0.2,0.3c0,0.1,0.1,0.1,0.1,0.2c0.5,0.5,1.4,0.4,2.5,0c0.2-0.1,0.3-0.1,0.5-0.2l0.1,0
		c0.3-0.1,0.5-0.2,0.8-0.4c0.1,0,0.1-0.1,0.2-0.1c1.4-0.7,3-1.6,4.5-2.4c0.6-0.3,1.3-0.7,1.9-1c1.5-0.7,2.9-1.2,4-1.2
		c0.5,0,1,0.1,1.4,0.4l0.1,0c0.2,0.2,0.4,0.4,0.6,0.6c0,0,0.1,0.1,0.1,0.2c0.6,1.1,0.1,2.1-1,3.2c-1,1-2.7,2-4.5,3
		c-0.1,0.1-0.3,0.1-0.4,0.2c-5.5,2.7-12.7,4.7-12.8,4.7c-1.9,0.5-4.7,1.1-7.7,1.6l-0.5,0.1l-0.1,0c-0.3,0.1-0.7,0.1-1,0.1
		c-0.4,0-0.7,0.1-1.1,0.1l-0.1,0c-1.3,0.1-2.6,0.2-3.9,0.3h0c-0.5,0-0.9,0-1.4,0h-0.5c-0.7,0-1.4,0-2.2-0.1c0,0,0,0-0.1,0
		c-0.3,0-0.5,0-0.8-0.1c-0.3,0-0.5-0.1-0.8-0.1c-0.2,0-0.3,0-0.5-0.1c-0.2,0-0.4-0.1-0.5-0.1l-0.2,0l0,0c-0.3,0-0.5-0.1-0.8-0.2
		c-0.1,0-0.3-0.1-0.4-0.1l-0.1,0c-0.1,0-0.1,0-0.2-0.1l0,0l-0.2-0.1c-0.1,0-0.2,0-0.2-0.1l0,0l-0.2-0.1c-0.1,0-0.2-0.1-0.2-0.1
		l-0.2-0.1l-0.1-0.1c-0.1,0-0.3-0.1-0.4-0.2l-0.1-0.1l-0.1,0c-0.2-0.1-0.4-0.2-0.6-0.3l-0.1-0.1l0,0c0,0-0.1,0-0.1-0.1
		c-0.1,0-0.2-0.1-0.3-0.1l0,0l-0.1-0.1c-0.2-0.1-0.5-0.3-0.7-0.4l-0.1-0.1c-0.1,0-0.1-0.1-0.2-0.1l-0.2-0.1l-0.2-0.1l-0.1-0.1
		c-0.1-0.1-0.2-0.2-0.3-0.2l-0.2-0.1c-0.1-0.1-0.1-0.1-0.2-0.2c-0.1,0-0.1-0.1-0.2-0.1l0,0c-0.1-0.1-0.1-0.1-0.2-0.2
		c-0.1-0.1-0.1-0.1-0.2-0.2l0,0c-0.1-0.1-0.1-0.1-0.2-0.2c-0.1-0.1-0.1-0.1-0.2-0.2c-0.1-0.1-0.1-0.1-0.2-0.2
		c-0.1-0.1-0.1-0.1-0.2-0.2l0,0c0-0.1-0.1-0.1-0.1-0.2c-0.1-0.1-0.2-0.3-0.3-0.4c-0.1-0.1-0.2-0.3-0.3-0.4l-0.1-0.1
		c-0.1-0.2-0.2-0.4-0.3-0.5c-0.1-0.1-0.2-0.3-0.2-0.4c-0.1-0.1-0.1-0.2-0.2-0.2l0,0c0-0.1-0.1-0.2-0.1-0.2c0,0-0.1-0.1-0.1-0.1
		c0,0-0.1-0.1-0.1-0.1l0-0.1l0,0c0-0.1-0.1-0.2-0.1-0.3c0,0,0-0.1-0.1-0.1l-0.1-0.1l-0.1-0.1c-0.2-0.3-0.3-0.7-0.5-1l-0.1-0.1
		c0-0.1-0.1-0.2-0.1-0.2c0,0,0-0.1,0-0.1c-0.1-0.2-0.2-0.4-0.2-0.6c0-0.1,0-0.1-0.1-0.2c-0.1-0.2-0.1-0.3-0.1-0.5
		c-0.1-0.2-0.1-0.4-0.1-0.6c0,0,0-0.1,0-0.1c0-0.2-0.1-0.4-0.1-0.6c0,0,0-0.1,0-0.1l0-0.1c0-0.2,0-0.3,0-0.5c0,0,0-0.1,0-0.1
		c0-0.1,0-0.2,0-0.2c0-3.1,1.5-6.1,4.9-9.5c6-6,9.5-14.8,9.5-14.8s0.1-0.4,0.3-0.9c0-0.1,0.1-0.1,0.1-0.2c0.1-0.3,0.2-0.6,0.4-0.9
		l0-0.1c0.1-0.2,0.3-0.5,0.4-0.7c0-0.1,0.1-0.1,0.1-0.2c0.1-0.2,0.2-0.3,0.3-0.5c0.1-0.1,0.1-0.2,0.2-0.2c0,0,0.1-0.1,0.1-0.1
		c0.3-0.4,0.7-0.7,1.2-0.8l0.1,0c0,0,0.1,0,0.1,0c0,0,0.1,0,0.1,0l0,0c0.1,0,0.2,0,0.3,0h0c0.1,0,0.1,0,0.2,0c0.1,0,0.1,0,0.2,0
		c0.1,0,0.1,0,0.2,0c0.5,0.1,1.1,0.4,1.5,0.9c0.2,0.2,0.3,0.4,0.5,0.6c0.1,0.1,0.2,0.3,0.2,0.4c0,0.1,0.1,0.1,0.1,0.2
		c0.1,0.2,0.1,0.3,0.2,0.5c0.1,0.4,0.2,0.8,0.3,1.2c0.1,0.4,0.1,0.7,0.1,1.1c0,0.2,0,0.4,0,0.6c0,0.9-0.2,1.9-0.6,2.8
		c0,0.1-0.1,0.2-0.1,0.2c-0.1,0.2-0.1,0.3-0.2,0.5c-0.1,0.1-0.1,0.2-0.2,0.4c0,0.1-0.1,0.2-0.1,0.2c-0.1,0.2-0.2,0.4-0.4,0.6
		l-0.1,0.1c-0.3,0.4-0.7,0.9-1.1,1.3c-0.4,0.4-0.8,0.7-1.2,1.1c-0.4,0.3-0.8,0.7-1.2,1.1c-1.1,1.1-1.3,2.2-1.1,2.9
		c0,0.1,0.1,0.2,0.2,0.3c0.1,0.1,0.2,0.2,0.3,0.3l0,0l0,0c0,0,0.1,0.1,0.1,0.1l0,0c0.1,0.1,0.2,0.2,0.3,0.2c0,0,0.1,0,0.1,0.1
		c0.1,0.1,0.3,0.1,0.4,0.2c0,0,0.1,0,0.1,0l0,0l0.1,0l0.1,0l0.1,0l0.1,0l0.1,0c0,0,0.1,0,0.1,0l0,0l0.1,0l0,0l0.1,0h0l0.1,0h0.3
		l0.1,0l0.1,0l0.1,0l0.1,0c0,0,0,0,0.1,0c0.3,0,0.6-0.1,0.8-0.2l0.1,0c0.1,0,0.1-0.1,0.2-0.1c0.1-0.1,0.3-0.1,0.4-0.2
		c0.2-0.1,0.3-0.2,0.5-0.4c0,0,0.1-0.1,0.1-0.1c0,0,0,0,0,0c0,0,0.1-0.1,0.1-0.1c0.2-0.3,0.4-0.5,0.6-0.8c1.4-2.6,2.9-5.1,4.5-7.7
		l0.2-0.3l0.2-0.3c0.1-0.2,0.2-0.3,0.3-0.5l0.1-0.2c0.4-0.6,0.7-1.1,1.1-1.7l0.2-0.3c0.4-0.7,0.9-1.3,1.3-1.9l0.2-0.3
		c0.5-0.7,1-1.3,1.5-1.9l0.2-0.2c0,0,0.1-0.1,0.1-0.1c0.1-0.1,0.1-0.2,0.2-0.2c0,0,0.1-0.1,0.1-0.1l0.2-0.2l0.1-0.1
		c0.1-0.1,0.2-0.2,0.3-0.3c0.1-0.1,0.1-0.1,0.2-0.2c0.4-0.4,0.8-0.7,1.2-1l0.1-0.1c0.1-0.1,0.2-0.1,0.3-0.2c1.7-1,3.1-1,4-0.2
		c0.5,0.5,0.8,1.3,0.8,2.5c0,0.1,0,0.1,0,0.2v0.1c0,0.1,0,0.1,0,0.2c0,0.1,0,0.1,0,0.2c0,0.1,0,0.1,0,0.2c0,0,0,0,0,0.1
		c0,0.1,0,0.1,0,0.2c0,0,0,0,0,0c0,0.1,0,0.1,0,0.2c0,0.1,0,0.1,0,0.2l0,0.1c0,0.1,0,0.2-0.1,0.3c-0.1,0.2-0.1,0.4-0.2,0.6
		c-0.1,0.2-0.2,0.5-0.4,0.7c-0.1,0.1-0.2,0.3-0.2,0.4c-0.1,0.1-0.2,0.3-0.3,0.4c-0.2,0.3-0.5,0.7-0.7,1l-0.1,0.1
		c-0.4,0.5-0.8,1-1.3,1.5l-0.1,0.2c-0.2,0.2-0.4,0.4-0.6,0.6l-0.1,0.2c-0.1,0.1-0.2,0.2-0.3,0.3c-0.1,0.1-0.2,0.2-0.3,0.3l-0.3,0.3
		l-0.3,0.3l-0.3,0.3c-0.2,0.2-0.4,0.4-0.6,0.6c-3,3-6.1,6-7.1,7.9c-0.1,0.1-0.1,0.2-0.2,0.4c-0.2,0.3-0.2,0.6-0.2,0.9
		c0,0.1,0,0.2,0.1,0.2c0.1,0.1,0.1,0.2,0.2,0.3c0,0,0.1,0.1,0.1,0.1c0.2,0.2,0.5,0.2,0.7,0.2h0.1l0.1,0l0.1,0l0.1,0c0,0,0,0,0,0
		l0.1,0l0,0l0.1,0l0,0c0,0,0.1,0,0.1,0c0,0,0.1,0,0.1,0c0.1,0,0.3-0.1,0.4-0.1c0.1,0,0.1-0.1,0.2-0.1c0,0,0.1,0,0.1,0l0.1,0
		c0.2-0.1,0.5-0.3,0.7-0.4l0.1-0.1c0,0,0.1,0,0.1-0.1l0.1-0.1l0.1,0l0.1-0.1c0.1-0.1,0.3-0.2,0.4-0.3l0,0l0.2-0.2
		c0.3-0.2,0.5-0.4,0.8-0.6l0.2-0.1l0,0l0.1-0.1c0.2-0.2,0.4-0.3,0.5-0.5l0.1-0.1c0.1,0,0.1-0.1,0.1-0.1l0.1-0.1l0,0l0,0l0.1-0.1
		l0.1-0.1l0,0l0,0l0,0l0,0l0,0l0.1-0.1l0.1-0.1c0,0,0.1-0.1,0.1-0.1l0.1-0.1c0,0,0,0,0.1,0l0.1-0.1l0.2-0.1l0.1-0.1
		c0.3-0.3,0.7-0.6,1.1-1l0.2-0.2l0.3-0.3l0.3-0.3c0.4-0.3,0.8-0.7,1.3-1.1l0.3-0.2c0.3-0.2,0.5-0.4,0.8-0.6c0.1-0.1,0.2-0.2,0.3-0.3
		c0.3-0.2,0.5-0.4,0.8-0.6c0.6-0.5,1.3-0.9,1.9-1.4l0.3-0.2c0.2-0.1,0.4-0.3,0.6-0.4l0.2-0.1c0.3-0.2,0.7-0.5,1.1-0.7l0.2-0.1
		l0.2-0.1c0.2-0.1,0.4-0.2,0.5-0.3l0.2-0.1l0.3-0.2l0.3-0.2l0.1,0l0.3-0.1c0.1-0.1,0.2-0.1,0.3-0.2l0.2-0.1l0.2-0.1
		c0.1,0,0.1-0.1,0.2-0.1c0.4-0.2,0.7-0.3,1.1-0.5c0.1,0,0.2-0.1,0.3-0.1l0.3-0.1c0.1,0,0.2-0.1,0.3-0.1l0,0c0,0,0.1,0,0.1,0l0,0
		c0.1,0,0.2-0.1,0.3-0.1h0c0.3-0.1,0.5-0.1,0.8-0.1c0.1,0,0.2,0,0.4,0h0.1c0.1,0,0.2,0,0.2,0c0,0,0.1,0,0.1,0h0c0,0,0.1,0,0.1,0
		c0,0,0.1,0,0.1,0h0c0,0,0.1,0,0.1,0c0.2,0.1,0.4,0.1,0.5,0.2c0.1,0.1,0.2,0.1,0.2,0.2l0,0c0,0,0,0,0,0l0,0c0.3,0.3,0.5,0.7,0.7,1
		l0,0.1c0.1,0.1,0.1,0.3,0.1,0.5c0.1,0.5,0.1,1-0.1,1.4c-0.1,0.2-0.2,0.4-0.2,0.5c-0.2,0.4-0.5,0.7-0.8,1.1l-0.1,0.1
		c-0.1,0.1-0.2,0.2-0.3,0.3c0,0-0.1,0.1-0.1,0.1l-0.1,0.1l-0.1,0.1c-0.2,0.2-0.4,0.3-0.6,0.5c-0.1,0.1-0.2,0.2-0.4,0.3
		c-0.4,0.3-0.9,0.6-1.3,0.9c-0.3,0.2-0.5,0.4-0.8,0.5c-0.7,0.4-1.3,0.9-2,1.3c-1.4,0.9-3,1.8-4.7,2.8l-0.4,0.3
		c-0.5,0.3-0.9,0.6-1.4,0.8l-0.2,0.1l-0.4,0.3c-0.3,0.2-0.5,0.3-0.8,0.5l-0.2,0.1c-0.1,0.1-0.2,0.1-0.3,0.2l-0.1,0.1l-0.3,0.2
		l-0.2,0.1l-0.2,0.1l-0.2,0.1c-0.3,0.2-0.6,0.4-0.8,0.6l-0.1,0.1c-0.2,0.1-0.3,0.2-0.5,0.4c-0.2,0.2-0.4,0.4-0.6,0.5l-0.1,0.1
		c-0.1,0-0.1,0.1-0.2,0.1c0,0-0.1,0.1-0.1,0.1l0,0c-0.1,0.1-0.2,0.2-0.3,0.3l0,0.1c-0.1,0.1-0.2,0.2-0.3,0.4l0,0.1
		c-0.1,0.1-0.1,0.2-0.2,0.3c0,0,0,0,0,0.1l0,0.1l0,0.1l0,0l0,0l0,0c0,0.1-0.1,0.3-0.1,0.4l0,0l0,0v0.2c0,0,0,0,0,0.1l0,0
		c0,0,0,0,0,0.1c0,0,0,0.1,0,0.1v0c0,0,0,0.1,0,0.1c0,0,0,0.1,0,0.1c0,0.1,0,0.1,0,0.2c0,0,0,0.1,0,0.1c0,0,0,0,0,0l0,0.1l0,0.1
		c0,0.1,0.1,0.2,0.1,0.2l0,0.1l0,0.1c0,0,0,0,0,0l0,0l0,0l0,0c0,0,0.1,0,0.1,0c0,0,0,0,0.1,0c0.4,0.1,1.3-0.3,2.4-0.9
		c0.1,0,0.1-0.1,0.2-0.1l0.3-0.2l0.2-0.1c0.1-0.1,0.2-0.1,0.4-0.2l0.2-0.1c1.5-0.9,3.3-2,5.2-3.1c0.2-0.1,0.4-0.2,0.5-0.3l0.4-0.2
		c0.4-0.2,0.8-0.5,1.2-0.7c0.5-0.3,1-0.6,1.6-0.8l0.3-0.2c0.2-0.1,0.5-0.2,0.7-0.3c0.4-0.2,0.9-0.4,1.3-0.6l0.2-0.1l0,0
		c1.3-0.5,2.5-0.8,3.4-0.8c0.2,0,0.4,0,0.6,0.1h0c0.1,0,0.1,0,0.2,0h0c0.2,0,0.3,0.1,0.4,0.2c0.2,0.1,0.4,0.2,0.5,0.4
		c0.1,0.1,0.1,0.2,0.2,0.2c0.1,0.2,0.2,0.3,0.2,0.5c0,0.1,0,0.1,0.1,0.2C163.2,135.5,163.2,136.1,163,136.6z" />
		<path class="hugging-face--fragment-2" d="M154.4,97v-0.4c0-30.5-24.7-55.2-55.2-55.2c-30.5,0-55.2,24.7-55.2,55.2v0.1c0,0.1,0,0.2,0,0.2
		c0,0.1,0,0.2,0,0.4l0,0.3l0,0.1c0,0,0,0.1,0,0.1c0,0.1,0,0.1,0,0.2l0,0.3l0,0.3l0,0.1l0,0.3v0c0,0.1,0,0.3,0,0.4l0,0
		c0,0.1,0,0.3,0,0.4c0,0.1,0,0.3,0,0.4l0,0c0,0.1,0,0.2,0,0.3l0,0l0,0.3l0,0c0,0.1,0,0.1,0,0.2c0,0.5,0.1,1.1,0.2,1.6l0,0l0,0.4
		l0,0.4l0,0.3l0,0.1c0,0.3,0.1,0.6,0.1,0.9l0,0l0,0.3c0.2,1.3,0.5,2.7,0.8,4l0,0l0,0.1l0.1,0.3l0,0c1.6-1.9,3.9-3,6.5-3
		c2.1,0,4.2,0.7,6.3,2c1.4,0.9,3,2.5,4.6,4.5c1.5-2.1,3.6-3.4,5.9-3.8c0.5-0.1,0.9-0.1,1.4-0.1c5.4,0,8.7,4.7,9.9,8.9
		c0.6,1.4,3.5,7.9,8,12.3c6.7,6.7,8.4,13.7,5.1,21.1h0c0.2,0,0.5,0,0.7,0.1c0.1,0,0.3,0,0.4,0l0,0l0.3,0l0.3,0c0.3,0,0.5,0,0.8,0.1
		l0.2,0l0.2,0l0.1,0l0.3,0l0.1,0l0.3,0l0.4,0l0.3,0l0.1,0c0.1,0,0.1,0,0.2,0l0.1,0c0.4,0,0.9,0,1.3,0h0.5l0.3,0c0.1,0,0.2,0,0.2,0
		h0.1l0.1,0c0,0,0.1,0,0.1,0h0.1l0.3,0l0.4,0l0.4,0c0.1,0,0.2,0,0.4,0l0.1,0l0.2,0l0.1,0l0.1,0l0.4,0l0.4,0l0.4,0l0.2,0l0.3,0
		c0.5,0,0.9-0.1,1.4-0.1l0.3,0c-3.3-7.4-1.6-14.3,5.1-21c4.4-4.4,7.4-10.9,8-12.3c1.2-4.2,4.5-8.9,9.9-8.9c0.5,0,0.9,0,1.4,0.1
		c2.4,0.4,4.4,1.7,5.9,3.8c1.6-2,3.2-3.6,4.6-4.5c2.1-1.3,4.2-2,6.3-2c2.3,0,4.3,0.8,5.9,2.3c0-0.1,0.1-0.2,0.1-0.4l0.1-0.4
		c0-0.1,0.1-0.3,0.1-0.4c0-0.2,0.1-0.5,0.1-0.7c0-0.2,0.1-0.5,0.1-0.8l0-0.1c0-0.1,0-0.2,0-0.2c0-0.1,0-0.3,0.1-0.4l0,0l0.1-0.3
		l0.1-0.3v0c0-0.2,0.1-0.5,0.1-0.7l0-0.1l0-0.3l0-0.3l0.1-0.6l0-0.2l0-0.1c0-0.1,0-0.3,0-0.4v0c0-0.1,0-0.2,0-0.3
		c0.1-0.6,0.1-1.2,0.1-1.7c0-0.1,0-0.2,0-0.3v0l0-0.4l0-0.1c0-0.2,0-0.5,0-0.7v0l0-0.1c0-0.1,0-0.2,0-0.2l0,0c0-0.1,0-0.2,0-0.2
		l0-0.1c0-0.1,0-0.2,0-0.2l0-0.1c0-0.1,0-0.2,0-0.3V97z M85.6,152.2c4.4-6.4,4.1-11.2-1.9-17.2c-6-6-9.5-14.8-9.5-14.8
		s-1.3-5.1-4.3-4.6c-3,0.5-5.2,8.1,1.1,12.7c6.2,4.7-1.2,7.8-3.6,3.4c-2.4-4.4-8.9-15.6-12.3-17.8c-3.4-2.1-5.8-0.9-5,3.5
		c0.4,2.2,4.1,6,7.5,9.5c3.5,3.6,6.7,6.9,6.1,8c-1.4,2.3-6.2-2.7-6.2-2.7S42.2,118.4,38.9,122c-3.1,3.3,1.7,6.1,8.9,10.5
		c0.6,0.4,1.3,0.8,1.9,1.1c8.3,5,8.9,6.3,7.8,8.2c-0.4,0.7-3.2-1-6.6-3c-5.8-3.5-13.5-8.1-14.6-4c-0.9,3.6,4.7,5.8,9.8,7.7
		c4.3,1.7,8.2,3.2,7.6,5.2c-0.6,2.1-3.8,0.4-7.3-1.6c-4-2.2-8.3-4.6-9.7-1.9c-2.7,5.1,18.5,11.1,18.7,11.1
		C62.1,157.3,79.5,161.1,85.6,152.2z M113.7,152.2c-4.4-6.4-4.1-11.2,1.9-17.2c6-6,9.5-14.8,9.5-14.8s1.3-5.1,4.3-4.6
		c3,0.5,5.2,8.1-1.1,12.7c-6.2,4.7,1.2,7.8,3.6,3.4c2.4-4.4,8.9-15.6,12.3-17.8s5.8-0.9,5,3.5c-0.4,2.2-4.1,6-7.5,9.5
		c-3.5,3.6-6.7,6.9-6.1,8c1.4,2.3,6.2-2.7,6.2-2.7s15.2-13.8,18.5-10.2c3.1,3.3-1.7,6.1-8.9,10.5c-0.6,0.4-1.3,0.8-1.9,1.1
		c-8.3,5-8.9,6.3-7.8,8.2c0.4,0.7,3.2-1,6.6-3c5.8-3.5,13.5-8.1,14.6-4c0.9,3.6-4.7,5.8-9.8,7.7c-4.3,1.7-8.2,3.2-7.6,5.2
		c0.6,2.1,3.8,0.4,7.3-1.6c4-2.2,8.3-4.6,9.7-1.9c2.7,5.1-18.5,11.1-18.7,11.1C137.2,157.3,119.8,161.1,113.7,152.2z" />
		<path class="hugging-face--fragment-3" d="M117.2,81.7c0.9,0.3,1.5,1.2,2.1,2.1c0.8,1.2,1.6,2.3,2.8,1.7c1.4-0.7,2.5-1.9,3.3-3.3c0.7-1.4,1.1-3,0.9-4.5
		c-0.1-1.2-0.5-2.3-1.1-3.3c-0.6-1-1.4-1.9-2.4-2.5c-1-0.7-2.1-1.1-3.2-1.3c-1.2-0.2-2.3-0.1-3.5,0.2c-1.1,0.3-2.2,0.9-3,1.7
		c-0.9,0.8-1.6,1.8-2,2.8c-0.5,1.1-0.7,2.3-0.6,3.4c0.1,1.2,0.4,2.3,0.9,3.4c0.5,1,1.8,0.5,3,0C115.4,81.8,116.4,81.4,117.2,81.7z
		M79.8,81.7c-0.9,0.3-1.5,1.2-2.1,2.1c-0.8,1.2-1.6,2.3-2.8,1.7c-1.7-0.9-3.1-2.5-3.8-4.3c-0.7-1.9-0.6-3.9,0.1-5.7
		c0.8-1.8,2.2-3.3,3.9-4.2c1.8-0.8,3.8-1,5.7-0.4c1.5,0.5,2.8,1.3,3.8,2.6c1,1.2,1.6,2.7,1.8,4.3c0.2,1.6-0.2,3.1-0.9,4.5
		c-0.5,1-1.8,0.5-3,0C81.6,81.8,80.6,81.4,79.8,81.7z M111.4,115.7c5.9-4.7,8.1-12.3,8.1-17c0-3.7-2.5-2.5-6.5-0.6l-0.2,0.1
		c-3.7,1.8-8.6,4.2-13.9,4.2c-5.4,0-10.3-2.4-13.9-4.2c-4.1-2-6.7-3.3-6.7,0.5c0,4.8,2.3,12.8,8.7,17.4c0.8-1.7,2-3.2,3.5-4.4
		c1.5-1.2,3.1-2.1,5-2.7c0.6-0.2,1.3,0.9,2,2c0.6,1.1,1.3,2.2,2,2.2c0.7,0,1.4-1.1,2.1-2.1c0.7-1.1,1.4-2.2,2.1-2
		C106.9,110.2,109.7,112.6,111.4,115.7z" />
		<path class="hugging-face--fragment-4" d="M111.4,115.7c-3.1,2.4-7.2,4.1-12.5,4.1c-5,0-9-1.4-12-3.6c0.8-1.7,2-3.2,3.5-4.4c1.5-1.2,3.1-2.1,5-2.7
		c1.2-0.4,2.6,4.2,3.9,4.2c1.5,0,2.9-4.5,4.2-4.1C106.9,110.2,109.7,112.6,111.4,115.7z" />
		<path class="hugging-face--fragment-5" d="M65.6,88.3c-0.7,0.5-1.5,0.8-2.4,0.8c-0.8,0.1-1.7,0-2.5-0.4c-0.6-0.3-1.2-0.6-1.7-1.1c-0.5-0.5-0.9-1-1.1-1.7
		c-0.3-0.8-0.5-1.6-0.4-2.5c0.1-0.8,0.4-1.7,0.8-2.4c0.6-0.8,1.4-1.5,2.3-1.9s2-0.5,3-0.3c1,0.2,1.9,0.7,2.6,1.4
		c0.7,0.7,1.2,1.6,1.4,2.6c0.2,1,0.1,2-0.3,3C67.1,86.9,66.4,87.7,65.6,88.3z M139.4,88.3c-0.7,0.5-1.5,0.8-2.4,0.8
		c-0.8,0.1-1.7,0-2.5-0.4c-0.6-0.3-1.2-0.6-1.7-1.1c-0.5-0.5-0.9-1-1.1-1.7c-0.3-0.8-0.5-1.6-0.4-2.5c0.1-0.8,0.4-1.7,0.8-2.4
		c0.4-0.6,1-1.2,1.6-1.6c0.7-0.4,1.4-0.6,2.1-0.7c0.8-0.1,1.5,0,2.2,0.3c0.7,0.3,1.4,0.7,1.9,1.2c0.7,0.7,1.2,1.6,1.4,2.6
		c0.2,1,0.1,2-0.3,3C141,86.9,140.3,87.7,139.4,88.3z" />
	</g>
</svg>