<svg width="200" height="200" version="1.1" viewBox="0 0 200 200" xml:space="preserve"
	xmlns:xlink="http://www.w3.org/1999/xlink" xmlns="http://www.w3.org/2000/svg">
	<style>
		.illustrator {
			fill: #FF9A00;
		}
	</style>
	<rect width="200" height="200" style="fill: var(--bg, #330000); rx: var(--rx, 24);" />
	<path class="illustrator" d="M100.3,136.8h-42L49.8,164c-0.2,1-1.2,1.7-2.2,1.7H26.4c-1.2,0-1.6-0.7-1.3-2L61.5,56.3
	c0.4-1.1,0.7-2.4,1.1-3.8c0.5-2.5,0.7-5,0.7-7.5c-0.1-0.7,0.6-1.4,1.3-1.3h28.9c0.8,0,1.3,0.3,1.5,0.9l41.2,119.2
	c0.4,1.2,0,1.9-1.1,1.9h-23.6c-0.8,0.1-1.6-0.5-1.8-1.3L100.3,136.8z M64.9,113.3h28.7c-4.7-16.1-10-32-14.4-48.3
	C74.6,81.3,69.5,97.5,64.9,113.3z M160.6,63.4c-1.9,0.1-3.7-0.2-5.4-1c-1.7-0.7-3.3-1.8-4.6-3.1c-1.3-1.4-2.3-3.1-2.9-4.9
	c-0.7-1.8-1-3.8-0.9-5.7c-0.1-1.9,0.3-3.8,1-5.6c0.7-1.8,1.8-3.4,3.1-4.7c1.3-1.3,2.9-2.4,4.6-3c1.7-0.7,3.6-1,5.4-1
	c4.4,0,7.8,1.3,10.3,4c1.3,1.4,2.2,3,2.9,4.8c0.6,1.8,0.9,3.7,0.9,5.6c0.1,1.9-0.2,3.9-0.9,5.7c-0.7,1.8-1.7,3.5-3,4.9
	c-1.4,1.4-3,2.5-4.8,3.2C164.5,63.2,162.6,63.5,160.6,63.4z M148.1,163.8V74.8c0-1.1,0.5-1.7,1.5-1.7h22.3c1,0,1.5,0.6,1.5,1.7v89.1
	c0,1.2-0.5,1.9-1.5,1.9h-22.2C148.6,165.7,148.1,165.1,148.1,163.8z" />
</svg>