<svg width="200" height="200" version="1.1" viewBox="0 0 200 200" xml:space="preserve"
	xmlns:xlink="http://www.w3.org/1999/xlink" xmlns="http://www.w3.org/2000/svg">
	<style>
		.inkscape {
			fill: #000;
		}
	</style>
	<rect width="200" height="200" style="fill: var(--bg, #fff); rx: var(--rx, 24px); filter: var(--filter);" />
	<path class="inkscape" d="M147.2,146.1c-6.3,5.7,0.7,11.4,6.9,7.8C155.5,152.4,154.1,147.5,147.2,146.1L147.2,146.1z M56.5,155.2
	c4.9,4.2,12.5-1.1,14.7-7C66.5,141.9,48.7,148.5,56.5,155.2z M149.8,140.3c0,2.8,20.7,4.7,20.7-0.7c-2-3.7-5.8-6.1-10.2-6.1
	C155.6,133.5,151.6,136.3,149.8,140.3L149.8,140.3L149.8,140.3z M86.2,31.1L30.8,87.7c-18.7,23.2,12.7,20.5,26.2,27.1
	c4.8,4.9-18.5,8.6-13.7,13.5c4.8,4.9,29.2,9.5,34.1,14.5c4.8,4.9-9.9,10.2-5.1,15.1c4.8,5,16,0.3,18.1,11.7
	c1.5,8.2,20.2,3.5,29.3-3.2c4.8-4.9-9.2-4.5-4.4-9.4c12-12.3,23.2-4.5,27.3-16.8c2-6.1-17.7-9.4-12.9-14.3
	c13.9-8.1,62-13.4,39.2-36.2l-57.4-58.7c-3.3-3.1-7.8-5.1-12.7-5.1S89.5,27.9,86.2,31.1L86.2,31.1L86.2,31.1z M108.2,35l21.9,22.3
	c1,1.1,1.7,2.7,1.7,4.3c0,1.1-0.3,2.2-0.8,3.1l0,0L120.1,56L118,68.9l-9.1-4.8l-14.5,9.2l-4.8-19.4l-7.8,13.5h-12
	c-4.9,0-5.4-6.2-1-10.6c7.7-8.3,16.6-16.8,21.4-21.8c2.3-2.3,5.5-3.7,9-3.7C102.7,31.4,105.9,32.8,108.2,35L108.2,35L108.2,35z
	M72.9,118!c1.5,0.9,23.9,5.5,29.3,6.4c1.9,0.4,0.6,2.4-2.1,3.7C94.3,129.6,65.7,118,72.9,118L72.9,118z" />
</svg>