<svg width="200" height="200" version="1.1" viewBox="0 0 200 200" xml:space="preserve"
	xmlns:xlink="http://www.w3.org/1999/xlink" xmlns="http://www.w3.org/2000/svg">
	<style>
		.ionic {
			fill: #3880FF;
		}
	</style>
	<rect width="200" height="200" style="fill: var(--bg, #fff); rx: var(--rx, 24);" />
	<path class="ionic" d="M100.1,25.1c12.2,0,23.6,2.8,34.4,8.4l0,0l1.4,0.7l-1.2,1c-3,2.4-5.4,5.5-6.9,9.1l0,0l-0.4,1l-0.9-0.4
	c-8.3-3.9-17.1-6-26.2-6c-33.9,0-61.3,27.5-61.3,61.3s27.4,61.3,61.2,61.3s61.3-27.5,61.3-61.3c0-8.1-1.5-16-4.7-23.5l0,0l-0.4-1
	l1-0.4c3.6-1.3,6.8-3.6,9.4-6.4l0,0l1-1.2l0.6,1.4c4.5,9.9,6.8,20.3,6.8,30.9c0,41.3-33.7,75-75,75s-75-33.7-75-75
	S58.7,24.9,100.1,25.1z M100.1,66c18.8,0,34.1,15.3,34.2,34.2c0,18.9-15.3,34.2-34.2,34.2s-34.2-15.3-34.2-34.2S81.3,66,100.1,66z
	M149.1,37.7c8.6,0,15.6,7,15.6,15.6s-7,15.6-15.6,15.6c-8.6,0-15.6-7-15.6-15.6S140.4,37.7,149.1,37.7z" />
</svg>