<svg width="200" height="200" version="1.1" viewBox="0 0 200 200" xml:space="preserve"
	xmlns:xlink="http://www.w3.org/1999/xlink" xmlns="http://www.w3.org/2000/svg">
	<style>
		.java--fragment-0 {
			fill: #E76F00;
		}

		.java--fragment-1 {
			fill: #5382A1;
		}
	</style>
	<rect width="200" height="200" style="fill: var(--bg, #fff); rx: var(--rx, 24);" />
	<g>
		<path class="java--fragment-0" d="M100.2,64.6c30.9-24,15-39.6,15-39.6c2.4,24.8-25.5,30.6-33,47.7c-5.1,11.6,3.5,21.8,17.9,34.6
		c-1.3-2.8-3.2-5.6-5.2-8.4C88.2,89.4,81.1,79.4,100.2,64.6z M105.2,112.5c0,0,9.3-7.5,1.9-15.8c-24.9-28.3,27.3-41.1,27.3-41.1
		c-31.9,15.4-27.1,24.5-19.1,35.6C123.8,103.1,105.2,112.5,105.2,112.5z" />
		<path class="java--fragment-1" d="M132.5,134.9c28.6-14.6,15.4-28.7,6.2-26.8c-2.3,0.5-3.3,0.9-3.3,0.9s0.8-1.3,2.4-1.9
		c18.3-6.3,32.3,18.6-5.9,28.5C131.9,135.6,132.4,135.2,132.5,134.9z M73,116.4c-17.9-2.4,9.8-8.8,9.8-8.8s-10.8-0.7-24,5.6
		c-15.7,7.4,38.7,10.8,66.9,3.6c2.9-2,7-3.7,7-3.7s-11.5,2-23,3C95.6,117.2,80.5,117.4,73,116.4z M79.8,130.4c-10-1-3.4-5.8-3.4-5.8
		c-25.8,8.4,14.4,18,50.5,7.6c-3.8-1.3-6.3-3.8-6.3-3.8C102.9,131.8,92.7,131.7,79.8,130.4z M84.1,145.5c-10-1.1-4.1-4.5-4.1-4.5
		c-23.5,6.4,14.3,19.8,44.1,7.2c-4.9-1.9-8.4-4-8.4-4C102.4,146.6,96.2,146.8,84.1,145.5z M146.6,153.2c0,0,4.3,3.5-4.8,6.2
		c-17.2,5.1-71.7,6.7-86.9,0.2c-5.4-2.3,4.8-5.6,8-6.2c3.3-0.7,5.3-0.6,5.3-0.6c-6.1-4.2-39.1,8.2-16.8,11.8
		C112.3,174.2,162.4,160.2,146.6,153.2z M156.3,160.8c-1,12.8-43.2,15.5-70.7,13.7c-17.9-1.1-21.5-4-21.6-4
		c17.2,2.8,46.1,3.3,69.5-1.1C154.3,165.6,156.3,160.8,156.3,160.8z" />
	</g>
</svg>