<svg width="200" height="200" version="1.1" viewBox="0 0 200 200" xml:space="preserve"
	xmlns:xlink="http://www.w3.org/1999/xlink" xmlns="http://www.w3.org/2000/svg">
	<style>
		.jenkins--fragment-0 {
			fill: #6D6B6D;
		}

		.jenkins--fragment-1 {
			fill: #335061;
		}

		.jenkins--fragment-2 {
			fill: #49728B;
		}

		.jenkins--fragment-3 {
			fill: #FFFFFF;
		}

		.jenkins--fragment-4 {
			fill: #DCD9D8;
		}

		.jenkins--fragment-5 {
			fill: #D33833;
		}

		.jenkins--fragment-6 {
			fill: #EF3D3A;
		}

		.jenkins--fragment-7 {
			fill: #F0D6B7;
		}

		.jenkins--fragment-8 {
			fill: #81B0C4;
		}

		.jenkins--fragment-9 {
			fill: #F7E4CD;
		}

		.jenkins--fragment-10 {
			fill: #231F20;
		}
	</style>
	<rect width="200" height="200" style="fill: var(--bg, #fff); rx: var(--rx, 24px); filter: var(--filter);" />
	<g>
		<path class="jenkins--fragment-0" d="M64.8,51.8c0.8-0.3,1.7-0.4,2.5-0.5c1.3,0.2,2.7,0.2,4,0.2c2.6-0.7,4.9-6.6,6.9-8.8c1.6-1.5,3.3-2.9,5-4.2
		C76,41,69.5,45.6,64.8,51.8z M52.8,81.7c5.6-3,12.6-0.8,15.5,4.8c0.7,1.4,1.2,3,1.3,4.6c3.7-0.1,1.4-4.6,0.7-7.6
		c-2-8.6,2.6-17.9,1-26C50.6,60.5,51.8,76.5,52.8,81.7z" />
		<path class="jenkins--fragment-1" d="M48,171.1h46.9c-0.2-0.7-0.4-1.4-0.6-2.1c-1.1-3.4-2-6.9-2.5-10.4c-5.7-2.5-11.3-5.5-16.5-8.9
		c-0.5-0.4-0.9-0.9-1.3-1.4l-28.2,12.6C45.6,160.9,46.7,165,48,171.1z M159.2,171.5c1.2-3.6,1.9-7.5,2.7-11.2c0.2-1,0.6-2.5,0.8-4
		l-15.5-11.5c3,6.6,3,14.1,0.5,20.9c0.5,2,2.4,2.8,3.2,4.6c-0.2,0.3-0.4,0.9-0.5,1.2h8.1C158.7,171.3,159,171.4,159.2,171.5z
		M145.2,164.7c0.4-0.6,0.8-1.3,0.9-2C146,163.4,145.7,164.1,145.2,164.7z M140.8,142.6c0.8-0.4,1.8-0.6,2.8-0.6l-1.3-0.9
		C141.7,141.5,141.3,142,140.8,142.6z" />
		<path class="jenkins--fragment-2" d="M45.6,160.9l28.2-12.6c-2.1-2.4-5.8-7-6.4-6.7c-10.8,4.8-20.9,11.1-30.1,18.7c1.6,3.5,3.1,7.2,4.3,10.9H48
		C46.7,165,45.6,160.9,45.6,160.9z M163,152.9c-0.4-2.9-4.3-5-6.3-6.8c-3.7-3.3-6-6.2-9.8-9.2c-1.4,1.6-2.9,3-4.7,4.2l1.3,0.9
		c1.6,0.3,3,1.3,3.7,2.7l15.4,11.5C162.9,155.1,163,154,163,152.9z" />
		<path class="jenkins--fragment-3" d="M124.5,170.7c0,0.1,0,0.3,0,0.4h2.6c0-1,0.8-1.8,1.8-1.8c1,0,1.8,0.8,1.8,1.8l0,0h4.1V171
		c-1.5-0.8-4.7-2.4-6.4-3.2C126.1,166.8,124.5,170.7,124.5,170.7z M92,149.1c-4.1,0-8.3-0.7-12.2-2.1c-0.6,0.6-0.6,1.5,0,2.1
		c0,0,0.1,0.1,0.1,0.1c3.7,1.6,7.5,2.6,11.5,3.1C91.8,151.3,92,150.2,92,149.1z" />
		<path class="jenkins--fragment-4" d="M85.3,34.9C75.5,37.7,63,44.8,59,53.5c2-0.4,3.9-1,5.8-1.7C69.5,45.6,76,41,83.3,38.5c0.3-0.3,0.6-0.6,0.9-0.9
		c1-0.5,2.5-0.5,2.6-2C86.3,35.1,85.8,34.8,85.3,34.9z M54.5,62.4c-4.3,4.7-3.4,13.6-2.9,19.9c0.4-0.2,0.8-0.4,1.2-0.6
		c-1-5.2-2.1-21.2,18.6-24.3c-0.2-0.9-0.4-1.8-0.8-2.6C64.5,55.1,58.7,57.9,54.5,62.4z M124.5,170.7c0,0,1.6-3.9,3.9-2.9
		c1.7,0.7,5.1,2.4,6.6,3.2c0.1-1.2,0.1-2.4,0.2-3.5c-3.3,0.2-5.4-3-7.7-3.2c-2-0.2-3.7,2.3-6.4,1.2c-0.6,0.7-1.4,1.4-2,2
		c1,1.2,2,2.6,2.8,3.9h2.8C124.8,171.2,124.5,170.8,124.5,170.7z M91.2,153.9c0-0.5,0.1-1.1,0.2-1.6c-4-0.5-7.8-1.5-11.5-3.1
		C83.2,151.8,87.1,153.4,91.2,153.9z" />
		<path class="jenkins--fragment-5" d="M146.2,162.6c0.4-1.5,0.5-3.1,0.4-4.7c-0.1-2.5-0.5-5-1.1-7.4c-1.8-0.2-3.6-0.1-5.4,0.3
		c-1.6,0.3-3.3,0.7-3.6,2.6c-0.3,2,0.7,2.9-0.3,4.6c-1,1.6-2.6,0.7-4.2,1.6c-1.1,0.7-0.4,2.6,0.2,3.6c4.3,1,8.7,1.3,13.2,1.4
		C145.7,164,146,163.4,146.2,162.6z M97.7,170.8c0.1,0.2,0.2,0.5,0.3,0.7s0.2,0.5,0.2,0.7l0-0.6L97.7,170.8z M119.1,163.9
		c0-0.9,0.1-1.9,0.1-2.8c-1.7,0.5-3.5,0.4-5.1-0.4c-5-2.7-0.3-1.9-2-5.6c-2-1.1-4.3-1.7-6.6-2c-6.6,0-9.1-1.3-8.4,6.3
		c0.4,4.1,0.7,8.1,1,12.2c0.5,1,1,1.9,1.4,2.7c3.4-0.3,6.8-1.4,9.8-3C112.7,169,116,166.5,119.1,163.9z M121.6,160
		c0.1,0.5,0.2,1,0.3,1.7l0,0c1.8,1,4.1,0.3,5.1-1.5c1-1.8,0.3-4.1-1.5-5.1c-0.4-0.2-0.8-0.3-1.3-0.4
		C124.6,156.8,123.5,159,121.6,160z" />
		<path class="jenkins--fragment-6" d="M131.9,159.7c1.6-1,3.5,0,4.5-1.6s0-2.6,0.3-4.6c0.3-2,1.7-2.3,3.4-2.6c1.8-0.4,3.8-0.5,5.6-0.3
		c-0.2-1.3-1.1-2.8-2.1-3.7c-4-2.3-11,4.4-14.3,5.9l-0.5,0.3c0.5,0.9,1.3,8.1,1.3,9.7c0.6,0.2,1.6,0.3,2.2,0.4
		C131.7,162.3,130.8,160.3,131.9,159.7z M98.2,172.2c0.3,1,0.5,1.9,1.4,2.1c-0.4-0.8-0.9-1.7-1.4-2.7L98.2,172.2z M97.1,159.4
		c-0.7-7.6,1.8-6.3,8.4-6.3c2.3,0.2,4.5,0.9,6.6,2c1.8,3.6-3,2.8,2,5.6c1.6,0.8,3.4,0.9,5.1,0.4v-0.3c-1.5-0.8-3.2-1.3-4.9-1.6
		c-0.7-0.1-1.3-0.2-2-0.2c0.5-0.2,1-0.4,1.6-0.6c1.7-0.3,3.3-0.8,4.9-1.5c0-0.4,0-0.8,0-1.3c-0.4,0-0.7-0.1-1.1-0.1
		c-0.3-0.1-0.6-0.1-0.9-0.2c-0.5-0.2-1.1-0.4-1.6-0.7c-1-0.5-1.8-1.2-2.8-1.7c-4.1-2.2-8.4-3.8-12.9-4.7c-4.9-0.9-5,5.9-4.8,11
		c0,0.5,0,1,0.1,1.5c0.5,3.5,1.4,7,2.9,10.2l0.5,0.8C97.8,167.6,97.4,163.5,97.1,159.4z M121.6,160c1.9-1,3-3.2,2.6-5.4
		c-1.1,0-2.2,0.4-3.1,1.1c-0.1,0.7-0.1,1.5,0,2.2c0.1,0.4,0.1,0.8,0.3,1.3l0.2,0.7" />
		<path class="jenkins--fragment-7"
			d="M54.1,90.4c0.3-0.2,0.6-0.4,0.9-0.6C54.7,90,54.4,90.2,54.1,90.4z M70.1,112.1c0.3,2.3,1.3,22.3,14.8,33.5
		c2.7,0.4,5.5,0.7,8.3,0.9c1.5-3.2,7-3,10.6-2.1c-4.5-2.3-8.5-5.6-11.7-9.5c-4.2-3.7-7-8.7-7.9-14.2c7.2,10,13.2,18.7,26.3,23.2
		c9.9,3.3,21.5-1.5,29.2-6.9c2.9-2.6,5.4-5.6,7.3-9c8.7-13.8,12.7-30,11.5-46.2c0.2-6.3-0.7-12.5-2.7-18.5
		c-2.4-4.9-10.6-9.2-15.4-4.8c-0.1-0.4-0.1-0.9-0.1-1.3c-0.8,0.7-1.2,1.2-1.2,1.2c-0.4-0.8-0.6-1.7-0.7-2.6c0.1-4.4,3.7-7.9,8-8
		c-2.3-3.1-4.9-5.9-7.9-8.4c-10.4-3.6-21.7-4-32.4-1.2C91.2,41.3,79,52.3,74.2,67c-1,4-1.7,8-2.1,12.1c-0.2,4.7,2.2,8.9,2.4,14
		c-1.3,2.1-5.2,2.4-7.9,2.2c-0.2-1-0.4-2-0.7-3c-2.1-1.2-4.4-2.1-6.8-2.7c4.3,1.8,6.6,6.4,5.4,10.9c-2-1.1-2.5-6.2-4.8-6.3
		c-3.4-0.2-2.7,6.5-2.7,10.4c-2.4-3.5-2.7-8-1-11.9c-1.5-0.7-2.4,0.3-3.2,1.2c-1.2,5.5-2.9,10,0.3,15.6c1.9,2.2,4.7,3.4,7.6,3.2
		c3-0.3,3.8-3.3,7.1-3.3C69,109.8,70,110.8,70.1,112.1z M104.6,122.5l-1.6-0.3c0,0-1.7-5.9-0.9-7c0.4-0.6,2.8-1.4,6.1,0.1
		C108.2,115.3,104.3,116,104.6,122.5z M135.2,129.7c-6,2-12.4,2-18.4-0.1c-2.8-2-5.1-4.6-6.9-7.6c-0.8-1.1-5-3.8-0.1-3.8l0,0
		c3.8,9.6,17,8.5,28.2,8.3C137.6,127.8,136.5,129,135.2,129.7L135.2,129.7z M136.8,121.1c-0.3-1.9-0.3-3.8,0-5.7
		c5.6-1.1,11-3.3,15.9-6.3l0,0C150.2,115.8,144,120.5,136.8,121.1L136.8,121.1z M151.6,77.9c-1,0.3-7.3,4.1-6.8-0.7
		c0.5-2.9,2.7-5.1,5.5-5.8c0-0.7,0-1.4,0-2.1l0,0h0.4c1.8,4.2,3.9,8.3,6.3,12.3c-1.7,4-12.9,7.4-12.7,0.4c2.4-1.1,6.6-0.2,8.7-1.6
		c-0.5-1.4-1.1-2.7-1.6-4L151.6,77.9z M123.8,103.3c0.1,0.2,0.2,0.4,0.2,0.5c0.5-2.7,1.4-5.9,2.9-5.4c1.5,0.4,2.6,1.8,2.7,3.4
		c-1.8,1.2-3.5,2.5-5.1,4c0.3,1.6,0.8,3.2,2.8,3.6c5.9,1,12.8-3.6,17.1-5.2c2.6-4.5-0.2-6.1-2.6-9c-4.9-5.9-11.4-13.2-11.2-22
		c2-1.4,2.1,2.2,2.4,2.8c3.6,6.8,8.2,13.1,13.6,18.7c1.1,1.3,3,2.5,3.2,3.3c0.6,2.4-1.6,5.3-1.3,6.9l0,0c-6.8,5.3-15.3,8-23.9,7.5
		C122.2,110,121.8,106.1,123.8,103.3L123.8,103.3z M134.3,115.7c0.3,1.9,0.5,3.8,0.4,5.7c-9.7,0.5-21.2-1.9-23.7-8.7
		C118.4,115.4,126.4,116.4,134.3,115.7L134.3,115.7z M111.5,69.4c1.2,3.5,3,6.8,5.2,9.8c1.2,1.2,3.6,2.6,2.4,5.9
		c-0.8,1.3-2,2.3-3.4,2.9c-4.2,1.2-14.1,0.3-10.8-5c3.5,0.2,8.2,2.3,10.8-0.3c-0.5-0.8-1.1-1.8-1.7-3c-2.7,1.7-10,1.8-10-2.6
		c0-4.6,7.2-5.5,7.2-5.5l0.1,0.1C111.1,71,111.2,70.2,111.5,69.4L111.5,69.4z M94.2,53.7c6.4-4.4,9.6-1.9,11.2,1
		c1.6,0.6,2.3,2.4,1.7,3.9c-0.1,0.2-0.1,0.3-0.2,0.5c-8.9-2.1-13.3,3.7-16,9.7c-0.7,1.3-0.7,0.4-1.1-0.7c-0.2-0.2-0.3-0.5-0.3-0.7
		c-0.1-0.2-0.3-0.5-0.5-0.6C87.7,65.5,87,58.6,94.2,53.7z M132,146.9c-3.7,0.3-8,2-12.1,2.2c-0.4,0-0.7,0-1.1,0
		c-0.4,0-0.7,0-1.1-0.1c-0.7-0.1-1.4-0.2-2.1-0.4c-0.3-0.1-0.7-0.2-1-0.4c0,0.3-0.4,0.2-0.4,0.4c0.5,0.4,0.9,0.7,1.3,1
		c0.4,0.3,0.9,0.5,1.3,0.8c0.8,0.4,1.7,0.8,2.5,1c1.4,0.4,2.9,0.5,4.4,0.5c0.5,0,1.1,0,1.8,0C127.7,150.3,129.7,148.4,132,146.9z" />
		<path class="jenkins--fragment-8" d="M148,171.1c-1.3-2-3.3-3.5-5.6-4c-1.7-0.3-3.4-0.1-4.9,0.6c0,1.1-0.1,2.2-0.2,3.4L148,171.1z M116.6,169.9
		l-1.9,1.2h2.8C117.2,170.7,116.9,170.3,116.6,169.9z" />
		<path class="jenkins--fragment-9" d="M70.1,112.1c-0.1-1.3-1-2.3-2.2-2.5c1.8,3.6-2.8,4.7-3.2,7.3c0.1,1.5,0.3,3,0.7,4.5c1.6,6.4,4.2,12.5,7.7,18
		c2.9,3.6,7.2,5.9,11.9,6.2C71.4,134.4,70.4,114.3,70.1,112.1z M129.6,101.8c0-1.6-1.1-3-2.7-3.4c-1.5-0.4-2.4,2.7-2.9,5.4
		c0.2,0.6,0.4,1.3,0.5,1.9C126.1,104.3,127.8,103,129.6,101.8z M144.7,77.2c-0.5,4.7,5.9,1,6.8,0.7l-0.2-1.5c-0.6-1.6-1-3.2-1.1-4.9
		C147.4,72.1,145.2,74.3,144.7,77.2z M104,77.2c0,4.3,7.3,4.3,10,2.6c-1.5-2.4-2.4-5.2-2.8-8l-0.1-0.1C111.2,71.7,104,72.6,104,77.2
		z M52.8,94c-0.2,0.2-0.4,0.4-0.7,0.6c0.1-1.6,0.8-3.1,2-4.2c0.3-0.3,0.5-0.5,0.9-0.6c1.3-0.6,2.8-0.7,4.2-0.2
		c2.4,0.6,4.6,1.5,6.8,2.7c-1-3.6-2.8-6.8-6.5-7.2c-6-0.5-11.3,4-11.8,10c0,0.2,0,0.4,0,0.6c0,5.2,1.9,10.2,5.4,14
		C49.9,104.1,51.7,99.6,52.8,94z M106.3,38.1c10.7-2.8,21.9-2.4,32.4,1.2c-0.8-0.6-1.7-1.2-2.6-1.8c-10.1-5.7-27.2-10-38-4.6
		c-8.7,4.3-20.4,11.5-24.4,20.6c1.6,4.3,1.9,9.1,0.7,13.6C79,52.3,91.2,41.3,106.3,38.1z M138.5,55.7c0,0.9,0.3,1.8,0.7,2.6
		c0,0,0.5-0.5,1.2-1.2c0.2-3.9,4.6-6.2,9.8-4.6c-1.2-1.5-2.4-3.2-3.6-4.8C142.2,47.8,138.7,51.3,138.5,55.7z M89.8,68.2
		c0.4,1.1,0.4,2,1.1,0.7C90.5,68.8,90.1,68.5,89.8,68.2z M89.5,67.4c-0.2-1.4,0.1-2.8,0.6-4.1c2.2-5.4,7.4-9.1,13.2-9.4
		c0.8,0.1,1.5,0.4,2.1,0.8c-1.6-2.9-4.8-5.4-11.2-1c-7.2,4.9-6.5,11.7-5.2,13C89.2,67,89.4,67.2,89.5,67.4z M108.2,115.3
		c-3.3-1.6-5.7-0.7-6.1-0.1c-0.8,1.1,0.9,7,0.9,7l1.6,0.3C104.3,116,108.2,115.3,108.2,115.3z" />
		<path class="jenkins--fragment-10" d="M138.1,126.4c-0.5,1.4-1.5,2.6-2.9,3.3c-6,2-12.4,2-18.4-0.1c-2.8-2-5.1-4.7-6.9-7.6c-0.8-1.1-5-3.8-0.1-3.8
		C113.8,127.8,126.9,126.7,138.1,126.4z M136.8,121.1c7.2-0.5,13.4-5.3,15.9-12c-4.8,3.1-10.2,5.3-15.9,6.4
		C136.6,117.3,136.6,119.2,136.8,121.1z M168,149.9c-0.1,4-1,8-2.6,11.7c-1.4,4.6-2.7,9-4.1,13.3h-54.1h0H39.4l0,0h-2.5
		c-0.1-0.4-0.3-0.8-0.4-1.2c-1.8-4.4-3.2-8.9-4.3-13.5c-0.9-6.1,4.9-6.5,8.6-9.2c5.7-4.1,10.2-6.4,16.4-10.1c2.9-1.4,5.6-3.1,8-5.2
		c1.3-2.5-2.1-6.1-3.1-8.1c-1.4-2.8-2.2-5.8-2.4-9c-4.7-0.8-8.9-3.5-11.5-7.4c-4.8-7.3-6-16.3-3.3-24.6c0.3-0.6,1.6-1.9,1.8-2.9
		c0-2.2-0.3-4.4-0.8-6.6c-0.4-10.5,1.8-19.6,8.9-22.9c2.9-11.5,13.2-15.3,23-21c3.8-2,7.7-3.7,11.8-5c14.9-5.5,37.7-4.4,50,4.9
		c6.6,5,12.3,11.3,16.6,18.4c7.9,16,7.3,42.7,1.8,62.1c-0.8,3.3-2,6.5-3.3,9.6c-1,2.2-4.3,6.5-3.9,8.5s7.4,7.3,8.9,8.8
		C162.4,143.2,167.6,146.6,168,149.9z M59,53.5c2-0.4,3.9-1,5.8-1.7c0.8-0.3,1.7-0.4,2.5-0.5c1.3,0.2,2.7,0.2,4,0.2
		c2.7-0.7,4.9-6.6,6.9-8.8c1.6-1.5,3.3-2.9,5-4.2c0.3-0.3,0.6-0.6,0.9-0.9c1-0.5,2.6-0.5,2.6-2c-0.4-0.5-0.9-0.8-1.5-0.7
		C75.5,37.7,63,44.8,59,53.5z M51.6,82.3c0.4-0.2,0.8-0.4,1.2-0.6c1.4-0.7,3-1.2,4.6-1.3c6.3-0.4,11.8,4.3,12.3,10.7
		c3.7-0.1,1.4-4.6,0.7-7.6c-2-8.6,2.6-17.9,1-26v0c-0.2-0.9-0.4-1.8-0.8-2.7c-6.2,0.3-11.9,3.1-16.1,7.6
		C50.2,67.1,51.1,76,51.6,82.3z M73,139.3c2.9,3.6,7.2,5.9,11.9,6.2c2.7,0.4,5.5,0.7,8.3,0.9c1.5-3.3,7-3,10.6-2.1
		c-4.5-2.3-8.5-5.6-11.7-9.5c-4.2-3.7-7-8.7-7.9-14.2c7.2,10,13.2,18.8,26.3,23.2c9.9,3.3,21.5-1.5,29.2-6.9c2.9-2.6,5.4-5.6,7.3-9
		c8.7-13.8,12.7-30,11.5-46.2c0.2-6.3-0.7-12.5-2.7-18.5c-2.4-4.9-10.6-9.2-15.4-4.8c-0.1-0.4-0.1-0.9-0.1-1.3
		c0.2-3.9,4.6-6.2,9.8-4.6c-1.2-1.5-2.4-3.2-3.6-4.8c-2.3-3.1-4.9-5.9-7.9-8.4c-0.8-0.6-1.7-1.2-2.6-1.8c-10.1-5.7-27.3-10-38-4.6
		c-8.7,4.3-20.4,11.5-24.4,20.6c1.6,4.3,1.9,9.1,0.7,13.6c-1,4-1.7,8-2.1,12.1c-0.2,4.7,2.2,8.9,2.4,14c-1.3,2.1-5.2,2.4-7.9,2.2
		c-0.2-1-0.4-2-0.7-3c-1-3.6-2.8-6.8-6.5-7.2c-0.2,0-0.4,0-0.6,0c-6-0.2-11,4.5-11.2,10.5c0,5.2,2,10.1,5.5,13.9
		c1.9,2.2,4.7,3.4,7.6,3.3c3-0.3,3.8-3.3,7.1-3.3c1.8,3.6-2.7,4.7-3.2,7.3c0.1,1.5,0.3,3,0.7,4.5C66.9,127.7,69.5,133.8,73,139.3z
		M146.6,158c-0.1-2.5-0.5-5-1.1-7.4c-0.2-1.3-0.9-2.6-1.9-3.5c-4-2.3-11,4.4-14.3,5.9l-0.3,0.1c0.5,0.9,0.8,1.9,0.9,3
		c0.7-0.2,1.4-0.2,2.2-0.2c0.5,0,1,0.1,1.5,0.2c0.2,0,0.5,0.1,0.7,0.2c0.4,0.1,0.9,0.3,1.3,0.5c-1.4,0.1-2.7,0.2-4.1,0.5
		c-0.4,0.1-0.7,0.3-1.1,0.5c-0.1,1.6-0.2,3.2-0.2,4.8c0.6,0.2,1.1,0.3,1.7,0.4l0,0c4.3,1,8.7,1.5,13.2,1.6c0.4-0.6,0.8-1.3,0.9-2
		C146.5,161.1,146.7,159.5,146.6,158z M142.5,167.1c-1.7-0.3-3.4-0.1-4.9,0.6c0,1.1-0.1,2.2-0.2,3.4H148
		C146.8,169.1,144.8,167.7,142.5,167.1z M134.8,171.1V171c0.1-1.2,0.1-2.4,0.2-3.5c-3.3,0.2-5.1-3-7.5-3.2c-2-0.2-3.7,2.3-6.4,1.2
		c-0.6,0.7-1.2,1.4-1.8,2c1,1.2,1.8,2.4,2.6,3.7h5.1c0-1,0.8-1.7,1.8-1.7c1,0,1.7,0.8,1.8,1.7H134.8z M119.4,151.4L119.4,151.4
		c1.4,0.4,2.9,0.5,4.4,0.5c0.6,0,1.1,0,1.8,0c2.2-1.6,4.2-3.5,6.5-5c-3.7,0.3-8,2-12.1,2.2c-0.4,0-0.7,0-1.1,0c-0.4,0-0.7,0-1.1-0.1
		c-0.7-0.1-1.4-0.2-2.1-0.4c-0.3-0.1-0.7-0.2-1-0.4c0,0.3-0.4,0.2-0.4,0.4c0.5,0.4,0.9,0.7,1.3,1c0.4,0.3,0.9,0.5,1.3,0.8
		C117.6,150.8,118.5,151.2,119.4,151.4z M124.2,154.6c-1.1,0-2.2,0.4-3.1,1.1c-0.1,0.7-0.1,1.5,0,2.2c0.1,0.4,0.1,0.8,0.3,1.3
		l0.2,0.7l0,0.1c0.1,0.5,0.2,1,0.3,1.7c0.4,0.2,0.8,0.3,1.3,0.4c2.1,0.3,3.9-1.1,4.2-3.2C127.7,156.8,126.3,154.9,124.2,154.6z
		M79.9,146.9L79.9,146.9c0,0.1-0.1,0.1-0.1,0.1c-0.5,0.6-0.5,1.6,0.2,2.1c3.2,2.6,7.1,4.2,11.2,4.7c0-0.5,0.1-1.1,0.2-1.6
		c0.4-1,0.6-2.1,0.6-3.2C87.9,149.1,83.8,148.3,79.9,146.9z M94.9,171.1c-0.2-0.7-0.4-1.4-0.6-2.1c-1.1-3.4-2-6.9-2.5-10.4
		c-5.7-2.5-11.3-5.5-16.5-8.9c-0.5-0.4-0.9-0.9-1.3-1.4c-2.1-2.4-5.8-7-6.4-6.7c-10.8,4.8-20.9,11.1-30.1,18.7
		c1.6,3.5,3.1,7.2,4.3,10.9H94.9z M109.3,171.3L109.3,171.3c3.4-2.3,6.6-4.8,9.8-7.4c0-0.9,0.1-1.9,0.1-2.8v-0.3
		c-1.5-0.8-3.2-1.3-4.9-1.6c-0.7-0.1-1.3-0.2-2-0.2c0.5-0.2,1-0.4,1.6-0.6c1.7-0.3,3.3-0.8,4.9-1.5c0-0.4,0-0.8,0-1.3
		c-0.4,0-0.7-0.1-1.1-0.1c-0.3-0.1-0.6-0.1-0.9-0.2c-0.5-0.2-1.1-0.4-1.6-0.7c-1-0.5-1.8-1.2-2.8-1.7c-4.1-2.2-8.4-3.8-12.9-4.7
		c-4.9-0.9-5,5.9-4.8,11c0,0.5,0.1,1,0.1,1.5c0.5,3.5,1.4,7,2.9,10.2c0.1,0.2,0.2,0.4,0.3,0.7c0.1,0.3,0.2,0.5,0.2,0.7
		c0.3,1,0.5,1.9,1.4,2.1C103,173.9,106.3,172.9,109.3,171.3z M116.6,169.9l-1.9,1.2h2.8C117.2,170.7,116.9,170.3,116.6,169.9z
		M163,152.9c-0.4-2.9-4.3-5-6.3-6.8c-3.7-3.3-6-6.2-9.8-9.2c-1.4,1.6-2.9,3-4.7,4.2c-0.6,0.4-1.1,0.9-1.5,1.5
		c0.8-0.4,1.8-0.6,2.8-0.6c1.6,0.3,3,1.3,3.7,2.7c3,6.6,3.2,14.1,0.7,20.9c0.6,2,2.4,2.8,3.2,4.6c-0.2,0.3-0.4,0.6-0.5,1h7.9
		c0.2,0,0.3,0.1,0.4,0.1c1.2-3.6,2.1-7.3,2.9-11c0.2-1,0.6-2.5,0.8-4C163,155.1,163.1,154,163,152.9z M134.7,121.4
		c0.1-1.9-0.1-3.8-0.4-5.7c-7.9,0.7-15.8-0.3-23.3-3C113.5,119.5,125,121.9,134.7,121.4z M89.8,68.2c0.3,0.4,0.7,0.6,1.1,0.7
		c2.7-6,7.1-11.8,16-9.7c0.9-1.4,0.4-3.3-1-4.2c-0.2-0.1-0.3-0.2-0.5-0.2c-0.7-0.4-1.4-0.6-2.1-0.8c-5.9,0.3-11,4-13.2,9.4
		c-0.6,1.3-0.8,2.7-0.6,4.1C89.5,67.7,89.7,67.9,89.8,68.2z M59.2,89.7c-1.4-0.5-2.9-0.5-4.2,0.2c-0.3,0.2-0.6,0.4-0.9,0.6
		c-1.1,1.1-1.9,2.6-2,4.2c0.2-0.2,0.5-0.4,0.7-0.6c0.8-0.8,1.7-1.9,3.2-1.2c-1.7,3.9-1.3,8.3,1,11.9c0-3.9-0.6-10.6,2.7-10.4
		c2.3,0.1,2.8,5.2,4.8,6.3C65.8,96.1,63.5,91.4,59.2,89.7z M148.6,104.9c-0.3-1.6,1.9-4.5,1.3-6.9c-0.2-0.8-2.1-2-3.2-3.3
		c-5.4-5.5-10-11.8-13.6-18.7c-0.3-0.7-0.5-4.3-2.4-2.8c-0.2,8.8,6.3,16.1,11.2,22c2.4,2.9,5.2,4.5,2.6,9
		c-4.3,1.6-11.2,6.3-17.1,5.2c-2-0.3-2.5-2-2.8-3.6c-0.1-0.7-0.3-1.3-0.5-1.9c-0.1-0.2-0.2-0.4-0.2-0.5c-2,2.9-1.6,6.7,0.9,9.1
		C133.3,112.9,141.8,110.2,148.6,104.9z M156.9,81.6c-2.4-3.9-4.5-8-6.3-12.3h-0.4c0,0.7,0,1.4,0,2.1c0.1,1.7,0.5,3.3,1.1,4.9
		c0.5,1.4,1.1,2.7,1.6,4c-2.1,1.3-6.3,0.5-8.7,1.5C144.1,89,155.2,85.5,156.9,81.6z M104.9,83c-3.3,5.3,6.5,6.3,10.8,5
		c1.4-0.6,2.6-1.6,3.4-2.9c1.2-3.3-1.2-4.8-2.4-5.9c-2.2-3-4-6.3-5.2-9.8c-0.2,0.8-0.3,1.6-0.3,2.4c0.4,2.8,1.4,5.5,2.8,8
		c0.6,1.1,1.2,2.1,1.7,3C113.1,85.2,108.4,83.1,104.9,83z" />
	</g>
</svg>