<svg width="200" height="200" version="1.1" viewBox="0 0 200 200" xml:space="preserve"
	xmlns:xlink="http://www.w3.org/1999/xlink" xmlns="http://www.w3.org/2000/svg">
	<style>
		.jest--fragment-0 {
			fill: #99425B;
		}

		.jest--fragment-1 {
			fill: #FFFFFF;
		}
	</style>
	<rect width="200" height="200" style="fill: var(--bg, #99425B); rx: var(--rx, 24px); filter: var(--filter);" />
	<g>
		<path class="jest--fragment-0" d="M159.4,98.9c0-7.7-6.3-14-14-14c-0.5,0-1,0-1.5,0.1l19.2-56.6H81.7l19.1,56.5c-0.3,0-0.6,0-0.8,0
		c-7.7,0-14,6.3-14,14c0,6.1,3.9,11.4,9.7,13.3c-3,5.1-6.7,9.8-11,13.8c-5.6,5.4-12.3,9.5-19.6,12.1c-8.5-4-12.4-13.9-8.9-22.7
		c0.4-1,0.8-1.9,1.2-2.9c7.5-1.8,12.2-9.3,10.4-16.8c-1.8-7.5-9.3-12.2-16.8-10.4c-7.5,1.8-12.2,9.3-10.4,16.8
		c0.8,3.3,2.8,6.3,5.6,8.3c-4.5,8.1-7.9,16.7-10.1,25.6c-1.9,11.4,0,23.6,9.9,30.4c23,16,48-9.9,74.4-16.4c9.6-2.4,20-2,28.5-6.9
		c6.2-3.5,10.4-9.6,11.7-16.5c1.1-6.6-0.5-13.4-4.5-18.9C158.3,105.3,159.4,102.1,159.4,98.9L159.4,98.9z M113.9,98.9L113.9,98.9
		c0-4.9-2.5-9.5-6.7-12l15.2-30.9l15.3,31.1c-3.9,2.6-6.2,6.9-6.2,11.6c0,0.1,0,0.2,0,0.3L113.9,98.9z" />
		<path class="jest--fragment-1" d="M162.8,98.9c0-8.3-6-15.5-14.2-17.1L167.9,25h-91l19.3,56.9C86.8,84,80.9,93.3,83,102.6c1,4.6,3.8,8.5,7.8,11
		c-2.4,3.6-5.2,6.9-8.4,9.9c-4.9,4.7-10.6,8.4-16.9,10.9c-6.1-3.5-8.7-11-6.1-17.6l0.2-0.5l0.4-0.9c9.1-3.1,13.9-13,10.7-22.1
		c-3.1-9.1-13-13.9-22.1-10.7c-9.1,3.1-13.9,13-10.7,22.1c0.9,2.5,2.3,4.8,4.2,6.7c-0.6,1.2-1.2,2.5-1.8,3.8
		c-3.5,6.4-6,13.2-7.5,20.4c-2.5,15,1.5,27,11.3,33.8c5.3,3.8,11.6,5.8,18,5.7c11.4,0,23-5.7,34.3-11.4c7.9-4.3,16.2-7.7,24.9-10.3
		c3.2-0.7,6.4-1.3,9.6-1.7c6.9-0.5,13.6-2.4,19.7-5.5c7-4,11.9-10.9,13.3-18.9c1.1-6.7-0.2-13.6-3.7-19.4
		C161.9,105.2,162.8,102,162.8,98.9L162.8,98.9z M156,98.9c0,5.8-4.7,10.6-10.6,10.6s-10.6-4.7-10.6-10.6c0-5.8,4.7-10.6,10.6-10.6
		l0,0C151.3,88.3,156,93,156,98.9z M158.4,31.8l-17,50.1c-0.7,0.2-1.4,0.4-2.1,0.7l-16.8-34.3l-16.8,34.1c-0.7-0.3-1.5-0.5-2.2-0.6
		l-16.9-50H158.4z M100,88.3c5.8,0,10.6,4.7,10.6,10.6c0,5.8-4.7,10.6-10.6,10.6s-10.6-4.7-10.6-10.6C89.4,93,94.1,88.3,100,88.3z
		M54.3,88.4c5.8,0,10.6,4.7,10.6,10.6c0,5.8-4.7,10.6-10.6,10.6S43.8,104.8,43.8,99C43.8,93.1,48.5,88.4,54.3,88.4L54.3,88.4z
		M157.3,126.1c-1.1,6-4.7,11.2-10,14.2c-5.4,2.6-11.3,4.2-17.3,4.7c-3.4,0.5-6.9,1-10.3,1.8c-9.1,2.6-17.9,6.3-26.2,10.8
		c-16.9,8.4-31.6,15.7-45.4,6.1c-10.1-7-9.6-20-8.5-27.1c1.4-6.5,3.7-12.7,6.9-18.5c0.5-1,1-2,1.4-3c1.4,0.6,2.9,1,4.5,1.1
		c-2.8,9.9,1.9,20.5,11.2,24.9l1.3,0.7l1.4-0.5c7.7-2.8,14.8-7.2,20.8-12.9c3.9-3.7,7.4-7.9,10.3-12.4c9.5,1.4,18.3-5.1,19.8-14.6
		c0.9-5.8-1.2-11.7-5.6-15.6l10.9-22.1l11,22.5c-6.9,6.7-7.1,17.6-0.5,24.5c5.9,6.1,15.4,7.1,22.4,2.2
		C157.3,117.1,158,121.7,157.3,126.1L157.3,126.1z" />
	</g>
</svg>