<svg width="200" height="200" version="1.1" viewBox="0 0 200 200" xml:space="preserve"
	xmlns:xlink="http://www.w3.org/1999/xlink" xmlns="http://www.w3.org/2000/svg">
	<style>
		.joomla--fragment-0 {
			fill: #F9AE41;
		}

		.joomla--fragment-1 {
			fill: #EE4035;
		}

		.joomla--fragment-2 {
			fill: #4F91CD;
		}

		.joomla--fragment-3 {
			fill: #7AC043;
		}
	</style>
	<g>
		<rect width="200" height="200" style="fill: var(--bg, #1b63a2); rx: var(--rx, 24px); filter: var(--filter);" />
		<path class="joomla--fragment-0" d="M175,45.8c0-10.9-8.8-19.7-19.7-19.7c-9.9,0-18.1,7.3-19.5,16.9c-0.1-0.1-0.2-0.1-0.2-0.1
		c-16.1-7.3-29.7,5.6-29.7,5.6l-35.9,36l14.2,13.6l28.9-28.4c13.5-13.5,20.8-4.4,20.8-4.4c10.1,8.6,0.3,18.7,0.3,18.7l14.5,14
		c11.9-12.8,12.5-24,8.9-32.9C167.5,64.1,175,55.8,175,45.8" />
		<path class="joomla--fragment-1" d="M158,136.3c0.1-0.1,0.1-0.2,0.1-0.2c7.3-16.1-5.6-29.7-5.6-29.7l-36-35.9l-13.6,14.2l28.4,28.9
		c13.5,13.5,4.4,20.8,4.4,20.8c-8.6,10.1-18.7,0.3-18.7,0.3l-14,14.5c12.8,11.9,24,12.5,32.9,8.9c1.2,9.7,9.5,17.2,19.5,17.2
		c10.9,0,19.7-8.8,19.7-19.7C174.9,145.9,167.5,137.7,158,136.3" />
		<path class="joomla--fragment-2" d="M116.7,102.7l-28.9,28.4c-13.5,13.5-20.8,4.4-20.8,4.4c-10.1-8.6-0.3-18.7-0.3-18.7l-14.5-14
		c-11.9,12.8-12.5,24-8.9,32.9c-9.7,1.2-17.2,9.5-17.2,19.5c0,10.9,8.8,19.7,19.7,19.7c9.9,0,18.1-7.3,19.5-16.9
		c0.1,0.1,0.2,0.1,0.2,0.1c16.1,7.3,29.7-5.6,29.7-5.6l35.9-36L116.7,102.7" />
		<path class="joomla--fragment-3" d="M69.9,87.3c-13.5-13.5-4.4-20.8-4.4-20.8c8.6-10.1,18.7-0.3,18.7-0.3l14-14.5c-12.8-11.9-24-12.5-32.9-8.9
		c-1.2-9.7-9.5-17.2-19.5-17.2c-10.9,0-19.7,8.8-19.7,19.7c0,9.9,7.3,18.1,16.9,19.5C43,64.7,43,64.8,43,64.8
		c-7.3,16.1,5.6,29.6,5.6,29.6l36,35.9l13.6-14.2L69.9,87.3" />
	</g>
</svg>