<svg width="200" height="200" version="1.1" viewBox="0 0 200 200" xml:space="preserve"
	xmlns:xlink="http://www.w3.org/1999/xlink" xmlns="http://www.w3.org/2000/svg">
	<style>
		.jquery {
			fill: #1baee3;
		}
	</style>
	<rect width="200" height="200" style="fill: var(--bg, #182a38); rx: var(--rx, 24px);" />
	<path class="jquery" d="M34.5,61.7c-13.3,19.1-11.6,43.9-1.5,64.2c0.2,0.5,0.5,1,0.7,1.4c0.2,0.3,0.3,0.6,0.5,0.9c0.1,0.2,0.2,0.4,0.3,0.5
	c0.2,0.3,0.3,0.6,0.5,1c0.3,0.6,0.6,1.1,1,1.7c0.2,0.3,0.4,0.6,0.6,0.9c0.4,0.6,0.7,1.2,1.1,1.8c0.2,0.3,0.3,0.5,0.5,0.7
	c0.5,0.8,1.1,1.6,1.6,2.3l0,0.1c0.1,0.1,0.2,0.2,0.3,0.4c0.5,0.7,1,1.3,1.5,2l0.6,0.7c0.4,0.6,0.9,1.1,1.4,1.7l0.5,0.6
	c0.6,0.7,1.3,1.4,1.9,2.2l0,0l0.1,0.1c0.6,0.7,1.3,1.4,1.9,2l0.6,0.6c0.5,0.5,1,1,1.6,1.5c0.2,0.2,0.4,0.4,0.6,0.6
	c0.7,0.7,1.4,1.3,2.1,1.9c0,0,0,0,0,0c0.1,0.1,0.3,0.2,0.4,0.3c0.6,0.6,1.3,1.1,1.9,1.6l0.8,0.6c0.5,0.4,1.1,0.8,1.6,1.3l0.9,0.7
	c0.6,0.4,1.2,0.9,1.8,1.3c0.2,0.2,0.4,0.3,0.7,0.5l0.2,0.1c0.6,0.4,1.2,0.8,1.8,1.2c0.3,0.2,0.5,0.3,0.8,0.5
	c0.9,0.6,1.8,1.1,2.7,1.7l0.8,0.4c0.7,0.4,1.4,0.8,2.1,1.2c0.4,0.2,0.8,0.4,1.1,0.6c0.5,0.3,1,0.5,1.5,0.8l0.3,0.2l0.6,0.3
	c0.8,0.4,1.5,0.7,2.3,1.1l0.5,0.2c0.9,0.4,1.8,0.8,2.7,1.1l0.7,0.3c0.8,0.3,1.7,0.7,2.6,1l0.3,0.1c1,0.3,1.9,0.6,2.9,0.9l0.7,0.2
	c0.8,0.3,1.8,0.6,2.8,0.8l0.2,0c64.2,11.7,82.9-38.6,82.9-38.6c-15.7,20.4-43.5,25.8-69.9,19.8c-1-0.2-2-0.5-2.9-0.8l-0.7-0.2
	c-1-0.3-1.9-0.6-2.8-0.9l-0.4-0.1c-0.8-0.3-1.7-0.6-2.5-0.9l-0.7-0.3c-0.9-0.4-1.8-0.7-2.7-1.1l-0.5-0.2c-0.8-0.3-1.5-0.7-2.3-1.1
	l-0.7-0.3c-0.6-0.3-1.2-0.6-1.8-0.9c-0.4-0.2-0.8-0.4-1.2-0.6c-0.7-0.4-1.4-0.8-2.1-1.2l-0.7-0.4c-0.9-0.5-1.8-1.1-2.7-1.7
	c-0.3-0.2-0.5-0.3-0.7-0.5c-0.7-0.4-1.3-0.9-2-1.3c-0.2-0.1-0.4-0.3-0.6-0.4c-0.6-0.4-1.2-0.9-1.8-1.3c-0.3-0.2-0.5-0.4-0.8-0.6
	c-0.6-0.4-1.1-0.9-1.7-1.3l-0.7-0.6c-0.7-0.6-1.4-1.2-2.1-1.7l-0.2-0.2c-0.7-0.7-1.4-1.3-2.2-2l-0.6-0.6c-0.5-0.5-1.1-1-1.6-1.5
	l-0.6-0.6c-0.6-0.7-1.3-1.3-1.9-2l-0.1-0.1c-0.7-0.7-1.3-1.5-2-2.2l-0.5-0.6c-0.5-0.6-1-1.2-1.4-1.7c-0.2-0.2-0.3-0.4-0.5-0.6
	c-0.6-0.7-1.1-1.4-1.6-2.2c-14.6-20-19.9-47.5-8.2-70.1L34.5,61.7z M75.8,45.6c-4.5,7-7.2,15.6-7.2,24.8c0,8.1,2.1,15.7,5.8,22.4
	l-0.1-0.2c1.4,2.8,2.8,5.1,4.4,7.3l-0.1-0.2c1.5,2.3,3.1,4.4,4.9,6.2l0,0c0.7,0.8,1.4,1.5,2.2,2.2c0.2,0.2,0.4,0.4,0.6,0.6
	c0.7,0.7,1.4,1.4,2.2,2c0,0,0.1,0.1,0.1,0.1c0.8,0.7,1.7,1.4,2.6,2.1l0.6,0.5c0.9,0.7,1.8,1.3,2.7,2l0.1,0.1
	c0.4,0.3,0.8,0.5,1.2,0.8c0.2,0.1,0.4,0.3,0.6,0.4c0.7,0.4,1.3,0.8,2,1.2l0.3,0.2c0.6,0.3,1.2,0.7,1.8,1c0.2,0.1,0.4,0.2,0.6,0.3
	c0.4,0.2,0.8,0.4,1.2,0.6l0.2,0.1c0.8,0.4,1.7,0.8,2.6,1.2c0.2,0.1,0.4,0.2,0.6,0.2c0.7,0.3,1.4,0.6,2.1,0.9l0.9,0.3
	c0.6,0.2,1.3,0.5,1.9,0.7l0.9,0.3c0.8,0.3,1.7,0.6,2.7,0.8l0.1,0c49.6,8.2,61.1-30,61.1-30c-10.3,14.9-30.3,22-51.6,16.4
	c-1-0.3-1.9-0.5-2.8-0.8c-0.3-0.1-0.6-0.2-0.8-0.3c-0.7-0.2-1.3-0.4-2-0.7l-0.9-0.3c-0.7-0.3-1.4-0.6-2.1-0.9
	c-0.2-0.1-0.4-0.2-0.6-0.2c-0.9-0.4-1.7-0.8-2.6-1.2c-0.4-0.2-0.9-0.4-1.3-0.7l-0.7-0.4c-0.6-0.3-1.1-0.6-1.6-0.9
	c-0.1-0.1-0.3-0.1-0.4-0.2c-0.7-0.4-1.3-0.8-2-1.2c-0.2-0.1-0.4-0.3-0.6-0.4c-0.4-0.3-0.9-0.6-1.3-0.9c-0.9-0.6-1.8-1.3-2.7-2
	l-0.6-0.5C91,92,84,82.1,80.2,70.8l-0.1-0.4c-1.4-4.2-2.2-9-2.2-14c0-8.1,2.1-15.6,5.9-22.2l-0.1,0.2L75.8,45.6z M110.4,33.6
	c-3,4.5-4.8,10-4.8,16c0,4.3,0.9,8.4,2.6,12.1l-0.1-0.2c4.4,9.8,12.4,17.3,22.3,21l0.3,0.1c0.4,0.2,0.8,0.3,1.2,0.4l0.5,0.2
	c0.5,0.2,1.1,0.3,1.7,0.5l0.1,0c27.4,5.3,34.8-14.1,36.8-16.9c-6.5,9.4-17.4,11.6-30.9,8.4c-1.1-0.3-2.2-0.6-3.2-1
	c-1.6-0.6-2.9-1.1-4.1-1.7l0.2,0.1c-2.6-1.3-4.8-2.6-6.8-4.2l0.1,0.1c-12-9.1-19.5-26.5-11.6-40.6L110.4,33.6z" />
</svg>