<svg width="200" height="200" version="1.1" viewBox="0 0 200 200" xml:space="preserve"
	xmlns:xlink="http://www.w3.org/1999/xlink" xmlns="http://www.w3.org/2000/svg">
	<style>
		.julia--fragment-0 {
			fill: #CA3C32;
		}

		.julia--fragment-1 {
			fill: #9259A3;
		}

		.julia--fragment-2 {
			fill: #399746;
		}

		.julia--fragment-3 {
			fill: #4D64AE;
		}

		.julia--fragment-4 {
			fill: #1A1A1A;
		}
	</style>
	<rect width="200" height="200" style="fill: var(--bg, #fff); rx: var(--rx, 24);" />
	<g>
		<path class="julia--fragment-0" d="M128.6,87.3c-4.8,0-8.7-3.9-8.7-8.7c0-4.8,3.9-8.7,8.7-8.7c4.8,0,8.7,3.9,8.7,8.7
		C137.3,83.4,133.4,87.3,128.6,87.3z" />
		<path class="julia--fragment-1" d="M149.6,87.3c-4.8,0-8.7-3.9-8.7-8.7c0-4.8,3.9-8.7,8.7-8.7s8.7,3.9,8.7,8.7C158.3,83.4,154.4,87.3,149.6,87.3
		L149.6,87.3z" />
		<path class="julia--fragment-2" d="M139.1,69.1c-4.8,0-8.7-3.9-8.7-8.7s3.9-8.7,8.7-8.7s8.7,3.9,8.7,8.7c0,2.3-0.9,4.5-2.6,6.2
		C143.6,68.2,141.4,69.1,139.1,69.1L139.1,69.1z" />
		<path class="julia--fragment-3"
			d="M46.7,87.3c-4.8,0-8.7-3.9-8.7-8.7s3.9-8.7,8.7-8.7s8.7,3.9,8.7,8.7C55.4,83.4,51.5,87.3,46.7,87.3z" />
		<path class="julia--fragment-4" d="M53.5,130.8c0.1,3-0.3,6.1-1.3,9c-0.7,2.1-1.9,3.9-3.5,5.3c-1.6,1.3-3.5,2.2-5.5,2.5c-2.4,0.5-4.8,0.7-7.2,0.7
		c-1.6,0-3.2-0.1-4.7-0.5c-1.2-0.2-2.4-0.7-3.5-1.2c-0.8-0.4-1.6-1.1-2.1-1.8c-0.5-0.6-0.7-1.4-0.7-2.1c0-1.3,0.6-2.5,1.6-3.3
		c1.2-0.9,2.7-1.4,4.2-1.3c0.6,0,1.2,0.1,1.8,0.3c0.5,0.2,1,0.5,1.4,0.8c0.4,0.3,0.8,0.7,1.1,1c0.3,0.4,0.6,0.8,0.8,1.1
		c0.4,0.6,0.9,1.1,1.5,1.5c0.3,0.2,0.7,0.4,1.1,0.4c0.3,0,0.7-0.1,1-0.3c0.3-0.2,0.6-0.6,0.7-1c0.2-0.6,0.3-1.2,0.4-1.9
		c0.1-1,0.2-2,0.2-3V91.3l12.7-3.5V130.8z M72.2,88.8v29.4c0,0.8,0.2,1.6,0.5,2.3c0.3,0.7,0.8,1.3,1.4,1.8c0.6,0.5,1.2,0.9,2,1.2
		c0.7,0.3,1.5,0.5,2.4,0.5c0.5,0,1.1-0.2,1.6-0.4c0.6-0.3,1.2-0.7,1.8-1.1c0.6-0.5,1.2-1,1.8-1.6c0.6-0.6,1.1-1.3,1.6-2.1V88.8h12.7
		V131H85V127c-1.6,1.4-3.4,2.6-5.3,3.5c-1.7,0.8-3.6,1.2-5.5,1.3c-2,0-3.9-0.3-5.8-1c-1.7-0.7-3.3-1.6-4.7-2.8
		c-1.3-1.2-2.4-2.6-3.1-4.2c-0.8-1.6-1.1-3.4-1.1-5.2V88.8H72.2z M123.1,91.4l12.7-3.5v43h-12.7V91.4z M116.2,131h-12.7V72.4
		l12.7-3.5V131z M175,131h-12.7v-3.3c-0.7,0.6-1.4,1.1-2.1,1.6c-0.7,0.5-1.5,1-2.3,1.3c-0.9,0.4-1.8,0.7-2.8,0.9
		c-1.2,0.2-2.5,0.3-3.7,0.3c-1.8,0-3.5-0.2-5.2-0.8c-1.4-0.5-2.8-1.3-3.9-2.3c-1.1-1-1.9-2.1-2.5-3.5c-0.6-1.4-0.9-2.8-0.9-4.3
		c0-1.5,0.3-3,0.9-4.3c0.6-1.3,1.5-2.5,2.5-3.5c1.1-1.1,2.4-2,3.7-2.8c1.5-0.9,3-1.6,4.6-2.3c1.6-0.7,3.3-1.3,5.1-1.9l5.1-1.7
		l1.4-0.3V100c0-1.1-0.1-2.3-0.4-3.4c-0.2-0.8-0.6-1.6-1.1-2.3c-0.5-0.6-1.1-1-1.8-1.3c-0.7-0.3-1.5-0.4-2.3-0.4
		c-0.9,0-1.7,0.1-2.5,0.4c-0.6,0.2-1.2,0.6-1.6,1.1c-0.4,0.4-0.7,1-0.9,1.6c-0.2,0.6-0.3,1.3-0.3,2c0,0.8-0.1,1.5-0.3,2.3
		c-0.1,0.7-0.4,1.4-0.9,2c-0.5,0.6-1.1,1-1.8,1.3c-0.9,0.4-1.9,0.5-2.8,0.5c-0.8,0-1.7-0.1-2.5-0.4c-0.7-0.3-1.3-0.6-1.9-1.1
		c-0.5-0.5-0.9-1.1-1.2-1.7c-0.3-0.7-0.4-1.4-0.4-2.1c0-1.5,0.5-2.9,1.5-4c1.1-1.3,2.4-2.4,4-3.2c1.8-1,3.8-1.7,5.8-2.1
		c2.3-0.5,4.6-0.8,7-0.8c2.6,0,5.2,0.2,7.7,0.8c1.9,0.4,3.7,1.2,5.4,2.3c1.3,0.9,2.4,2.1,3.1,3.6c0.7,1.5,1,3.1,1,4.7L175,131z
		M162.3,109.2c-1.3,0.5-2.5,1.2-3.7,1.8c-1.2,0.6-2.3,1.4-3.4,2.3c-1,0.7-1.8,1.6-2.5,2.6c-0.6,0.8-1,1.8-1,2.9
		c0,0.8,0.1,1.5,0.3,2.3c0.2,0.7,0.5,1.3,0.9,1.9c0.3,0.5,0.7,0.9,1.2,1.2c0.4,0.3,0.9,0.5,1.5,0.5c1.1,0,2.2-0.4,3.1-1
		c1.2-0.7,2.4-1.6,3.5-2.4L162.3,109.2z" />
	</g>
</svg>