<svg width="200" height="200" version="1.1" viewBox="0 0 200 200" xml:space="preserve"
	xmlns:xlink="http://www.w3.org/1999/xlink" xmlns="http://www.w3.org/2000/svg">
	<style>
		.kafka {
			fill: #1A1919;
		}
	</style>
	<rect width="200" height="200" style="fill: var(--bg, #fff); rx: var(--rx, 24);" />
	<path class="kafka" d="M85.4,38c-1.7-1.7-4-2.7-6.5-2.7c-2.6,0-4.8,1-6.5,2.7h0c-1.6,1.7-2.7,4-2.7,6.5c0,2.6,1,4.9,2.7,6.5l0,0
		c1.6,1.7,3.9,2.7,6.5,2.7c2.6,0,4.9-1,6.5-2.7l0,0c1.7-1.6,2.7-3.9,2.7-6.5C88.1,42,87.1,39.7,85.4,38L85.4,38z M78.9,164
		c2.6,0,4.9-1,6.5-2.7l0,0c1.7-1.6,2.7-3.9,2.7-6.5c0-2.6-1-4.9-2.7-6.5h0c-1.7-1.7-4-2.7-6.5-2.7c-2.6,0-4.8,1-6.5,2.7h0
		c-1.6,1.7-2.7,4-2.7,6.5c0,2.5,1,4.8,2.7,6.5l0,0C74.1,163,76.4,164,78.9,164z M129.1,136.1c2.3-0.6,4.3-2.1,5.6-4.3l0.2-0.3
		c1.1-2.1,1.3-4.5,0.7-6.7c-0.6-2.3-2.1-4.3-4.3-5.6l-0.1-0.1c-2.2-1.2-4.6-1.4-6.9-0.8c-2.3,0.6-4.3,2.1-5.6,4.3
		c-1.3,2.2-1.5,4.7-0.9,7c0.6,2.3,2.1,4.3,4.3,5.6h0C124.3,136.5,126.8,136.7,129.1,136.1z M88.4,90.3c-2.4-2.4-5.8-3.9-9.4-3.9
		c-3.7,0-7,1.5-9.4,3.9c-2.4,2.4-3.9,5.7-3.9,9.4c0,3.7,1.5,7,3.9,9.5c2.4,2.4,5.7,3.9,9.4,3.9c3.7,0,7-1.5,9.4-3.9
		c2.4-2.4,3.9-5.8,3.9-9.5C92.2,96,90.8,92.7,88.4,90.3z M83,74.6c5.4,0.9,10.2,3.4,13.8,7.2h0c0.6,0.6,1.2,1.2,1.7,1.9l9.2-5.3
		c-1.2-3.7-1.3-7.6-0.3-11.3c1.3-4.9,4.5-9.3,9.3-12l0.2-0.1c4.7-2.7,10.1-3.2,14.9-1.9c4.9,1.3,9.3,4.5,12.1,9.3v0
		c2.7,4.7,3.3,10.2,2,15c-1.3,4.9-4.5,9.3-9.3,12.1l-1.3,0.7h-0.1c-4.4,2.1-9.2,2.4-13.7,1.3c-3.7-1-7-3-9.6-5.9l-9.2,5.3
		c1.1,2.8,1.6,5.8,1.6,9c0,3.2-0.6,6.2-1.6,9l9.2,5.3c2.6-2.9,6-4.9,9.6-5.9c4.9-1.3,10.3-0.8,15.1,2l0.3,0.1v0
		c4.6,2.8,7.7,7.1,8.9,11.9c1.3,4.9,0.8,10.3-2,15l-0.2,0.3l0,0c-2.7,4.6-7.1,7.7-11.9,9c-4.9,1.3-10.3,0.7-15.1-2v0
		c-4.8-2.8-7.9-7.2-9.3-12c-1-3.6-0.9-7.6,0.3-11.3l-9.2-5.3c-0.5,0.6-1.1,1.3-1.7,1.8l0,0c-3.7,3.7-8.5,6.3-13.8,7.1v10.6
		c3.8,0.8,7.2,2.7,9.9,5.4l0,0c3.6,3.6,5.8,8.5,5.8,14c0,5.5-2.2,10.4-5.8,14l0,0.1c-3.6,3.6-8.6,5.8-14,5.8c-5.4,0-10.4-2.2-14-5.8
		h0v-0.1c-3.6-3.6-5.8-8.5-5.8-14c0-5.5,2.2-10.4,5.8-14v0h0c2.7-2.7,6.1-4.6,9.9-5.4v-10.6c-5.4-0.9-10.2-3.4-13.8-7.1l0,0
		c-4.6-4.6-7.5-10.9-7.5-18c0-7,2.9-13.3,7.5-18h0c3.7-3.7,8.5-6.3,13.8-7.2V64c-3.8-0.8-7.2-2.7-9.9-5.4h0v0
		c-3.6-3.6-5.8-8.5-5.8-14c0-5.4,2.2-10.4,5.8-14l0,0c3.6-3.6,8.6-5.8,14-5.8c5.5,0,10.4,2.2,14,5.8v0h0c3.6,3.6,5.8,8.6,5.8,14
		c0,5.5-2.2,10.4-5.8,14l0,0c-2.7,2.7-6.1,4.6-9.9,5.4V74.6z M134.7,67.5l-0.1-0.1c-1.3-2.1-3.3-3.6-5.5-4.2c-2.3-0.6-4.8-0.4-7,0.9
		h0c-2.2,1.3-3.7,3.3-4.3,5.6c-0.6,2.3-0.3,4.8,0.9,7l0,0.1c1.3,2.2,3.3,3.6,5.6,4.2c2.3,0.6,4.8,0.4,7-0.9l0.1-0.1
		c2.1-1.3,3.6-3.3,4.2-5.5C136.2,72.2,135.9,69.7,134.7,67.5z" />
</svg>