<svg width="200" height="200" version="1.1" viewBox="0 0 200 200" xml:space="preserve"
	xmlns:xlink="http://www.w3.org/1999/xlink" xmlns="http://www.w3.org/2000/svg">
	<style>
		.kiro {
			fill: #ffffff;
		}
	</style>
	<rect width="200" height="200" style="fill: var(--bg, #9046ff); rx: var(--rx, 24px); filter: var(--filter);" />
	<g>
		<path class="kiro" d="M62.1,141.2c-15.5,34.4,17.5,43,41.9,22.9c7.2,22.6,34,5.7,43.7-11.7c21.2-38.5,12.7-77.8,10.5-85.9
		C143,11.2,67.5,11.1,54.6,66.7c-3,9.7-3.1,20.8-4.8,32.3c-0.9,5.8-1.5,9.5-3.7,15.6c-1.3,3.5-3.1,6.6-5.9,11.9
		c-4.3,8.1-2.5,23.9,19.8,15.7v0L62.1,141.2z" />
		<path d="M106.9,90.4c-6.2,0-7.1-7.4-7.1-11.8c0-4,0.7-7.1,2.1-9.2c1.2-1.8,2.9-2.7,5.1-2.7c2.2,0,4,0.9,5.3,2.7
		c1.5,2,2.3,5.2,2.3,9.1C114.5,86,111.7,90.4,106.9,90.4L106.9,90.4z M132.4,90.4c-6.2,0-7.1-7.4-7.1-11.8c0-4,0.7-7.1,2.1-9.2
		c1.2-1.8,2.9-2.7,5.1-2.7c2.2,0,4,0.9,5.3,2.7c1.5,2,2.3,5.2,2.3,9.1C140,86,137.2,90.4,132.4,90.4L132.4,90.4z" />
	</g>
</svg>