<svg width="200" height="200" version="1.1" viewBox="0 0 200 200" xml:space="preserve"
	xmlns:xlink="http://www.w3.org/1999/xlink" xmlns="http://www.w3.org/2000/svg">
	<style>
		.krita--fragment-0 {
			fill-opacity: 0.4745;
		}

		.krita--fragment-1 {
			fill: #FFFFFF;
		}

		.krita--fragment-2 {
			fill: url(#svgFragment1);
		}

		.krita--fragment-3 {
			fill: url(#svgFragment2);
		}

		.krita--fragment-4 {
			fill: url(#svgFragment3);
		}

		.krita--fragment-5 {
			fill: url(#svgFragment4);
		}

		.krita--fragment-6 {
			fill: url(#svgFragment5);
		}

		.krita--fragment-7 {
			fill: #BFBFBF;
		}

		.krita--fragment-8 {
			fill: #282828;
		}
	</style>
	<defs>
		<linearGradient id="svgFragment1" gradientUnits="userSpaceOnUse" x1="1002.8134" y1="-467.6923" x2="1104.7446"
			y2="-467.6923" gradientTransform="matrix(-0.866 -0.5 -0.5 0.866 799.405 1038.2)">
			<stop stop-color="#FFFF00" offset="0" />
			<stop stop-color="#FFFF00" offset="1" stop-opacity="0" />
		</linearGradient>
		<linearGradient id="svgFragment2" gradientUnits="userSpaceOnUse" x1="299.4725" y1="249.7663" x2="401.4037"
			y2="249.7663" gradientTransform="matrix(0.866 -0.5 -0.5 -0.866 -87.405 497.8001)">
			<stop stop-color="#00FFFF" offset="0" />
			<stop stop-color="#00FFFF" offset="1" stop-opacity="0" />
		</linearGradient>
		<linearGradient id="svgFragment3" gradientUnits="userSpaceOnUse" x1="29.8056" y1="-718.074" x2="131.7368"
			y2="-718.074" gradientTransform="matrix(6.123234e-17 1 1 -6.123234e-17 824 0)">
			<stop stop-color="#FF00FF" offset="0" />
			<stop stop-color="#FF00FF" offset="1" stop-opacity="0" />
		</linearGradient>
		<linearGradient id="svgFragment4" gradientUnits="userSpaceOnUse" x1="1140.8486" y1="163.143" x2="1164.3502"
			y2="139.6662" gradientTransform="matrix(3.4845 -0.3594 -0.3594 -3.4845 -3890.6216 1009.7235)">
			<stop stop-color="#343434" offset="0" />
			<stop stop-color="#4D4D4D" offset="1" />
		</linearGradient>
		<linearGradient id="svgFragment5" gradientUnits="userSpaceOnUse" x1="1167.8608" y1="124.7482" x2="1167.4048"
			y2="148.7075" gradientTransform="matrix(3.895690e-02 3.5027 -3.5027 3.895690e-02 527.0958 -3966.9788)">
			<stop stop-color="#5596EA" offset="0" />
			<stop stop-color="#5596EA" offset="1" stop-opacity="0" />
		</linearGradient>
	</defs>
	<rect width="200" height="200" style="fill: var(--bg, #fff); rx: var(--rx, 24px); filter: var(--filter);" />
	<g>
		<circle class="krita--fragment-0" cx="105.9" cy="101.2" r="69.1" />
		<circle class="krita--fragment-1" cx="105.9" cy="97.8" r="68" />
		<circle class="krita--fragment-2" cx="105.9" cy="97.8" r="68" />
		<circle class="krita--fragment-3" cx="105.9" cy="97.8" r="68" />
		<circle class="krita--fragment-4" cx="105.9" cy="97.8" r="68" />
		<path class="krita--fragment-0"
			d="M57.1,50.6C53.2,54.6,49.8,59.2,47,64c9.9,9.7,20.6,20,25,24.7c7.4,8,22.8,19.6,34,18.2
		c4.4,3.1,14.5,10.1,17.8,11.8c-0.1,1.6,0.3,3.2,0.8,4.8c3.1,8.8,14.9,14.5,8.1,23.9c13.5-8.2,17.1-21.8,11.4-31.5
		c-3.6-6.1-8.8-8.1-13.1-6.6c-2.6-2.9-12.9-11.5-16.7-14.6C111.9,84,97.2,72.8,87.9,67.9C82.2,64.9,69.2,57.6,57.1,50.6L57.1,50.6z" />
		<path class="krita--fragment-5" d="M114.4,103.1c-10.9,10.2-31.8-6-40.7-16.1c-9.1-10.4-43.1-45.5-45.5-47.8c-2.5-2.3-4.5-5.1-2.3-7.9
		c2.3-2.7,5.4-1.4,8.2,0.6c2.7,2,44.1,27.9,56.2,34.7C102,73.1,122.1,90.3,114.4,103.1z" />
		<path class="krita--fragment-6" d="M131.9,113.1c-42.5,37.9-77.3,1.6-82.7-11c3.2,21.8,17.9,41.4,40.1,48.9c16.8,5.7,43.6,5.6,55.6-16.1
		L131.9,113.1z" />
		<path class="krita--fragment-7" d="M131.7,116.7c-3.5,1.6-3.1,2.7-6.2,2.2c-2.1-0.3-20.5-14.3-20.5-14.3c-0.9-2.2,0.2-5.3,2.3-7.8
		c2-2.6,4.7-4.3,7.1-3.8c0,0,17.5,15.1,18.2,17.2C133.8,113.1,132.6,112.9,131.7,116.7L131.7,116.7z" />
		<path class="krita--fragment-8" d="M132.7,147.5c13.7-7.8,17.7-21.3,12.3-31.2c-4.2-7.7-11.1-9.1-15.9-5.4c-4.7,3.7-5.2,8.1-3.7,12.4
		C128.2,132.3,139.8,138.4,132.7,147.5z" />
	</g>
</svg>