<svg width="200" height="200" version="1.1" viewBox="0 0 200 200" xml:space="preserve"
	xmlns:xlink="http://www.w3.org/1999/xlink" xmlns="http://www.w3.org/2000/svg">
	<style>
		.laravel {
			fill: #FF2D20;
		}
	</style>
	<rect width="200" height="200" style="fill: var(--bg, #fff); rx: var(--rx, 24px); filter: var(--filter);" />
	<path class="laravel" d="M172.8,58.9c0.1,0.2,0.1,0.4,0.1,0.6v32.2c0,0.8-0.4,1.6-1.2,2l-27,15.6v30.8c0,0.8-0.4,1.6-1.2,2l-56.4,32.5
	c-0.1,0.1-0.3,0.1-0.4,0.2c-0.1,0-0.1,0-0.2,0.1c-0.4,0.1-0.8,0.1-1.2,0c-0.1,0-0.1-0.1-0.2-0.1c-0.1,0-0.3-0.1-0.4-0.2l-56.4-32.5
	c-0.7-0.4-1.2-1.2-1.2-2V43.6c0-0.2,0-0.4,0.1-0.6c0-0.1,0.1-0.1,0.1-0.2c0-0.1,0.1-0.2,0.1-0.4c0-0.1,0.1-0.1,0.2-0.2
	c0.1-0.1,0.1-0.2,0.2-0.3c0.1-0.1,0.2-0.1,0.2-0.2c0.1-0.1,0.2-0.1,0.3-0.2h0l28.2-16.2c0.7-0.4,1.6-0.4,2.3,0l28.2,16.2h0
	c0.1,0.1,0.2,0.1,0.3,0.2c0.1,0.1,0.2,0.1,0.2,0.2c0.1,0.1,0.1,0.2,0.2,0.3c0,0.1,0.1,0.1,0.2,0.2c0.1,0.1,0.1,0.2,0.2,0.4
	c0,0.1,0.1,0.1,0.1,0.2c0.1,0.2,0.1,0.4,0.1,0.6v60.3l23.5-13.5V59.5c0-0.2,0-0.4,0.1-0.6c0-0.1,0.1-0.1,0.1-0.2
	c0-0.1,0.1-0.2,0.2-0.4c0-0.1,0.1-0.1,0.2-0.2c0.1-0.1,0.1-0.2,0.2-0.3c0.1-0.1,0.2-0.1,0.2-0.2c0.1-0.1,0.2-0.1,0.3-0.2h0
	l28.2-16.2c0.7-0.4,1.6-0.4,2.3,0l28.2,16.2c0.1,0.1,0.2,0.1,0.3,0.2c0.1,0.1,0.2,0.1,0.2,0.2c0.1,0.1,0.1,0.2,0.2,0.3
	c0.1,0.1,0.1,0.1,0.2,0.2c0.1,0.1,0.1,0.2,0.2,0.4C172.7,58.8,172.8,58.9,172.8,58.9z M168.2,90.4V63.6l-9.9,5.7l-13.6,7.8v26.8
	L168.2,90.4L168.2,90.4z M140,138.8V112l-13.4,7.7l-38.3,21.9v27C88.2,168.6,140,138.8,140,138.8z M31.8,47.7v91.2l51.7,29.8v-27
	l-27-15.3l0,0l0,0c-0.1-0.1-0.2-0.1-0.3-0.2c-0.1-0.1-0.2-0.1-0.2-0.2l0,0c-0.1-0.1-0.1-0.2-0.2-0.2c-0.1-0.1-0.1-0.1-0.2-0.2l0,0
	c-0.1-0.1-0.1-0.2-0.1-0.3c0-0.1-0.1-0.2-0.1-0.3v0c0-0.1,0-0.2,0-0.3c0-0.1,0-0.2,0-0.3v0v-63l-13.6-7.9L31.8,47.7L31.8,47.7z
	M57.7,30.1L34.2,43.6l23.5,13.5l23.5-13.5L57.7,30.1L57.7,30.1z M69.9,114.5l13.6-7.8v-59l-9.9,5.7L60,61.2v59
	C60,120.2,69.9,114.5,69.9,114.5z M142.3,46l-23.5,13.5l23.5,13.5l23.5-13.5C165.8,59.5,142.3,46,142.3,46z M140,77.1l-13.6-7.8
	l-9.9-5.7v26.8l13.6,7.8l9.9,5.7C140,103.9,140,77.1,140,77.1z M85.9,137.5l34.5-19.7l17.2-9.8l-23.5-13.5l-27,15.6l-24.6,14.2
	C62.4,124.2,85.9,137.5,85.9,137.5z" />
</svg>