<svg width="200" height="200" version="1.1" viewBox="0 0 200 200" xml:space="preserve"
	xmlns:xlink="http://www.w3.org/1999/xlink" xmlns="http://www.w3.org/2000/svg">
	<style>
		.lightroom {
			fill: #31A8FF;
		}
	</style>
	<rect width="200" height="200" style="fill: var(--bg, #001E36); rx: var(--rx, 24);" />
	<path class="lightroom" d="M100.8,163H26.9c-1.3,0-1.9-0.7-1.9-2.1V38.7c-0.1-1,0.7-1.9,1.7-1.7h22.9c0.8-0.1,1.4,0.6,1.3,1.3v100.4h53.8
	c1.1,0,1.6,0.6,1.3,1.7l-3.4,20.8C102.6,162.3,101.8,163,100.8,163z M119.6,67.3H140c1.1,0,2.1,0.8,2.4,1.9
	c1.5,3.4,1.7,7.5,1.7,11.2c3.5-4.2,7.7-7.7,12.5-10.3c5.1-2.9,10.8-4.4,16.7-4.3c1-0.1,1.8,0.7,1.7,1.7v23.3c0,0.9-0.6,1.3-1.9,1.3
	c-8.7-0.6-22.1,1.5-28.4,8.5v60.5c0,1.2-0.5,1.7-1.5,1.7h-21.9c-1.1,0.2-2-0.8-1.9-1.9V95.2c0-8.8,0.2-17.9-1.1-26.6
	C118.1,67.8,118.8,67.1,119.6,67.3z" />
</svg>