<svg width="200" height="200" version="1.1" viewBox="0 0 200 200" xml:space="preserve"
	xmlns:xlink="http://www.w3.org/1999/xlink" xmlns="http://www.w3.org/2000/svg">
	<style>
		.linux-mint {
			fill: #ffff;
		}
	</style>
	<rect width="200" height="200" style="fill: var(--bg, #68C174); rx: var(--rx, 24px);" />
	<path class="linux-mint" d="M25,30.4v96.4c0,23.5,19.3,42.9,42.9,42.9h64.3c23.5,0,42.9-19.3,42.9-42.9V73.2
	c0-17.6-14.5-32.1-32.1-32.1c-8.2,0-15.7,3.3-21.4,8.4c-5.7-5.2-13.2-8.4-21.4-8.4c-17.6,0-32.1,14.5-32.1,32.1v53.6h21.4V73.2
	c0-6,4.7-10.7,10.7-10.7c6,0,10.7,4.7,10.7,10.7v53.6h21.4V73.2c0-6,4.7-10.7,10.7-10.7c6,0,10.7,4.7,10.7,10.7v53.6
	c0,12-9.5,21.4-21.4,21.4H67.9c-12,0-21.4-9.5-21.4-21.4V30.4H25z" />
</svg>