<svg width="200" height="200" version="1.1" viewBox="0 0 200 200" xml:space="preserve"
	xmlns:xlink="http://www.w3.org/1999/xlink" xmlns="http://www.w3.org/2000/svg">
	<style>
		.lua--fragment-0 {
			fill: #808080;
		}

		.lua--fragment-1 {
			fill: #000080;
		}

		.lua--fragment-2 {
			fill: #FFFFFF;
		}
	</style>
	<rect width="200" height="200" style="fill: var(--bg, #fff); rx: var(--rx, 24);" />
	<g>
		<path class="lua--fragment-0"
			d="M102.7,175l-0.1-1.7c2.1-0.1,4.3-0.2,6.4-0.5l0.2,1.7C107,174.7,104.8,174.9,102.7,175z M96.1,174.9
		c-2.1-0.1-4.4-0.3-6.5-0.6l0.2-1.7c2.1,0.3,4.2,0.5,6.4,0.6L96.1,174.9z M115.6,173.4l-0.4-1.7c2.1-0.4,4.2-1,6.2-1.6l0.5,1.6
		C119.9,172.4,117.7,172.9,115.6,173.4z M83.1,173.1c-2.1-0.5-4.2-1.1-6.3-1.7l0.5-1.6c2,0.7,4.1,1.2,6.2,1.7L83.1,173.1z
		M128.1,169.5l-0.6-1.6c1.9-0.8,3.9-1.7,5.8-2.6h0l0.8,1.5l0,0C132.1,167.8,130.1,168.7,128.1,169.5L128.1,169.5z M70.7,169.1
		c-2-0.8-4-1.8-5.9-2.8l0.8-1.5c1.9,1,3.8,1.9,5.8,2.7L70.7,169.1z M139.8,163.6l-0.9-1.5c1.8-1.1,3.6-2.3,5.3-3.6l1,1.4
		C143.4,161.2,141.6,162.4,139.8,163.6L139.8,163.6z M59.2,162.9c-1.8-1.2-3.6-2.5-5.4-3.8l1.1-1.4c1.7,1.3,3.4,2.5,5.2,3.7
		L59.2,162.9z M150.2,155.7l-1.2-1.3c1.6-1.4,3.1-2.9,4.6-4.5l1.3,1.2C153.4,152.7,151.8,154.3,150.2,155.7L150.2,155.7z
		M48.9,154.9c-1.6-1.5-3.1-3-4.6-4.7l1.3-1.2c1.4,1.6,2.9,3.1,4.5,4.6L48.9,154.9z M159.1,146.2l-1.4-1.1c1.3-1.7,2.5-3.4,3.7-5.2
		l1.4,0.9C161.7,142.7,160.4,144.5,159.1,146.2z M40.1,145.2c-1.3-1.7-2.5-3.5-3.7-5.4l1.5-0.9c1.1,1.8,2.3,3.6,3.6,5.3L40.1,145.2z
		M166.2,135.2l-1.5-0.8c1-1.9,1.9-3.8,2.7-5.8l1.6,0.7C168.2,131.3,167.2,133.3,166.2,135.2L166.2,135.2z M33.2,134.1L33.2,134.1
		c-1-2-1.9-4-2.7-6l1.6-0.6c0.8,1.9,1.7,3.9,2.6,5.8l0,0.1L33.2,134.1z M171.3,123.2l-1.6-0.5c0.7-2,1.2-4.1,1.7-6.2l1.7,0.4
		C172.6,119,172,121.1,171.3,123.2z M28.3,122c-0.6-2.1-1.2-4.2-1.6-6.3l1.7-0.4c0.4,2.1,1,4.2,1.6,6.2L28.3,122z M174.3,110.4
		l-1.7-0.2c0.3-2.1,0.5-4.2,0.6-6.4l1.7,0.1C174.8,106.1,174.6,108.3,174.3,110.4z M25.5,109.2c-0.3-2.1-0.4-4.3-0.5-6.5l1.7-0.1
		c0.1,2.1,0.2,4.3,0.5,6.4L25.5,109.2z M173.3,97.4c-0.1-2.1-0.2-4.3-0.5-6.4l1.7-0.2c0.3,2.1,0.4,4.4,0.5,6.5L173.3,97.4z
		M26.8,96.3l-1.7-0.1c0.1-2.2,0.3-4.4,0.6-6.5l1.7,0.2C27.1,92,26.9,94.1,26.8,96.3z M171.7,84.8c-0.4-2.1-1-4.2-1.6-6.2l1.7-0.5
		c0.6,2.1,1.2,4.2,1.6,6.3L171.7,84.8z M28.6,83.6l-1.7-0.4c0.5-2.1,1.1-4.2,1.7-6.3l1.6,0.5C29.6,79.4,29,81.5,28.6,83.6z
		M167.9,72.5c-0.8-2-1.7-3.9-2.7-5.8l1.5-0.8c1,1.9,1.9,3.9,2.7,6L167.9,72.5z M32.5,71.4l-1.6-0.7c0.8-2,1.8-4,2.8-5.9l1.5,0.8
		C34.2,67.5,33.3,69.5,32.5,71.4z M38.5,60.1L37,59.2c1.2-1.8,2.5-3.6,3.8-5.4l1.4,1.1C40.9,56.6,39.6,58.4,38.5,60.1z M46.3,50.1
		L45,48.9c1.5-1.6,3-3.1,4.7-4.6l1.2,1.3C49.3,47,47.7,48.5,46.3,50.1z M55.8,41.5l-1-1.4c1.7-1.3,3.5-2.6,5.4-3.7l0.9,1.5
		C59.2,39,57.5,40.2,55.8,41.5L55.8,41.5z M139.9,38.5L139.9,38.5l0.8-1.5l0.1,0.1L139.9,38.5z M134.3,35.2c-1.9-1-3.8-1.9-5.8-2.7
		l0.7-1.6c2,0.8,4,1.8,5.9,2.8L134.3,35.2z M66.6,34.7l-0.8-1.5l0.1,0c1.9-1,3.9-1.9,5.9-2.7l0.6,1.6C70.5,32.9,68.6,33.8,66.6,34.7
		L66.6,34.7z M122.5,30.3c-2-0.7-4.1-1.2-6.2-1.7l0.4-1.7c2.1,0.5,4.2,1.1,6.3,1.7L122.5,30.3z M78.4,29.9l-0.5-1.6
		c2.1-0.6,4.2-1.2,6.3-1.6l0.4,1.7C82.6,28.8,80.5,29.3,78.4,29.9z M110,27.4c-2.1-0.3-4.2-0.5-6.4-0.6l0.1-1.7
		c2.2,0.1,4.4,0.3,6.5,0.6L110,27.4z M90.9,27.3l-0.2-1.7c2.1-0.3,4.3-0.4,6.5-0.5l0.1,1.7C95.2,26.8,93,27,90.9,27.3L90.9,27.3z" />
		<circle class="lua--fragment-1" cx="100" cy="100" r="57.3" />
		<circle class="lua--fragment-1" cx="157.3" cy="42.6" r="16.8" />
		<path class="lua--fragment-2" d="M123.7,59.4c9.3,0,16.8,7.5,16.8,16.8S133,93,123.7,93s-16.8-7.5-16.8-16.8S114.5,59.4,123.7,59.4z
		M84.4,128.7v-4.2H65.9V91H61v37.6L84.4,128.7 M110.2,128.7v-27.1H106v14.9c0,5.5-2.9,9.1-7.4,9.1c-2.8,0.3-5.3-1.8-5.5-4.6
		c0-0.2,0-0.5,0-0.7v-18.7h-4.3v20.4c0,4.5,3.4,7.4,8.6,7.4c3.7,0.2,7.2-1.8,9-5v4.2L110.2,128.7 M141.7,128.6v-3.3
		c-0.3,0.1-0.6,0.1-0.9,0.1c-1.5,0-2.3-0.8-2.3-2.1v-15c0-4.8-3.5-7.4-10.2-7.4c-6.6,0-10.6,2.5-10.8,8.8h4.3
		c0.4-3.3,2.3-4.8,6.3-4.8c3.9,0,6,1.4,6,4v1.1c0,1.8-1.1,2.6-4.5,3c-3,0.1-5.9,0.7-8.7,1.6c-3,1-4.9,3.9-4.8,7
		c0,4.9,3.4,7.8,8.9,7.8c3.5,0,6.8-1.4,9.2-4c0.5,2.1,2.3,3.5,4.4,3.6C139.8,129,140.7,128.8,141.7,128.6 M134.2,119.3
		c-0.5,4-4.1,6.8-8.1,6.3c-3.4,0-5.3-1.2-5.3-4.1c0-2.8,1.9-4.1,6.5-4.8c2.4-0.1,4.7-0.6,6.9-1.5L134.2,119.3" />
	</g>
</svg>