<svg width="200" height="200" version="1.1" viewBox="0 0 200 200" xml:space="preserve"
	xmlns:xlink="http://www.w3.org/1999/xlink" xmlns="http://www.w3.org/2000/svg">
	<style>
		.lynx {
			fill: #ffffff;
		}
	</style>
	<rect width="200" height="200" style="fill: var(--bg, #191d24); rx: var(--rx, 24px); filter: var(--filter);" />
	<path class="lynx" d="M65.9,58.2L46.3,71.7c-2.1,1.5-3.6,3.7-4.1,6.2l-1.9,9.2c-0.1,0.5-0.3,0.9-0.7,1.3l-8.9,11.7
	c-1.2,1.4-1.2,5.1,2.1,7.5c1.3,1.1,2.9,3.6,4.9,6.3c4.1,5.9,9.1,13.4,13.4,12.6c6.1-2.1,13.5-2.8,19.2,0c11.1,9.6,8.4,18.4,4.5,31.1
	c-1.6,5.1-3.3,10.8-4.5,17.5c5.3-19.4,17.3-41.9,38.9-49.6c-3.9-3.2-11.8-6.1-18.9-6.8c0,0,21.6-18.5,48.3-27
	C120,47.3,89.3,26.1,89.3,26.1c-1.6-1.9-4.7-1.3-5.4,1.1c-0.5,7-1.4,11.8-2.8,16.2L70.3,31c-1.1-1.4-3.4-0.6-3.4,1.2
	C68.8,42.3,68.5,48,65.9,58.2z M73.5,57.3L73.5,57.3c0.2,0,0.3,0,0.5-0.1L73.5,57.3z M88.1,34.4c7.4,12.8,10.8,20.1,11.9,33.6
	c-7.9-4.5-11.3-5.6-17.1-5.6C86.3,52.2,87.3,46,88.1,34.4z M135.7,129.4c-30.1,6.9-47.3,17.3-60.4,45.6
	c23.5-39.4,94.7-32.4,94.7-32.4c-1.3-6.4-15.5-18.7-24.8-26.3c0,0,7.5-9.2,24.1-13.9c0,0-31.9,1.8-50.5,11.9
	C124.9,117.5,132.6,122.9,135.7,129.4z" />
</svg>