<svg width="200" height="200" version="1.1" viewBox="0 0 200 200" xml:space="preserve"
	xmlns:xlink="http://www.w3.org/1999/xlink" xmlns="http://www.w3.org/2000/svg">
	<style>
		.mariadb--outline {
			fill: #002B64;
		}

		.mariadb--skin {
			fill: #C49A6C;
		}
	</style>
	<rect width="200" height="200" style="fill: var(--bg, #fff); rx: var(--rx, 24px);" />
	<g>
		<path class="mariadb--outline" d="M171.7,50.2c-2.3,0.1-1.6,0.8-6.6,2c-5.6,0.6-11.2,1.6-16.7,3.2c-16.2,6.8-19.5,30.1-34.3,38.5
		c-11.1,6.2-22.2,6.7-32.2,9.9c-7.3,2.5-14,6.4-19.8,11.4c-4.6,4-4.8,7.5-9.6,12.5c-5.2,5.4-20.6,0.1-27.6,8.3
		c2.3,2.3,3.2,2.9,7.7,2.3c-0.9,1.7-6.3,3.2-5.3,5.8c1.1,2.7,14.2,4.5,26.1-2.7c5.5-3.3,9.9-8.2,18.6-9.3
		c12.4-0.7,24.8,0.3,36.9,2.8c-2.3,5.1-5.2,9.8-8.9,14.1c-1,1,1.9,1.1,5.2,0.5c5.1-1,10-2.7,14.6-5.2c5.5-3.2,6.3-11.3,13-13.1
		c5.1,6,13.8,7.1,20.2,2.5c-5.5-1.6-7.1-13.3-5.2-18.5c1.8-4.9,3.5-12.8,5.3-19.2c1.9-7,2.6-15.8,4.9-19.3c3-3.9,6.6-7.4,10.7-10.2
		c4.1-3,6.5-7.8,6.3-12.8C174.9,51.4,173.8,50.1,171.7,50.2L171.7,50.2z" />
		<path class="mariadb--skin" d="M29.8,143.5c6.9,1.2,14.1,0.2,20.4-3c5.9-3.6,12-6.9,18.2-9.9c10-3.2,21,0,31.7,0.6c2.6,0.2,5.2,0.2,7.8-0.1
		c4-2.5,3.9-11.6,7.8-12.5c-0.2,10.4-4.1,20.3-10.9,28.1c10.2-1.7,19-8.4,23.3-17.8c1.5-2.8,2.7-5.7,3.8-8.7
		c1.7,1.3,0.7,5.2,1.6,7.3c8-4.5,12.6-14.7,15.6-25c3.5-11.9,5-24,7.2-27.5c2.4-3.1,5.3-5.8,8.7-7.8c3.8-2,6.5-5.7,7.3-9.9
		c-3.8-0.3-4.6-1.2-5.2-3.1c-1.7,0.9-3.6,1.4-5.6,1.4c-1.7,0.1-3.6,0-5.9,0.2c-18.9,1.9-21.3,22.7-33.3,34.5
		c-0.9,0.9-1.8,1.7-2.9,2.4c-4.4,3-9.2,5.5-14.2,7.2c-7.7,3-15.1,3.2-22.4,5.7c-5.3,1.9-10.4,4.4-15.1,7.6c-1.1,0.8-2.1,1.5-3.1,2.3
		c-2.3,2-4.3,4.3-5.9,6.8c-1.7,2.7-3.6,5.2-5.8,7.4c-4,3.9-19,1.1-24.3,4.8c-0.6,0.4-1,0.9-1.4,1.5c2.9,1.3,4.8,0.5,8.1,0.9
		C36,140.2,28.7,142.1,29.8,143.5L29.8,143.5z" />
		<path class="mariadb--outline"
			d="M149.4,63.7c1.9,1.6,4.7,1.4,6.3-0.5c0.9-1,1.2-2.3,1-3.6C152.5,59.2,150.1,60.6,149.4,63.7z M168.1,58.3
		c-1.3,2.2-2.1,4.7-2.1,7.2c0,0.7-0.5,1.1-0.5,0.1c0-2.6,0.7-5.2,2.1-7.4C168,57.3,168.3,57.6,168.1,58.3z M167.3,57.7
		c-1.7,2.3-2.8,5-3.2,7.8c-0.1,0.6-0.6,1.1-0.5,0c0.4-2.9,1.5-5.7,3.2-8C167.4,56.7,167.7,57.1,167.3,57.7z M166.7,57
		c-2.2,2.3-3.8,5.1-4.7,8.2c-0.1,0.6-0.7,1-0.5,0c0.9-3.1,2.5-6,4.7-8.4C166.8,56,167.1,56.4,166.7,57z M166.1,56.1
		c-2.6,2.5-4.6,5.5-6,8.8c-0.2,0.6-0.8,0.9-0.5-0.1c1.4-3.4,3.5-6.4,6.1-9C166.4,55.2,166.6,55.6,166.1,56.1L166.1,56.1z" />
	</g>
</svg>