<svg width="200" height="200" version="1.1" viewBox="0 0 200 200" xml:space="preserve"
	xmlns:xlink="http://www.w3.org/1999/xlink" xmlns="http://www.w3.org/2000/svg">
	<style>
		.markdown {
			fill: #000;
		}
	</style>
	<rect width="200" height="200" style="fill: var(--bg, #fff); rx: var(--rx, 24);" />
	<path class="markdown"
		d="M25,75c0-13.8,11.2-25,25-25h100c13.8,0,25,11.2,25,25v50c0,13.8-11.2,25-25,25H50c-13.8,0-25-11.2-25-25V75z
	M50,62.5c-6.9,0-12.5,5.6-12.5,12.5v50c0,6.9,5.6,12.5,12.5,12.5h100c6.9,0,12.5-5.6,12.5-12.5V75c0-6.9-5.6-12.5-12.5-12.5H50z
	M60.5,75.3c2.6-0.9,5.4,0,7,2.2l13.8,18.3L95,77.5c1.6-2.2,4.4-3,7-2.2c2.6,0.9,4.3,3.2,4.3,5.9v37.5c0,3.5-2.8,6.3-6.3,6.3
	s-6.3-2.8-6.3-6.3V100l-7.5,10c-1.2,1.6-3,2.5-5,2.5s-3.8-0.9-5-2.5l-7.5-10v18.8c0,3.5-2.8,6.3-6.3,6.3c-3.5,0-6.3-2.8-6.3-6.3
	V81.3C56.3,78.6,58,76.2,60.5,75.3z M137.5,81.3c0-3.5-2.8-6.3-6.3-6.3s-6.3,2.8-6.3,6.3v22.4l-1.8-1.8c-2.4-2.4-6.4-2.4-8.8,0
	c-2.4,2.4-2.4,6.4,0,8.8l12.5,12.5c2.4,2.4,6.4,2.4,8.8,0l12.5-12.5c2.4-2.4,2.4-6.4,0-8.8c-2.4-2.4-6.4-2.4-8.8,0l-1.8,1.8V81.3z" />
</svg>