<svg width="200" height="200" version="1.1" viewBox="0 0 200 200" xml:space="preserve"
	xmlns:xlink="http://www.w3.org/1999/xlink" xmlns="http://www.w3.org/2000/svg">
	<style>
		.material-ui {
			fill: #0073E6;
		}
	</style>
	<rect width="200" height="200" style="fill: var(--bg, #fff); rx: var(--rx, 24px); filter: var(--filter);" />
	<path class="material-ui" d="M175,59.6V34.5c0-1.2-1-2.1-2.2-2.1c-0.4,0-0.7,0.1-1.1,0.3l-16.5,9.4c-1.3,0.8-2.2,2.2-2.2,3.7v25.1
	c0,1.6,1.8,2.7,3.2,1.9l16.5-9.4C174.2,62.6,175,61.1,175,59.6L175,59.6z M28.2,32.7L76,60.1c1.3,0.8,3,0.8,4.3,0L128,32.7
	c1-0.6,2.3-0.2,2.9,0.8c0.2,0.3,0.3,0.7,0.3,1.1v75.2c0,1.5-0.8,2.8-2,3.6l-29.1,18.5l19.4,11.4c1.4,0.8,3.1,0.8,4.5-0.1l28.8-18
	c0.6-0.4,1-1.1,1-1.8V97.9c0-1.6,0.9-3,2.3-3.8l15.7-8.4c1-0.6,2.3-0.2,2.9,0.9c0.2,0.3,0.3,0.7,0.3,1v47.1c0,1.5-0.8,2.9-2.1,3.7
	l-49,28.7c-1.4,0.8-3.1,0.8-4.4-0.1l-37.2-23c-0.6-0.4-1-1.1-1-1.8v-22.7c0-0.7,0.4-1.4,1-1.8l25.3-16.8c1.2-0.8,1.9-2.1,1.9-3.6
	V69.8c0-0.5-0.4-0.9-0.9-0.9c-0.2,0-0.3,0-0.4,0.1L80.3,85.8c-1.4,0.8-3,0.8-4.4,0L47.8,69.1c-0.4-0.2-0.9-0.1-1.2,0.3
	c-0.1,0.1-0.1,0.3-0.1,0.4v49.6c0,1.2-1,2.1-2.2,2.1c-0.4,0-0.8-0.1-1.1-0.3l-15.1-9.1c-1.9-1.2-3.1-3.3-3.1-5.5V34.5
	C25,32.9,26.8,31.9,28.2,32.7z" />
</svg>