<svg width="200" height="200" version="1.1" viewBox="0 0 200 200" xml:space="preserve"
	xmlns:xlink="http://www.w3.org/1999/xlink" xmlns="http://www.w3.org/2000/svg">
	<style>
		.mcp {
			fill: #000;
		}
	</style>
	<rect width="200" height="200" style="fill: var(--bg, #fff); rx: var(--rx, 24px); filter: var(--filter);" />
	<path class="mcp" d="M106.4,152.7c-0.7,0.7-0.7,1.8,0,2.5l11,11c2,2,2,5.3,0,7.4c-1,1-2.4,1.5-3.7,1.5c-1.3,0-2.7-0.5-3.7-1.5l-11-11
	c-4.7-4.7-4.7-12.5,0-17.2l53.4-53.4c3-3,4.6-6.9,4.6-11.1c0-4.2-1.6-8.1-4.6-11.1l-0.3-0.3c-6.1-6.1-16-6.1-22.1,0l-44.6,44.6
	c-1,1-2.4,1.5-3.7,1.5s-2.7-0.5-3.7-1.5c-2-2-2-5.3,0-7.4l44.6-44.6c6.1-6.1,6.1-16,0-22.1c-3-3-6.9-4.6-11.1-4.6
	c-4.2,0-8.1,1.6-11.1,4.6l-59,59c-2,2-5.3,2-7.4,0c-2-2-2-5.3,0-7.4l59-59c4.9-4.9,11.5-7.6,18.4-7.6c7,0,13.5,2.7,18.4,7.6
	c4.9,4.9,7.6,11.5,7.6,18.4c0,1.2-0.1,2.5-0.3,3.7c7.8-1.1,16.1,1.3,22.1,7.4l0.3,0.3c4.9,4.9,7.6,11.5,7.6,18.4
	c0,7-2.7,13.5-7.6,18.4L106.4,152.7z M144.7,84.3c2-2,2-5.3,0-7.4c-2-2-5.3-2-7.4,0l-43.6,43.6c-6.1,6.1-16,6.1-22.1,0
	c-3-3-4.6-6.9-4.6-11.1c0-4.2,1.6-8.1,4.6-11.1l43.6-43.6c2-2,2-5.3,0-7.4c-2-2-5.3-2-7.4,0L64.2,91c-4.9,4.9-7.6,11.5-7.6,18.4
	c0,7,2.7,13.5,7.6,18.4c5.1,5.1,11.8,7.6,18.4,7.6c6.7,0,13.4-2.5,18.4-7.6L144.7,84.3z" />
</svg>