<svg width="200" height="200" version="1.1" viewBox="0 0 200 200" xml:space="preserve"
	xmlns:xlink="http://www.w3.org/1999/xlink" xmlns="http://www.w3.org/2000/svg">
	<style>
		.mercurial--fragment-0 {
			fill: #1B1B1B;
		}

		.mercurial--fragment-1 {
			fill: #BFBFBF;
		}

		.mercurial--fragment-2 {
			fill: #FFFFFF;
		}

		.mercurial--fragment-3 {
			fill: #999999;
		}

		.mercurial--fragment-4 {
			fill: #F3F3F3;
		}

		.mercurial--fragment-5 {
			fill: #000000;
		}
	</style>
	<rect width="200" height="200" style="fill: var(--bg, #fff); rx: var(--rx, 24px); filter: var(--filter);" />
	<g>
		<path class="mercurial--fragment-0" d="M164.5,138.4C191.2,94,158.9,21.9,99.7,29.2c-53.5,6.6-54.3,62.9-7.2,76.3c40.8,11.6,8.4,37.5,9.4,54.7
		C102.8,177.4,137.3,183.7,164.5,138.4 M66.7,121c12.8,0,23.2,10.4,23.2,23.2s-10.4,23.2-23.2,23.2s-23.2-10.4-23.2-23.2
		S53.9,121,66.7,121z M40.2,80c8.4,0,15.2,6.8,15.2,15.2s-6.8,15.2-15.2,15.2S25,103.6,25,95.2S31.8,80,40.2,80z" />
		<path class="mercurial--fragment-1" d="M165.5,136.6c26.7-44.4-5.6-116.5-64.8-109.2c-53.5,6.6-54.3,62.9-7.2,76.3c40.8,11.6,8.4,37.5,9.4,54.7
		C103.8,175.6,138.3,181.9,165.5,136.6 M67.7,119.2c12.8,0,23.2,10.4,23.2,23.2c0,12.8-10.4,23.2-23.2,23.2s-23.2-10.4-23.2-23.2
		C44.5,129.6,54.9,119.2,67.7,119.2z M41.2,78.2c8.4,0,15.2,6.8,15.2,15.2s-6.8,15.2-15.2,15.2S26,101.8,26,93.4
		S32.8,78.2,41.2,78.2z" />
		<path fill="st5" d="M109.7,165.2c-1.6-2.6,0.9-5.5,3.4-5.3c4.1,0.4,12.9,0,19.8-4c17.4-9.9,44.2-57.3,30.7-87.2c-6-13.4-9-17.2-15.2-23.8
		c-1.3-1.3-0.5-1.3,0.3-0.8c3.4,1.8,9.3,8.6,15.3,19.7c10.2,18.8,9.7,41.1,5.9,55.1c-2.6,9.7-11.8,31.8-25.1,41.3
		C131.5,169.6,115.8,175.1,109.7,165.2 M97.6,103.6c-9.1-2.7-20.9-6.5-27.7-15.4c-5-6.6-7.6-13.7-8.2-17.8c-0.2-1.4-0.4-2.7,0-3
		c0.2-0.2,3.7,7.9,9,14.6c5.3,6.7,12.7,10.7,18.9,12.1c5.5,1.3,16.9,4.1,20.7,7.3c4,3.4,4.3,10.7,3,11.5
		C112,113.8,109.3,107.1,97.6,103.6 M53.9,159.3c18,16.7,45.2-6.2,33.3-26.5c-1.3-2.3-3.1-4-2.5-2.3c3.8,11.7,0.3,20.9-6.3,25.7
		c-6.5,4.7-15.3,5.4-22.5,1.8C53.8,156.9,52.9,158.4,53.9,159.3 M32.8,104.9c0.1,1.1,1.6,2.5,3.9,3.1c2,0.5,7.1,1.9,13.7-2.2
		c6.6-4.1,7.3-15.2,4.3-18.5c-0.9-1.7-2.1-2.9-1.2-0.2c2.4,6.7-2.3,12.9-6.3,15.8c-4,2.9-9.2,1.5-11.3,0.9
		C33.9,103.1,32.7,103.8,32.8,104.9" />
		<path class="mercurial--fragment-2" d="M116.4,166.5c-0.2,2.1,2.2,2.5,5.4,2c4.1-0.6,7.6-1.1,12.4-3.5c6.4-3.2,13-7.9,17.8-14.1
		c14.3-18.6,19.3-40.6,18.5-43.8c-0.3,2.6-3.7,16.3-11.6,28.7c-10.1,15.9-17.4,24.4-34.4,28.5C119.9,165.5,116.6,163.7,116.4,166.5
		M78.9,94.1c1.9,1.6,5.9,3.8,13.6,6.4c9.4,3.1,13.9,5.7,15.9,7c2,1.4,3.3,4.4,3.4,1.7c0.1-2.7-1.5-5-5.2-6.2
		c-2.5-0.8-6.7-2.8-10.8-3.6c-2.6-0.5-6.8-1.5-10.4-2.6C83.4,96.1,81.4,95,78.9,94.1 M68.1,162.8c2.3-0.5,15.7-3.9,18.8-14.9
		c1-3.4,1.2-2.7,0.9-0.9c-1.4,9.5-10.4,16.5-18,16.7C68.2,163.8,66.2,163.2,68.1,162.8 M41.3,106.4c0.6-0.5,3.6-0.3,6.4-1.8
		c2.7-1.5,6-4.7,6.6-9.3c0.3-2.7,0.4-2,0.6-0.6c-0.4,7.7-7.5,11.9-11.5,12.5C42.3,107.3,40.4,107.2,41.3,106.4" />
		<path class="mercurial--fragment-3" d="M161.8,107.7c11.4-32.8-12.4-82.3-60.6-76.4C57.7,36.7,57,82.6,95.3,93.5c43.5,6.6,17.3,39.4,13.6,55.9
		C105.6,164.2,144,166.6,161.8,107.7 M53,154.6c2.7,0,4.4,0.4,7.1,2.4c5.5,2.3,15.5,0.8,20.1-5.3c4.6-6.1,4.8-14.5,3-19.6
		c-4.3-12.4-22.7-12.2-30.8-1.9C43.5,141.8,50.2,154.6,53,154.6 M28.6,97.1c0.5,1.7,1.9,4.2,4.9,4.6c3.9,0.6,4.7,2.3,9.3,1.4
		c4.6-0.9,8.1-4.7,9.5-8.9c1.6-5.8-0.8-8.8-4.4-11.5c-3.6-2.7-11.6-2.4-16.3,1.9C28.2,87.8,27.3,92.9,28.6,97.1" />
		<path class="mercurial--fragment-4" d="M132,133.4c-11.8-1.5-28.7,25.1-12.7,22c16-3.1-16,3.1,0,0c7.7-1.1,14-3.9,19.7-10.3
		c7.4-8.5,18.5-26.8,21.7-38.6c2.7-10,1.3-25.4-1.4-10.9C156.5,110.4,143.8,134.8,132,133.4 M70.7,155.5c3-0.8,12.3-4.6,10.6-18.1
		c-0.9-6.8-4.6,8.5-11.5,10.8C59.3,151.7,60.4,158.2,70.7,155.5 M44,100.9c3.6-0.9,8.2-5.8,5.9-9.5C47,86.9,39,90.8,38.7,95.8
		C38.5,100.9,40.2,101.9,44,100.9" />
	</g>
</svg>