<svg width="200" height="200" version="1.1" viewBox="0 0 200 200" xml:space="preserve"
	xmlns:xlink="http://www.w3.org/1999/xlink" xmlns="http://www.w3.org/2000/svg">
	<style>
		.meteor {
			fill: #DF4F4F;
		}
	</style>
	<rect width="200" height="200" style="fill: var(--bg, #101926); rx: var(--rx, 24px); filter: var(--filter);" />
	<path class="meteor" d="M25,26.5l128.5,136.1c0,0,4.4,3.1,7.7-0.5c3.3-3.6,0.8-7.2,0.8-7.2L25,26.5L25,26.5z M65.7,39.3l97.8,105.5
	c0,0,4.4,3.1,7.7-0.5s0.8-7.2,0.8-7.2L65.7,39.3L65.7,39.3z M37.1,66.8l97.8,105.5c0,0,4.4,3.1,7.7-0.5c3.3-3.6,0.8-7.2,0.8-7.2
	L37.1,66.8L37.1,66.8z M100.1,50.4l68.3,73.7c0,0,3.1,2.2,5.4-0.4s0.5-5,0.5-5L100.1,50.4L100.1,50.4z M46.5,98.7l68.3,73.7
	c0,0,3.1,2.2,5.4-0.4c2.3-2.5,0.5-5,0.5-5L46.5,98.7L46.5,98.7z M135.2,66.3l31,33.5c0,0,1.5,1,2.7-0.2c1.2-1.2,0.3-2.4,0.3-2.4
	L135.2,66.3L135.2,66.3z M63.6,132.7l31,33.5c0,0,1.5,1,2.7-0.2c1.2-1.2,0.3-2.4,0.3-2.4L63.6,132.7L63.6,132.7z" />
</svg>