<svg width="200" height="200" version="1.1" viewBox="0 0 200 200" xml:space="preserve"
	xmlns:xlink="http://www.w3.org/1999/xlink" xmlns="http://www.w3.org/2000/svg">
	<style>
		.mithril {
			fill: #010002;
		}
	</style>
	<rect width="200" height="200" style="fill: var(--bg, #fff); rx: var(--rx, 24px); filter: var(--filter);" />
	<path class="mithril" d="M150.1,121.8C150,149.5,127.4,172,99.7,172c-27.8,0-50.4-22.6-50.4-50.4c0-0.1,0-0.2,0-0.3
	C34.8,112.5,25,96.6,25,78.4C25,50.6,47.6,28,75.4,28c8.9,0,17.3,2.4,24.6,6.5c7.3-4.1,15.7-6.5,24.6-6.5
	c27.8,0,50.4,22.6,50.4,50.4C175,96.9,165,113,150.1,121.8z M100,45c-9.1,6.8-15.4,17.1-16.6,29c5.1-1.8,10.6-2.8,16.3-2.8
	c6,0,11.7,1.1,17,3C115.5,62.3,109.2,51.8,100,45z M58.6,116.3c5.1,2.3,10.8,3.6,16.8,3.6c5.8,0,11.4-1.2,16.4-3.4
	c-8.3-7.2-14.3-17.1-16.5-28.3C66.3,94.8,60.1,104.8,58.6,116.3z M99.7,80.2c-5.7,0-11.2,1.2-16.2,3.3c1.4,11.5,7.6,21.6,16.5,28.2
	c8.8-6.6,15-16.5,16.5-27.9C111.3,81.4,105.7,80.2,99.7,80.2z M108.2,116.5c5,2.2,10.6,3.4,16.4,3.4c5.7,0,11.2-1.2,16.2-3.3
	c-1.4-11.4-7.4-21.3-16.1-27.9C122.4,99.7,116.5,109.4,108.2,116.5z M99.7,163.1c21.4,0,39.1-16.3,41.3-37.2
	c-5.1,1.8-10.6,2.8-16.3,2.8c-8.9,0-17.3-2.4-24.6-6.5c-7.3,4.1-15.7,6.5-24.6,6.5c-6,0-11.7-1.1-17-3
	C60.5,146.7,78.2,163.1,99.7,163.1z M75.4,36.9c-22.9,0-41.5,18.6-41.5,41.5c0,13.5,6.5,25.4,16.5,33c2.9-14.1,11.8-26.1,23.9-33.2
	c0-15.2,6.8-28.8,17.5-38C86.7,38.1,81.2,36.9,75.4,36.9z M124.6,36.9c-5.8,0-11.4,1.2-16.4,3.4c10.7,9.2,17.5,22.9,17.5,38.1
	c0,0.1,0,0.2,0,0.3c11.9,7.2,20.5,19.1,23.3,33.2c10.3-7.6,17-19.7,17-33.4C166.1,55.5,147.5,36.9,124.6,36.9z" />
</svg>