<svg width="200" height="200" version="1.1" viewBox="0 0 200 200" xml:space="preserve"
	xmlns:xlink="http://www.w3.org/1999/xlink" xmlns="http://www.w3.org/2000/svg">
	<style>
		.mqtt {
			fill: #660066;
		}
	</style>
	<rect width="200" height="200" style="fill: var(--bg, #fff); rx: var(--rx, 24px); filter: var(--filter);" />
	<path class="mqtt" d="M25.4,110.1c-0.1,0-0.3,0-0.4,0v57.4c0,4.1,3.4,7.5,7.5,7.5h59.1C91.1,139.1,61.6,110.1,25.4,110.1z M25.4,62.7
	c-0.1,0-0.3,0-0.4,0v24.4c48.7,0.2,88.3,39.4,88.9,87.8h25.3C138.7,113,87.8,62.7,25.4,62.7z M175,167.5v-51.8
	c-17.2-42-51.7-75.1-94.7-90.6H32.5c-4.1,0-7.5,3.4-7.5,7.5v7.2C100,40,161,100.4,161.4,175h6.1C171.6,175,175,171.6,175,167.5z
	M155.3,46c6.9,6.9,14,15.7,19.7,23.5v-37c0-4.1-3.3-7.5-7.5-7.5h-38.1C138.3,31.2,147.4,38.2,155.3,46z" />
</svg>