<svg width="200" height="200" version="1.1" viewBox="0 0 200 200" xml:space="preserve"
	xmlns:xlink="http://www.w3.org/1999/xlink" xmlns="http://www.w3.org/2000/svg">
	<style>
		.msql--fragment-0 {
			fill: url(#svgFragment1);
		}

		.msql--fragment-1 {
			fill: url(#svgFragment2);
		}

		.msql--fragment-2 {
			fill: url(#svgFragment3);
		}
	</style>
	<defs>
		<radialGradient id="svgFragment3" cx="-988.3585" cy="379.0121" r="180.781"
			gradientTransform="matrix(-0.3347 -5.061694e-02 -0.1011 0.6685 -193.5149 -223.9874)"
			gradientUnits="userSpaceOnUse">
			<stop stop-color="#EE352C" offset="0" />
			<stop stop-color="#A91D22" offset="1" />
		</radialGradient>
		<linearGradient id="svgFragment1" gradientUnits="userSpaceOnUse" x1="-510.9124" y1="775.785" x2="-356.2946"
			y2="867.1463" gradientTransform="matrix(0.3813 0 0 -0.3813 248.8765 455.9901)">
			<stop stop-color="#909CA9" offset="0" />
			<stop stop-color="#EDEDEE" offset="1" />
		</linearGradient>
		<linearGradient id="svgFragment2" gradientUnits="userSpaceOnUse" x1="-510.3883" y1="1093.0775" x2="-385.979"
			y2="1093.0775" gradientTransform="matrix(0.3813 0 0 -0.3813 248.8765 455.9901)">
			<stop stop-color="#939FAB" offset="0" />
			<stop stop-color="#DCDEE1" offset="1" />
		</linearGradient>
	</defs>
	<rect width="200" height="200" style="fill: var(--bg, #fff); rx: var(--rx, 24px); filter: var(--filter);" />
	<g>
		<path class="msql--fragment-0" d="M118,95l-30,9.8l-26.1,11.5l-7.3,1.9c-1.9,1.8-3.9,3.6-5.9,5.4c-2.3,2-4.5,3.8-6.1,5.1c-1.8,1.5-4.6,4.2-6,5.9
		c-2.1,2.6-3.7,5.3-4.4,7.5c-1.3,3.8-0.6,7.7,1.8,11.2c3.1,4.6,9.2,9.2,16.4,12.3c3.7,1.6,9.8,3.7,14.4,4.8
		c7.7,1.9,22.6,4.1,30.8,4.4c1.7,0.1,3.9,0.1,4,0c0.2-0.1,1.5-2.5,2.9-5.6c5-10.3,8.7-19.9,10.6-28.2c1.2-5,2.1-11.6,2.7-19.5
		c0.2-2.2,0.2-9.6,0.1-12.1c-0.2-4.1-0.6-7.4-1.1-10.7c-0.1-0.5-0.1-0.9-0.1-0.9c0.1-0.1,0.4-0.2,4.1-1.2L118,95z M111.1,99.1
		c0.3,0,1,7,1.2,11.4c0,0.9,0,1.5,0,1.5c-0.2,0-3.8-2.2-6.4-3.8c-2.3-1.4-6.6-4.3-7.3-4.8c-0.2-0.2-0.2-0.2,1.7-0.8
		C103.4,101.5,110.9,99.1,111.1,99.1L111.1,99.1z M95.8,104.1c0.2,0,0.7,0.3,2,1.1c4.7,2.9,11,6.5,13.8,7.7c0.8,0.4,0.9,0.2-1,1.5
		c-4.1,2.8-9.3,5.6-15.6,8.4c-1.1,0.5-2,0.9-2.1,0.9c0,0,0.1-0.6,0.3-1.2c1.5-5.7,2.4-11.4,2.4-16C95.6,104.2,95.6,104.1,95.8,104.1
		C95.8,104.1,95.8,104.1,95.8,104.1L95.8,104.1z M92.7,105.3c0.1,0.1,0,5.2-0.1,6.6c-0.4,3.3-1,6.4-2.1,9.9
		c-0.2,0.8-0.5,1.6-0.5,1.6c-0.1,0.1-3.2-2.9-4.2-4.1c-1.8-2-3.2-4.1-4.2-6.1c-0.5-1-1.3-3-1.3-3.1
		C80.6,109.8,92.6,105.2,92.7,105.3 M77.8,111.1C77.9,111.1,77.9,111.1,77.8,111.1c0.1,0.1,0.3,0.4,0.4,0.8c0.7,2,2.4,4.9,3.8,6.8
		c1.5,2,3.6,4.2,5.2,5.7c0.5,0.5,1,0.9,1.1,1c0.1,0.1,0.2,0.1-3.5,1.5c-4.3,1.6-9,3.3-14.3,5c-2,0.7-3.8,1.2-3.8,1.2
		c-0.2,0.1-0.1,0,0.5-1c2.7-4.2,6.7-12.3,9-18.1c0.4-1,0.8-2,0.8-2.2c0.1-0.3,0.2-0.4,0.5-0.6C77.6,111.2,77.7,111.1,77.8,111.1
		L77.8,111.1z M73.3,113c0.1,0.1-1.1,2.5-2.2,4.7c-2.2,4.3-4.6,8.5-7.8,13.7c-0.6,0.9-1.1,1.7-1.1,1.8c-0.1,0.2-0.2,0.1-0.5-0.6
		c-0.8-1.5-1.4-3.5-1.7-5.3c-0.3-1.8-0.3-4.9,0.1-6.8c0.3-1.4,0.3-1.4,1-1.7C63.8,117.3,73.2,112.9,73.3,113L73.3,113z M112.5,114.6
		v1c0,5.1-0.5,12-1.3,17.1c-0.1,0.9-0.3,1.6-0.3,1.6c0,0-0.6-0.2-1.4-0.4c-3.4-1.1-7.1-2.6-10.4-4.5c-2.2-1.2-5.4-3.2-5.3-3.3
		c0,0,1-0.5,2.1-1.1c4.5-2.3,8.7-4.8,12.4-7.3c1.4-0.9,3.5-2.4,3.9-2.8L112.5,114.6z M56.1,121.3c0.1,0,0.1,0.2-0.1,1
		c-0.1,0.6-0.2,1.7-0.3,2.4c-0.2,3.3,0.4,5.8,2,9.1c0.5,0.9,0.8,1.7,0.8,1.7c-0.2,0.1-15.2,4.5-19.9,5.8c-1.4,0.4-2.6,0.7-2.7,0.8
		c-0.2,0-0.2,0-0.1-0.4c0.5-3.3,3.1-7.7,6.6-11.4c2.4-2.4,4.3-3.9,7.5-5.7C52.2,123.4,55.8,121.4,56.1,121.3
		C56.1,121.3,56.1,121.3,56.1,121.3L56.1,121.3z M91.6,127.7c0,0,0.6,0.3,1.2,0.7c4.9,2.8,11.6,5.4,17.4,6.8l0.5,0.1l-0.7,0.4
		c-3,1.7-12.9,5.8-23.1,9.6c-1.5,0.6-2.9,1.1-3.2,1.2c-0.3,0.1-0.5,0.2-0.5,0.2c0,0,0.4-0.8,0.9-1.8c2.8-5.3,5.7-11.8,7.1-16.3
		C91.4,128.1,91.5,127.7,91.6,127.7 M87.9,128.8c0,0-0.2,0.5-0.4,1.1c-2,4.8-4.6,10-7.9,15.9c-0.8,1.5-1.6,2.7-1.6,2.7
		c0,0-0.7-0.4-1.5-0.9c-4.8-2.9-9.1-6.6-11.9-10.1l-0.4-0.5l2.1-0.6c7.4-2,13.7-4.2,19.9-6.9C87.2,129.1,87.9,128.8,87.9,128.8
		M110.4,136.7C110.4,136.7,110.4,136.7,110.4,136.7c0,0.5-1.1,5.2-2.1,8.6c-0.8,2.8-1.5,5.1-2.7,9c-0.5,1.7-1,3.2-1.1,3.1
		c-0.1,0-0.2,0-0.3-0.1c-6.7-1.2-12.8-2.9-18.5-5.2c-1.6-0.6-3.9-1.6-4-1.8c0,0,1.3-0.7,3-1.4c10.3-4.5,21.1-9.6,24.7-11.9
		C110,136.8,110.3,136.7,110.4,136.7 M58.6,138.5c0.1,0.1-2.8,4.2-6.9,9.8c-1.4,2-3.1,4.3-3.7,5.1c-0.7,1-1.4,2-2.1,3l-1,1.5l-1-0.9
		c-1.2-1-3.3-3.1-4.2-4.3c-1.9-2.4-3.3-5-3.8-7.3c-0.2-1.1-0.2-1.6,0-1.7c0.3-0.1,6.4-1.5,12.1-2.8c3.2-0.7,6.8-1.6,8.1-1.9
		C57.5,138.7,58.6,138.4,58.6,138.5 M61.5,139.6l0.7,0.8c3.3,3.6,6.6,6.4,10.7,8.7c0.7,0.4,1.3,0.8,1.2,0.8c-0.2,0.1-14,5-20.5,7.3
		c-3.6,1.3-6.6,2.3-6.6,2.3c0,0-0.2-0.1-0.5-0.3l-0.4-0.3l0.7-0.9c2.1-3.1,4.8-6.5,10.7-13.5L61.5,139.6z M79.6,152.5
		c0,0,1,0.3,2.3,0.8c3,1.1,5.3,1.8,8.4,2.6c3.9,1,9.4,1.9,12.7,2.2c0.5,0,0.8,0.1,0.7,0.2c-0.2,0.1-3.5,1.2-6,2
		c-3.9,1.2-15.8,4.7-25.5,7.5c-1.8,0.5-3.3,1-3.4,1c-0.2,0-1-0.2-1-0.3c0,0,0.5-0.7,1.2-1.5c3.3-3.9,6.5-8.3,9.2-12.4
		C79,153.5,79.6,152.5,79.6,152.5L79.6,152.5z M75.6,152.6c0,0-1.6,2.6-4.4,7.1c-1,1.6-2,3.2-3,4.8c-0.5,0.7-1.1,1.9-1.5,2.5
		l-0.7,1.2l-0.3-0.1c-0.8-0.2-6.6-2.2-8.1-2.9c-1.9-0.7-3.8-1.6-5.3-2.4c-1.8-1-4.1-2.4-3.9-2.5c0.1,0,3.2-0.9,6.9-1.9
		c10-2.7,15.5-4.3,19.1-5.4C75,152.8,75.6,152.6,75.6,152.6 M103.9,159.3C103.9,159.3,103.9,159.3,103.9,159.3
		c0.1,0.2-3.6,10.4-4.9,13.7c-0.3,0.7-0.4,0.9-0.6,0.9c-0.4,0-5.7-0.8-9-1.3c-5.7-0.9-15.1-2.5-17.5-3.1l-0.6-0.1l3.4-0.8
		c7.3-1.6,10.8-2.5,14.3-3.6c4.5-1.4,8.9-3.1,13.4-5.2C103.1,159.5,103.7,159.3,103.9,159.3" />
		<path class="msql--fragment-1"
			d="M87,25c-0.5-0.1-8.6,2.8-13.7,5c-7,2.9-12.5,5.6-15.8,7.9c-1.3,0.9-2.8,2.5-3.1,3.1c-0.1,0.2-0.1,0.5-0.1,0.8
		l3.1,2.9l7.2,2.3L81.8,50l19.7,3.4l0.2-1.7c-0.1,0-0.1,0-0.2,0l-2.6-0.4l-0.5-0.9c-2.7-4.7-5.6-10.6-7.4-14.5
		c-1.3-3.1-2.6-6.6-3.3-9.2C87.3,25.1,87.3,25,87,25 M86.6,26.2C86.7,26.2,86.7,26.2,86.6,26.2c0,0,0.1,0.7,0.2,1.4
		c0.4,3.2,1.1,6.3,2.2,9.6c0.8,2.5,0.8,2.4-0.1,2.1c-2.3-0.6-12.7-2.4-20.2-3.5c-1.2-0.2-2.2-0.3-2.2-0.3c-0.1-0.1,5.4-3,7.9-4.1
		C77.5,29.8,86,26.3,86.6,26.2L86.6,26.2z M64.8,36.3l0.9,0.3c4.8,1.6,16.9,4,23.6,4.5c0.8,0.1,1.4,0.1,1.4,0.1S90,41.6,89.2,42
		c-3.2,1.6-6.8,3.6-9.2,5.1c-0.7,0.5-1.4,0.8-1.5,0.8c-0.1,0-0.6-0.1-1.1-0.2l-0.9-0.1l-2.3-2.2c-4-3.9-7.1-6.9-8.3-8L64.8,36.3z
		M63.9,37l3.2,4c1.8,2.2,3.5,4.4,3.9,4.8c0.4,0.5,0.7,0.9,0.7,0.9c-0.1,0.1-4.6-0.8-7-1.4c-2.5-0.6-3.5-0.8-5-1.3l-1.2-0.4l0-0.3
		c0-1.5,1.9-3.8,5.2-6.1L63.9,37L63.9,37z M91.1,42.5c0.1,0,0.2,0.2,0.5,0.8c0.8,1.7,3.2,6.3,3.8,7.2c0.2,0.3,0.5,0.3-2.7-0.2
		c-7.7-1.2-10.2-1.7-10.2-1.7c0,0,0.2-0.2,0.5-0.3c2.4-1.3,4.8-3,6.9-4.8c0.5-0.4,1-0.8,1.1-0.9C91,42.5,91,42.5,91.1,42.5" />
		<path class="msql--fragment-2" d="M54.5,40.7c0,0-0.5,0.8,0,2c0.3,0.7,1.2,1.6,2.1,2.5c0,0,10.1,9.8,11.3,11.3c5.6,6.5,8,12.8,8.2,21.6
		c0.1,5.6-0.9,10.6-3.6,16.3c-4.7,10.3-14.7,21.7-30.1,34.3l2.3-0.7c1.5-1.1,3.4-2.2,8.1-4.8c10.7-5.9,22.7-11.2,37.5-16.8
		c21.2-8,56.2-17.4,76.1-20.4l2.1-0.3l-0.3-0.5c-1.8-2.8-3.1-4.6-4.6-6.4c-4.4-5.4-9.6-9.8-16.1-13.4c-8.9-5-20.4-8.8-35-11.7
		c-2.8-0.5-8.8-1.6-13.7-2.3c-10.4-1.6-17.1-2.7-24.5-4c-2.7-0.5-6.6-1.1-9.3-1.7c-1.4-0.3-4-0.9-6-1.6C57.4,43.2,55,42.6,54.5,40.7
		M60.4,46.3c0,0,0.4,0.1,0.9,0.3c0.9,0.3,2,0.6,3.3,1c1,0.3,2,0.5,3,0.8c1.4,0.3,2.5,0.6,2.5,0.7c0.2,0.2,2.4,7.5,3.2,10.3
		c0.3,1.1,0.5,2,0.5,2c0,0-0.3-0.4-0.6-0.9c-2.7-4.7-6.9-9.4-11.7-13.2C60.9,46.8,60.4,46.4,60.4,46.3 M71.6,49.4
		c0.1,0,0.6,0.1,1.2,0.2c3.9,0.9,10.8,2.2,15.2,2.9c0.7,0.1,1.3,0.3,1.3,0.3c0,0-0.3,0.2-0.6,0.4C88,53.6,85,55.4,84,56.1
		c-2.5,1.7-4.8,3.5-6.4,5.1c-0.7,0.7-1.2,1.2-1.2,1.2c0,0-0.1-0.4-0.3-0.9c-0.8-3.2-2.5-7.8-4.1-11.1C71.7,49.9,71.5,49.5,71.6,49.4
		C71.5,49.4,71.5,49.4,71.6,49.4L71.6,49.4z M91.2,53.2c0.1,0,0.4,0.8,0.8,2.5c0.8,3.3,1.2,7,1.1,10.4c0,1-0.1,1.8-0.1,2l-0.1,0.2
		l-1.2-0.4C89.3,67.1,85.4,66,82,65c-1.9-0.5-3.5-1-3.5-1.1c0-0.1,2.8-2.9,4-4C84.8,57.9,91,53.1,91.2,53.2L91.2,53.2z M92.8,53.4
		c0.1-0.1,9.4,1.6,13.6,2.4c3.2,0.6,7.7,1.6,8,1.7c0.1,0.1-0.3,0.3-1.9,1c-6,2.7-10.5,5.1-14.9,8.1c-1.2,0.8-2.1,1.4-2.2,1.4
		c0,0,0-0.7,0-1.4c0-4.3-0.9-8.7-2.4-12.3C92.9,53.7,92.8,53.4,92.8,53.4 M116.9,58.2c0.1,0.1-0.2,1.9-0.5,3
		c-0.8,3.4-3,8.4-5.7,13.1c-0.5,0.8-0.9,1.5-1,1.5c0,0-0.7-0.3-1.4-0.7c-2.6-1.5-5.6-3-8.9-4.4c-0.9-0.4-1.7-0.7-1.7-0.8
		c-0.1-0.1,7.1-5,11-7.3C111.8,60.8,116.8,58.1,116.9,58.2L116.9,58.2z M118.6,58.4c0.2,0,4.3,1.1,6.5,1.8
		c5.3,1.6,11.5,3.8,15.5,5.7l1.7,0.8l-1.2,0.3c-9.8,2.2-18.1,4.8-26.2,8.1c-0.7,0.3-1.3,0.5-1.3,0.5c0,0,0.2-0.5,0.5-1.2
		c2.4-5.1,4-10.5,4.4-15.1C118.5,58.8,118.6,58.4,118.6,58.4 M77.5,67.9c0.1-0.1,3.2,0.7,4.9,1.2c2.6,0.7,8.1,2.6,8.1,2.7
		c0,0-0.6,0.6-1.3,1.2c-3,2.5-5.8,5.1-9.3,8.4c-1,1-1.9,1.8-1.9,1.8c0,0-0.1-0.1,0-0.3c0.5-3.8,0.4-8.7-0.3-13.7
		C77.5,68.4,77.5,67.9,77.5,67.9L77.5,67.9z M143.8,67.9c0,0-1.5,2.4-2.4,3.7c-1.4,2-3.4,4.5-7.9,10.2c-2,2.5-4,5-6,7.5
		c-0.9,1.1-1.7,2.1-1.7,2.1c0,0-0.3-0.4-0.6-0.9c-2.6-3.8-5.6-7.2-9.2-10.2c-0.7-0.6-1.4-1.2-1.7-1.4c-0.3-0.2-0.5-0.4-0.5-0.4
		c0-0.1,3.9-1.7,6.8-2.9c5.1-2.1,12.1-4.6,17.4-6.2C140.9,68.7,143.8,67.9,143.8,67.9 M145.6,68.4c0.1,0,0.6,0.2,1.3,0.6
		c5.5,3.2,10.9,7.2,15.2,11.4c1.2,1.2,4.2,4.3,4.1,4.3c0,0-1,0.1-2.3,0.2c-9.6,0.7-21.8,2.8-33.6,5.6c-0.8,0.2-1.5,0.4-1.5,0.4
		c0,0,0.8-0.9,1.9-1.9c6.9-6.6,10.1-10.8,13.8-18.3C145.1,69.4,145.5,68.5,145.6,68.4C145.6,68.4,145.6,68.4,145.6,68.4L145.6,68.4z
		M95,73.6c0.3,0.1,3.3,1.4,5.5,2.6c2,1,5.1,2.7,5.3,2.8c0,0-1.1,0.6-2.4,1.3c-4.3,2.1-7.9,4.2-11.7,6.5c-1.1,0.7-2,1.2-2,1.2
		c-0.1,0-0.1-0.1,0.6-1.2c2-3.7,3.7-8.2,4.6-12.5C94.8,73.8,95,73.6,95,73.6 M92.1,74.1c0.1,0.1-0.7,2.9-1.2,4.4
		c-0.9,2.9-2.5,6.5-4,9.2c-0.4,0.7-0.8,1.4-1.2,2.1l-0.6,0.9l-1.3-1.2c-1.5-1.4-2.7-2.3-4.2-3.1c-0.6-0.3-1.1-0.6-1.1-0.6
		c0-0.2,3.9-3.7,6.9-6.2C87.5,77.7,92,74.1,92.1,74.1L92.1,74.1z M110.1,81.5l1.1,0.7c2.5,1.6,5.5,3.9,7.8,5.8
		c1.3,1.1,3.8,3.3,4.3,3.8l0.3,0.3l-1.8,0.5c-10.4,2.9-18.4,5.5-27.8,8.9c-1,0.4-1.9,0.7-2,0.7c-0.1,0-0.3,0.1,2.1-2
		c6-5.5,11.3-11.6,15.3-17.5L110.1,81.5z M105.4,82.7c0.1,0.1-3.1,4.4-4.9,6.9c-2.2,3-6.2,7.9-8.9,11.1c-1.1,1.3-2.1,2.5-2.2,2.5
		c-0.1,0-0.1-0.3-0.1-0.8c0-2.7-0.7-5.7-1.9-8.2c-0.5-1.1-0.6-1.3-0.5-1.4c0.4-0.4,7-4.2,11.2-6.4C100.9,84.9,105.3,82.7,105.4,82.7
		L105.4,82.7z M76.7,89.8c0.1,0,0.6,0.3,1.2,0.6c1.4,0.8,2.7,1.7,3.9,2.6c0,0-0.6,0.5-1.3,1.1c-2.2,1.6-5.4,4-7.3,5.5
		c-2,1.6-2.1,1.6-1.8,1.3c1.5-2.3,2.3-3.6,3-5.3c0.7-1.5,1.4-3.2,1.9-4.7C76.4,90.3,76.6,89.8,76.7,89.8 M84.3,95.8
		c0.1,0,0.3,0.2,0.9,1.1c1.3,1.9,2.3,4.5,2.5,6.6l0.1,0.5l-3.1,1.2c-5.6,2.2-10.7,4.3-14.2,5.9c-1.3,0.6-2.5,1.2-3.8,1.8
		c-1.1,0.6-2,1-2,1c0,0,0.7-0.6,1.6-1.2c6.8-4.9,12.7-10.3,17.1-15.7C83.8,96.3,84.2,95.8,84.3,95.8C84.3,95.8,84.3,95.8,84.3,95.8
		M80.8,96.6c0.1,0.1-2.5,3-4.3,4.8c-4.4,4.5-8.7,8-14.1,11.4c-0.7,0.4-1.3,0.8-1.4,0.9c-0.1,0.1,0-0.1,2.4-2.7
		c1.5-1.6,2.6-3,3.9-4.6c0.9-1.1,1-1.3,2.3-2.2C73,101.7,80.7,96.5,80.8,96.6L80.8,96.6z" />
	</g>
</svg>