<svg width="200" height="200" version="1.1" viewBox="0 0 200 200" xml:space="preserve"
	xmlns:xlink="http://www.w3.org/1999/xlink" xmlns="http://www.w3.org/2000/svg">
	<style>
		.mysql {
			fill: #5D87A1;
		}
	</style>
	<rect width="200" height="200" style="fill: var(--bg, #fff); rx: var(--rx, 24px);" />
	<path class="mysql" d="M60.8,50.5c-1.4,0-2.8,0.2-4.2,0.5v0.2h0.2c1,1.5,2.1,2.9,3.3,4.2c0.8,1.6,1.5,3.3,2.4,4.9
	c0.1-0.1,0.2-0.2,0.2-0.2c1.6-1.2,2.4-3.2,2.2-5.1c-0.5-0.7-0.9-1.4-1.2-2.2C63,51.9,61.7,51.4,60.8,50.5 M163.1,140.3
	c-6.8-0.5-13.6,0.5-20,2.9c-1.5,0.6-4,0.6-4.2,2.6c0.8,0.8,0.9,2.2,1.7,3.3c1.4,2.4,3.2,4.5,5.4,6.3c2.2,1.6,4.3,3.3,6.6,4.7
	c4,2.5,8.5,3.9,12.5,6.4c2.3,1.4,4.5,3.3,6.8,4.8c1.1,0.8,1.8,2.2,3.3,2.7v-0.3c-0.4-1.1-0.9-2.2-1.6-3.3c-1-1-2.1-2-3.1-3
	c-3-4-6.6-7.5-10.7-10.4c-3.3-2.3-10.5-5.4-11.8-9.1l-0.2-0.2c2.4-0.3,4.8-0.9,7.1-1.7c3.5-0.9,6.7-0.7,10.3-1.6
	c1.7-0.4,4.6-1.4,4.6-1.4v-1.6c-1.8-1.8-3.2-4.3-5.1-6c-5.3-4.6-10.9-8.8-16.8-12.5c-3.2-2-7.2-3.4-10.6-5.1c-1.2-0.6-3.2-0.9-4-1.9
	c-1.7-2.5-3.1-5.1-4.2-7.8c-2.9-5.6-5.8-11.8-8.3-17.7c-1.5-4-3.2-7.8-5.2-11.6C106,62.6,92.4,49.4,76,40.5c-4.1-2-8.5-3.4-13-4.2
	c-2.6-0.1-5.1-0.3-7.6-0.4c-1.6-1.1-3.2-2.3-4.7-3.6c-5.8-3.7-20.8-11.6-25.1-1.1c-2.7,6.6,4.1,13.1,6.4,16.5c2,2.4,3.7,4.9,5.2,7.6
	c0.7,1.7,0.9,3.6,1.6,5.4c1.5,4.7,3.3,9.2,5.3,13.7c1.1,2.2,2.4,4.3,3.8,6.3c0.8,1.1,2.2,1.6,2.6,3.5c-1.1,2.4-1.9,5-2.3,7.6
	c-3.6,11.3-2.5,23.7,3,34.2c1.6,2.5,5.5,8.1,10.7,6c4.6-1.8,3.6-7.6,4.9-12.7c0.3-1.2,0.1-2,0.7-2.9v1c0,0,2.6,5.7,3.9,8.6
	c3.5,5.3,7.9,10,12.9,13.9c2,1.7,3.6,3.9,4.7,6.3v1.8h2.3c-0.1-1.7-0.9-3.2-2.3-4.2c-1.9-1.9-3.6-4-5.2-6.2
	c-4.2-6-7.9-12.3-11.1-18.9c-1.6-3.2-3-6.8-4.3-10c-0.6-1.2-0.6-3.1-1.6-3.8c-1.8,2.2-3.4,4.5-4.8,7.1c-1.6,5.1-2.5,10.4-2.8,15.7
	c-0.4,0.1-0.2,0-0.4,0.2c-3.2-0.8-4.3-4.3-5.5-7.2c-3.1-9-3.4-18.6-0.9-27.8c0.7-2.2,3.7-9,2.5-11.1c-0.6-2-2.6-3.1-3.7-4.7
	c-1.4-2.1-2.6-4.3-3.6-6.7c-2.4-5.8-3.6-12.2-6.1-18.1c-1.4-2.8-3.1-5.5-5-8c-2.1-2.5-3.9-5.2-5.5-8.1c-0.5-1.1-1.2-3-0.4-4.3
	c0.1-0.7,0.7-1.3,1.4-1.4c1.3-1.1,5,0.3,6.2,0.9c3.5,1.4,6.7,3.1,9.8,5.2c1.4,1,4.7,3.7,4.7,3.7h1c3.3,0.7,7,0.2,10.1,1.1
	c5.2,1.7,10.2,4.1,14.8,7.1c13.6,8.7,24.7,20.8,32.1,35.2c1.2,2.4,1.8,4.5,2.9,7c2.2,5.1,4.8,10.2,7,15.1c1.9,4.9,4.4,9.5,7.3,13.8
	c1.5,2.2,7.7,3.3,10.5,4.4c2.4,0.8,4.8,1.8,7.1,2.9c3.5,2.2,7,4.6,10.3,7c1.6,1.2,6.8,3.8,7.1,5.9" />
</svg>