<svg width="200" height="200" version="1.1" viewBox="0 0 200 200" xml:space="preserve"
	xmlns:xlink="http://www.w3.org/1999/xlink" xmlns="http://www.w3.org/2000/svg">
	<style>
		.n8n {
			fill-rule: evenodd;
			fill: #EA4B71;
		}
	</style>
	<rect width="200" height="200" style="fill: var(--bg, #fff); rx: var(--rx, 24px); filter: var(--filter);" />
	<path class="n8n" d="M175,76.9c0,8.5-6.9,15.4-15.4,15.4c-7.2,0-13.2-4.9-14.9-11.5h-21.5c-3.8,0-7,2.7-7.6,6.4L115,91
	c-0.6,3.6-2.4,6.7-5,9c2.6,2.3,4.4,5.4,5,9l0.6,3.8c0.6,3.7,3.8,6.4,7.6,6.4h6.1c1.7-6.6,7.7-11.5,14.9-11.5
	c8.5,0,15.4,6.9,15.4,15.4s-6.9,15.4-15.4,15.4c-7.2,0-13.2-4.9-14.9-11.5h-6.1c-7.5,0-13.9-5.4-15.2-12.9l-0.6-3.8
	c-0.6-3.7-3.8-6.4-7.6-6.4h-6.3c-1.9,6.3-7.8,10.9-14.7,10.9c-6.9,0-12.8-4.6-14.7-10.9h-9c-1.9,6.3-7.8,10.9-14.7,10.9
	c-8.5,0-15.4-6.9-15.4-15.4C25,90.9,31.9,84,40.4,84c7.4,0,13.6,5.2,15.1,12.2h8.4c1.5-7,7.7-12.2,15.1-12.2
	c7.4,0,13.6,5.2,15.1,12.2h5.9c3.8,0,7-2.7,7.6-6.4l0.6-3.8c1.2-7.4,7.7-12.9,15.2-12.9h21.5c1.7-6.6,7.7-11.5,14.9-11.5
	C168.1,61.5,175,68.4,175,76.9z M167.3,76.9c0,4.2-3.4,7.7-7.7,7.7c-4.2,0-7.7-3.4-7.7-7.7c0-4.2,3.4-7.7,7.7-7.7
	C163.9,69.2,167.3,72.7,167.3,76.9z M40.4,107.1c4.2,0,7.7-3.4,7.7-7.7c0-4.2-3.4-7.7-7.7-7.7c-4.2,0-7.7,3.4-7.7,7.7
	C32.7,103.6,36.1,107.1,40.4,107.1z M78.8,107.1c4.2,0,7.7-3.4,7.7-7.7c0-4.2-3.4-7.7-7.7-7.7c-4.2,0-7.7,3.4-7.7,7.7
	C71.2,103.6,74.6,107.1,78.8,107.1z M144.2,130.8c4.2,0,7.7-3.4,7.7-7.7c0-4.2-3.4-7.7-7.7-7.7c-4.2,0-7.7,3.4-7.7,7.7
	C136.5,127.3,140,130.8,144.2,130.8z" />
</svg>