<svg width="200" height="200" version="1.1" viewBox="0 0 200 200" xml:space="preserve"
	xmlns:xlink="http://www.w3.org/1999/xlink" xmlns="http://www.w3.org/2000/svg">
	<style>
		.nestjs {
			fill: url(#gradientSegment0);
		}
	</style>
	<defs>
		<linearGradient id="gradientSegment0" gradientUnits="userSpaceOnUse" x1="-299.6804" y1="299.8047" x2="-299.5217"
			y2="299.8047" gradientTransform="matrix(945.7106 0 0 -942.0034 283435.875 282517.0313)">
			<stop stop-color="#EA2845" offset="0" />
			<stop stop-color="#EA2868" offset="1" />
		</linearGradient>
	</defs>
	<rect width="200" height="200" style="fill: var(--bg, #fff); rx: var(--rx, 24);" />
	<path class="nestjs" d="M113.3,25.3c-1.1,0-2.1,0.2-3,0.5c2,1.3,3.1,3.1,3.6,5c0,0.3,0.1,0.5,0.2,0.7c0,0.2,0.1,0.5,0.1,0.7
	c0.2,3.4-0.9,3.8-1.6,5.8c-1.1,2.6-0.8,5.4,0.5,7.6c0.1,0.3,0.3,0.6,0.5,0.9c-1.5-9.8,6.7-11.3,8.2-14.3c0.1-2.7-2.1-4.5-3.8-5.7
	C116.2,25.6,114.7,25.3,113.3,25.3L113.3,25.3z M125.6,27.5c-0.2,0.9,0,0.7-0.1,1.1c0,0.3,0,0.7-0.1,1c-0.1,0.3-0.2,0.6-0.3,0.9
	c-0.1,0.3-0.2,0.6-0.3,0.9c-0.2,0.3-0.3,0.6-0.4,0.9c-0.1,0.2-0.2,0.3-0.3,0.5l-0.2,0.3c-0.2,0.3-0.4,0.5-0.6,0.8
	c-0.2,0.2-0.4,0.5-0.7,0.7v0c-0.2,0.2-0.5,0.4-0.7,0.6c-0.8,0.6-1.7,1.1-2.6,1.7c-0.3,0.2-0.5,0.3-0.8,0.6c-0.3,0.2-0.5,0.4-0.7,0.6
	c-0.3,0.2-0.5,0.5-0.7,0.7c-0.2,0.2-0.4,0.5-0.6,0.8c-0.2,0.3-0.4,0.5-0.5,0.8c-0.2,0.3-0.3,0.6-0.4,0.9c-0.1,0.3-0.2,0.6-0.3,0.9
	c-0.1,0.3-0.2,0.6-0.3,1c0,0.2,0,0.3-0.1,0.5c0,0.2,0,0.3-0.1,0.5c0,0.3,0,0.7,0,1c0,0.2,0,0.5,0,0.7c0,0.3,0,0.6,0.1,1
	c0,0.3,0.1,0.6,0.2,0.9c0.1,0.3,0.2,0.6,0.3,0.9c0.1,0.2,0.2,0.4,0.3,0.5l-8.9-3.4c-1.5-0.4-3-0.8-4.5-1.2l-2.4-0.6
	c-2.3-0.5-4.7-0.8-7-1c-0.1,0-0.1,0-0.2,0c-2.3-0.2-4.6-0.3-6.9-0.3c-1.7,0-3.4,0.1-5.1,0.2c-2.4,0.2-4.7,0.5-7.1,0.9
	c-0.6,0.1-1.2,0.2-1.7,0.3c-1.2,0.2-2.4,0.5-3.5,0.8l-1.7,0.5c-0.6,0.2-1.1,0.5-1.7,0.7l-1.3,0.6c-0.1,0-0.2,0-0.2,0.1
	c-0.4,0.2-0.7,0.3-1.1,0.5c-0.1,0-0.2,0.1-0.3,0.1c-0.4,0.2-0.9,0.4-1.2,0.6c-0.3,0.1-0.5,0.3-0.8,0.4c-0.1,0.1-0.3,0.2-0.3,0.2
	c-0.3,0.2-0.7,0.4-1,0.6c-0.3,0.2-0.7,0.4-0.9,0.6c-0.3,0.2-0.5,0.3-0.8,0.5c0,0-0.1,0-0.1,0.1c-0.2,0.2-0.5,0.3-0.7,0.5l-0.1,0.1
	l-0.6,0.5c-0.1,0-0.2,0.1-0.2,0.2c-0.2,0.2-0.4,0.3-0.6,0.5c0,0.1-0.1,0.1-0.2,0.2c-0.2,0.2-0.5,0.4-0.7,0.7c0,0,0,0-0.1,0.1
	c-0.2,0.2-0.5,0.4-0.7,0.7c0,0,0,0.1-0.1,0.1c-0.2,0.2-0.4,0.4-0.6,0.6c-0.1,0.1-0.2,0.2-0.3,0.2c-0.2,0.2-0.4,0.5-0.7,0.7
	c0,0.1-0.1,0.1-0.2,0.2c-0.3,0.3-0.6,0.6-0.9,0.9l-0.1,0.1c-0.6,0.7-1.3,1.3-2,1.9c-0.7,0.6-1.4,1.2-2.2,1.7c-0.8,0.5-1.5,1-2.3,1.5
	c-0.8,0.4-1.6,0.8-2.4,1.2c-0.8,0.3-1.7,0.7-2.5,0.9c-1.6,0.3-3.3,1-4.7,1.1c-0.3,0-0.7,0.1-1,0.1c-0.3,0.1-0.7,0.2-1,0.2l-0.9,0.3
	c-0.3,0.1-0.6,0.3-0.9,0.4c-0.3,0.2-0.6,0.3-0.9,0.5c-0.3,0.2-0.5,0.4-0.8,0.7c-0.3,0.2-0.5,0.5-0.8,0.7c-0.2,0.3-0.5,0.5-0.7,0.8
	c-0.2,0.3-0.4,0.6-0.6,0.9c-0.2,0.3-0.4,0.6-0.5,0.9c-0.2,0.3-0.3,0.7-0.4,1c-0.1,0.3-0.2,0.7-0.3,1c-0.1,0.3-0.2,0.6-0.2,0.9
	c0,0,0,0.1,0,0.1c-0.1,0.3-0.1,0.8-0.1,1c0,0.3-0.1,0.5-0.1,0.8c0,0.2,0,0.3,0,0.5c0,0.3,0.1,0.5,0.2,0.7c0.1,0.2,0.2,0.5,0.3,0.7v0
	c0.1,0.2,0.3,0.5,0.4,0.7c0.2,0.2,0.3,0.5,0.5,0.7c0.2,0.2,0.4,0.4,0.7,0.6c0.2,0.2,0.5,0.4,0.7,0.6c0.9,0.8,1.2,1.1,2.4,1.7
	c0.2,0.1,0.4,0.2,0.6,0.3c0,0,0.1,0,0.1,0c0,0.1,0,0.1,0,0.2c0,0.3,0.1,0.6,0.2,0.9c0.1,0.3,0.2,0.6,0.3,0.9
	c0.1,0.2,0.2,0.5,0.3,0.7c0,0.1,0.1,0.2,0.1,0.2c0.2,0.3,0.3,0.6,0.5,0.9l0.6,0.8c0.2,0.2,0.4,0.5,0.7,0.7c0.2,0.2,0.5,0.4,0.7,0.7
	c0,0,0,0,0.1,0c0.2,0.2,0.5,0.4,0.7,0.5c0.3,0.2,0.5,0.3,0.9,0.5c0.3,0.2,0.6,0.3,0.9,0.4c0.2,0.1,0.5,0.2,0.8,0.3
	c0,0,0.1,0,0.2,0.1c0.2,0,0.3,0.1,0.5,0.1c-0.1,2.1-0.2,4.1,0.2,4.8c0.3,0.8,2.1-1.6,3.8-4.3c-0.2,2.7-0.4,5.8,0,6.7
	c0.4,1,2.8-2.1,4.8-5.4c27.5-6.4,52.5,12.6,55.2,39.4c-0.5-4.2-5.7-6.5-8-5.9c-1.2,2.9-3.1,6.5-6.3,8.8c0.3-2.6,0.1-5.2-0.4-7.7
	c-0.9,3.6-2.5,6.9-4.8,9.8c-3.7,0.3-7.4-1.5-9.3-4.2c-0.2-0.1-0.2-0.3-0.3-0.5c-0.1-0.3-0.2-0.5-0.3-0.8c-0.1-0.3-0.2-0.5-0.2-0.8
	c0-0.3,0-0.5,0-0.9v-0.6c0-0.3,0.1-0.5,0.2-0.8c0.1-0.3,0.2-0.5,0.3-0.8c0.2-0.3,0.3-0.5,0.5-0.8c0.7-1.9,0.7-3.4-0.5-4.3
	c-0.2-0.2-0.5-0.3-0.7-0.4c-0.2,0-0.3-0.1-0.5-0.2c-0.1,0-0.2-0.1-0.3-0.1c-0.3-0.1-0.5-0.2-0.8-0.2c-0.3-0.1-0.5-0.1-0.8-0.1
	c-0.3,0-0.6-0.1-0.9-0.1c-0.2,0-0.4,0-0.6,0c-0.3,0-0.6,0-0.9,0.1c-0.3,0-0.5,0.1-0.8,0.2c-0.3,0.1-0.5,0.2-0.8,0.3
	c-0.3,0.1-0.5,0.2-0.8,0.3c-0.2,0.1-0.5,0.3-0.7,0.4c-9,5.9-3.6,19.7,2.5,23.7c-2.3,0.4-4.7,0.9-5.3,1.4l-0.1,0.1
	c1.7,1,3.4,1.9,5.2,2.6c2.5,0.8,5.1,1.5,6.3,1.9v0c3.2,0.7,6.5,0.9,9.8,0.7c17.2-1.2,31.2-14.3,33.8-31.5c0.1,0.3,0.2,0.7,0.2,1
	c0.1,0.7,0.3,1.4,0.3,2.2v0c0.1,0.3,0.1,0.7,0.2,1v0.2c0,0.3,0.1,0.7,0.1,1c0,0.4,0.1,0.9,0.1,1.3v0.6c0,0.2,0,0.4,0,0.6
	c0,0.2,0,0.5,0,0.7v0.5c0,0.3,0,0.5,0,0.8c0,0.2,0,0.3,0,0.5c0,0.3,0,0.5,0,0.9c0,0.1,0,0.2,0,0.3c0,0.3-0.1,0.6-0.1,0.9
	c0,0.1,0,0.2,0,0.3c0,0.4-0.1,0.7-0.2,1.1v0.1c-0.1,0.3-0.2,0.7-0.2,1.1v0.1l-0.2,1c0,0,0,0.1,0,0.2c-0.1,0.3-0.2,0.7-0.3,1v0.1
	c-0.1,0.4-0.2,0.7-0.3,1.1c0,0,0,0.1,0,0.1l-0.3,1.2c-0.2,0.4-0.3,0.7-0.4,1.1c-0.2,0.4-0.3,0.8-0.4,1.1c-0.2,0.4-0.3,0.7-0.5,1.1h0
	c-0.2,0.3-0.3,0.7-0.5,1.1c0,0.1-0.1,0.2-0.1,0.3c0,0,0,0.1-0.1,0.1c-2.5,5.1-6.2,9.5-10.9,13c-0.3,0.2-0.6,0.4-0.9,0.7
	c-0.1,0.1-0.2,0.1-0.3,0.2c-0.3,0.2-0.5,0.4-0.9,0.6l0.1,0.2h0l1.6-0.2h0c1-0.2,2-0.3,3-0.5c0.3,0,0.6-0.1,0.9-0.2
	c0.2,0,0.3-0.1,0.5-0.1c0.3,0,0.5-0.1,0.8-0.2c0.2-0.1,0.5-0.1,0.7-0.2c3.9-0.9,7.6-2.2,11.2-3.7c-6.2,8.4-14.4,15.2-24.1,19.6
	c4.5-0.3,8.9-1,13.2-2.3c15.6-4.6,28.7-15.1,36.6-29.2c-1.6,9-5.2,17.5-10.4,24.9c3.8-2.5,7.2-5.4,10.3-8.6
	c8.7-9.1,14.4-20.6,16.3-32.9c1.3,6.1,1.7,12.4,1.1,18.7c28-39,2.3-79.5-8.4-90.1c0-0.1-0.1-0.1-0.1-0.2c0,0,0,0,0,0.1
	c0,0,0,0,0-0.1c0,0.5,0,0.9-0.1,1.4c-0.1,0.9-0.2,1.7-0.4,2.6c-0.2,0.9-0.4,1.7-0.7,2.6c-0.3,0.8-0.6,1.7-0.9,2.5
	c-0.4,0.8-0.7,1.6-1.2,2.4c-0.4,0.7-0.9,1.5-1.4,2.2c-0.5,0.7-1,1.4-1.6,2.1c-0.6,0.7-1.2,1.3-1.8,1.9c-0.4,0.3-0.7,0.7-1.1,1
	c-0.3,0.3-0.6,0.5-0.9,0.8c-0.7,0.5-1.4,1-2.2,1.5c-0.7,0.5-1.5,0.9-2.3,1.3c-0.8,0.4-1.6,0.7-2.4,1.1c-0.8,0.3-1.7,0.6-2.5,0.8
	c-0.9,0.2-1.7,0.4-2.6,0.6c-0.9,0.2-1.8,0.2-2.6,0.3c-0.6,0-1.2,0.1-1.9,0.1c-0.9,0-1.8-0.1-2.6-0.2c-0.9-0.1-1.8-0.2-2.6-0.4
	c-0.9-0.2-1.7-0.4-2.6-0.7h0c0.9-0.1,1.7-0.2,2.6-0.3c0.9-0.2,1.7-0.3,2.6-0.6c0.9-0.2,1.7-0.5,2.5-0.8c0.9-0.3,1.7-0.7,2.4-1.1
	c0.8-0.4,1.6-0.8,2.3-1.3c0.7-0.5,1.5-1,2.2-1.5c0.7-0.5,1.4-1.1,2-1.7c0.7-0.6,1.2-1.2,1.8-1.9c0.6-0.7,1.1-1.4,1.6-2.1
	c0.1-0.1,0.2-0.3,0.2-0.4c0.4-0.6,0.8-1.2,1.1-1.9c0.4-0.8,0.8-1.6,1.2-2.4c0.3-0.8,0.7-1.6,0.9-2.5c0.3-0.8,0.5-1.7,0.7-2.5
	c0.2-0.9,0.3-1.7,0.4-2.6c0.1-0.9,0.2-1.8,0.2-2.6c0-0.6,0-1.2-0.1-1.9c-0.1-0.9-0.2-1.7-0.3-2.6c-0.2-0.9-0.3-1.7-0.6-2.6
	c-0.3-0.8-0.5-1.7-0.9-2.5c-0.3-0.8-0.7-1.6-1.1-2.4c-0.4-0.8-0.9-1.5-1.3-2.3c-0.5-0.7-1-1.4-1.5-2.1c-0.6-0.7-1.2-1.3-1.8-2
	c-0.3-0.3-0.7-0.7-1-1c-1.7-1.3-3.5-2.6-5.4-3.8c-0.3-0.2-0.5-0.3-0.8-0.4C128,28.3,126.8,27.9,125.6,27.5L125.6,27.5z" />
</svg>