<svg width="200" height="200" version="1.1" viewBox="0 0 200 200" xml:space="preserve"
	xmlns:xlink="http://www.w3.org/1999/xlink" xmlns="http://www.w3.org/2000/svg">
	<style>
		.netlify--fragment-0 {
			fill: #05BDBA;
		}

		.netlify--fragment-1 {
			fill: #014847;
		}
	</style>
	<rect width="200" height="200" style="fill: var(--bg, #fff); rx: var(--rx, 24);" />
	<g>
		<path class="netlify--fragment-0" d="M65.5,144.2h-1.4l-7.1-7.1v-1.4l10.8-10.8h7.5l1,1v7.5L65.5,144.2z M57,64.3v-1.4l7.1-7.1h1.4l10.8,10.8v7.5
		l-1,1h-7.5L57,64.3z M67,106H25.9l-0.9-0.9V94.8l0.9-0.9H67l0.9,0.9v10.3L67,106z M174.1,106H133l-0.9-0.9V94.8L133,94h41.1
		l0.9,0.9v10.3L174.1,106z M94.1,65.7V34.9l0.9-0.9h10.3l0.9,0.9v30.9l-0.9,0.9H94.9L94.1,65.7z M94.1,165.1v-30.9l0.9-0.9h10.3
		l0.9,0.9v30.9l-0.9,0.9H94.9L94.1,165.1z" />
		<path class="netlify--fragment-1" d="M119.3,121.4H109l-0.9-0.9V96.5c0-4.3-1.7-7.6-6.8-7.7c-2.7-0.1-5.7,0-8.9,0.1l-0.5,0.5v31.2l-0.9,0.9H80.7
		l-0.9-0.9V79.4l0.9-0.9h23.1c9,0,16.3,7.3,16.3,16.3v25.7L119.3,121.4z" />
	</g>
</svg>