<svg width="200" height="200" version="1.1" viewBox="0 0 200 200" xml:space="preserve"
	xmlns:xlink="http://www.w3.org/1999/xlink" xmlns="http://www.w3.org/2000/svg">
	<style>
		.nim--fragment-0 {
			fill: #F3D400;
		}

		.nim--fragment-1 {
			fill: #FFE953;
		}
	</style>
	<rect width="200" height="200" style="fill: var(--bg, #171921); rx: var(--rx, 24px); filter: var(--filter);" />
	<g>
		<path class="nim--fragment-0" d="M100.6,48.6c0,0-5.7,4.5-11.6,9.1c-8.2-0.1-16.4,1.1-24.3,3.5c-5.9-3.8-11.1-7.9-11.1-7.9s-4.4,7.6-7.2,12.1
		c-4.3,2.2-8.3,4.8-12,7.9c-4.3-1.7-9.3-3.8-9.5-3.8c5.7,11.5,9.5,23,19.9,29.9c16.6-26.2,93.6-23.8,110.6-0.2
		c10.9-5.7,15.2-18,19.5-29.3c-0.5,0.2-6.3,2.1-10.1,3.6c-3.2-3.1-6.8-5.8-10.6-8.1c-2.9-5.3-7.1-12.4-7.1-12.4s-5,3.7-10.7,7.7
		c-8.2-1.8-16.6-2.8-25.1-2.7C106,53.5,100.6,48.6,100.6,48.6L100.6,48.6z" />
		<path class="nim--fragment-1" d="M30.9,93.9L44.6,127c23.8,31.3,84.4,33.5,110.9,0.6c6.3-14.1,14.7-33.9,14.7-33.9c-6.5,8.7-15,15.8-24.6,20.7
		c-5.1,2.1-10.5,3.5-16,4.2l-29.3-15.2l-29.5,14.9c-5.4-0.8-10.8-2.2-16-4.1C45.5,109.2,37.4,102.3,30.9,93.9z" />
	</g>
</svg>