<svg width="200" height="200" version="1.1" viewBox="0 0 200 200" xml:space="preserve"
	xmlns:xlink="http://www.w3.org/1999/xlink" xmlns="http://www.w3.org/2000/svg">
	<style>
		.nix--fragment-0 {
			fill: #7EBAE4;
		}

		.nix--fragment-1 {
			fill: #5277C3;
		}
	</style>
	<rect width="200" height="200" style="fill: var(--bg, #fff); rx: var(--rx, 24px);" />
	<g>
		<path class="nix--fragment-0" d="M83.9,73.8l-36.5,67.7l-8.5-15.5l9.9-18.1l-19.6-0.1l-4.2-7.7l4.3-7.9l27.9,0.1l10-18.5L83.9,73.8z M86.8,128
		h73.1l-8.3,15.7l-19.6-0.1l9.7,18.2l-4.2,7.8H129l-13.8-25.8l-19.9,0L86.8,128z M129.3,98.3L92.8,30.6l16.8-0.2l9.7,18.2l9.8-18.1
		h8.3l4.3,7.9l-14,25.8l9.9,18.5L129.3,98.3z" />
		<path class="nix--fragment-1" d="M70.8,101.7l36.5,67.7l-16.8,0.2l-9.8-18.2l-9.8,18.1h-8.3l-4.3-7.9l14-25.7l-9.9-18.5L70.8,101.7z
		M113.2,71.9H40.1l8.3-15.7L68,56.3l-9.7-18.2l4.2-7.8H71l13.8,25.8l19.9,0L113.2,71.9z M116.1,126.2l36.5-67.7l8.5,15.5l-9.9,18.1
		l19.6,0.1l4.2,7.8l-4.3,7.9l-27.9-0.1l-10,18.5L116.1,126.2z" />
	</g>
</svg>