<svg width="200" height="200" version="1.1" viewBox="0 0 200 200" xml:space="preserve"
	xmlns:xlink="http://www.w3.org/1999/xlink" xmlns="http://www.w3.org/2000/svg">
	<style>
		.nodejs {
			fill: #8CC84B;
		}
	</style>
	<rect width="200" height="200" style="fill: var(--bg, #fff); rx: var(--rx, 24px);" />
	<path class="nodejs" d="M106.8,21c-4.1-2.3-9.4-2.3-13.5,0c-20.5,11.3-41.1,22.7-61.6,34c-4,2.1-6.7,6.4-6.6,10.8v68.4
	c0,4.5,2.8,8.9,6.9,10.9c5.9,3.1,11.6,6.6,17.6,9.5c6.9,3.4,15.6,4.2,22.6,0.6c5.7-2.9,8.2-9.5,8.2-15.5c0-22.6,0-45.2,0-67.8
	c0.1-1-0.6-2.1-1.7-2.1c-2.6,0-5.3,0-7.9,0c-1-0.1-2,0.7-1.9,1.7c0,22.4,0,44.9,0,67.3c0.1,3.1-2,6.1-5,7.1
	c-6.9,2.4-26.6-10.4-26.6-10.4c-0.7-0.3-1.2-1.1-1.1-1.9c0-22.6,0-45.2,0-67.7c-0.1-0.9,0.5-1.7,1.3-2.1
	c20.5-11.3,40.9-22.6,61.4-33.8c0.7-0.5,1.7-0.5,2.4,0c20.5,11.3,40.9,22.5,61.4,33.8c0.8,0.4,1.4,1.2,1.3,2.1c0,22.6,0,45.2,0,67.7
	c0.1,0.8-0.4,1.6-1.1,1.9c-20.3,11.2-40.8,22-60.9,33.6c-0.9,0.5-1.9,1.1-2.9,0.5c-5.3-2.9-10.5-6-15.8-8.9
	c-0.6-0.4-1.3-0.5-1.9-0.1c-2.4,1.2-4.6,2.3-7.3,3.3c-3.8,1.5-3.2,2.1,0.2,4.1c6.2,3.5,12.3,7,18.5,10.4c4.1,2.5,9.5,2.7,13.7,0.4
	c20.5-11.3,41.1-22.6,61.6-34c4.1-2.1,6.9-6.4,6.9-10.9V65.8c0-4.4-2.6-8.6-6.4-10.7C148,43.7,127.4,32.3,106.8,21z M137.7,72.3
	c-8.1-4.3-17.6-4.5-26.6-4c-6.5,0.6-13.3,2.4-18,7.1c-4.8,4.7-5.9,12.2-3.6,18.3c1.6,4.3,5.8,7.1,10.1,8.6
	c5.5,1.9,11.3,2.6,17.1,3.2c5.3,0.5,10.6,1.1,15.7,2.7c2.1,0.7,4.5,1.7,5.1,4c0.6,2.7-0.1,5.8-2.2,7.6c-6.9,5.5-26.1,4.6-32.9,0.3
	c-2.8-1.8-3.9-5.1-4.4-8.2c-0.1-1-0.8-1.8-1.9-1.8c-2.6,0-5.2,0-7.8,0c-0.9-0.1-1.9,0.6-1.9,1.5c-0.5,14.1,12.5,20.3,24.6,21.7
	c7,0.7,14.1,0.6,20.9-0.9c5.2-1.2,10.3-3.3,13.9-7.3c4.4-4.8,5.2-12,3.3-18c-1.5-4.5-5.8-7.4-10.2-8.8c-6-2-13-3.1-18.4-3.7
	c-7.8-0.7-17.2-0.4-19.4-5.6c-0.9-2.7-0.1-6.1,2.3-7.7c6.6-4.5,19.9-3.9,26.7-0.5c3.1,1.6,4.9,4.8,5.7,8c0.1,1,0.8,1.9,1.9,1.9
	c2.6,0.1,5.2,0,7.8,0c0.9,0.1,1.9-0.4,2-1.4C147.4,82.6,144,75.6,137.7,72.3z" />
</svg>