<svg width="200" height="200" version="1.1" viewBox="0 0 200 200" xml:space="preserve"
	xmlns:xlink="http://www.w3.org/1999/xlink" xmlns="http://www.w3.org/2000/svg">
	<style>
		.nuxt--fragment-0 {
			fill: #01C58E;
		}

		.nuxt--fragment-1 {
			fill: #108775;
		}

		.nuxt--fragment-2 {
			fill: #2F495E;
		}
	</style>
	<rect width="200" height="200" style="fill: var(--bg, #fff); rx: var(--rx, 24px); filter: var(--filter);" />
	<g>
		<path class="nuxt--fragment-0" d="M70.6,151.9c-0.1-0.2-0.2-0.4-0.3-0.6c-0.6-1.4-0.8-2.9-0.5-4.4H34.4l52.7-92.7l17.3,30.4l5-8.9L94.3,49.2
		c-0.4-0.8-3-4.9-7.4-4.9c-2,0-4.8,0.9-7.1,4.9l-53.4,93.8c-0.5,0.8-2.7,5.1-0.5,8.9c1,1.7,3.1,3.8,7.8,3.8h44.7
		C73.8,155.7,71.6,153.7,70.6,151.9z" />
		<path class="nuxt--fragment-1" d="M173.4,143.1l-43.9-77.3c-0.5-0.8-3-4.9-7.4-4.9c-2,0-4.8,0.8-7.1,4.9l-5.7,9.9l5,8.9l7.8-13.8l43.4,76.1
		h-16.5c0.2,1.3,0.1,2.6-0.3,3.7c-0.1,0.3-0.2,0.5-0.3,0.8l-0.1,0.3c-2.2,3.8-7,4-8,4h25.8c1,0,5.7-0.2,8-4
		C175.1,150,175.8,147.1,173.4,143.1z" />
		<path class="nuxt--fragment-2" d="M148.3,151.7l0.1-0.3c0.1-0.2,0.3-0.5,0.3-0.8c0.4-1.2,0.6-2.5,0.3-3.7c-0.2-1.4-0.7-2.7-1.4-3.8l-33.2-58.5
		l-5.1-8.9l-5,8.9l-33.2,58.5c-0.6,1.2-1.1,2.5-1.3,3.8c-0.3,1.5-0.1,3,0.5,4.4c0.1,0.2,0.2,0.4,0.3,0.6c1,1.7,3.1,3.8,7.8,3.8h61.9
		C141.3,155.7,146.1,155.5,148.3,151.7L148.3,151.7z M109.4,93.5l30.4,53.4H79L109.4,93.5z" />
	</g>
</svg>