<svg width="200" height="200" version="1.1" viewBox="0 0 200 200" xml:space="preserve"
	xmlns:xlink="http://www.w3.org/1999/xlink" xmlns="http://www.w3.org/2000/svg">
	<style>
		.nx {
			fill: #000;
		}
	</style>
	<rect width="200" height="200" style="fill: var(--bg, #fff); rx: var(--rx, 24px); filter: var(--filter);" />
	<path d="M99.9,113.4l-19.6,30.8L47.9,91.5l-0.1,55.1H25V53.4h23.1l32.8,55.2l0-25C80.9,83.6,99.9,113.4,99.9,113.4z M103.7,77.4
	c0.2-0.3,0-23.6,0.1-24H80.9c0,0.4,0,23.6,0,24C80.9,77.4,103.7,77.4,103.7,77.4z M138.9,103.2c-5.5-0.1-10.4,3.2-12.3,8.3
	c3.2-4.8,9.3-6.7,14.6-4.6c2.5,1,5.7,2.6,8.3,1.8C147.1,105.3,143.1,103.2,138.9,103.2z M160.1,109.8c-2.3-0.8-5-1.7-6.9-4.3
	c-0.4-0.5-0.7-1.1-1.1-1.7c-0.8-1.5-2-2.9-3.3-4c-1.8-1.3-4.2-2-7.4-2c-6.3,0-11.9,3.8-14.3,9.6c4.7-6.5,13.8-8,20.3-3.3
	c2.1,1.5,3.7,3.5,4.7,5.7c1.1,1.8,3.2,2.6,5.2,2.1c3.1-0.7,2.9,2.2,7.5,3.2v-0.8C164.7,111.6,163.2,111,160.1,109.8L160.1,109.8z
	M172.7,117.7c1.4-0.8,2.2-2.4,2.2-4c-0.1-18.5-15.1-34.3-33.6-34.3c-11.3,0-21.8,5.7-28,15.1c-0.1-0.2-9.5-14.9-9.6-15.1H80.9
	l21.6,33.9l-21.1,33.2h22.1l9.6-14.8l9.8,14.8h22.1L125,115c-0.3-0.6-0.5-1.3-0.5-2c0-9.3,7.5-16.8,16.8-16.8c0,0,0,0,0,0h0
	c9.3,0,10.8,5.6,12.9,8.2c4,5.2,11.9,2.9,11.9,9.6c0,2.4,2.1,4.4,4.5,4.3C171.3,118.3,172.1,118.1,172.7,117.7z M174.9,118.6
	c-1.1,2.3-3.5,2.1-4.7,4c-1.1,1.7,0.7,2.6,0.7,2.6s2.1,1,3.4-1.9C174.9,121.7,175.1,120.1,174.9,118.6z" />
</svg>