<svg width="200" height="200" version="1.1" viewBox="0 0 200 200" xml:space="preserve"
	xmlns:xlink="http://www.w3.org/1999/xlink" xmlns="http://www.w3.org/2000/svg">
	<style>
		.ocaml {
			fill: #FFFFFF;
		}
	</style>
	<defs>
		<linearGradient id="svgFragment0" gradientUnits="userSpaceOnUse" x1="100" y1="0" x2="100" y2="200">
			<stop stop-color="#F29104" offset="0" />
			<stop stop-color="#EC6813" offset="1" />
		</linearGradient>
	</defs>
	<rect width="200" height="200" style="fill: var(--bg, url(#svgFragment0)); rx: var(--rx, 24px);" />
	<path class="ocaml" d="M104.4,183.1c0-1.7,0-3.4-0.3-5.1c-0.4-1.4-1.4-1.6-2.1-2.7c-2.1-3.2-3.4-6.8-3.8-10.6
	c-0.1-3.2-1.4-6.3-1.6-9.6c-0.1-1.6,0.1-3.2,0-4.8c0-0.8-0.1-1.5-0.3-2.3c0-0.5-0.1-1-0.3-1.4l0.4-1c1.5-0.3,3.1-0.4,4.7-0.3
	c1.8,0,3.7,0.1,5.5,0.1c3.7,0.2,7.4,0.1,11-0.4c5.1-0.6,10-2.7,14-6.1c4.9-3.8,8.6-8.7,11-14.4c1.3-2.8,1.3-7.8,3.9-10
	c3.1-2.7,8.5-2.4,12.1-4.1c1.7-1,3.8-1.4,5.8-1c1.6,0.3,4.5,2.3,5.2-0.4c-0.6-0.3-0.7-1-1-1.3c3-0.3,0-7.2-1.1-8.6
	c-2.3-2.1-5.1-3.4-8.1-3.9c-3.5-1.3-7.3-1.9-11-1.6c-6.3,1.3-5.9-2.4-9.6-2.4c-4.5,0-12.4,0.3-13.8,4.5c-0.5,1.4-1.4,2.6-2.4,3.7
	c-1,1.3,0.1,2.5-0.3,4.1c-0.6,1.6-1.3,7.1-2,9c-1.3,3.2-2.8,7.3-5.6,7.3c-3.4,0.6-7,0.4-10.3-0.6c-2-0.7-5.2-1.8-6.8-2.4
	c-7.3-3.1-8.6-6.5-8.6-6.5c-1.6-1.8-2.8-3.9-3.7-6.2c-0.8-3-2.3-5.5-2.8-7.2c-0.6-1.7-2.1-4.2-3.2-7.1c-1.1-2.9-2.8-5.5-5.1-7.6
	c-2.3-2-4.4-5.2-9-4.2c-2.2,0.1-4.4,0.9-6.2,2.3c-1.6,1.3-2.1,4.1-3.5,6.3c-0.8,1.3-2.3,5.1-3.7,8.3c-0.5,1.7-1.3,3.3-2.4,4.7
	c-0.8,0.6-1.8,1.4-3,1c-0.8-0.3-1.6-0.8-2.3-1.4c-2-2.5-3.7-5.2-5.1-8c-1.7-3.1-3.6-6.1-5.6-8.9c-1.3-2.6-4.1-4.2-7.1-3.9
	c-7.3,0-7.9,4.1-11.1,10.2c-1.1,3.6-2.7,6.9-4.8,10c-1.7,1.8-6.8,9.6-10.4,10.9h0v54.6c0.3-0.7,0.4-1.4,0.7-2c1.4-3,4.7-5.8,6.5-8.7
	c1.1-1.6,2-3.3,2.7-5.1c0.4-1.7,1-3.4,1.7-5.1c0.9-1.4,2.4-2.2,4.1-2.4c2.5-0.4,4.7,3.5,7.8,5.1c1.4,0.6,7.6,2.8,9.5,3.2
	c3.1,0.7,6.5,1.4,9.6,2c1.7,0.3,3.2,0.6,5.1,0.7c2.6,0,5.2,0.3,7.8,0.7c-2.8,2.2-4.9,5.3-5.8,8.7c-1.1,3.1-2,6.6-3.4,9.6
	c-1.6,3.4-4.8,4.8-4.4,8.7c0.3,1.6,0.3,3.3,0.1,4.9c-0.4,1.7-0.9,3.3-1.6,4.9c-0.7,2.3-1.6,9.7-2.5,12l6.5-0.8l0,0
	c0.7-3.1,1.2-6.3,1.5-9.5c1.1-3.4,2.9-6.5,5.2-9.2c2.4-2.7,2.3-6.1,3.7-9.3c1.6-3.2,3.5-6.3,5.5-9.3c3.5-5.8,5.8-13,13.3-14.5
	c2.7,1.2,5.2,2.9,7.3,5.1c2.5,2.3,4.7,4.9,6.3,7.9c2.8,6.1,4.9,12.6,6.3,19.2c0.3,2,1.3,3.8,2.8,5.1c1.2,1.7,2.2,3.4,3.1,5.2
	c0.6,1.3,1.4,4.1,2.1,5.6c0.9,1.9,1.6,3.9,2.3,5.9l6.1-0.1h0.1v-0.1C107.3,196.5,105.3,189.9,104.4,183.1z" />
</svg>