<svg width="200" height="200" version="1.1" viewBox="0 0 200 200" xml:space="preserve"
	xmlns:xlink="http://www.w3.org/1999/xlink" xmlns="http://www.w3.org/2000/svg">
	<style>
		.october {
			fill: #DB6A26;
		}
	</style>
	<rect width="200" height="200" style="fill: var(--bg, #fff); rx: var(--rx, 24px);" />
	<path class="october" d="M156.7,96.8c-2.4-38.3-44.7-71.4-62-71.8c-17.6-0.3-50.1,40.3-51.5,81.6c-1.4,38.6,32.2,65,46.7,68.4
	c0.3-18.3,2-85.3,2-93.1c0.7-15.9,1.4-41,4.1-41.6c1.7-0.3,3.7,13.5,3.4,21.7c0,1.7,0,6.8,0,13.9c3-3,6.1-6.1,7.8-7.8
	c5.1-5.1,7.4-4.4,4.7,0c-1.4,2.7-7.8,11.9-12.5,18.3c0,13.2,0,29.8,0,45c6.8-7.8,14.9-16.9,19.3-21c9.1-8.8,10.2-7.4,5.8,1.4
	c-2.7,5.4-15.6,20.3-24.7,32.2c0,13.5,0,25.1,0,30.5C124.8,169.2,159,134.7,156.7,96.8" />
</svg>