<svg width="200" height="200" version="1.1" viewBox="0 0 200 200" xml:space="preserve"
	xmlns:xlink="http://www.w3.org/1999/xlink" xmlns="http://www.w3.org/2000/svg">
	<style>
		.open-ai {
			fill: #fff;
		}
	</style>
	<rect width="200" height="200" style="fill: var(--bg, #74aa9c); rx: var(--rx, 24);" />
	<path class="open-ai" d="M164.3,86.4c3.4-10.2,2.2-21.4-3.2-30.7c-8.2-14.2-24.6-21.6-40.7-18.1c-14-15.6-38-16.8-53.5-2.8
	c-4.9,4.4-8.6,10.1-10.7,16.4c-10.5,2.2-19.7,8.8-25,18.1c-8.3,14.2-6.4,32.2,4.6,44.4c-3.4,10.2-2.2,21.4,3.2,30.7
	c8.2,14.2,24.6,21.6,40.7,18.1c7.1,8,17.4,12.6,28.2,12.6c16.5,0,31-10.6,36.1-26.3c10.5-2.2,19.7-8.8,25-18.1
	C177.1,116.4,175.2,98.6,164.3,86.4L164.3,86.4z M107.9,165.2c-6.6,0-12.9-2.3-18-6.5l0.9-0.5l29.9-17.2c1.5-0.9,2.4-2.5,2.5-4.3
	V94.6l12.6,7.3c0.1,0.1,0.2,0.2,0.2,0.3v34.9C135.9,152.6,123.4,165.2,107.9,165.2z M47.5,139.4c-3.3-5.7-4.5-12.4-3.3-18.8l0.9,0.5
	l29.9,17.2c1.5,0.9,3.4,0.9,4.9,0l36.5-21.1v14.6c0,0.2-0.1,0.3-0.2,0.4l-30.2,17.4C72.4,157.4,55.3,152.8,47.5,139.4L47.5,139.4z
	M39.6,74.3c3.3-5.7,8.6-10.1,14.8-12.3v35.5c0,1.7,0.9,3.4,2.4,4.2l36.3,21L80.6,130c-0.1,0.1-0.3,0.1-0.4,0l-30.2-17.4
	c-13.4-7.8-18-24.9-10.3-38.4V74.3z M143.4,98.4l-36.5-21.2l12.6-7.3c0.1-0.1,0.3-0.1,0.4,0l30.2,17.4c13.4,7.8,18,24.9,10.3,38.4
	c-3.3,5.7-8.4,10-14.5,12.3v-35.5C145.8,100.9,144.9,99.3,143.4,98.4L143.4,98.4z M155.9,79.6L155,79l-29.8-17.4
	c-1.5-0.9-3.4-0.9-4.9,0L83.8,82.7V68.1c0-0.2,0.1-0.3,0.2-0.4l30.2-17.4c13.5-7.8,30.7-3.1,38.4,10.3c3.3,5.7,4.5,12.3,3.3,18.8
	L155.9,79.6z M76.9,105.4l-12.6-7.3c-0.1-0.1-0.2-0.2-0.2-0.4V63c0-15.5,12.6-28.1,28.2-28.1c6.6,0,12.9,2.3,17.9,6.5l-0.9,0.5
	L79.4,59.1c-1.5,0.9-2.4,2.5-2.5,4.3L76.9,105.4z M83.8,90.6l16.3-9.4l16.3,9.4v18.7l-16.2,9.4l-16.3-9.4L83.8,90.6z" />
</svg>