<svg width="200" height="200" version="1.1" viewBox="0 0 200 200" xml:space="preserve"
	xmlns:xlink="http://www.w3.org/1999/xlink" xmlns="http://www.w3.org/2000/svg">
	<style>
		.open-cv--fragment-0 {
			fill: #FF0101;
		}

		.open-cv--fragment-1 {
			fill: #0101FF;
		}

		.open-cv--fragment-2 {
			fill: #01FF01;
		}
	</style>
	<rect width="200" height="200" style="fill: var(--bg, #fff); rx: var(--rx, 24px); filter: var(--filter);" />
	<g>
		<path class="open-cv--fragment-0" d="M82,95.7c-13.8-8-20.5-24.2-16.4-39.6s18.1-26.1,34-26.1s29.9,10.7,34,26.1c4.1,15.4-2.6,31.6-16.4,39.6
		l-10.6-18.4c5.5-3.2,8.2-9.6,6.5-15.8S106,51.3,99.6,51.3s-11.9,4.3-13.5,10.4c-1.6,6.1,1,12.6,6.5,15.8L82,95.7z" />
		<path class="open-cv--fragment-1" d="M157.4,104.3c13.8,8,20.5,24.2,16.4,39.6c-4.1,15.4-18.1,26.1-34,26.1s-29.9-10.7-34-26.1
		c-4.1-15.4,2.6-31.6,16.4-39.6l10.6,18.4c-5.5,3.2-8.2,9.6-6.5,15.8c1.6,6.1,7.2,10.4,13.5,10.4s11.9-4.3,13.5-10.4
		c1.6-6.1-1-12.6-6.5-15.8L157.4,104.3z" />
		<path class="open-cv--fragment-2" d="M95.4,134.7c0,15.9-10.7,29.9-26.1,34c-15.4,4.1-31.6-2.6-39.6-16.4c-8-13.8-5.7-31.2,5.6-42.5
		c11.3-11.3,28.7-13.6,42.5-5.6l-10.6,18.4c-5.5-3.2-12.4-2.3-16.9,2.2c-4.5,4.5-5.4,11.4-2.2,16.9s9.6,8.2,15.8,6.5
		c6.1-1.6,10.4-7.2,10.4-13.5H95.4z" />
	</g>
</svg>