<svg width="200" height="200" version="1.1" viewBox="0 0 200 200" xml:space="preserve"
	xmlns:xlink="http://www.w3.org/1999/xlink" xmlns="http://www.w3.org/2000/svg">
	<style>
		.photoshop {
			fill: #31A8FF;
		}
	</style>
	<rect width="200" height="200" style="fill: var(--bg, #001E36); rx: var(--rx, 24);" />
	<path class="photoshop" d="M25,154.2V44.5c0-0.7,0.3-1.2,1-1.2c10.7,0,21.5-0.6,32.2-0.6c17.4,0,36.3,6,42.9,24.2
	c1.6,4.5,2.4,9.1,2.4,13.9c0,9.2-2.1,16.7-6.2,22.7c-11.6,16.7-31.8,16.4-49.8,16.4v34.2c0.1,1-0.7,1.5-1.6,1.5H26.2
	C25.4,155.6,25,155.2,25,154.2z M47.7,63.9v35.8c7.2,0.5,14.6,0.6,21.5-1.7c7.6-2.2,11.8-8.8,11.8-16.6c0.2-6.7-3.4-13.1-9.7-15.6
	C64.5,63,55,62.8,47.7,63.9z M168.5,92.6c-3.1-1.7-6.5-2.9-10-3.6c-4.5-1-22-4.7-22,4.5c0.2,5.1,8.3,7.6,11.9,9.1
	c12.6,4.3,26.9,12.1,26.6,27.6c0.4,19.4-18.4,27.1-34.5,27.1c-8.4,0.1-17.1-1.2-24.8-4.8c-0.7-0.4-1.2-1.2-1.2-2.1v-18.5
	c-0.1-0.7,0.7-1.4,1.3-0.9c7.5,4.5,16.4,6.8,25.1,6.9c3.8,0,11.4-0.4,11.4-6c0-5.4-9.1-7.9-12.7-9.3c-5.3-1.9-10.2-4.5-14.8-7.7
	c-6.4-4.6-10.4-11.9-10.3-19.9c0-18.2,17.2-26.4,32.8-26.4c7.3-0.1,15.1,0.5,21.9,3.4c1,0.3,1.2,1.3,1.2,2.2v17.3
	C170.5,92.7,169.3,93,168.5,92.6z" />
</svg>