<svg width="200" height="200" version="1.1" viewBox="0 0 200 200" xml:space="preserve"
	xmlns:xlink="http://www.w3.org/1999/xlink" xmlns="http://www.w3.org/2000/svg">
	<style>
		.php {
			fill: #FFFFFF;
		}
	</style>
	<rect width="200" height="200" style="fill: var(--bg, #8a91ba); rx: var(--rx, 24px);" />
	<path class="php" d="M59.1,76.3H36.9L25,140.9h11.5l3.2-17.1h10c3.4,0,6.6-0.4,9.8-1.3c3.2-0.8,6.1-2.8,8.9-5.9
	c2.3-2.5,4-5.2,5.3-8.3c1.3-3.1,2.2-6.2,2.6-9.4c1-7,0-12.5-2.9-16.5C70.4,78.4,65.6,76.4,59.1,76.3z M64.2,98.8
	c-1.2,7.5-3.6,11.9-7.1,13.2c-3.5,1.2-8,1.8-13.3,1.7h-1.2c-0.3,0-0.7,0-1-0.1l5-26.9h1.7c0.6,0,1.2,0,1.9-0.1
	c4.4-0.1,8.1,0.4,11,1.4C64.2,88.9,65.2,92.5,64.2,98.8z M171.7,82.4c-2.9-4-7.7-6.1-14.2-6.1h-22.2l-11.9,64.6h11.5l3.2-17.1h10
	c3.4,0,6.6-0.4,9.8-1.3c3.2-0.8,6.1-2.8,8.9-5.9c2.3-2.5,4-5.2,5.3-8.3c1.3-3.1,2.2-6.2,2.6-9.4C175.6,91.9,174.6,86.5,171.7,82.4z
	M162.6,98.8c-1.2,7.5-3.6,11.9-7.1,13.2c-3.5,1.2-8,1.8-13.3,1.7H141c-0.3,0-0.7,0-1-0.1l5-26.9h1.7c0.6,0,1.2,0,1.9-0.1
	c4.4-0.1,8.1,0.4,11,1.4C162.6,88.9,163.6,92.5,162.6,98.8z M123,93.8l-5.6,30h-11.6l5.3-28.7c0.6-3,0.4-5.1-0.5-6.4
	c-0.9-1.3-2.8-1.9-5.7-1.9l-9.2-0.1l-6.8,37H77.4l12-64.7h11.5l-3.2,17.2h10.3c5.6,0.1,9.8,1.4,12.6,3.8
	C123.3,82.5,124.1,87.1,123,93.8z" />
</svg>