<svg width="200" height="200" version="1.1" viewBox="0 0 200 200" xml:space="preserve"
	xmlns:xlink="http://www.w3.org/1999/xlink" xmlns="http://www.w3.org/2000/svg">
	<style>
		.pinecone {
			fill-rule: evenodd;
			clip-rule: evenodd;
			fill: #111111;
		}
	</style>
	<rect width="200" height="200" style="fill: var(--bg, #fff); rx: var(--rx, 24);" />
	<path class="pinecone" d="M118,26.7c-1.5-1.8-4-2.2-6-1.1l-1.9,1L89.9,38.1l4.7,8.3l13.1-7.5l-3.2,17.6l9.4,1.7l3.3-17.7l9.7,11.6
	l7.3-6.1l-14.7-17.6h-0.1L118,26.7z M89.6,175c4.9,0,8.8-3.9,8.8-8.6s-3.9-8.6-8.8-8.6c-4.9,0-8.8,3.9-8.8,8.6
	C80.8,171.1,84.8,175,89.6,175z M101.4,127.9l-3.1,17.7l-9.4-1.7l3.1-17.6l-13.1,7.6l-4.8-8.3L94.1,114L96,113c2-1.1,4.5-0.7,6,1.1
	l1.4,1.7l14.9,17.5l-7.3,6.2L101.4,127.9z M109.1,85.7l-3.1,17.7l-9.4-1.7l3.1-17.5l-13.1,7.5l-4.7-8.3l20-11.4v-0.1h0.1l1.9-1.1
	c2-1.1,4.5-0.7,6,1.1l1.4,1.6L126.2,91l-7.3,6.2L109.1,85.7z M47.4,155.5L47.4,155.5l-2-0.6c-2.1-0.6-3.4-2.6-3.3-4.7l1.7-23.9
	l9.1,0.6l-1.1,14.5l14.1-9.6l5.1,7.5l-13.8,9.4l14.1,4.1l-2.5,8.7L47.4,155.5z M140.8,165.4l-0.6,2.1c-0.6,2-2.5,3.4-4.6,3.2l-2-0.1
	l-0.1,0.1l-0.1-0.1l-22.2-1.5l0.6-9.1l14.7,1l-9.6-13.5l7.4-5.3L134,156l4.3-14l8.6,2.6L140.8,165.4z M166.8,116.2l1.1,1.9
	c1.1,1.9,0.6,4.4-1.1,5.8l-1.6,1.4v0.1h-0.1L148,139.9l-6-7.1l11.3-9.6l-16.9-3l1.6-9.1l17.1,3l-7.1-12.9l8.1-4.5L166.8,116.2z
	M149.3,76.3L134,84.5l-4.4-8.1l15.1-8.1l-13.8-5.6l3.5-8.6l21,8.5l0.1-0.1l0.1,0.1l1.9,0.8c2.1,0.9,3.2,3,2.9,5.1l-0.4,2.1
	L156,92.5l-9.1-1.6L149.3,76.3z M46.7,95.5l17,2.9l-1.6,9.1L45,104.5l7.3,12.9l-8.1,4.6l-11-19.4l-1.1-1.9c-1.1-1.9-0.6-4.4,1-5.8
	l1.6-1.4v-0.1h0.1l17-14.7l6.1,7.1L46.7,95.5z M72.3,55.9l11.3,12.6l-6.9,6.2L65.1,61.8l-2.6,14.7l-9.1-1.6l4-21.7l0.4-2.2
	c0.4-2.1,2.2-3.7,4.4-3.8l2-0.1l0.1-0.1l0.1,0.1L87,46.1l0.4,9.3L72.3,55.9z" />
</svg>