<svg width="200" height="200" version="1.1" viewBox="0 0 200 200" xml:space="preserve"
	xmlns:xlink="http://www.w3.org/1999/xlink" xmlns="http://www.w3.org/2000/svg">
	<style>
		.playwright--fragment-0 {
			fill: #2D4552;
		}

		.playwright--fragment-1 {
			fill: #E2574C;
		}

		.playwright--fragment-2 {
			fill: #2EAD33;
		}

		.playwright--fragment-3 {
			fill: #D65348;
		}

		.playwright--fragment-4 {
			fill: #1D8D22;
		}

		.playwright--fragment-5 {
			fill: #C04B41;
		}
	</style>
	<rect width="200" height="200" style="fill: var(--bg, #fff); rx: var(--rx, 24px); filter: var(--filter);" />
	<g>
		<path class="playwright--fragment-0"
			d="M42.8,94.2c-0.7-0.7-1.1-1.2-1.1-1.2l20.8-5.5c0,0-0.4,5.1-4.5,8.2c2.2-2.9,2.4-6.1,2.4-6.1L42.8,94.2z
		M85.4,68.8h11.5c-0.2-0.7-0.5-1.4-0.7-2.1H85.4V68.8z M94.2,114.4l40.3,11.3c3.3-1.9,5.1-3.9,5.1-3.9l-47.9-13.4
		C91.7,108.3,92.2,111,94.2,114.4z M87.6,86c2.8-2,6.8-3.6,11.9-2.1c5.2,1.5,7.9,5.1,9.3,8.3l5.8,1.6c0,0-0.8-11.2-10.9-14.1
		C94.1,77,88.3,84.9,87.6,86z M106.3,150.5c-10-2.7-17-8-21.8-14.8c3.2-1.7,5.8-3.8,8-6.2c-2.4,2.2-5.2,4-8.6,5.4
		c-5.1-7.5-7.6-16.8-8.5-26.3c3-0.5,5.6-0.4,7.9,0.1v-2.4c-2.4-0.2-5-0.1-8,0.7c-1.1-14,1.3-28.2,3.9-37.9
		c2.5-9.4,5.1-16.4,7.3-21.1c-1.3-0.3-2.3,0.4-3.4,2.6c-2.3,4.6-5.2,12.2-8,22.8c-2.4,9.1-4.6,22.1-4,35.2c-3.7,1.6-6.3,3.8-8.2,5.9
		c2.1-1.8,4.8-3.5,8.3-4.7c0.6,9.5,2.7,19,7.2,26.9c-28.2,6.2-43.2-26.8-47.8-44c-2.2-8.1-3.1-14.3-3.4-18.3c0-0.4,0-0.8,0-1.1
		c-1.5,0.1-2.2,0.9-2.1,3.2c0.3,4,1.2,10.1,3.4,18.3c4.7,17.6,20.2,51.5,49.4,43.6c0.4-0.1,0.8-0.2,1.3-0.4
		c4.8,7.7,12.2,13.8,23.1,16.7c17.9,4.8,31.8-2.5,42.2-13.9C134.5,149.7,121.9,154.7,106.3,150.5z M145.3,92.2
		c-9.5-2.7-15.3,5.3-16,6.3c2.8-2,6.8-3.6,11.9-2.1c5.2,1.5,7.9,5.1,9.3,8.3l5.8,1.6C156.2,106.3,155.4,95.1,145.3,92.2z" />
		<path class="playwright--fragment-1" d="M85.4,125v-9.7l-27.1,7.7c0,0,2-11.6,16.1-15.6c4.3-1.2,7.9-1.2,11-0.6v-40H99c-1.5-4.6-2.9-8.1-4.1-10.5
		c-2-4-4-1.4-8.6,2.5c-3.3,2.7-11.5,8.5-23.8,11.8C50,73.9,40,73,35.8,72.2c-5.9-1-9-2.3-8.7,2.2c0.3,4,1.2,10.1,3.4,18.3
		c4.7,17.6,20.2,51.5,49.4,43.6c7.6-2.1,13-6.1,16.8-11.3L85.4,125L85.4,125z M41.7,92.9l20.8-5.5c0,0-0.6,8-8.4,10.1
		C46.3,99.5,41.7,92.9,41.7,92.9z" />
		<path class="playwright--fragment-2" d="M163.7,67.1c-5.4,0.9-18.4,2.1-34.4-2.2c-16-4.3-26.7-11.8-30.9-15.3c-6-5-8.6-8.5-11.2-3.2
		c-2.3,4.6-5.2,12.2-8,22.8c-6.1,22.9-10.7,71.2,27.2,81.4c37.9,10.2,58.1-34,64.2-56.9c2.8-10.6,4.1-18.6,4.4-23.7
		C175.4,64.1,171.3,65.8,163.7,67.1z M87.5,86.1c0,0,6-9.3,16.1-6.4c10.1,2.9,10.9,14.1,10.9,14.1L87.5,86.1z M112.2,127.8
		c-17.8-5.2-20.6-19.4-20.6-19.4l47.9,13.4C139.5,121.7,129.9,132.9,112.2,127.8z M129.2,98.6c0,0,6-9.3,16.1-6.4
		c10.1,2.9,10.9,14.1,10.9,14.1L129.2,98.6z" />
		<path class="playwright--fragment-3" d="M75.9,117.9l-17.6,5c0,0,1.9-10.9,14.9-15.2l-10-37.4l-0.9,0.3C50,73.9,40,73,35.8,72.2c-5.9-1-9-2.3-8.7,2.2
		c0.3,4,1.2,10.1,3.4,18.3c4.7,17.6,20.2,51.5,49.4,43.6l0.9-0.3L75.9,117.9z M41.7,92.9l20.8-5.5c0,0-0.6,8-8.4,10.1
		C46.3,99.5,41.7,92.9,41.7,92.9z" />
		<path class="playwright--fragment-4" d="M113,128l-0.8-0.2c-17.8-5.2-20.6-19.4-20.6-19.4l24.7,6.9L129.4,65l-0.2,0c-16-4.3-26.7-11.8-30.9-15.3
		c-6-5-8.6-8.5-11.2-3.2c-2.3,4.6-5.2,12.2-8,22.8c-6.1,22.9-10.7,71.2,27.2,81.4l0.8,0.2L113,128z M87.5,86.1c0,0,6-9.3,16.1-6.4
		c10.1,2.9,10.9,14.1,10.9,14.1L87.5,86.1z" />
		<path class="playwright--fragment-5" d="M76.8,117.7l-4.7,1.3c1.1,6.3,3.1,12.3,6.2,17.7c0.5-0.1,1.1-0.2,1.6-0.4c1.4-0.4,2.8-0.9,4-1.4
		C80.5,129.8,78.2,123.9,76.8,117.7z M75,73.3c-2.4,9.1-4.6,22.1-4,35.2c1.1-0.5,2.2-0.9,3.5-1.3l0.9-0.2c-1.1-14,1.2-28.2,3.8-37.9
		c0.7-2.5,1.3-4.7,2-6.9c-1.1,0.7-2.2,1.4-3.5,2.1C76.8,67.1,75.9,70.1,75,73.3z" />
	</g>
</svg>