<svg width="200" height="200" version="1.1" viewBox="0 0 200 200" xml:space="preserve"
	xmlns:xlink="http://www.w3.org/1999/xlink" xmlns="http://www.w3.org/2000/svg">
	<style>
		.postman {
			fill: #FFFFFF;
		}
	</style>
	<rect width="200" height="200" style="fill: var(--bg, #ff6c37); rx: var(--rx, 24);" />
	<path class="postman" d="M63.3,111.2c0,0.1,0.1,0.2,0.2,0.2c0.1,0,0.2,0.1,0.3,0l19.9-4.3l-8.4-8.5l-11.9,11.9c-0.1,0.1-0.2,0.2-0.2,0.3
	C63.2,110.9,63.3,111.1,63.3,111.2z M156.5,25.7c-2.8,0-5.5,0.6-8,1.8c-2.5,1.2-4.7,2.9-6.4,5.1c-1.7,2.2-3,4.7-3.6,7.4
	c-0.6,2.7-0.6,5.5,0,8.2c0.6,2.7,1.8,5.2,3.5,7.4c1.7,2.2,3.9,4,6.4,5.2c2.5,1.2,5.2,1.9,8,1.9c2.8,0,5.5-0.5,8-1.7l-12.6-12.6
	c-0.1-0.1-0.3-0.3-0.3-0.5c-0.1-0.2-0.1-0.4-0.1-0.6c0-0.2,0-0.4,0.1-0.6c0.1-0.2,0.2-0.4,0.3-0.5l16.5-16.5
	C164.9,27.1,160.7,25.7,156.5,25.7z M139.5,60.3h-0.3c-0.3,0-0.6,0-1,0.1h-0.1c-0.3,0.1-0.7,0.2-1,0.3l-0.3,0.1
	c-0.3,0.1-0.5,0.2-0.7,0.4l-0.3,0.2c-0.3,0.2-0.6,0.4-0.8,0.7l-45.8,45.8l5.7,5.7L143.4,71c0.3-0.2,0.5-0.5,0.7-0.8l0.2-0.3
	c0.2-0.2,0.3-0.5,0.4-0.8c0.1-0.1,0.1-0.3,0.2-0.4c0.1-0.2,0.2-0.4,0.2-0.6c0-0.1,0.1-0.3,0.1-0.4c0.1-0.3,0.1-0.6,0.1-0.9v-0.4
	c0-0.2,0-0.4,0-0.7c0-0.2,0-0.3-0.1-0.4c-0.2-1.2-0.8-2.3-1.6-3.1c-0.8-0.8-1.9-1.4-3.1-1.7h-0.2C140.1,60.4,139.8,60.4,139.5,60.3z
	M77.5,96.4l9.4,9.4l45.9-45.9c1.5-1.5,3.4-2.4,5.5-2.6C130.3,51.1,121.4,52.7,77.5,96.4z M146,72.8l-0.6,0.5L97,115.9l8.2,8.2
	C125.6,104.8,143.8,86.4,146,72.8z M25,172.5c0,0.1,0.1,0.2,0.1,0.2c0.1,0.1,0.2,0.1,0.2,0.1l21.1,1.5l-11.9-11.9l-9.6,9.6
	c-0.1,0.1-0.1,0.1-0.1,0.2C25,172.3,25,172.4,25,172.5z M36.9,160.2l12.5,12.5c0.1,0.2,0.3,0.3,0.6,0.3c0.2,0,0.4,0,0.6-0.1
	c0.2-0.1,0.3-0.3,0.4-0.5c0.1-0.2,0.1-0.4,0-0.6l-2.1-9c-0.1-0.6-0.1-1.2,0.2-1.7c0.2-0.5,0.7-1,1.2-1.3
	c21.9-11,39.6-22.3,52.6-33.6l-8.7-8.7l-18.7,4L36.9,160.2z M91.6,114.9l-4.7-4.7l-6.5,6.5c0,0.1-0.1,0.1-0.1,0.2
	c0,0.1,0,0.1,0.1,0.2c0,0.1,0.1,0.1,0.2,0.1c0.1,0,0.1,0,0.2,0L91.6,114.9z M170.4,31.9L155,47.3l12.1,12.1c0.9-0.6,1.7-1.3,2.5-2.1
	c3.3-3.3,5.3-7.8,5.4-12.5S173.5,35.5,170.4,31.9z M169.5,50.1c-0.2,0.1-0.4,0.1-0.6,0.1c-0.3,0-0.5-0.1-0.8-0.2
	c-0.2-0.1-0.4-0.4-0.5-0.6c-0.1-0.2-0.2-0.5-0.1-0.8c0-0.3,0.1-0.5,0.3-0.7c0.5-0.6,0.9-1.4,1-2.3c0.1-0.8-0.1-1.7-0.4-2.4
	c-0.1-0.2-0.2-0.4-0.2-0.6c0-0.2,0-0.4,0-0.6c0.1-0.2,0.2-0.4,0.3-0.5c0.1-0.2,0.3-0.3,0.5-0.4c0.2-0.1,0.4-0.1,0.6-0.1
	c0.2,0,0.4,0,0.6,0.1c0.2,0.1,0.4,0.2,0.5,0.4c0.1,0.2,0.2,0.3,0.3,0.5c0.6,1.2,0.9,2.6,0.7,4c-0.2,1.4-0.7,2.7-1.6,3.7
	C169.8,49.9,169.7,50,169.5,50.1z" />
</svg>