<svg width="200" height="200" version="1.1" viewBox="0 0 200 200" xml:space="preserve"
	xmlns:xlink="http://www.w3.org/1999/xlink" xmlns="http://www.w3.org/2000/svg">
	<style>
		.postgresql--backdrop {
			fill: #000;
		}

		.postgresql--skin {
			fill: #336791;
		}

		.postgresql--outline {
			fill: #FFFFFF;
		}
	</style>
	<rect width="200" height="200" style="fill: var(--bg, #fff); rx: var(--rx, 24px); filter: var(--filter);" />
	<g>
		<path class="postgresql--backdrop"
			d="M172.3,114.9c-0.9-2.6-3.2-4.5-6.1-4.9c-1.4-0.2-3-0.1-4.9,0.3c-3.3,0.7-5.7,0.9-7.5,1c6.7-11.4,12.2-24.4,15.4-36.6
		c5.1-19.8,2.4-28.8-0.8-32.8C159.9,31,147.6,25.2,132.8,25c-7.9-0.1-14.9,1.5-18.5,2.6c-3.4-0.6-7-0.9-10.8-1
		c-7.1-0.1-13.5,1.4-18.8,4.6c-3-1-7.8-2.4-13.3-3.3c-13-2.1-23.5-0.5-31.2,4.9c-9.3,6.6-13.6,18-12.8,33.9c0.3,5.1,3.1,20.4,7.5,35
		c2.6,8.4,5.3,15.3,8.1,20.7c4,7.6,8.3,12.1,13.1,13.7c2.7,0.9,7.6,1.5,12.7-2.8c0.7,0.8,1.5,1.6,2.7,2.3c1.5,0.9,3.3,1.7,5.1,2.1
		c6.5,1.6,12.5,1.2,17.7-1.1c0,0.9,0.1,1.8,0.1,2.6c0,1.2,0.1,2.4,0.1,3.6c0.3,7.6,0.8,13.5,2.4,17.7c0.1,0.2,0.2,0.6,0.3,0.9
		c0.8,2.3,2,6.3,5.3,9.3c3.4,3.2,7.5,4.2,11.2,4.2c1.9,0,3.7-0.2,5.2-0.6c5.6-1.2,11.9-3,16.5-9.6c4.3-6.2,6.5-15.5,6.8-30.2
		c0-0.4,0.1-0.8,0.1-1.2c0-0.3,0.1-0.5,0.1-0.8l1,0.1l0.3,0c5.7,0.3,12.7-0.9,16.9-2.9C164,128.3,174.9,122.6,172.3,114.9" />
		<path class="postgresql--skin" d="M162.6,116.4c-16.9,3.5-18.1-2.2-18.1-2.2c17.9-26.5,25.4-60.2,18.9-68.5c-17.6-22.5-48.1-11.9-48.6-11.6
		l-0.2,0c-3.3-0.7-7.1-1.1-11.3-1.2c-7.7-0.1-13.5,2-17.9,5.4c0,0-54.4-22.4-51.8,28.2c0.5,10.8,15.4,81.4,33.2,60.1
		c6.5-7.8,12.8-14.4,12.8-14.4c3.1,2.1,6.8,3.1,10.7,2.7l0.3-0.3c-0.1,1-0.1,1.9,0.1,3c-4.6,5.1-3.2,6-12.4,7.9
		c-9.2,1.9-3.8,5.3-0.3,6.2c4.3,1.1,14.2,2.6,21-6.8l-0.3,1.1c1.8,1.4,3,9.3,2.8,16.5c-0.2,7.2-0.4,12.1,1.1,15.9
		c1.4,3.8,2.8,12.5,14.8,9.9c10-2.2,15.2-7.7,16-17c0.5-6.6,1.7-5.6,1.7-11.5l0.9-2.8c1.1-9,0.2-11.9,6.4-10.5l1.5,0.1
		c4.6,0.2,10.5-0.7,14-2.4C165.5,120.7,170,114.9,162.6,116.4L162.6,116.4" />
		<path class="postgresql--outline" d="M88.6,71.3c-1.5-0.2-2.9,0-3.6,0.5c-0.4,0.3-0.5,0.6-0.5,0.9c-0.1,0.6,0.4,1.3,0.6,1.7c0.8,1,1.9,1.7,3,1.9
		c0.2,0,0.3,0,0.5,0c1.8,0,3.5-1.4,3.7-2.5C92.4,72.4,90.5,71.5,88.6,71.3 M139.2,71.3L139.2,71.3c-0.1-1-2-1.3-3.8-1.1
		c-1.8,0.2-3.5,1-3.3,2.1c0.1,0.8,1.6,2.2,3.3,2.2c0.1,0,0.3,0,0.4,0c1.2-0.2,2-0.9,2.4-1.3C138.9,72.5,139.3,71.8,139.2,71.3
		M168.2,116c-0.6-2-2.7-2.6-6.2-1.9c-10.3,2.1-13.9,0.7-15.1-0.2c8-12.1,14.5-26.8,18.1-40.5c1.7-6.5,2.6-12.5,2.7-17.4
		c0.1-5.4-0.8-9.4-2.7-11.8c-7.6-9.8-18.8-15-32.4-15.1c-9.3-0.1-17.2,2.3-18.7,3c-3.2-0.8-6.7-1.3-10.5-1.4c-7-0.1-13.1,1.6-18.1,5
		c-2.2-0.8-7.8-2.7-14.7-3.8c-11.9-1.9-21.3-0.5-28.1,4.3c-8,5.7-11.8,15.9-11,30.3c0.2,4.8,3,19.7,7.4,34
		c5.7,18.8,12,29.4,18.5,31.6c0.8,0.3,1.7,0.4,2.6,0.4c2.4,0,5.3-1.1,8.4-4.7c5.1-6.1,9.8-11.2,11.5-13.1c2.6,1.4,5.4,2.2,8.3,2.2
		c0,0.1,0,0.2,0,0.2c-0.6,0.7-1.1,1.3-1.5,1.8c-2,2.5-2.4,3.1-8.9,4.4c-1.8,0.4-6.7,1.4-6.8,4.8c-0.1,3.7,5.8,5.3,6.4,5.5
		c2.3,0.6,4.6,0.9,6.7,0.9c5.2,0,9.7-1.7,13.4-5c-0.1,13.3,0.4,26.5,2,30.5c1.3,3.3,4.5,11.3,14.6,11.3c1.5,0,3.1-0.2,4.9-0.6
		c10.6-2.3,15.1-6.9,16.9-17.2c0.9-5.5,2.6-18.6,3.3-25.7c1.6,0.5,3.7,0.7,5.9,0.7c4.7,0,10.1-1,13.5-2.6
		C162.6,124.1,169.5,119.8,168.2,116L168.2,116z M143.1,68.4c0,2.1-0.3,4-0.6,5.9c-0.3,2.1-0.7,4.3-0.7,7c-0.1,2.6,0.2,5.3,0.6,7.9
		c0.6,5.3,1.3,10.7-1.2,16c-0.4-0.7-0.8-1.4-1.1-2.3c-0.3-0.8-1-2-1.9-3.6c-3.6-6.5-12.2-21.8-7.8-28.1
		C131.5,69.3,134.8,67.4,143.1,68.4L143.1,68.4z M133,33.2c12.2,0.3,21.8,4.8,28.6,13.5c5.2,6.7-0.5,37-17.2,63.2
		c-0.2-0.2-0.3-0.4-0.5-0.6c-0.1-0.1-0.1-0.2-0.2-0.3c4.3-7.1,3.5-14.1,2.7-20.4c-0.3-2.6-0.6-5-0.5-7.2c0.1-2.4,0.4-4.5,0.7-6.5
		c0.4-2.5,0.8-5,0.7-8c0.1-0.3,0.1-0.7,0.1-1.1c-0.3-2.9-3.6-11.5-10.2-19.3c-3.7-4.3-9-9-16.3-12.2C124,33.7,128.3,33.1,133,33.2
		L133,33.2z M65,125c-3.4,4-5.7,3.3-6.4,3c-5-1.7-10.7-12.2-15.8-28.8c-4.4-14.4-7-28.9-7.2-33c-0.6-12.9,2.5-21.8,9.3-26.6
		c11.1-7.8,29.2-3.1,36.5-0.8c-0.1,0.1-0.2,0.2-0.3,0.3c-12,12.1-11.7,32.8-11.7,34c0,0.5,0,1.2,0.1,2.1c0.2,3.5,0.6,10-0.4,17.3
		c-1,6.8,1.1,13.5,5.8,18.3c0.5,0.5,1,1,1.5,1.4C74.3,114.4,69.8,119.3,65,125L65,125z M77.8,107.9c-3.7-3.9-5.4-9.3-4.6-14.8
		c1.1-7.7,0.7-14.5,0.5-18.1c0-0.5-0.1-1-0.1-1.3c1.8-1.6,9.9-5.9,15.6-4.6c2.6,0.6,4.2,2.4,4.9,5.5c3.5,16,0.5,22.7-2,28
		c-0.5,1.1-1,2.1-1.4,3.2l-0.3,0.8c-0.8,2.1-1.5,4.1-2,5.9C84.6,112.6,80.8,110.9,77.8,107.9L77.8,107.9z M78.5,129.5
		c-1.2-0.3-2.2-0.8-2.8-1.2c0.5-0.2,1.4-0.6,3-0.9c7.6-1.6,8.8-2.7,11.3-5.9c0.6-0.7,1.3-1.6,2.2-2.6c0,0,0,0,0,0
		c1.4-1.5,2-1.3,3.1-0.8c0.9,0.4,1.8,1.5,2.2,2.8c0.2,0.6,0.4,1.7-0.3,2.6C91.9,131,84.1,130.9,78.5,129.5L78.5,129.5z M118.2,166.5
		c-9.3,2-12.6-2.8-14.8-8.2c-1.4-3.5-2.1-19.3-1.6-36.7c0-0.2,0-0.5-0.1-0.7c-0.1-0.4-0.1-0.8-0.3-1.2c-0.7-2.5-2.5-4.7-4.6-5.5
		c-0.8-0.3-2.4-1-4.3-0.5c0.4-1.6,1.1-3.5,1.8-5.5l0.3-0.8c0.4-0.9,0.8-1.9,1.3-3c2.5-5.6,6-13.3,2.2-30.7
		c-1.4-6.5-6.1-9.7-13.2-8.9c-4.3,0.4-8.2,2.2-10.1,3.2c-0.4,0.2-0.8,0.4-1.2,0.6C74.3,62,76.4,49.7,84.1,42
		c4.8-4.9,11.3-7.3,19.1-7.2c15.5,0.3,25.4,8.2,31,14.8c4.8,5.7,7.4,11.4,8.5,14.5c-7.8-0.8-13.2,0.8-15.9,4.6
		c-5.9,8.4,3.2,24.7,7.6,32.5c0.8,1.4,1.5,2.7,1.7,3.2c1.4,3.4,3.3,5.8,4.6,7.4c0.4,0.5,0.8,1,1.1,1.5c-2.4,0.7-6.6,2.3-6.2,10.2
		c-0.3,4-2.5,22.5-3.7,29.1C130.4,161.3,127.2,164.6,118.2,166.5L118.2,166.5z M157,122.1c-2.4,1.1-6.5,2-10.3,2.2
		c-4.3,0.2-6.4-0.5-6.9-0.9c-0.2-4.9,1.6-5.4,3.5-6c0.3-0.1,0.6-0.2,0.9-0.3c0.2,0.1,0.4,0.3,0.6,0.4c3.4,2.3,9.5,2.5,18.2,0.7
		c0,0,0.1,0,0.1,0C161.8,119.3,159.8,120.8,157,122.1L157,122.1z" />
	</g>
</svg>