<svg version="1.1" id="Layer_1" xmlns="http://www.w3.org/2000/svg" xmlns:xlink="http://www.w3.org/1999/xlink" x="0px"
	y="0px" viewBox="0 0 200 200" style="enable-background:new 0 0 200 200;" xml:space="preserve">
	<style type="text/css">
		.power-bi--fragment-0 {
			fill: url(#gradientFragment1);
		}

		.power-bi--fragment-1 {
			fill: url(#gradientFragment2);
		}

		.power-bi--fragment-2 {
			fill: url(#gradientFragment3);
		}
	</style>
	<defs>
		<linearGradient id="gradientFragment1" gradientUnits="userSpaceOnUse" x1="-0.927" y1="199.9603" x2="-0.927"
			y2="199.7222" gradientTransform="matrix(219 0 0 -630 333.5 126000)">
			<stop stop-color="#EBBB14" offset="0" />
			<stop stop-color="#B25400" offset="1" />
		</linearGradient>
		<linearGradient id="gradientFragment2" gradientUnits="userSpaceOnUse" x1="-0.4783" y1="200.2" x2="-0.4783"
			y2="199.9619" gradientTransform="matrix(219 0 0 -473 204.5 94757)">
			<stop stop-color="#F9E583" offset="0" />
			<stop stop-color="#DE9800" offset="1" />
		</linearGradient>
		<linearGradient id="gradientFragment3" gradientUnits="userSpaceOnUse" x1="-3.642096e-02" y1="200.6825"
			x2="-3.642096e-02" y2="200.4444" gradientTransform="matrix(219 0 0 -315 77.5 63315.0078)">
			<stop stop-color="#F9E68B" offset="0" />
			<stop stop-color="#F3CD32" offset="1" />
		</linearGradient>
	</defs>
	<rect width="200" height="200" style="fill: var(--bg, #fff); rx: var(--rx, 24px); filter: var(--filter);" />
	<g>
		<path class="power-bi--fragment-0" d="M110.6,25h39.8c3.4,0,6.2,2.8,6.2,6.2v137.6c0,3.4-2.8,6.2-6.2,6.2h-39.8
		c-3.4,0-6.2-2.8-6.2-6.2V31.2C104.4,27.8,107.2,25,110.6,25z" />
		<path class="power-bi--fragment-1" d="M125.8,168.8v6.2h-6.2H79.9c-3.4,0-6.2-2.8-6.2-6.2V68.6c0-3.4,2.8-6.2,6.2-6.2h39.8
		c3.4,0,6.2,2.8,6.2,6.2V168.8z" />
		<path class="power-bi--fragment-2" d="M95.6,168.8v6.2h-6.2H49.6c-3.4,0-6.2-2.8-6.2-6.2v-62.6c0-3.4,2.8-6.2,6.2-6.2h39.8
		c3.4,0,6.2,2.8,6.2,6.2V168.8z" />
	</g>
</svg>