<svg width="200" height="200" version="1.1" viewBox="0 0 200 200" xml:space="preserve"
	xmlns:xlink="http://www.w3.org/1999/xlink" xmlns="http://www.w3.org/2000/svg">
	<style>
		.preact {
			fill: #ffffff;
		}
	</style>
	<rect width="200" height="200" style="fill: var(--bg, #673AB8); rx: var(--rx, 24);" />
	<path class="preact" d="M165.7,116.4c-3.3-5.4-7.4-10.9-12.1-16.4c4.7-5.5,8.8-11,12.1-16.4c10-16.3,12-29.9,5.6-38.3
	c-6.4-8.4-20.1-10-38.4-4.5c-10.3,3.1-21.5,8.1-32.8,14.8c-11.4-6.7-22.6-11.8-32.9-14.9c-18.3-5.5-32-3.9-38.4,4.5l0,0
	c-6.4,8.4-4.4,22,5.6,38.3c3.3,5.4,7.4,10.9,12.1,16.5c-4.7,5.5-8.8,11.1-12.1,16.5c-10,16.3-12,29.9-5.6,38.3
	c3.9,5.1,10.5,7.7,19.3,7.7c5.6,0,12-1.1,19.2-3.2c10.3-3.1,21.6-8.2,32.9-14.9c11.3,6.7,22.6,11.7,32.8,14.8
	c7.1,2.1,13.6,3.2,19.2,3.2c8.7,0,15.3-2.6,19.3-7.7C177.7,146.3,175.7,132.7,165.7,116.4z M135.2,48.5c6.5-1.9,12.2-2.9,17-2.9
	c6,0,10.5,1.5,12.8,4.6c4.2,5.5,2,16.1-6.1,29.2c-2.9,4.8-6.5,9.7-10.6,14.6c-7.5-8-16.2-15.9-25.8-23.2c-4.8-3.7-9.7-7.2-14.6-10.3
	C117.3,55.1,126.6,51,135.2,48.5z M142.9,100c-7.3,7.9-15.9,15.6-25.4,22.9c-5.8,4.4-11.7,8.5-17.5,12.1
	c-5.9-3.7-11.8-7.7-17.6-12.2c-9.5-7.3-18-15-25.3-22.8c7.3-7.8,15.9-15.6,25.3-22.8c5.8-4.5,11.7-8.5,17.6-12.2
	c5.9,3.6,11.7,7.7,17.5,12.1C127,84.4,135.6,92.1,142.9,100z M41.1,79.3c-8-13.1-10.2-23.7-6.1-29.2h0c4.2-5.5,15-6.1,29.8-1.7
	c8.6,2.6,17.9,6.6,27.5,12c-4.9,3.2-9.9,6.7-14.7,10.4C68,78.1,59.3,86,51.8,94C47.7,89.1,44.1,84.1,41.1,79.3z M64.8,151.6
	c-14.7,4.4-25.6,3.8-29.8-1.7c-4.2-5.5-2-16.1,6.1-29.2c2.9-4.8,6.6-9.7,10.7-14.6c7.5,8,16.2,15.8,25.8,23.2
	c4.9,3.7,9.8,7.2,14.7,10.4C82.8,144.9,73.4,149,64.8,151.6z M164.9,149.8c-4.2,5.5-15,6.1-29.8,1.7c-8.6-2.6-17.9-6.6-27.4-11.9
	c4.9-3.2,9.8-6.6,14.6-10.3c9.6-7.4,18.3-15.2,25.8-23.2c4.1,4.9,7.7,9.8,10.6,14.6C166.9,133.7,169.1,144.3,164.9,149.8z M100,85.1
	c8.2,0,14.9,6.7,14.9,14.9c0,8.2-6.7,14.9-14.9,14.9s-14.9-6.7-14.9-14.9C85.1,91.8,91.7,85.1,100,85.1z" />
</svg>