<svg width="200" height="200" version="1.1" viewBox="0 0 200 200" xml:space="preserve"
	xmlns:xlink="http://www.w3.org/1999/xlink" xmlns="http://www.w3.org/2000/svg">
	<style>
		.premiere {
			fill: #9999FF;
		}
	</style>
	<rect width="200" height="200" style="fill: var(--bg, #0c0858); rx: var(--rx, 24px);" />
	<path class="premiere" d="M25,159V41c0-0.8,0.3-1.3,1.1-1.3c11.3,0,22.7-0.7,34-0.7c18.4,0,38.3,6.4,45.3,26c1.6,4.8,2.5,9.7,2.5,14.9
	c0,9.9-2.2,18-6.6,24.4c-12.3,17.9-33.5,17.7-52.5,17.7v36.8c0.1,1.1-0.8,1.6-1.6,1.6H26.3C25.4,160.5,25,160.1,25,159z M48.9,61.9
	v38.5c7.6,0.6,15.5,0.6,22.7-1.8c8-2.4,12.4-9.4,12.4-17.9c0.2-7.2-3.6-14.1-10.2-16.7C66.6,60.9,56.7,60.7,48.9,61.9z M122.8,69.2
	h19.3c1.1,0,2,0.8,2.3,1.8c1.4,3.3,1.6,7.2,1.6,10.8c3.3-4,7.3-7.4,11.7-9.9c4.8-2.8,10.2-4.3,15.7-4.2c0.9-0.1,1.7,0.7,1.6,1.7
	v22.3c0,0.9-0.6,1.3-1.8,1.3c-8.1-0.6-20.8,1.4-26.8,8.1v58.1c0,1.1-0.5,1.7-1.4,1.7h-20.7c-1,0.2-1.9-0.8-1.8-1.8V96
	c0-8.5,0.2-17.2-1.1-25.5C121.4,69.7,122.1,69,122.8,69.2z" />
</svg>