<svg width="200" height="200" version="1.1" viewBox="0 0 200 200" xml:space="preserve"
	xmlns:xlink="http://www.w3.org/1999/xlink" xmlns="http://www.w3.org/2000/svg">
	<style>
		.prisma {
			fill-rule: evenodd;
			fill: #2D3748;
		}
	</style>
	<rect width="200" height="200" style="fill: var(--bg, #fff); rx: var(--rx, 24px);" />
	<path class="prisma" d="M40.3,120.1c-1.5,2.4-1.5,5.5,0.1,7.9L68,171.5c1.8,2.8,5.2,4.1,8.5,3.2l79.7-23.9c4.3-1.3,6.5-6.2,4.6-10.3
	L109.5,29.3c-2.5-5.4-10-5.9-13.2-0.8L40.3,120.1z M108.2,54.8c-1.1-2.5-4.8-2.1-5.3,0.6l-19.7,98.2c-0.4,2.1,1.5,3.8,3.5,3.2
	l55.1-16.4c1.6-0.5,2.4-2.3,1.8-3.8L108.2,54.8z" />
</svg>