<svg width="200" height="200" version="1.1" viewBox="0 0 200 200" xml:space="preserve"
	xmlns:xlink="http://www.w3.org/1999/xlink" xmlns="http://www.w3.org/2000/svg">
	<style>
		.pytorch {
			fill: #EE4C2C;
		}
	</style>
	<rect width="200" height="200" style="fill: var(--bg, #000); rx: var(--rx, 24px);" />
	<path class="pytorch" d="M143.8,68.7l-11.2,11.2c18.3,18.3,18.3,47.7,0,65.7c-18.3,18.3-47.7,18.3-65.7,0c-18.3-18.3-18.3-47.7,0-65.7
	l0,0l29-29l4.1-4.1l0,0V25L56.2,68.7c-24.4,24.4-24.4,63.7,0,88s63.7,24.4,87.5,0C168.1,132.2,168.1,93.1,143.8,68.7z M121.9,49.7
	c4.5,0,8.1,3.6,8.1,8.1s-3.6,8.1-8.1,8.1c-4.5,0-8.1-3.6-8.1-8.1S117.4,49.7,121.9,49.7z" />
</svg>