<svg width="200" height="200" version="1.1" viewBox="0 0 200 200" xml:space="preserve"
	xmlns:xlink="http://www.w3.org/1999/xlink" xmlns="http://www.w3.org/2000/svg">
	<style>
		.rabbitmq {
			fill: #FF6600;
		}
	</style>
	<rect width="200" height="200" style="fill: var(--bg, #fff); rx: var(--rx, 24px);" />
	<path class="rabbitmq" d="M169,85h-48c-1.6,0-3.1-0.6-4.3-1.8c-1.1-1.1-1.8-2.7-1.8-4.3V31c0-1.6-0.6-3.1-1.8-4.2
		c-1.1-1.1-2.7-1.7-4.2-1.7H91c-1.6,0-3.1,0.6-4.2,1.7C85.6,27.9,85,29.4,85,31v48c0,1.6-0.6,3.1-1.8,4.3C82.1,84.4,80.6,85,79,85
		H61c-1.6,0-3.1-0.6-4.3-1.8C55.6,82.1,55,80.6,55,79V31c0-1.6-0.6-3.1-1.8-4.3S50.6,25,49,25H31c-1.6,0-3.1,0.6-4.2,1.8
		C25.6,27.9,25,29.4,25,31v138c0,1.6,0.6,3.1,1.8,4.3c1.1,1.1,2.7,1.8,4.3,1.8h138c1.6,0,3.1-0.6,4.3-1.8c1.1-1.1,1.8-2.7,1.8-4.3
		V91.1c0-1.6-0.6-3.2-1.7-4.3C172.2,85.6,170.6,85,169,85z M144.9,136c0,2.4-0.9,4.7-2.6,6.4c-1.7,1.7-4,2.6-6.4,2.6h-12
		c-2.4,0-4.7-1-6.4-2.6c-1.7-1.7-2.6-4-2.6-6.4v-12c0-2.4,0.9-4.7,2.6-6.4c1.7-1.7,4-2.6,6.4-2.6h12c2.4,0,4.7,1,6.4,2.6
		c1.7,1.7,2.6,4,2.6,6.4V136L144.9,136z" />
</svg>