<svg width="200" height="200" version="1.1" viewBox="0 0 200 200" xml:space="preserve"
	xmlns:xlink="http://www.w3.org/1999/xlink" xmlns="http://www.w3.org/2000/svg">
	<style>
		.rails {
			fill: #fff;
		}
	</style>
	<rect width="200" height="200" style="fill: var(--bg, #CC0000); rx: var(--rx, 24);" />
	<path class="rails" d="M28.4,142.2c0,0,2-19.6,15.9-42.7c13.9-23.2,37.6-40.7,56.8-42.4c38.3-3.8,72.7,30.5,72.7,30.5
	s-1.1,0.8-2.3,1.8c-37.6-27.8-60.5-14.7-67.7-11.2c-33.1,18.5-23.1,64-23.1,64H28.4L28.4,142.2z M137.3,60.8
	c-2.1-0.9-4.2-1.6-6.4-2.4l0.3-4.4c4.2,1.2,5.8,2,6.4,2.3L137.3,60.8L137.3,60.8z M131,74.8c2.1,0.1,4.3,0.4,6.5,0.9l-0.3,4.1
	c-2.2-0.5-4.4-0.7-6.5-0.8L131,74.8L131,74.8z M106.5,54.2c-1.9,0-3.8,0.1-5.8,0.3l-1.3-3.9c2.2-0.3,4.3-0.4,6.3-0.4l1.3,4
	L106.5,54.2L106.5,54.2z M109.7,78.5c1.6-0.7,3.6-1.5,5.8-2.1l1.5,4.4c-1.9,0.6-3.8,1.4-5.8,2.3L109.7,78.5L109.7,78.5z M79.7,61.1
	C78,62,76.3,63,74.6,64l-3-4.6c1.8-1.1,3.5-2,5.2-2.8L79.7,61.1L79.7,61.1z M93.2,90.9c1.2-1.5,2.6-3,4.1-4.4l3,4.5
	c-1.5,1.5-2.8,3-3.9,4.7L93.2,90.9L93.2,90.9z M83.6,112.2c0.5-2.4,1.1-4.8,2-7.3l4.8,3.8c-0.7,2.6-1.1,5.2-1.4,7.7L83.6,112.2
	L83.6,112.2z M54.7,80.8c-1.6,1.6-3.1,3.4-4.5,5.2l-5.1-4.4c1.5-1.7,3.2-3.3,4.9-5L54.7,80.8L54.7,80.8z M34.7,110.3
	c-1.1,2.4-2.4,5.7-3.3,7.9l-7.6-2.8c0.7-1.8,2-5.1,3.3-7.9L34.7,110.3L34.7,110.3z M82.7,129l7.1,2.6c0.4,3.1,1,6,1.6,8.6l-7.9-2.8
	C83.1,135.3,82.8,132.5,82.7,129L82.7,129z" />
</svg>