<svg width="200" height="200" version="1.1" viewBox="0 0 200 200" xml:space="preserve"
	xmlns:xlink="http://www.w3.org/1999/xlink" xmlns="http://www.w3.org/2000/svg">
	<style>
		.raspberry--fragment-0 {
			fill: #75A928;
		}

		.raspberry--fragment-1 {
			fill: #BC1142;
		}
	</style>
	<rect width="200" height="200" style="fill: var(--bg, #fff); rx: var(--rx, 24);" />
	<g>
		<path d="M73.1,25c-0.8,0-1.6,0.3-2.5,1c-2.3-0.9-4.5-1.2-6.4,0.6c-3-0.4-4,0.4-4.8,1.4c-0.7,0-5-0.7-7,2.3c-5-0.6-6.6,2.9-4.8,6.2
		c-1,1.6-2.1,3.1,0.3,6.1c-0.8,1.7-0.3,3.5,1.7,5.7c-0.5,2.4,0.5,4,2.4,5.3c-0.3,3.2,3,5.1,3.9,5.8c0.4,1.9,1.2,3.6,4.9,4.6
		c0.6,2.8,2.9,3.3,5.1,3.9c-7.2,4.2-13.5,9.8-13.4,23.3l-1.1,1.9c-8.3,5.1-15.8,21.3-4.1,34.5c0.8,4.1,2,7.1,3.2,10.4
		c1.7,13.2,12.8,19.4,15.8,20.2c4.3,3.3,8.9,6.4,15.1,8.6c5.8,6,12.2,8.3,18.5,8.3c0.1,0,13-2.3,18.8-8.3c6.2-2.2,10.8-5.3,15.1-8.6
		c2.9-0.7,14.1-6.9,15.8-20.2c1.1-3.3,2.4-6.3,3.2-10.4c11.7-13.2,4.2-29.4-4.1-34.5l-1.1-1.9c0-13.6-6.2-19.1-13.4-23.3
		c2.2-0.6,4.5-1.1,5.1-3.9c3.8-1,4.6-2.7,4.9-4.6c1-0.7,4.3-2.5,3.9-5.8c1.8-1.3,2.9-3,2.4-5.3c2-2.2,2.5-4,1.7-5.7
		c2.4-3,1.3-4.6,0.3-6.1c1.8-3.3,0.2-6.8-4.8-6.2c-2-3-6.3-2.3-7-2.3c-0.7-0.9-1.7-1.8-4.8-1.4c-2-1.8-4.2-1.5-6.4-0.6
		c-2.7-2.1-4.5-0.4-6.5,0.2c-3.3-1.1-4,0.4-5.6,1c-3.6-0.8-4.6,0.9-6.3,2.6l-2,0c-5.4,3.2-8,9.6-9,12.9c-0.9-3.3-3.6-9.8-9-12.9
		l-2,0c-1.7-1.7-2.8-3.4-6.3-2.6c-1.6-0.6-2.3-2.1-5.6-1C75.7,25.8,74.5,25,73.1,25L73.1,25z" />
		<path class="raspberry--fragment-0" d="M62.4,38.9c14.2,7.3,22.5,13.3,27.1,18.3C87.1,66.6,75,67,70.6,66.7c0.9-0.4,1.7-0.9,1.9-1.7
		c-1.1-0.8-5.1-0.1-7.8-1.6c1.1-0.2,1.6-0.4,2-1.2c-2.6-0.8-5.4-1.5-7-2.9c0.9,0,1.7,0.2,2.9-0.6c-2.3-1.3-4.8-2.2-6.7-4.2
		c1.2,0,2.5,0,2.9-0.5c-2.1-1.3-3.9-2.8-5.4-4.4c1.7,0.2,2.4,0,2.8-0.3c-1.6-1.7-3.7-3-4.6-5.1c1.3,0.4,2.4,0.6,3.2,0
		c-0.5-1.2-2.9-2-4.2-4.9c1.3,0.1,2.7,0.3,3,0c-0.6-2.5-1.7-3.9-2.7-5.3c2.8,0,7.1,0,6.9-0.2l-1.7-1.8c2.8-0.7,5.6,0.1,7.6,0.8
		c0.9-0.7,0-1.6-1.1-2.6c2.3,0.3,4.5,0.9,6.4,1.6c1-0.9-0.7-1.8-1.5-2.8c3.6,0.7,5.1,1.6,6.7,2.6c1.1-1.1,0.1-2-0.7-2.9
		c2.7,1,4.1,2.3,5.6,3.6c0.5-0.7,1.3-1.2,0.3-2.8c1.9,1.1,3.4,2.4,4.5,3.9c1.2-0.8,0.7-1.8,0.7-2.8c2,1.6,3.3,3.4,4.9,5.1
		c0.3-0.2,0.6-1,0.8-2.2c4.8,4.7,11.6,16.4,1.7,21C83.5,47.7,73.5,42.7,62.4,38.9L62.4,38.9 M137.9,38.9
		c-14.2,7.3-22.5,13.3-27.1,18.3c2.3,9.3,14.4,9.7,18.9,9.5c-0.9-0.4-1.7-0.9-1.9-1.7c1.1-0.8,5.1-0.1,7.8-1.6
		c-1.1-0.2-1.6-0.4-2-1.2c2.6-0.8,5.4-1.5,7-2.9c-0.9,0-1.7,0.2-2.9-0.6c2.3-1.3,4.8-2.2,6.7-4.2c-1.2,0-2.5,0-2.9-0.5
		c2.1-1.3,3.9-2.8,5.4-4.4c-1.7,0.2-2.4,0-2.8-0.3c1.6-1.7,3.7-3,4.6-5.1c-1.3,0.4-2.4,0.6-3.2,0c0.5-1.2,2.9-2,4.2-4.9
		c-1.3,0.1-2.7,0.3-3,0c0.6-2.5,1.7-3.9,2.7-5.3c-2.8,0-7.1,0-6.9-0.2l1.7-1.8c-2.8-0.7-5.6,0.1-7.6,0.8c-0.9-0.7,0-1.6,1.1-2.6
		c-2.3,0.3-4.5,0.9-6.4,1.6c-1-0.9,0.7-1.8,1.5-2.8c-3.6,0.7-5.1,1.6-6.7,2.6c-1.1-1.1-0.1-2,0.7-2.9c-2.7,1-4.1,2.3-5.6,3.6
		c-0.5-0.7-1.3-1.2-0.3-2.8c-1.9,1.1-3.4,2.4-4.5,3.9c-1.2-0.8-0.7-1.8-0.7-2.8c-2,1.6-3.3,3.4-4.9,5.1c-0.3-0.2-0.6-1-0.8-2.2
		c-4.8,4.7-11.6,16.4-1.7,21C116.9,47.7,126.9,42.7,137.9,38.9L137.9,38.9" />
		<path class="raspberry--fragment-1" d="M117.4,133.7c0,8.7-7.5,15.8-17,15.8c-9.4,0-17.1-7-17.1-15.6c0-0.1,0-0.1,0-0.2c0-8.7,7.5-15.8,17-15.8
		s17.1,7,17.1,15.6V133.7 M90.5,88.8c7.1,4.6,8.3,15.1,2.8,23.4c-5.5,8.3-15.7,11.3-22.7,6.7c-7.1-4.6-8.3-15.1-2.8-23.4
		C73.2,87.1,83.4,84.1,90.5,88.8 M109.6,87.9c-7.1,4.6-8.3,15.1-2.8,23.4c5.5,8.3,15.7,11.3,22.7,6.7c7.1-4.6,8.3-15.1,2.8-23.4
		C126.8,86.3,116.6,83.3,109.6,87.9 M55.2,96.3c7.6-2,2.6,31.6-3.6,28.8C44.7,119.7,42.5,103.6,55.2,96.3 M143.3,95.9
		c-7.6-2-2.6,31.6,3.6,28.8C153.8,119.2,156,103.2,143.3,95.9 M117.4,70.9c13.2-2.2,24.1,5.6,23.7,19.9
		C140.7,96.3,112.6,71.7,117.4,70.9 M81,70.5c-13.2-2.2-24.1,5.6-23.7,19.9C57.8,95.8,85.9,71.3,81,70.5 M99.9,67.1
		c-7.9-0.2-15.4,5.8-15.4,9.3c0,4.3,6.2,8.6,15.5,8.7c9.5,0.1,15.5-3.5,15.5-7.9C115.6,72.4,106.9,67.1,99.9,67.1L99.9,67.1
		M100.4,154.4c6.9-0.3,16,2.2,16.1,5.5c0.1,3.2-8.3,10.5-16.5,10.4c-8.5,0.4-16.8-6.9-16.7-9.5C83.2,157.1,93.6,154.2,100.4,154.4
		M75.1,134.7c4.9,5.9,7.1,16.2,3,19.2c-3.9,2.3-13.2,1.4-19.9-8.2c-4.5-8-3.9-16.2-0.8-18.6C62.2,124.3,69.5,128.2,75.1,134.7
		L75.1,134.7 M124.8,132.8c-5.3,6.2-8.2,17.5-4.4,21.1c3.7,2.8,13.6,2.4,20.9-7.7c5.3-6.8,3.5-18.2,0.5-21.2
		C137.3,121.6,130.8,126,124.8,132.8L124.8,132.8" />
	</g>
</svg>