<svg width="200" height="200" version="1.1" viewBox="0 0 200 200" xml:space="preserve"
	xmlns:xlink="http://www.w3.org/1999/xlink" xmlns="http://www.w3.org/2000/svg">
	<style>
		.reactlynx {
			fill: #ffffff;
		}
	</style>
	<rect width="200" height="200" style="fill: var(--bg, #191d24); rx: var(--rx, 24px); filter: var(--filter);" />
	<g>
		<path class="reactlynx" d="M101,93.5l13.8-40.2l-41.1,58.1L94,112l-11.5,35.2l40.8-53L101,93.5z" />
		<path class="reactlynx" d="M150.2,130.5c1.2,14.2-1.8,27.6-12.3,33.6c-5.9,3.3-12.7,3.5-19.5,1.6c-5.1-1.4-10.3-3.9-15.4-7.4c2.3-1.7,4.9-3.8,7.3-6
		l0.5-0.4c3.6,2.2,7.1,3.7,10.2,4.6c5.1,1.4,9.1,1,12-0.7c5.3-3,8.7-11.2,7.5-24.5c-0.5-5.9-1.9-12.5-4.2-19.4
		c-1.2,2.3-2.4,4.6-3.7,6.9c-10,17-22.4,30.8-34.6,39.2c-11.9,8.2-25.2,12.2-35.6,6.3c-8-4.6-11.7-13.6-12.4-23.7
		c-0.7-10.2,1.4-22.5,6-35.2c2.3-6.3,6.4-14.7,9.8-21.3c1.1-2.2,2.2-4.2,3.1-5.9c2.8-0.6,6-1.3,9.2-1.8c1.1-0.2,2.1-0.3,3.1-0.5
		l-0.6,1c0,0,0,0-0.5,0.8c-0.3,0.6-0.8,1.4-1.4,2.4c-1.1,2.1-2.7,5-4.4,8.2c-3.4,6.6-7.3,14.4-9.3,20.1c-4.3,11.9-6,22.8-5.4,31.3
		c0.6,8.6,3.6,13.8,7.6,16.2c5.3,3,14.1,1.8,25.3-5.9c10.8-7.4,22.3-20,31.7-36.1c2.8-4.8,5.3-9.7,7.3-14.4c-2-4.5-4.3-9-6.9-13.5
		c-2.1-3.6-4.3-7.1-6.6-10.3c0.9,0.1,1.8,0.2,2.6,0.4c4.1,0.6,7.7,1.4,10.5,2.1c0.6,1,1.2,2,1.8,3.1
		C143.1,98.4,149,115.8,150.2,130.5z M34.7,99.3c0-6,5.5-13,17.8-18.7c11.9-5.5,28.7-9.1,47.6-9.1c13.2,0,25.4,1.7,35.6,4.7
		c0.2-1.2,0.4-2.6,0.6-4.1c0.2-1.9,0.4-3.8,0.5-5.5c-4.9-1.3-10.2-2.4-15.8-3.1c-7.1-8.8-14.8-16.2-22.3-21.4
		C86.7,34,73.4,29.9,62.9,35.8C57,39.2,53.4,45.1,51.7,52c-1.2,4.7-1.5,10-1.2,15.7c2-0.8,4.1-1.6,6.1-2.3c1.1-0.4,2.3-0.8,3.4-1.1
		c0-3.7,0.3-7.1,1-10c1.3-5.2,3.7-8.5,6.7-10.2c5.3-3,14.1-1.8,25.3,5.9c4.6,3.2,9.4,7.3,14.1,12.3c-2.4-0.1-4.7-0.2-7.1-0.2
		c-19.9,0-38.2,3.7-51.7,10C35.2,78.1,25,87.4,25,99.3c0,6.7,3.3,12.6,8.4,17.5c3.6,3.5,8.2,6.5,13.5,9.1c0.4-3.2,1.1-6.4,1.9-9.8
		c-3.5-1.9-6.5-4-8.7-6.2C36.3,106.4,34.7,102.7,34.7,99.3z M151.7,72c-0.7-0.3-1.4-0.6-2.1-0.9c0.1-0.5,0.1-1,0.2-1.5
		C151,55.4,147.9,42,137.5,36c-9.5-5.4-23.6-3.7-34.8,4.8c2.2,1.8,4.6,3.9,6.8,6.1l0.5,0.5c8.3-5.6,17.6-6,22.7-3.1
		c5.2,3,8.5,11,7.5,24c0,0.3,0,0.5-0.1,0.8c-0.4,4.3-1.2,9-2.5,13.9c0.1,0.1,0.1,0.2,0.2,0.3c0.4,0.7,0.9,1.7,1.4,2.9
		c1.2,2.4,2.7,5.6,4.1,8.8c0.1,0.2,0.2,0.5,0.3,0.7c1.9-5.1,3.3-10.1,4.3-14.9c12,5.7,17.3,12.5,17.3,18.5c0,3.4-1.6,7-5.5,10.7
		c-2.4,2.3-5.5,4.5-9.3,6.5c0.7,2.7,1.4,5.9,1.8,9.5l0,0.3c5.6-2.7,10.4-5.8,14.2-9.4c5.1-4.9,8.4-10.8,8.4-17.5
		C175,87.4,164.8,78.1,151.7,72z" />
	</g>
</svg>