<svg width="200" height="200" version="1.1" viewBox="0 0 200 200" xml:space="preserve"
	xmlns:xlink="http://www.w3.org/1999/xlink" xmlns="http://www.w3.org/2000/svg">
	<style>
		.react {
			fill: #00D8FF;
		}
	</style>
	<rect width="200" height="200" style="fill: var(--bg, #242938); rx: var(--rx, 24);" />
	<path class="react" d="M100,114.9c8.3,0,15.1-6.7,15.1-15.1s-6.7-15.1-15.1-15.1c-8.3,0-15.1,6.7-15.1,15.1S91.7,114.9,100,114.9z
	M154.3,73.6c-1.8-0.6-3.6-1.2-5.4-1.7c0.3-1.3,0.6-2.5,0.8-3.7c4.2-20.3,1.2-36.1-7.7-41.3c-8.6-5-22.7-0.2-37.7,12.9
	c-1.4,1.2-2.8,2.5-4.2,3.9c-0.9-0.9-1.9-1.8-2.8-2.6C81.8,27.3,66.6,22,57.6,27.1c-8.6,5-11.5,19.6-7.7,39.1
	c0.4,1.8,0.8,3.7,1.3,5.6c-2.2,0.6-4.2,1.3-6.2,2c-18.3,6.4-29.2,16.1-29.2,26.1c0,10.3,11.8,20.8,30.8,27.3c1.5,0.5,3,1,4.6,1.4
	c-0.5,2-1,4.1-1.3,6c-3.6,19.1-0.6,33.4,8,38.4c2.3,1.3,5.1,2,8.1,2c8.6,0,19.7-5.3,30.9-15.1c1.2-1,2.3-2.1,3.5-3.2
	c1.5,1.5,3,2.9,4.6,4.2c10.8,9.3,21.1,14.2,29.3,14.2c3,0,5.6-0.6,7.9-2c8.9-5.2,12.1-20.6,8.2-40.3c-0.3-1.5-0.6-3-1-4.5
	c1.1-0.3,2.1-0.6,3.1-1c19.7-6.5,31.9-17,31.9-27.3C184.3,89.9,173.1,80.1,154.3,73.6z M138.4,33.2c4.8,2.8,8.2,14.5,4.3,33.6
	c-0.2,1.1-0.5,2.2-0.8,3.4c-7-1.6-14.6-2.8-22.5-3.6c-4.6-6.6-9.4-12.6-14.2-17.8c1.3-1.2,2.6-2.4,3.9-3.6
	C122.8,33.2,133.9,30.6,138.4,33.2z M123.5,113.6c-2.7,4.6-5.4,8.9-8.1,13c-5,0.4-10.2,0.6-15.5,0.6s-10.4-0.2-15.2-0.5
	c-2.9-4.2-5.7-8.6-8.3-13.1c-2.6-4.5-5-9.1-7.2-13.6c2-4.3,4.3-8.5,6.7-12.7l0.5-0.9c2.6-4.5,5.3-8.9,8.2-13
	c5-0.4,10.2-0.6,15.4-0.6h0c5.2,0,10.4,0.2,15.4,0.6c2.8,4.1,5.5,8.5,8.1,13c2.7,4.6,5.1,9.1,7.3,13.5
	C128.6,104.4,126.2,109,123.5,113.6z M134.7,108.2c2.3,5.2,4.2,10.1,5.7,14.9c-4.9,1.1-10.2,2-15.7,2.7c1.7-2.8,3.5-5.6,5.2-8.6
	C131.5,114.2,133.1,111.2,134.7,108.2z M100.3,146.3c-3.4-3.7-6.8-7.8-10.2-12.1c3.2,0.1,6.5,0.2,9.9,0.2c3.4,0,6.8-0.1,10.2-0.2
	C106.9,138.6,103.6,142.7,100.3,146.3z M75.6,125.9c-5.5-0.6-10.7-1.5-15.5-2.5c1.5-4.8,3.3-9.8,5.5-14.9c1.5,2.9,3.1,5.8,4.8,8.7
	C72,120.2,73.8,123.1,75.6,125.9z M65.5,91.6c-2.1-5-3.9-9.9-5.4-14.6c4.8-1.1,10-2,15.3-2.6c-1.4,2.2-2.8,4.4-4.1,6.7l-1.1,1.8
	C68.6,85.7,67,88.7,65.5,91.6z M100.1,53.9c3.3,3.6,6.7,7.6,9.9,12c-3.3-0.2-6.6-0.2-10-0.2h0c-3.3,0-6.7,0.1-9.9,0.2
	C93.3,61.6,96.7,57.6,100.1,53.9z M129.7,82.8c-1.7-2.9-3.4-5.7-5.1-8.4C130,75,135.1,75.9,140,77c-1.5,4.7-3.3,9.5-5.4,14.5
	C133.1,88.7,131.4,85.8,129.7,82.8z M57,64.8c-3.5-17.9-0.3-28.9,4.2-31.5c1.1-0.6,2.5-1,4.3-1c6,0,15.7,4,27,14
	c0.8,0.7,1.7,1.5,2.5,2.3C90.1,54,85.3,60,80.7,66.5c-7.9,0.7-15.5,1.9-22.5,3.5C57.7,68.3,57.3,66.5,57,64.8z M48.9,120.3
	c-17.8-6.1-26-14.9-26-20.5c0-5.4,7.6-13.4,24.4-19.3c1.9-0.6,3.8-1.3,5.8-1.8c2.1,6.9,4.9,14,8.2,21.3c-3.4,7.4-6.2,14.6-8.3,21.6
	C51.6,121.2,50.2,120.8,48.9,120.3z M61.4,166.7c-4.6-2.7-7.8-13.2-4.5-30.8c0.3-1.8,0.8-3.7,1.2-5.6c6.9,1.5,14.5,2.6,22.7,3.3
	c4.7,6.6,9.5,12.6,14.5,17.9c-1.1,1-2.1,2-3.2,3C77.9,166.9,66.2,169.5,61.4,166.7z M143.2,134.1c3.7,18.5,0.1,29.9-4.7,32.7
	c-4.6,2.7-15.4,0.2-28.9-11.5c-1.4-1.2-2.8-2.5-4.2-3.9c4.7-5.2,9.5-11.2,14.1-18c8.2-0.7,15.9-1.9,22.8-3.5
	C142.6,131.4,142.9,132.7,143.2,134.1z M150.1,120.4c-0.9,0.3-1.9,0.6-2.8,0.9c-2.1-6.7-5-13.9-8.5-21.4c3.4-7.3,6.1-14.3,8.2-21
	c1.7,0.5,3.4,1,5,1.6c17.3,5.9,25.1,14.2,25.1,19.4C177.1,105.4,168.7,114.2,150.1,120.4z" />
</svg>