<svg width="200" height="200" version="1.1" viewBox="0 0 200 200" xml:space="preserve"
	xmlns:xlink="http://www.w3.org/1999/xlink" xmlns="http://www.w3.org/2000/svg">
	<style>
		.red-hat {
			fill: #EE0000;
		}
	</style>
	<rect width="200" height="200" style="fill: var(--bg, #151515); rx: var(--rx, 24);" />
	<g>
		<path class="red-hat" d="M125.1,108.7c9.9,0,24.1-2,24.1-13.8c0-0.9-0.1-1.8-0.2-2.7l-5.9-25.5c-1.4-5.6-2.5-8.2-12.4-13.1
		c-7.6-3.9-24.3-10.4-29.2-10.4c-4.6,0-5.9,5.9-11.4,5.9c-5.3,0-9.2-4.4-14.1-4.4c-4.7,0-7.8,3.2-10.2,9.9c0,0-6.6,18.7-7.5,21.4
		c-0.1,0.5-0.2,1-0.2,1.5C58.1,84.8,86.7,108.6,125.1,108.7 M150.7,99.7c1.4,6.5,1.4,7.1,1.4,8c0,11-12.4,17.2-28.7,17.2
		c-36.8,0-69.1-21.6-69.1-35.8c0-2,0.4-4,1.2-5.8c-13.3,0.7-30.4,3-30.4,18.2c0,24.8,58.8,55.4,105.3,55.4
		c35.7,0,44.7-16.1,44.7-28.9C175,117.8,166.3,106.5,150.7,99.7" />
		<path d="M150.7,99.7c1.4,6.5,1.4,7.1,1.4,8c0,11-12.4,17.2-28.7,17.2c-36.8,0-69.1-21.6-69.1-35.8c0-2,0.4-4,1.2-5.8l2.9-7.1
		c-0.1,0.5-0.2,1-0.2,1.5c0,7.3,28.6,31.1,66.9,31.1c9.9,0,24.1-2,24.1-13.8c0-0.9-0.1-1.8-0.2-2.7L150.7,99.7z" />
	</g>
</svg>