<svg width="200" height="200" version="1.1" viewBox="0 0 200 200" xml:space="preserve"
	xmlns:xlink="http://www.w3.org/1999/xlink" xmlns="http://www.w3.org/2000/svg">
	<style>
		.redis {
			fill: #FF4438;
		}
	</style>
	<rect width="200" height="200" style="fill: var(--bg, #fff); rx: var(--rx, 24px); filter: var(--filter);" />
	<path class="redis"
		d="M166.9,107.2c-10.4,13.1-21.6,28-44,28c-20,0-27.5-17.7-28-32c4.4,9.3,13,16.8,26.3,16.4
	c25.7-0.8,43.4-24.1,43.4-45.2c0-25.3-18.9-43.6-51.7-43.6c-23.4,0-52.5,8.9-71.6,23c-0.2,14.5,7.9,33.4,10.8,31.3
	c16.6-11.9,29.7-19.6,42.4-23.4c-18.8,21-64.1,69.8-69.6,78.4c0.6,7.9,10.4,29.1,15.1,29.1c1.5,0,2.7-0.8,4.2-2.3
	c13.6-15.3,24.7-29,34.6-42.3c1.4,19.4,10.9,43.1,37.6,43.1c23.9,0,47.5-17.2,58.3-56C176.1,107,170.3,103.2,166.9,107.2z
	M139.8,75.8c0,12.2-12,18.3-23,18.3c-5.9,0-10.4-1.5-14-3.5c6.6-10,13.1-20.2,20.1-31.1C135.1,61.5,139.8,68.4,139.8,75.8z" />
</svg>