<svg width="200" height="200" version="1.1" viewBox="0 0 200 200" xml:space="preserve"
	xmlns:xlink="http://www.w3.org/1999/xlink" xmlns="http://www.w3.org/2000/svg">
	<style>
		.redux {
			fill: #764ABC;
		}
	</style>
	<rect width="200" height="200" style="fill: var(--bg, #fff); rx: var(--rx, 24px); filter: var(--filter);" />
	<path class="redux" d="M128.9,127.8c5.5-0.6,9.7-5.3,9.5-10.9c-0.2-5.6-5-10.1-10.7-10.1h-0.4c-5.9,0.2-10.5,5.1-10.3,10.9
	c0.2,2.8,1.3,5.3,3.1,6.9c-6.5,12.6-16.4,21.8-31.3,29.5c-10.1,5.3-20.6,7.1-31.1,5.8c-8.6-1.1-15.3-4.9-19.5-11.1
	c-6.1-9.2-6.7-19.1-1.5-29.1c3.6-7.1,9.4-12.4,13-15c-0.8-2.4-1.9-6.6-2.5-9.6c-27.7,19.7-24.8,46.4-16.4,58.9
	c6.3,9.4,19.1,15.2,33.2,15.2c3.8,0,7.6-0.4,11.5-1.3C99.9,163.2,118.4,149,128.9,127.8z M162.5,104.5
	c-14.5-16.7-35.9-25.9-60.3-25.9h-3.1c-1.7-3.4-5.3-5.6-9.4-5.6h-0.4c-5.9,0.2-10.5,5.1-10.3,10.9c0.2,5.6,5,10.1,10.7,10.1h0.4
	c4.2-0.2,7.8-2.8,9.4-6.4h3.4c14.5,0,28.3,4.1,40.7,12.2c9.5,6.2,16.4,14.3,20.2,24c3.2,7.9,3.1,15.6-0.4,22.1
	c-5.3,9.9-14.3,15.4-26.2,15.4c-7.6,0-14.9-2.3-18.7-3.9c-2.1,1.9-5.9,4.9-8.6,6.8c8.2,3.8,16.6,5.8,24.6,5.8
	c18.3,0,31.9-9.9,37-19.9C177.2,139.2,176.8,120.5,162.5,104.5z M65.6,131c0.2,5.6,5,10.1,10.7,10.1h0.4c5.9-0.2,10.5-5.1,10.3-10.9
	c-0.2-5.6-5-10.1-10.7-10.1h-0.4c-0.4,0-1,0-1.3,0.2c-7.8-12.8-11.1-26.6-9.9-41.7c0.8-11.3,4.6-21,11.3-29.1
	c5.5-6.9,16.2-10.3,23.5-10.5c20.2-0.4,28.8,24.4,29.4,34.3c2.5,0.6,6.7,1.9,9.5,2.8C136,45.8,116.9,30,98.6,30
	c-17.2,0-33,12.2-39.3,30.2c-8.8,24-3.1,47.1,7.6,65.3C65.9,126.8,65.4,128.9,65.6,131L65.6,131z" />
</svg>