<svg width="200" height="200" version="1.1" viewBox="0 0 200 200" xml:space="preserve"
	xmlns:xlink="http://www.w3.org/1999/xlink" xmlns="http://www.w3.org/2000/svg">
	<style>
		.redwood--fragment-0 {
			fill: #FFFFFF;
		}

		.redwood--fragment-1 {
			fill: #BF4722;
		}
	</style>
	<rect width="200" height="200" style="fill: var(--bg, #fff); rx: var(--rx, 24px); filter: var(--filter);" />
	<g>
		<path class="redwood--fragment-0" d="M91.5,27.1c-5.6,2.8-17.5,8.4-24,12.8c-6.4,4.4-5.6,8.5-8.5,11.3c-2.8,2.8-11.3,9.9-16.9,14.2
		c-5.6,4.3-4.2,15.6-5.6,19.9c-1.4,4.3-4.2,14.2-5.6,18.4c-1.4,4.3,2.8,9.9,5.6,15.6c2.8,5.7,9.9,21.3,12.7,27
		c2.8,5.7,11.3,2.8,18.3,8.5s16.9,12.8,24,17c7.1,4.3,9.9,4.3,16.9,0c7.1-4.3,16.9-11.3,24-17c7.1-5.7,15.5-2.8,18.3-8.5
		c2.8-5.7,9.9-21.3,12.7-27c2.8-5.7,7.1-11.3,5.6-15.6c-1.4-4.3-4.2-14.2-5.6-18.4c-1.4-4.3,0-15.6-5.6-19.9
		c-5.6-4.3-12.2-9.7-16.9-14.2c-4.7-4.5-2.8-7.1-8.5-11.3c-5.6-4.3-18.3-9.9-24-12.8C102.8,24.3,97.2,24.3,91.5,27.1z" />
		<path class="redwood--fragment-1" d="M71.6,51.7l26.4,18c0.6,0.4,1.3,0.6,2,0.6c0.7,0,1.4-0.2,2-0.6l26.4-18.1c1-0.7,1.6-2,1.5-3.2
		c-0.1-1.3-0.9-2.4-2-2.9l-26.4-13.1c-1-0.5-2.2-0.5-3.2,0L72.1,45.5c-1.2,0.6-1.9,1.7-2,3C70,49.8,70.6,51,71.6,51.7z M109,75.4
		c0,1.2,0.6,2.3,1.6,3l21.2,14.5c1.4,0.9,3.2,0.8,4.4-0.3l17.8-15.9c0.8-0.7,1.2-1.7,1.2-2.8c0-1.1-0.5-2.1-1.4-2.7l-17-13.6
		c-1.2-1-3-1-4.3-0.2l-21.9,15C109.6,73.1,109,74.2,109,75.4z M56.3,95.1c0.9,0.8,1.3,1.9,1.2,3.1c-0.1,1.2-0.8,2.2-1.8,2.7
		l-12.6,7.6c-1.3,0.8-2.9,0.7-4.1-0.3c-1.2-0.9-1.6-2.5-1.2-3.9l4.7-14.7c0.4-1.2,1.3-2.1,2.5-2.4c1.2-0.3,2.4,0,3.3,0.8L56.3,95.1z
		M124.9,96.6L102,81c-1.2-0.8-2.8-0.8-4,0L75.2,96.6c-0.9,0.6-1.5,1.6-1.6,2.7c-0.1,1.1,0.4,2.2,1.2,2.9l22.8,20.4
		c0.7,0.6,1.5,0.9,2.4,0.9c0.9,0,1.7-0.3,2.4-0.9l22.8-20.4c0.8-0.7,1.3-1.8,1.2-2.9C126.4,98.3,125.8,97.3,124.9,96.6z M64,92.6
		L46.2,76.7C45.4,76,45,74.9,45,73.9c0-1.1,0.5-2.1,1.3-2.7l17-13.6c1.2-1,3-1,4.3-0.2l21.9,15c1,0.7,1.6,1.8,1.6,3s-0.6,2.4-1.6,3
		L68.4,92.9C67,93.8,65.2,93.7,64,92.6z M155,115.4L137,104.6c-1.3-0.8-3-0.6-4.2,0.4l-22.1,19.7c-0.9,0.8-1.4,2.1-1.2,3.3
		c0.2,1.2,1,2.3,2.2,2.7l30.6,12.4c0.4,0.2,0.9,0.3,1.3,0.3c1.4,0,2.7-0.8,3.3-2.1l9.5-21.3C157.2,118.3,156.6,116.3,155,115.4z
		M157.5,89.6l4.7,14.7h0c0.3,1.1,0.1,2.3-0.5,3.2c-0.7,0.9-1.8,1.5-2.9,1.5c-0.6,0-1.3-0.2-1.8-0.5l-12.7-7.6
		c-1-0.6-1.6-1.6-1.7-2.7c-0.1-1.1,0.3-2.3,1.2-3.1l8-7.2c0.9-0.8,2.2-1.1,3.3-0.8C156.2,87.5,157.1,88.4,157.5,89.6z M90.6,128
		c0.2-1.2-0.2-2.5-1.1-3.3L67.3,105c-1.2-1-2.9-1.2-4.2-0.4l-18.1,10.8c-1.6,1-2.2,2.9-1.4,4.6l9.5,21.3c0.8,1.8,2.8,2.6,4.6,1.9
		l30.6-12.4C89.5,130.3,90.3,129.2,90.6,128z M101.4,134.1l24.6,9.9c1.2,0.5,2,1.6,2.2,2.9c0.2,1.3-0.4,2.6-1.5,3.4L102,167.4
		c-0.6,0.4-1.3,0.6-2,0.6c-0.7,0-1.4-0.2-2-0.6l-24.6-17.1c-1.1-0.7-1.7-2-1.5-3.4c0.2-1.3,1-2.4,2.2-2.9l24.6-9.9
		C99.6,133.7,100.5,133.7,101.4,134.1z" />
	</g>
</svg>