<svg version="1.2" xmlns="http://www.w3.org/2000/svg" viewBox="0 0 200 200" width="200" height="200">
	<style>
		.refine {
			fill: #14141f
		}
	</style>
	<rect width="200" height="200" style="fill: var(--bg, #fff); rx: var(--rx, 24px); filter: var(--filter);" />
	<path class="refine"
		d="m110.47 26.65c-7.06-3.53-15.38-3.53-22.44 0l-50.16 25.08c-8.5 4.25-13.87 12.94-13.87 22.44v50.16c0 9.5 5.37 18.19 13.87 22.44l50.16 25.08c7.06 3.53 15.38 3.53 22.44 0l50.16-25.08c8.5-4.25 13.87-12.94 13.87-22.44v-50.16c0-9.5-5.37-18.19-13.87-22.44zm-36.3 47.52c0-13.85 11.23-25.08 25.09-25.08 13.85 0 25.08 11.23 25.08 25.08v50.17c0 13.85-11.23 25.08-25.08 25.08-13.86 0-25.09-11.23-25.09-25.08zm25.09 12.54c-6.94 0-12.54-5.61-12.54-12.54 0-6.94 5.6-12.54 12.54-12.54 6.93 0 12.54 5.6 12.54 12.54 0 6.93-5.61 12.54-12.54 12.54z" />
</svg>