<svg width="200" height="200" version="1.1" viewBox="0 0 200 200" xml:space="preserve"
	xmlns:xlink="http://www.w3.org/1999/xlink" xmlns="http://www.w3.org/2000/svg">
	<style>
		.remix {
			fill: #fff;
		}
	</style>
	<rect width="200" height="200" style="fill: var(--bg, #121212); rx: var(--rx, 24px); filter: var(--filter);" />
	<path class="remix" d="M159.4,140.7c1.3,17.3,1.3,25.5,1.3,34.3h-40.1c0-1.9,0-3.7,0.1-5.5c0.1-5.6,0.2-11.4-0.7-23.1
	c-1.2-17.2-8.6-21-22.2-21h-12h-51V94.2h65c17.2,0,25.8-5.2,25.8-19.1c0-12.2-8.6-19.5-25.8-19.5h-65V25H107
	c38.9,0,58.2,18.4,58.2,47.7c0,21.9-13.6,36.3-32,38.6C148.7,114.4,157.8,123.3,159.4,140.7z M34.8,175v-23.3h42.4
	c7.1,0,8.6,5.3,8.6,8.4V175H34.8z" />
</svg>