<svg width="200" height="200" version="1.1" viewBox="0 0 200 200" xml:space="preserve"
	xmlns:xlink="http://www.w3.org/1999/xlink" xmlns="http://www.w3.org/2000/svg">
	<style>
		.rollup--fragment-0 {
			fill: url(#svgFragment1);
		}

		.rollup--fragment-1 {
			fill: url(#svgFragment2);
		}

		.rollup--fragment-2 {
			fill: url(#svgFragment3);
		}

		.rollup--fragment-3 {
			fill: url(#svgFragment4);
		}

		.rollup--fragment-4 {
			fill: url(#svgFragment5);
		}

		.rollup--fragment-5 {
			opacity: 0.3;
			fill: url(#svgFragment6);
		}
	</style>
	<defs>
		<linearGradient id="svgFragment1" gradientUnits="userSpaceOnUse" x1="84.7083" y1="95.1092" x2="125.1836"
			y2="85.6474" gradientTransform="matrix(1 0 0 -1 0 200)">
			<stop stop-color="#FF6533" offset="0" />
			<stop stop-color="#FF5633" offset="0.157" />
			<stop stop-color="#FF4333" offset="0.434" />
			<stop stop-color="#FF3733" offset="0.714" />
			<stop stop-color="#FF3333" offset="1" />
		</linearGradient>
		<linearGradient id="svgFragment2" gradientUnits="userSpaceOnUse" x1="78.3739" y1="108.5246" x2="150.9141"
			y2="52.2798" gradientTransform="matrix(1 0 0 -1 0 200)">
			<stop stop-color="#BF3338" offset="0" />
			<stop stop-color="#FF3333" offset="1" />
		</linearGradient>
		<linearGradient id="svgFragment3" gradientUnits="userSpaceOnUse" x1="80.7454" y1="97.4517" x2="91.2586"
			y2="86.413" gradientTransform="matrix(1 0 0 -1 0 200)">
			<stop stop-color="#FF6533" offset="0" />
			<stop stop-color="#FF5633" offset="0.157" />
			<stop stop-color="#FF4333" offset="0.434" />
			<stop stop-color="#FF3733" offset="0.714" />
			<stop stop-color="#FF3333" offset="1" />
		</linearGradient>
		<linearGradient id="svgFragment4" gradientUnits="userSpaceOnUse" x1="99.8612" y1="78.4495" x2="96.7073"
			y2="123.6555" gradientTransform="matrix(1 0 0 -1 0 200)">
			<stop stop-color="#FF6533" offset="0" />
			<stop stop-color="#FF5633" offset="0.157" />
			<stop stop-color="#FF4333" offset="0.434" />
			<stop stop-color="#FF3733" offset="0.714" />
			<stop stop-color="#FF3333" offset="1" />
		</linearGradient>
		<linearGradient id="svgFragment5" gradientUnits="userSpaceOnUse" x1="86.1961" y1="98.2262" x2="101.1294"
			y2="88.0714" gradientTransform="matrix(1 0 0 -1 0 200)">
			<stop stop-color="#FBB040" offset="0" />
			<stop stop-color="#FB8840" offset="1" />
		</linearGradient>
		<linearGradient id="svgFragment6" gradientUnits="userSpaceOnUse" x1="101.4966" y1="155.6407" x2="86.2526"
			y2="-12.0423" gradientTransform="matrix(1 0 0 -1 0 200)">
			<stop stop-color="#FFFFFF" offset="0" />
			<stop stop-color="#FFFFFF" stop-opacity="0" offset="1" />
		</linearGradient>
	</defs>
	<rect width="200" height="200" style="fill: var(--bg, #fff); rx: var(--rx, 24px); filter: var(--filter);" />
	<g>
		<path class="rollup--fragment-0" d="M157.4,74.4c0-8.8-2.3-17.1-6.4-24.3C140.2,39,116.7,36.4,110.9,50c-6,14,10.1,29.5,17.1,28.3
		c8.9-1.6-1.6-22.1-1.6-22.1C140,82,136.9,74.1,112.2,97.8c-24.7,23.7-49.9,73.6-53.6,75.7c-0.2,0.1-0.3,0.2-0.5,0.3H155
		c1.7,0,2.8-1.8,2.1-3.3l-25.3-50.1c-0.6-1.1-0.2-2.4,0.9-3C147.4,108.7,157.4,92.7,157.4,74.4L157.4,74.4z" />
		<path class="rollup--fragment-1" d="M157.4,74.4c0-8.8-2.3-17.1-6.4-24.3C140.2,39,116.7,36.4,110.9,50c-6,14,10.1,29.5,17.1,28.3
		c8.9-1.6-1.6-22.1-1.6-22.1C140,82,136.9,74.1,112.2,97.8c-24.7,23.7-49.9,73.6-53.6,75.7c-0.2,0.1-0.3,0.2-0.5,0.3H155
		c1.7,0,2.8-1.8,2.1-3.3l-25.3-50.1c-0.6-1.1-0.2-2.4,0.9-3C147.4,108.7,157.4,92.7,157.4,74.4L157.4,74.4z" />
		<path class="rollup--fragment-2"
			d="M58.6,173.5c3.7-2.1,28.9-52,53.6-75.7C136.9,74.1,140,82,126.4,56.2c0,0-52.3,73.3-71.2,109.6" />
		<path class="rollup--fragment-3" d="M65.9,107.8c35.3-64.9,39.9-71.5,58.3-71.5c9.7,0,19.4,4.4,25.7,12.1c-8.6-13.9-23.8-23.1-41.2-23.4h-60
		c-1.3,0-2.3,1-2.3,2.3v121C50.1,139,56.1,125.8,65.9,107.8L65.9,107.8z" />
		<path class="rollup--fragment-4" d="M112.2,97.8c-24.7,23.7-49.9,73.6-53.6,75.7c-3.7,2.1-9.9,2.4-13.1-1.3c-3.5-3.9-8.9-10.3,20.5-64.4
		c35.3-64.9,39.9-71.5,58.3-71.5c9.7,0,19.4,4.4,25.7,12.1c0.3,0.6,0.7,1.1,1,1.7C140.2,39,116.7,36.4,110.9,50
		c-6,14,10.1,29.5,17.1,28.3c8.9-1.6-1.6-22.1-1.6-22.1C140,82,136.9,74.1,112.2,97.8L112.2,97.8z" />
		<path class="rollup--fragment-5" d="M68.8,110.7c35.3-64.9,39.9-71.5,58.3-71.5c8,0,16,3,22.1,8.3c-6.3-7.2-15.7-11.2-25-11.2
		c-18.4,0-23,6.5-58.3,71.5c-29.4,54.1-24,60.5-20.5,64.4c0.5,0.6,1.1,1,1.7,1.4C44,169.1,42.7,158.7,68.8,110.7z" />
	</g>
</svg>