<svg width="200" height="200" version="1.1" viewBox="0 0 200 200" xml:space="preserve"
	xmlns:xlink="http://www.w3.org/1999/xlink" xmlns="http://www.w3.org/2000/svg">
	<style>
		.ruby--segment-0 {
			fill: url(#gradientSegment1);
		}

		.ruby--segment-1 {
			fill: url(#gradientSegment2);
		}

		.ruby--segment-2 {
			fill: url(#gradientSegment3);
		}

		.ruby--segment-3 {
			fill: url(#gradientSegment4);
		}

		.ruby--segment-4 {
			fill: url(#gradientSegment5);
		}

		.ruby--segment-5 {
			fill: url(#gradientSegment6);
		}

		.ruby--segment-6 {
			fill: url(#gradientSegment7);
		}

		.ruby--segment-7 {
			fill: #FFFFFF;
		}

		.ruby--segment-8 {
			fill: url(#gradientSegment8);
		}

		.ruby--segment-9 {
			fill: url(#gradientSegment9);
		}

		.ruby--segment-10 {
			fill: url(#gradientSegment10);
		}

		.ruby--segment-11 {
			fill: url(#gradientSegment11);
		}

		.ruby--segment-12 {
			fill: url(#gradientSegment12);
		}

		.ruby--segment-13 {
			fill: #9E1209;
		}

		.ruby--segment-14 {
			fill: url(#gradientSegment13);
		}

		.ruby--segment-15 {
			fill: url(#gradientSegment14);
		}

		.ruby--segment-16 {
			fill: url(#gradientSegment15);
		}

		.ruby--segment-17 {
			fill: url(#gradientSegment16);
		}
	</style>
	<defs>
		<linearGradient id="gradientSegment1" gradientUnits="userSpaceOnUse" x1="-137.7215" y1="336.4584" x2="-138.9926"
			y2="338.6963" gradientTransform="matrix(25 0 0 -25 3600 8600)">
			<stop stop-color="#FB7655" offset="0" />
			<stop stop-color="#E42B1E" offset="0.41" />
			<stop stop-color="#990000" offset="0.99" />
			<stop stop-color="#990000" offset="1" />
		</linearGradient>
		<linearGradient id="gradientSegment2" gradientUnits="userSpaceOnUse" x1="-137.0972" y1="338.3379" x2="-138.7312"
			y2="339.4314" gradientTransform="matrix(25 0 0 -25 3600 8600)">
			<stop stop-color="#871101" offset="0" />
			<stop stop-color="#911209" offset="0.99" />
			<stop stop-color="#911209" offset="1" />
		</linearGradient>
		<linearGradient id="gradientSegment3" gradientUnits="userSpaceOnUse" x1="-138.4011" y1="336.3894" x2="-140.0351"
			y2="337.4829" gradientTransform="matrix(25 0 0 -25 3600 8600)">
			<stop stop-color="#871101" offset="0" />
			<stop stop-color="#911209" offset="0.99" />
			<stop stop-color="#911209" offset="1" />
		</linearGradient>
		<linearGradient id="gradientSegment4" gradientUnits="userSpaceOnUse" x1="-141.8281" y1="339.1314" x2="-141.5739"
			y2="337.4836" gradientTransform="matrix(25 0 0 -25 3600 8600)">
			<stop stop-color="#FFFFFF" offset="0" />
			<stop stop-color="#E57252" offset="0.23" />
			<stop stop-color="#DE3B20" offset="0.46" />
			<stop stop-color="#A60003" offset="0.99" />
			<stop stop-color="#A60003" offset="1" />
		</linearGradient>
		<linearGradient id="gradientSegment5" gradientUnits="userSpaceOnUse" x1="-138.5468" y1="342.2246" x2="-138.2664"
			y2="341.0195" gradientTransform="matrix(25 0 0 -25 3600 8600)">
			<stop stop-color="#FFFFFF" offset="0" />
			<stop stop-color="#E46342" offset="0.18" />
			<stop stop-color="#C82410" offset="0.4" />
			<stop stop-color="#A80D00" offset="0.99" />
			<stop stop-color="#A80D00" offset="1" />
		</linearGradient>
		<linearGradient id="gradientSegment6" gradientUnits="userSpaceOnUse" x1="-139.3972" y1="342.6497" x2="-138.1939"
			y2="343.2497" gradientTransform="matrix(25 0 0 -25 3600 8600)">
			<stop stop-color="#FFFFFF" offset="0" />
			<stop stop-color="#C81F11" offset="0.54" />
			<stop stop-color="#BF0905" offset="0.99" />
			<stop stop-color="#BF0905" offset="1" />
		</linearGradient>
		<linearGradient id="gradientSegment7" gradientUnits="userSpaceOnUse" x1="-142.8823" y1="339.5515" x2="-142.7828"
			y2="338.5584" gradientTransform="matrix(25 0 0 -25 3600 8600)">
			<stop stop-color="#FFFFFF" offset="0" />
			<stop stop-color="#DE4024" offset="0.31" />
			<stop stop-color="#BF190B" offset="0.99" />
			<stop stop-color="#BF190B" offset="1" />
		</linearGradient>
		<linearGradient id="gradientSegment8" gradientUnits="userSpaceOnUse" x1="-140.0089" y1="340.6747" x2="-139.9152"
			y2="338.9928" gradientTransform="matrix(25 0 0 -25 3600 8600)">
			<stop stop-color="#FFFFFF" offset="0" />
			<stop stop-color="#E4714E" offset="0.23" />
			<stop stop-color="#BE1A0D" offset="0.56" />
			<stop stop-color="#A80D00" offset="0.99" />
			<stop stop-color="#A80D00" offset="1" />
		</linearGradient>
		<linearGradient id="gradientSegment9" gradientUnits="userSpaceOnUse" x1="-143.5695" y1="338.2972" x2="-138.9056"
			y2="343.0797" gradientTransform="matrix(25 0 0 -25 3600 8600)">
			<stop stop-color="#BD0012" offset="0" />
			<stop stop-color="#FFFFFF" offset="7.000000e-02" />
			<stop stop-color="#FFFFFF" offset="0.17" />
			<stop stop-color="#C82F1C" offset="0.27" />
			<stop stop-color="#820C01" offset="0.33" />
			<stop stop-color="#A31601" offset="0.46" />
			<stop stop-color="#B31301" offset="0.72" />
			<stop stop-color="#E82609" offset="0.99" />
			<stop stop-color="#E82609" offset="1" />
		</linearGradient>
		<linearGradient id="gradientSegment10" gradientUnits="userSpaceOnUse" x1="-139.9992" y1="337.8081"
			x2="-141.4004" y2="338.153" gradientTransform="matrix(25 0 0 -25 3600 8600)">
			<stop stop-color="#8C0C01" offset="0" />
			<stop stop-color="#990C00" offset="0.54" />
			<stop stop-color="#A80D0E" offset="0.99" />
			<stop stop-color="#A80D0E" offset="1" />
		</linearGradient>
		<linearGradient id="gradientSegment11" gradientUnits="userSpaceOnUse" x1="-137.5929" y1="339.4931"
			x2="-138.8404" y2="340.6081" gradientTransform="matrix(25 0 0 -25 3600 8600)">
			<stop stop-color="#7E110B" offset="0" />
			<stop stop-color="#9E0C00" offset="0.99" />
			<stop stop-color="#9E0C00" offset="1" />
		</linearGradient>
		<linearGradient id="gradientSegment12" gradientUnits="userSpaceOnUse" x1="-137.1338" y1="341.5468"
			x2="-137.7555" y2="342.2096" gradientTransform="matrix(25 0 0 -25 3600 8600)">
			<stop stop-color="#79130D" offset="0" />
			<stop stop-color="#9E120B" offset="0.99" />
			<stop stop-color="#9E120B" offset="1" />
		</linearGradient>
		<radialGradient id="gradientSegment13" cx="-151.6504" cy="350.6919" r="0.25"
			gradientTransform="matrix(152.4987 0 0 -152.923 23260.3848 53714.1289)" gradientUnits="userSpaceOnUse">
			<stop stop-color="#A80D00" offset="0" />
			<stop stop-color="#7E0E08" offset="0.99" />
			<stop stop-color="#7E0E08" offset="1" />
		</radialGradient>
		<radialGradient id="gradientSegment14" cx="-150.4602" cy="351.264" r="0.25"
			gradientTransform="matrix(202.7265 0 0 -203.291 30583.3633 71544.4609)" gradientUnits="userSpaceOnUse">
			<stop stop-color="#A30C00" offset="0" />
			<stop stop-color="#800E08" offset="0.99" />
			<stop stop-color="#800E08" offset="1" />
		</radialGradient>
		<linearGradient id="gradientSegment15" gradientUnits="userSpaceOnUse" x1="-142.192" y1="337.0076" x2="-142.6997"
			y2="338.7254" gradientTransform="matrix(25 0 0 -25 3600 8600)">
			<stop stop-color="#8B2114" offset="0" />
			<stop stop-color="#9E100A" offset="0.43" />
			<stop stop-color="#B3100C" offset="0.99" />
			<stop stop-color="#B3100C" offset="1" />
		</linearGradient>
		<linearGradient id="gradientSegment16" gradientUnits="userSpaceOnUse" x1="-138.3171" y1="342.7022"
			x2="-137.1836" y2="342.2032" gradientTransform="matrix(25 0 0 -25 3600 8600)">
			<stop stop-color="#B31000" offset="0" />
			<stop stop-color="#910F08" offset="0.44" />
			<stop stop-color="#791C12" offset="0.99" />
			<stop stop-color="#791C12" offset="1" />
		</linearGradient>
	</defs>
	<rect width="200" height="200" style="fill: var(--bg, #fff); rx: var(--rx, 24);" />
	<g>
		<path class="ruby--segment-0" d="M141.2,124l-85.6,51l110.9-7.5L175,55.3L141.2,124z" />
		<path class="ruby--segment-1" d="M166.6,167.4l-9.5-66l-26,34.4L166.6,167.4z" />
		<path class="ruby--segment-2" d="M166.8,167.4l-69.8-5.5l-41,13L166.8,167.4z" />
		<path class="ruby--segment-3" d="M56,174.9l17.4-57.3l-38.4,8.2L56,174.9z" />
		<path class="ruby--segment-4" d="M171.4,73.8l-43.4-35.6l-12.1,39.2L171.4,73.8z" />
		<path class="ruby--segment-5" d="M151.1,25.6l-25.5,14.2l-16.1-14.3L151.1,25.6z" />
		<path class="ruby--segment-6" d="M25,145l10.7-19.6L27,102.1L25,145z" />
		<path class="ruby--segment-7" d="M26.5,101.4l8.7,24.8l37.8-8.5l43.2-40.3l12.2-38.8L109.2,25L76.6,37.2c-10.3,9.6-30.2,28.6-30.9,28.9
			C44.9,66.5,32.4,90.1,26.5,101.4z" />
		<path class="ruby--segment-8" d="M73.3,117.4l42.9-40l0-0.1l14.9,58.6L73.3,117.4z" />
		<path class="ruby--segment-9" d="M57,56.9c22.3-22.2,51-35.2,62-24.1c11,11.2-0.7,38.3-22.9,60.4c-22.3,22.1-50.6,36-61.7,24.8
			C23.4,106.9,34.8,79.1,57,56.9z" />
		<path class="ruby--segment-10" d="M56,174.8l17.3-57.5l57.5,18.5C110,155.4,86.9,171.9,56,174.8z" />
		<path class="ruby--segment-11" d="M116.3,77.3l14.8,58.6c17.4-18.3,32.9-38,40.6-62.3L116.3,77.3z" />
		<path class="ruby--segment-12" d="M171.4,73.9c5.9-17.9,7.3-43.5-20.6-48.3L128,38.3L171.4,73.9z" />
		<path class="ruby--segment-13" d="M25,144.8c0.8,29.5,22,29.9,31.1,30.2l-20.9-48.9L25,144.8z" />
		<path class="ruby--segment-14"
			d="M116.4,77.4c13.3,8.2,40.2,24.7,40.8,25c0.8,0.5,11.6-18.2,14-28.7L116.4,77.4z" />
		<path class="ruby--segment-15" d="M73.3,117.4l23.1,44.8c13.7-7.4,24.4-16.5,34.2-26.2L73.3,117.4z" />
		<path class="ruby--segment-16"
			d="M35.1,126.1l-3.3,39.1c6.2,8.5,14.7,9.2,23.6,8.5C49,157.7,36.1,125.5,35.1,126.1z" />
		<path class="ruby--segment-17" d="M127.9,38.4l46,6.5c-2.5-10.4-10-17.1-22.8-19.3L127.9,38.4z" />
	</g>

</svg>