<svg width="200" height="200" version="1.1" viewBox="0 0 200 200" xml:space="preserve"
	xmlns:xlink="http://www.w3.org/1999/xlink" xmlns="http://www.w3.org/2000/svg">
	<style>
		.rxjs--fragment-0 {
			fill: #E32286;
		}

		.rxjs--fragment-1 {
			fill: url(#svgFragment1);
		}

		.rxjs--fragment-2 {
			fill: url(#svgFragment2);
		}

		.rxjs--fragment-3 {
			fill: url(#svgFragment3);
		}
	</style>
	<defs>
		<linearGradient id="svgFragment1" gradientUnits="userSpaceOnUse" x1="16.0466" y1="176.6944" x2="24.1871"
			y2="185.3545" gradientTransform="matrix(9.0411 0 0 -9.0411 -97.2973 1760.1808)">
			<stop stop-color="#E01D84" offset="0" />
			<stop stop-color="#DF1D85" offset="0.401" />
			<stop stop-color="#932C87" offset="0.77" />
			<stop stop-color="#5D2F88" offset="1" />
		</linearGradient>
		<radialGradient id="svgFragment2" cx="24.845" cy="200.4746" r="7.9538"
			gradientTransform="matrix(9.0411 2.160822e-02 1.808219e-02 -7.5602 -99.4671 1578.6808)"
			gradientUnits="userSpaceOnUse">
			<stop stop-color="#E01D84" offset="0" />
			<stop stop-color="#DE1E85" offset="0.139" />
			<stop stop-color="#D62085" offset="0.285" />
			<stop stop-color="#C92386" offset="0.434" />
			<stop stop-color="#B72786" offset="0.586" />
			<stop stop-color="#9D2B87" offset="0.739" />
			<stop stop-color="#7C2E88" offset="0.891" />
			<stop stop-color="#5D2F88" offset="1" />
		</radialGradient>
		<linearGradient id="svgFragment3" gradientUnits="userSpaceOnUse" x1="17.9901" y1="188.8211" x2="21.5299"
			y2="188.8211" gradientTransform="matrix(9.0411 0 0 -9.0411 -97.2973 1760.1808)">
			<stop stop-color="#E01D84" offset="0" />
			<stop stop-color="#DA1E85" offset="0.238" />
			<stop stop-color="#C72085" offset="0.658" />
			<stop stop-color="#B52284" offset="0.999" />
		</linearGradient>
	</defs>
	<rect width="200" height="200" style="fill: var(--bg, #fff); rx: var(--rx, 24px); filter: var(--filter);" />
	<g>
		<path class="rxjs--fragment-0" d="M33.6,119.8c-3.1-9.6-4-19.7-2.2-30.1c0.8-4.3,2-8.5,3.3-12.7c0,0,8.2-26.8,35.8-39c0,0,9.5-5,23.8-5.4
		c0,0-2-1.9-3.2-2.7c-6.7-4.5-16.8-6-22.9,0.4c-1.8,1.9-3.4,4-5.1,5.9c-2,2.1-4.3,3.9-7,4.9c-2.4,0.9-4.7,0.7-7.2,1.1
		c-2.5,0.4-5,1.3-7,2.9c-2.2,1.8-3.1,4.1-3.3,6.9c-0.2,2.1-0.2,4.3-0.3,6.4c-0.3,6.3-2.3,8-6.8,11.5c-1.9,1.4-3.5,3.3-4.7,5.3
		C23.3,81.5,29,88,29.3,94.4c0.1,1.3-0.1,2.6-0.5,3.8c-0.5,1.4-1.4,2.2-2.2,3.4c-1.1,1.5-1.8,3.3-1.5,5.1c0.3,1.8,1.2,3.5,2.1,5.1
		c1.7,2.8,3.8,5.4,6.1,7.8C33.4,119.6,33.5,119.7,33.6,119.8" />
		<path class="rxjs--fragment-1" d="M146.5,142.6c13.6-5.9,19.4-16.1,19.4-16.1c12.7-17.3,8.4-35.6,8.4-35.6c-8.1,17.6-15.5,22.5-15.5,22.5
		c19.9-30.3,0.1-48.7,0.1-48.7c8.1,17.3-2.7,38.3-2.7,38.3c-9,19-21.9,25.8-21.9,25.8c14.3,2.7,24.8-7,24.8-7
		c-20.5,22.2-42.8,21.1-42.8,21.1c9.3,10.5,23.4,9.6,23.4,9.6c-18.3,4.3-35.5-1.8-49.7-13.5c-2.7-2.2-5.2-4.6-7.6-7.1
		c0,0-2.1-2.2-2.5-2.8L80,129c-0.3,10.9,11.1,21.1,11.1,21.1c-14.3-5.9-20.9-18.7-20.9-18.7s-9.6-16.4-2.7-35.2s28.1-22.8,28.1-22.8
		c17.4,8.5,32.2,11.1,32.2,11.1c31.2,5.2,29.4-10.1,29.4-10.1c0.3-13.1-19.5-27.1-19.5-27.1C102.4,21.1,70.5,38,70.5,38
		c-27.6,12.2-35.8,39-35.8,39c-1.3,4.2-2.5,8.3-3.3,12.7c-3,17.6,1.5,34.2,11.4,49c15.4,22.9,40.3,30.9,40.3,30.9
		c37,12.5,62.2-5.9,62.2-5.9c23.2-16,27.9-34.4,27.9-34.4C154.6,143.9,146.5,142.6,146.5,142.6L146.5,142.6z M117.6,56.3
		c1.8,0,3.2,1.4,3.2,3.2s-1.4,3.2-3.2,3.2s-3.2-1.4-3.2-3.2S115.9,56.3,117.6,56.3z" />
		<path class="rxjs--fragment-2" d="M157.2,74.4c0.3-13.1-19.5-27.1-19.5-27.1C102.4,21.1,70.4,38,70.4,38c-27.6,12.2-35.8,39-35.8,39
		c-1.6,4.6-3,11.5-3,11.5c-1.7,8.8-0.9,16.9-0.9,16.9c0.7,7.7,2.4,13,2.4,13c1.8,5.6,2.6,7.3,2.6,7.3c-0.1-0.2-0.4-1.5-0.4-1.5
		s-2.5-11.9-0.2-23.4c0,0,2-11.9,10.2-21.2c0,0,13.2-18.9,37.9-11.5c0,0,5.3,1.9,7.2,2.8c1.8,0.9,5,2.2,5,2.2
		c17.4,8.5,32.2,11.1,32.2,11.1C159,89.6,157.2,74.4,157.2,74.4z M117.6,62.7c-1.8,0-3.2-1.4-3.2-3.2s1.4-3.2,3.2-3.2
		s3.2,1.4,3.2,3.2S119.4,62.7,117.6,62.7z" />
		<path class="rxjs--fragment-3"
			d="M97.4,50.6l-20.2-6.3c-0.1,0-0.7-0.3-1.8,0c0,0-11.9,3-9.8,9.5c0,0,1.2,4.1,4.6,8l22.2-1.1L97.4,50.6z" />
	</g>
</svg>