<svg width="200" height="200" version="1.1" viewBox="0 0 200 200" xml:space="preserve"
	xmlns:xlink="http://www.w3.org/1999/xlink" xmlns="http://www.w3.org/2000/svg">
	<style>
		.salesforce--fragment-0 {
			fill: #00A1E0;
		}

		.salesforce--fragment-1 {
			fill: #FFFFFF;
		}
	</style>
	<rect width="200" height="200" style="fill: var(--bg, #fff); rx: var(--rx, 24px); filter: var(--filter);" />
	<g>
		<path class="salesforce--fragment-0" d="M87.4,59c4.8-5,11.6-8.2,19-8.2c9.9,0,18.5,5.5,23.1,13.7c4-1.8,8.4-2.8,13.1-2.8c17.9,0,32.3,14.6,32.3,32.6
		c0,18-14.5,32.6-32.3,32.6c-2.2,0-4.3-0.2-6.4-0.6c-4.1,7.2-11.8,12.1-20.6,12.1c-3.7,0-7.2-0.9-10.3-2.4
		c-4.1,9.7-13.7,16.4-24.8,16.4c-11.6,0-21.5-7.3-25.3-17.7c-1.7,0.4-3.4,0.5-5.1,0.5c-13.8,0-25-11.3-25-25.3
		c0-9.4,5-17.5,12.5-21.9c-1.5-3.5-2.4-7.5-2.4-11.6c0-16.1,13-29.1,29.1-29.1C73.7,47.5,82.1,52,87.4,59" />
		<path class="salesforce--fragment-1"
			d="M46.7,102c-0.1,0.2,0,0.3,0.1,0.3c0.3,0.2,0.6,0.4,0.9,0.5c1.5,0.8,3,1,4.5,1c3.1,0,5-1.6,5-4.3v-0.1
		c0-2.4-2.2-3.3-4.2-4l-0.3-0.1c-1.5-0.5-2.8-0.9-2.8-1.9v-0.1c0-0.9,0.8-1.5,2-1.5c1.3,0,2.9,0.4,3.9,1c0,0,0.3,0.2,0.4-0.1
		c0.1-0.2,0.6-1.5,0.6-1.7c0.1-0.2,0-0.3-0.1-0.3c-1.2-0.7-2.8-1.2-4.4-1.2l-0.3,0c-2.8,0-4.8,1.7-4.8,4.1v0.1c0,2.6,2.2,3.4,4.2,4
		l0.3,0.1c1.5,0.5,2.8,0.8,2.8,1.9v0.1c0,1-0.8,1.7-2.2,1.7c-0.5,0-2.2,0-4-1.1c-0.2-0.1-0.3-0.2-0.5-0.3c-0.1-0.1-0.3-0.2-0.4,0.1
		L46.7,102L46.7,102z M91.8,102c-0.1,0.2,0,0.3,0.1,0.3c0.3,0.2,0.6,0.4,0.9,0.5c1.5,0.8,3,1,4.5,1c3.1,0,5-1.6,5-4.3v-0.1
		c0-2.4-2.2-3.3-4.2-4l-0.3-0.1c-1.5-0.5-2.8-0.9-2.8-1.9v-0.1c0-0.9,0.8-1.5,2-1.5c1.3,0,2.9,0.4,3.9,1c0,0,0.3,0.2,0.4-0.1
		c0.1-0.2,0.6-1.5,0.6-1.7c0.1-0.2,0-0.3-0.1-0.3c-1.2-0.7-2.8-1.2-4.4-1.2l-0.3,0c-2.8,0-4.8,1.7-4.8,4.1v0.1c0,2.6,2.2,3.4,4.2,4
		l0.3,0.1c1.5,0.5,2.8,0.8,2.8,1.9v0.1c0,1-0.8,1.7-2.2,1.7c-0.5,0-2.2,0-4-1.1c-0.2-0.1-0.3-0.2-0.5-0.3c-0.1,0-0.3-0.1-0.4,0.1
		L91.8,102L91.8,102z M122.5,96.8c0,1.5-0.3,2.7-0.8,3.5c-0.5,0.8-1.4,1.2-2.5,1.2c-1.1,0-2-0.4-2.5-1.2c-0.5-0.8-0.8-2-0.8-3.5
		c0-1.5,0.3-2.7,0.8-3.5c0.5-0.8,1.3-1.2,2.5-1.2c1.1,0,2,0.4,2.5,1.2C122.2,94.1,122.5,95.3,122.5,96.8 M125.1,94
		c-0.3-0.9-0.6-1.6-1.2-2.2c-0.5-0.6-1.2-1.1-2-1.5c-0.8-0.4-1.7-0.6-2.8-0.6c-1,0-2,0.2-2.8,0.6c-0.8,0.4-1.4,0.9-2,1.5
		c-0.5,0.6-0.9,1.4-1.2,2.2c-0.2,0.8-0.4,1.8-0.4,2.8c0,1,0.1,1.9,0.4,2.8c0.3,0.9,0.6,1.6,1.2,2.2c0.5,0.6,1.2,1.1,2,1.5
		c0.8,0.4,1.7,0.5,2.8,0.5c1,0,2-0.2,2.8-0.5c0.8-0.4,1.4-0.9,2-1.5c0.5-0.6,0.9-1.4,1.2-2.2c0.3-0.8,0.4-1.8,0.4-2.8
		C125.5,95.8,125.3,94.9,125.1,94 M146.2,101.1c-0.1-0.3-0.3-0.2-0.3-0.2c-0.4,0.1-0.8,0.3-1.2,0.3c-0.4,0.1-0.9,0.1-1.4,0.1
		c-1.2,0-2.2-0.4-2.9-1.1c-0.7-0.7-1.1-1.9-1.1-3.5c0-1.5,0.4-2.5,1-3.4c0.6-0.8,1.6-1.3,2.9-1.3c1.1,0,1.9,0.1,2.7,0.4
		c0,0,0.2,0.1,0.3-0.2c0.2-0.6,0.4-1.1,0.6-1.8c0.1-0.2-0.1-0.3-0.2-0.3c-0.3-0.1-1.1-0.3-1.7-0.4c-0.6-0.1-1.2-0.1-1.9-0.1
		c-1.1,0-2,0.2-2.9,0.6c-0.8,0.4-1.5,0.9-2.1,1.5c-0.6,0.6-1,1.4-1.2,2.2c-0.3,0.8-0.4,1.8-0.4,2.8c0,2.1,0.6,3.9,1.7,5.1
		c1.1,1.3,2.8,1.9,5.1,1.9c1.3,0,2.7-0.3,3.6-0.6c0,0,0.2-0.1,0.1-0.3L146.2,101.1L146.2,101.1z M150.7,95.4
		c0.1-0.8,0.4-1.5,0.7-2.1c0.5-0.8,1.3-1.3,2.5-1.3c1.1,0,1.9,0.4,2.4,1.3c0.4,0.5,0.5,1.3,0.6,2.1H150.7L150.7,95.4z M159.3,93.5
		c-0.2-0.8-0.8-1.7-1.1-2c-0.6-0.6-1.1-1-1.6-1.3c-0.7-0.3-1.6-0.5-2.5-0.5c-1.1,0-2.1,0.2-2.9,0.6c-0.8,0.4-1.5,0.9-2,1.5
		c-0.5,0.6-0.9,1.4-1.2,2.3c-0.3,0.9-0.4,1.8-0.4,2.8c0,1,0.1,1.9,0.4,2.8c0.3,0.8,0.7,1.6,1.3,2.2c0.6,0.6,1.3,1.1,2.2,1.4
		c0.9,0.3,1.9,0.5,3.2,0.5c2.5,0,3.8-0.6,4.4-0.9c0.1-0.1,0.2-0.1,0.1-0.4l-0.6-1.6c-0.1-0.2-0.3-0.1-0.3-0.1
		c-0.6,0.2-1.5,0.6-3.6,0.6c-1.3,0-2.3-0.4-3-1c-0.6-0.6-1-1.6-1-2.9l8.7,0c0,0,0.2,0,0.3-0.2C159.6,97.2,159.9,95.5,159.3,93.5
		L159.3,93.5z M81,95.4c0.1-0.8,0.4-1.5,0.7-2.1c0.5-0.8,1.3-1.3,2.5-1.3c1.1,0,1.9,0.4,2.4,1.3c0.4,0.5,0.5,1.3,0.6,2.1H81L81,95.4
		z M89.7,93.5c-0.2-0.8-0.8-1.7-1.1-2c-0.6-0.6-1.1-1-1.6-1.3c-0.7-0.3-1.6-0.5-2.5-0.5c-1.1,0-2.1,0.2-2.9,0.6
		c-0.8,0.4-1.5,0.9-2,1.5c-0.5,0.6-0.9,1.4-1.2,2.3c-0.3,0.9-0.4,1.8-0.4,2.8c0,1,0.1,1.9,0.4,2.8c0.3,0.8,0.7,1.6,1.3,2.2
		c0.6,0.6,1.3,1.1,2.2,1.4c0.9,0.3,1.9,0.5,3.2,0.5c2.5,0,3.8-0.6,4.4-0.9c0.1-0.1,0.2-0.1,0.1-0.4l-0.6-1.6
		c-0.1-0.2-0.3-0.1-0.3-0.1c-0.6,0.2-1.5,0.6-3.6,0.6c-1.3,0-2.3-0.4-3-1c-0.6-0.6-1-1.6-1-2.9l8.7,0c0,0,0.2,0,0.3-0.2
		C90,97.2,90.3,95.5,89.7,93.5L89.7,93.5z M62.3,101.1c-0.3-0.3-0.4-0.3-0.5-0.5c-0.2-0.3-0.3-0.6-0.3-1.1c0-0.8,0.3-1.3,0.8-1.7
		c0,0,0.7-0.7,2.5-0.6c1.2,0,2.4,0.2,2.4,0.2v4h0c0,0-1.1,0.2-2.3,0.3C63,101.7,62.2,101.1,62.3,101.1 M65.7,94.9
		c-0.4,0-0.8,0-1.4,0c-0.7,0-1.5,0.1-2.1,0.3c-0.7,0.2-1.3,0.5-1.8,0.8c-0.5,0.4-1,0.9-1.3,1.4c-0.3,0.6-0.5,1.2-0.5,2
		c0,0.8,0.1,1.4,0.4,2c0.3,0.5,0.6,1,1.1,1.4c0.5,0.4,1.1,0.6,1.8,0.8c0.7,0.2,1.5,0.2,2.3,0.2c0.9,0,1.8-0.1,2.6-0.2
		c0.9-0.1,1.9-0.4,2.2-0.4c0.3-0.1,0.6-0.2,0.6-0.2c0.2-0.1,0.2-0.3,0.2-0.3l0-8c0-1.7-0.5-3-1.4-3.8c-0.9-0.8-2.3-1.2-4-1.2
		c-0.7,0-1.7,0.1-2.3,0.2c0,0-1.9,0.4-2.7,1c0,0-0.2,0.1-0.1,0.3l0.6,1.7c0.1,0.2,0.3,0.1,0.3,0.1s0.1,0,0.1-0.1
		c1.7-0.9,3.8-0.9,3.8-0.9c0.9,0,1.7,0.2,2.1,0.6c0.5,0.4,0.7,0.9,0.7,2.1v0.4C66.4,95,65.7,94.9,65.7,94.9 M135.8,90.5
		c0.1-0.2-0.1-0.3-0.1-0.3c-0.1-0.1-0.9-0.2-1.5-0.3c-1.1-0.1-1.7,0.1-2.2,0.4c-0.5,0.2-1.1,0.6-1.5,1.1v-1.1c0-0.1-0.1-0.3-0.3-0.3
		h-2.2c-0.1,0-0.3,0.1-0.3,0.3v13c0,0.1,0.1,0.3,0.3,0.3h2.3c0.1,0,0.3-0.1,0.3-0.3v-6.5c0-0.9,0.1-1.7,0.3-2.3
		c0.2-0.5,0.4-1,0.8-1.3c0.3-0.3,0.7-0.5,1.1-0.6c0.4-0.1,0.9-0.2,1.2-0.2c0.5,0,1,0.1,1,0.1c0.2,0,0.3-0.1,0.3-0.2
		C135.3,91.9,135.8,90.7,135.8,90.5 M114.4,84.5c-0.3-0.1-0.5-0.1-0.9-0.2c-0.3-0.1-0.7-0.1-1.2-0.1c-1.6,0-2.8,0.4-3.7,1.3
		c-0.9,0.9-1.5,2.2-1.7,3.9l-0.1,0.6h-2c0,0-0.2,0-0.3,0.3l-0.3,1.8c0,0.2,0.1,0.3,0.3,0.3h1.9l-1.9,10.9c-0.2,0.9-0.3,1.6-0.5,2.1
		c-0.2,0.5-0.4,0.9-0.6,1.2c-0.2,0.3-0.4,0.5-0.8,0.6c-0.3,0.1-0.6,0.1-1,0.1c-0.2,0-0.5,0-0.7-0.1c-0.2,0-0.3-0.1-0.5-0.2
		c0,0-0.2-0.1-0.3,0.1c-0.1,0.2-0.6,1.6-0.6,1.8c-0.1,0.2,0,0.3,0.1,0.3c0.3,0.1,0.4,0.1,0.8,0.2c0.5,0.1,0.9,0.1,1.3,0.1
		c0.8,0,1.5-0.1,2.1-0.3c0.6-0.2,1.1-0.6,1.6-1.1c0.5-0.6,0.8-1.1,1.1-1.9c0.3-0.8,0.6-1.8,0.8-2.9l2-11.1h2.9c0,0,0.2,0,0.3-0.3
		l0.3-1.8c0-0.2-0.1-0.3-0.3-0.3h-2.8c0-0.1,0.1-1,0.5-2c0.1-0.4,0.4-0.7,0.6-0.9c0.2-0.2,0.5-0.4,0.7-0.5c0.3-0.1,0.6-0.1,0.9-0.1
		c0.3,0,0.5,0,0.7,0.1c0.3,0.1,0.4,0.1,0.4,0.1c0.3,0.1,0.3,0,0.4-0.1l0.7-1.8C114.6,84.6,114.5,84.5,114.4,84.5 M75.6,103.3
		c0,0.1-0.1,0.3-0.3,0.3H73c-0.1,0-0.2-0.1-0.2-0.3V84.7c0-0.1,0.1-0.3,0.2-0.3h2.3c0.1,0,0.3,0.1,0.3,0.3V103.3L75.6,103.3z" />
	</g>
</svg>