<svg width="200" height="200" version="1.1" viewBox="0 0 200 200" xml:space="preserve"
	xmlns:xlink="http://www.w3.org/1999/xlink" xmlns="http://www.w3.org/2000/svg">
	<style>
		.sass {
			fill: #ffffff;
		}
	</style>
	<rect width="200" height="200" style="fill: var(--bg, #CD6799); rx: var(--rx, 24);" />
	<path class="sass" d="M154.2,108.4c-5.2,0-9.8,1.3-13.6,3.2c-1.4-2.8-2.8-5.2-3-7c-0.3-2.1-0.6-3.4-0.3-5.9c0.3-2.5,1.8-6.1,1.8-6.4
	s-0.3-1.6-3.3-1.6c-3,0-5.6,0.6-5.9,1.4c-0.3,0.8-0.9,2.6-1.3,4.5c-0.5,2.7-6,12.5-9.2,17.6c-1-2-1.9-3.8-2.1-5.2
	c-0.3-2.1-0.6-3.4-0.3-5.9c0.3-2.5,1.8-6.1,1.8-6.4c0-0.3-0.3-1.6-3.3-1.6c-3,0-5.6,0.6-5.9,1.4c-0.3,0.8-0.6,2.7-1.3,4.5
	c-0.6,1.8-7.9,18.1-9.9,22.4c-1,2.2-1.8,3.9-2.4,5.1l0,0c0,0,0,0.1-0.1,0.2c-0.5,1-0.8,1.6-0.8,1.6s0,0,0,0
	c-0.4,0.7-0.8,1.4-1.1,1.4c-0.2,0-0.5-2,0.1-4.7c1.1-5.7,3.7-14.5,3.7-14.8c0-0.2,0.5-1.7-1.7-2.5c-2.1-0.8-2.9,0.5-3.1,0.5
	s-0.3,0.5-0.3,0.5s2.4-9.9-4.5-9.9c-4.3,0-10.3,4.7-13.3,9c-1.9,1-5.8,3.2-10.1,5.5c-1.6,0.9-3.3,1.8-4.8,2.7
	c-0.1-0.1-0.2-0.2-0.3-0.4c-8.4-9-23.9-15.3-23.2-27.3C36.5,85.8,38,74.3,66,60.3c23.1-11.4,41.4-8.2,44.6-1.2
	c4.5,10-9.8,28.5-33.7,31.2c-9.1,1-13.9-2.5-15.1-3.8c-1.3-1.4-1.5-1.5-1.9-1.2c-0.8,0.4-0.3,1.6,0,2.4c0.7,1.9,3.6,5.2,8.6,6.8
	c4.4,1.4,15,2.2,27.9-2.8c14.4-5.6,25.7-21.1,22.4-34.1C115.6,44.3,93.7,40,73,47.3c-12.3,4.4-25.7,11.3-35.3,20.3
	c-11.4,10.7-13.2,20-12.5,23.9c2.7,13.8,21.7,22.8,29.3,29.5c-0.4,0.2-0.7,0.4-1,0.6c-3.8,1.9-18.3,9.5-21.9,17.5
	c-4.1,9.1,0.7,15.6,3.8,16.5c9.8,2.7,19.8-2.2,25.2-10.2s4.7-18.5,2.2-23.3c0-0.1-0.1-0.1-0.1-0.2c1-0.6,2-1.2,3-1.8
	c1.9-1.2,3.9-2.2,5.5-3.1c-0.9,2.5-1.6,5.6-1.9,10c-0.4,5.2,1.7,11.8,4.5,14.5c1.2,1.2,2.7,1.2,3.6,1.2c3.2,0,4.7-2.7,6.3-5.9
	c2-3.9,3.8-8.4,3.8-8.4s-2.2,12.2,3.8,12.2c2.2,0,4.4-2.8,5.4-4.3v0c0,0,0.1-0.1,0.2-0.3c0.2-0.4,0.4-0.6,0.4-0.6v-0.1
	c0.9-1.5,2.8-5,5.8-10.8c3.8-7.5,7.4-16.8,7.4-16.8s0.3,2.3,1.5,6.1c0.7,2.2,2,4.7,3.1,7c-0.9,1.2-1.4,1.9-1.4,1.9s0,0,0,0
	c-0.7,0.9-1.5,1.9-2.3,2.9c-3,3.6-6.5,7.6-7,8.8c-0.6,1.4-0.4,2.4,0.7,3.2c0.8,0.6,2.2,0.7,3.7,0.6c2.7-0.2,4.6-0.8,5.5-1.3
	c1.5-0.5,3.2-1.3,4.7-2.5c2.9-2.2,4.7-5.3,4.5-9.3c-0.1-2.2-0.8-4.5-1.7-6.6c0.3-0.4,0.5-0.8,0.8-1.2c4.6-6.8,8.2-14.2,8.2-14.2
	s0.3,2.3,1.5,6.1c0.5,1.9,1.7,4,2.7,6c-4.4,3.5-7,7.6-8,10.3c-1.7,5-0.4,7.2,2.2,7.8c1.2,0.2,2.8-0.3,4-0.8c1.5-0.5,3.3-1.3,5.1-2.6
	c2.9-2.2,5.8-5.2,5.6-9.3c-0.1-1.9-0.6-3.7-1.3-5.5c3.7-1.5,8.5-2.4,14.5-1.7c13,1.5,15.6,9.7,15.1,13.1s-3.2,5.3-4.1,5.9
	c-0.9,0.6-1.2,0.8-1.1,1.2c0.1,0.6,0.5,0.6,1.3,0.5c1.1-0.2,6.8-2.8,7.1-9.1C175.4,117.1,167.7,108.3,154.2,108.4L154.2,108.4z
	M53.6,142.3c-4.3,4.7-10.4,6.5-13,5c-2.8-1.6-1.7-8.6,3.6-13.6c3.2-3,7.4-5.9,10.2-7.6c0.6-0.4,1.6-0.9,2.7-1.6
	c0.2-0.1,0.3-0.2,0.3-0.2l0,0c0.2-0.1,0.4-0.3,0.7-0.4C60,131.1,58.1,137.4,53.6,142.3L53.6,142.3z M85.1,120.9
	c-1.5,3.7-4.7,13.1-6.6,12.5c-1.6-0.4-2.7-7.6-0.3-14.6c1.2-3.5,3.7-7.8,5.1-9.4c2.4-2.6,5-3.5,5.6-2.4
	C89.7,108.4,86,118.6,85.1,120.9L85.1,120.9z M111.1,133.4c-0.6,0.3-1.2,0.5-1.5,0.4c-0.2-0.1,0.3-0.5,0.3-0.5s3.3-3.5,4.5-5.1
	c0.7-0.9,1.6-2,2.5-3.3v0.4C116.9,129.4,112.9,132.2,111.1,133.4L111.1,133.4z M131.1,128.8c-0.5-0.3-0.4-1.4,1.2-4.8
	c0.6-1.3,2-3.6,4.5-5.8c0.3,0.9,0.5,1.7,0.4,2.5C137.2,126,133.4,128,131.1,128.8L131.1,128.8z" />
</svg>