<svg width="200" height="200" version="1.1" viewBox="0 0 200 200" xml:space="preserve"
	xmlns:xlink="http://www.w3.org/1999/xlink" xmlns="http://www.w3.org/2000/svg">
	<style>
		.sentry {
			fill: #FB4226;
		}
	</style>
	<rect width="200" height="200" style="fill: var(--bg, #fff); rx: var(--rx, 24px); filter: var(--filter);" />
	<path class="sentry" d="M112,37.6c-3.5-6.6-11.7-9.1-18.3-5.6c-0.2,0.1-0.4,0.2-0.6,0.3c-2.1,1.3-3.9,3.1-5.1,5.3L68.3,73.2l5,3
	c28.5,17.5,46.5,47.9,48.2,81.3h-13.9c-1.7-28.3-17.2-54-41.3-68.8l-5-3l-18.4,33.4l5,3c12.5,7.8,20.8,20.8,22.6,35.5H38.9
	c-1.3,0-2.3-1.1-2.3-2.3c0-0.4,0.1-0.9,0.3-1.2l8.8-15.9c-3-2.6-6.4-4.6-10.1-6L26.9,148c-3.8,6.9-1.6,15.6,5.1,19.7
	c2.1,1.3,4.5,1.9,6.9,1.9h43.6v-6c0.1-19.1-8.7-37.2-23.9-48.7l7-12.5c19.5,14.3,30.9,37.1,30.8,61.2v6h37v-6
	C133.4,125.8,115,90.4,84,69l14-25.4c0.6-1.1,1.9-1.5,3-0.9c0,0,0.1,0,0.1,0.1c0.4,0.2,0.6,0.5,0.8,0.9L163.1,154
	c0.6,1.1,0.3,2.6-0.8,3.3c-0.4,0.2-0.8,0.3-1.2,0.3h-14.3c0.2,4,0.2,8,0,12.1h14.4c7.8-0.2,14-6.6,13.9-14.4c0-2.5-0.6-5-1.9-7.2
	L112,37.6z" />
</svg>