<svg width="200" height="200" version="1.1" viewBox="0 0 200 200" xml:space="preserve"
	xmlns:xlink="http://www.w3.org/1999/xlink" xmlns="http://www.w3.org/2000/svg">
	<style>
		.shopify--fragment-0 {
			fill: #95BF46;
		}

		.shopify--fragment-1 {
			fill: #5E8E3E;
		}

		.shopify--fragment-2 {
			fill: #FFFFFF;
		}
	</style>
	<rect width="200" height="200" style="fill: var(--bg, #fff); rx: var(--rx, 24px);" />
	<g>
		<path class="shopify--fragment-0" d="M155.7,48c-0.1-0.9-0.9-1.3-1.5-1.4c-0.6-0.1-13.7-1-13.7-1s-9.1-9-10.1-10c-1-1-3-0.7-3.7-0.5
		c-0.1,0-2,0.6-5.1,1.6c-3-8.8-8.4-16.8-17.9-16.8c-0.3,0-0.5,0-0.8,0c-2.7-3.6-6-5.1-8.9-5.1c-22,0-32.5,27.5-35.8,41.5
		c-8.5,2.6-14.6,4.5-15.4,4.8c-4.8,1.5-4.9,1.6-5.5,6.1c-0.5,3.4-13,100-13,100l97.3,18.2l52.7-11.4C174.3,174,155.8,48.9,155.7,48
		L155.7,48z M116.2,38.3l-8.2,2.5c0-0.6,0-1.2,0-1.8c0-5.4-0.8-9.8-2-13.3C110.9,26.4,114.1,31.9,116.2,38.3z M100,26.9
		c1.4,3.4,2.2,8.3,2.2,14.8c0,0.3,0,0.6,0,1c-5.4,1.7-11.2,3.5-17,5.3C88.5,35.3,94.6,29.2,100,26.9z M93.5,20.7
		c0.9,0,1.9,0.3,2.8,1C89.2,25,81.7,33.3,78.5,50L65,54.2C68.8,41.4,77.6,20.7,93.5,20.7L93.5,20.7z" />
		<path class="shopify--fragment-1" d="M154.2,46.6c-0.6-0.1-13.7-1-13.7-1s-9.1-9-10.1-10c-0.4-0.4-0.9-0.6-1.4-0.6l-7.4,150.5l52.7-11.4
		c0,0-18.5-125.1-18.6-126C155.6,47.1,154.9,46.7,154.2,46.6" />
		<path class="shopify--fragment-2" d="M103.7,75.7l-6.5,19.3c0,0-5.7-3-12.7-3c-10.2,0-10.7,6.4-10.7,8c0,8.8,23,12.2,23,32.9
		c0,16.3-10.3,26.8-24.2,26.8c-16.7,0-25.2-10.4-25.2-10.4l4.5-14.8c0,0,8.8,7.5,16.2,7.5c4.8,0,6.8-3.8,6.8-6.6
		c0-11.5-18.9-12-18.9-31c0-15.9,11.4-31.3,34.5-31.3C99.3,73.2,103.7,75.7,103.7,75.7" />
	</g>
</svg>