<svg width="200" height="200" version="1.1" viewBox="0 0 200 200" xml:space="preserve"
	xmlns:xlink="http://www.w3.org/1999/xlink" xmlns="http://www.w3.org/2000/svg">
	<style>
		.solidworks {
			fill: #DA291C;
		}
	</style>
	<rect width="200" height="200" style="fill: var(--bg, #fff); rx: var(--rx, 24px); filter: var(--filter);" />
	<path class="solidworks" d="M175,83c-0.1,1.1-1.4,1.7-7.5,1.7c-29.7-0.3-33.4,4.2-33.4,4.2s-2.5,1.4-0.8,4.8c1.8,3.5,24.1,29.5,28.9,38.5
	c3.1,5.8,7.5,15.9-9.9,21.8c-17.1,5.9-49.1,0.1-49.3,0c-7.8-2-7.6-3.3-7.5-3.8c0.2-1.1,1.4-1.7,7.5-1.7c28.1,0,41.7-2,45-4
	c2-1.2,2.4-3.2,2.2-4.8c-0.4-3.7-9.1-14.4-16.3-22.8c-7.4-8.7-23.1-23.8-12.5-32.9c12.7-11,40.7-6.2,46.2-5
	C173.4,80.1,175.1,82.1,175,83z M83.1,35.3c12.4,0,22,0.8,28.6,2c13.4,2.4,10.2,9.2,6.4,15.7c-9.2,15.8-34.2,33.5-35.7,34.5
	c-1.9,1.3-0.9,2.1,0.8,1.5c20.2-7.5,40.6-20.5,48.9-36.3c7-13.4,2-19.7-8.7-22.7c-19-5.4-38.7-0.4-40.4,0c-2.4,0.7-7.1,2-6.7,3.7
	C76.6,34.7,77.6,35.3,83.1,35.3z M95.2,99.1c-19.7-5.8-41.2-0.8-44.5,0.1c-5,1.3-7.9,2.6-7.7,4.2c0.2,1.2,1.4,1.9,7.5,1.8
	c14.6-0.4,26.6,0.1,34.2,2.3c9.4,2.6,10.6,7.5,5.9,17c-2.2,4.4-5.4,9-10.2,13.8c-9.7,9.7-21.7,16-28.5,19.4c-6.6,3.4-9,1.6-8.3-1.7
	c0.9-4.1,19.7-36.5,19.7-36.5c1.4-2.5,1.7-4.8,0-5.5c-1.4-0.6-4,1.4-6.7,4.5c-11,12.7-31.2,51.4-31.5,52.7c-0.4,1.2,0.6,1.4,0.9,1.4
	c8.6-0.1,61.1-15.6,78-47.3C113,108.6,108.4,103.1,95.2,99.1z" />
</svg>