<svg width="200" height="200" version="1.1" viewBox="0 0 200 200" xml:space="preserve"
	xmlns:xlink="http://www.w3.org/1999/xlink" xmlns="http://www.w3.org/2000/svg">
	<style>
		.solr {
			fill: #DA301B;
		}
	</style>
	<rect width="200" height="200" style="fill: var(--bg, #fff); rx: var(--rx, 24px); filter: var(--filter);" />
	<path class="solr" d="M154.6,48.7l-73.9,79.9l92.9-42.8C171,71.6,164.3,58.8,154.6,48.7z M99.8,25c-10.3,0-19.9,2-28.9,5.8L61,114.3
	l49.5-88.4C107.2,25.2,103.6,25,99.8,25z M174.3,90.4l-88,49.3l82.6-9.9c3.8-9.2,6-19,6-29.6C175,96.9,174.8,93.5,174.3,90.4z
	M141.9,162.5c9.9-6.7,17.9-15.7,23.7-26l-77.2,15.2L141.9,162.5z M115.2,26.6l-43,93.4L152.2,46C141.9,36.4,129.3,29.5,115.2,26.6z
	M106.3,175c8.3-0.7,16.3-2.7,23.5-5.8L86.3,164L106.3,175z M31.3,69.3C27.9,76.7,25.7,85,25,93.5l11.6,20.8L31.3,69.3z M64.4,33.7
	C53.9,39.3,44.7,47.6,38,57.5l11,54.9L64.4,33.7z" />
</svg>