<svg width="200" height="200" version="1.1" viewBox="0 0 200 200" xml:space="preserve"
	xmlns:xlink="http://www.w3.org/1999/xlink" xmlns="http://www.w3.org/2000/svg">
	<style>
		.spark {
			fill: #E25A1C;
		}
	</style>
	<rect width="200" height="200" style="fill: var(--bg, #fff); rx: var(--rx, 24px); filter: var(--filter);" />
	<path class="spark" d="M92.4,23.2c-2.7,0.1-5.4,1.4-7.6,3.9c-1.2,1.4-2.3,3-3.2,4.6c-2.3,4.2-2.7,9-3.6,13.7
	c-1.6,8.7-3.1,17.4-4.6,26.2c-0.2,1-0.6,1.4-1.5,1.7c-11.3,3.6-22.6,7.1-33.9,10.8c-2.5,0.8-4.9,1.8-7.1,3.2
	c-6.7,4.2-7.7,11.2-2.7,17.3c2.2,2.7,5.1,4.6,8.2,6c7,3.1,14.1,6.2,21.1,9.4c0.1,0,0.2,0.1,0.3,0.1h0l8.4,3.4c0,0.1,0,0.3,0,0.5
	c-1.3,13-2.5,26-3.7,39c-0.2,2.7-0.1,5.3,0.9,7.9c2,5.5,6.8,7.3,12,4.5c2.4-1.3,4.3-3.2,6-5.2c8.8-10.4,17.6-20.8,26.3-31.2
	c0.7-0.8,1.3-1,2.3-0.6c2.2,0.7,4.4,1.5,6.7,2.2h0c0.1,0.1,0.3,0.1,0.5,0.2l0.9,0.3c8,2.6,17.1,4.9,25.1,7.6c2.6,0.8,4,1.1,6.7,0.6
	c2-0.3,3.8-0.4,5.3-1.5c3.8-2.1,6.4-6.1,6.3-10.8c0-2.7-1-5.2-2.3-7.6c-5.2-10-10.5-19.9-15.7-29.9c-0.5-1-0.5-1.5,0.2-2.4
	c8.8-10.3,17.6-20.7,26.4-31.1c1.7-2,3.3-4.2,4.2-6.8c2-5.6-0.6-10-6.4-11.1c-2.6-0.5-5.3-0.3-7.9,0.4c-12.6,3.3-25.3,6.7-37.9,10
	c-1.1,0.3-1.7,0.1-2.3-0.9c-5.1-8.6-10.3-17.2-15.5-25.7c-1.2-2-2.6-3.8-4.2-5.4C97.9,24.3,95.1,23.2,92.4,23.2L92.4,23.2z
	M93.5,46.9c0.5,0.4,0.9,0.8,1.2,1.3c5.6,9.2,11.1,18.5,16.7,27.8c0.5,0.7,0.9,1,1.8,0.7c9.8-2.6,19.5-5.2,29.3-7.8
	c2.4-0.6,4.7-1.2,7.1-1.8c-0.1,0.5-0.3,0.9-0.6,1.3c-8,9.5-16.1,18.9-24.2,28.4c-0.7,0.8-0.8,1.4-0.3,2.4c6,11.5,11.3,21.2,16,30.5
	l-23.6-6.5c-3.4-1.2-6.9-2.3-10.3-3.4c-1-0.4-1.6-0.2-2.3,0.6c-8,9.5-16,19-24,28.5c-0.3,0.4-0.7,0.7-1.2,0.8
	c0.2-2.4,0.4-4.8,0.6-7.2c1-10.1,1.9-20.1,2.9-30.2c-0.2-2,0.7-2.6-2.1-3.5c-9.5-3.8-21.4-8.4-30.8-12.2c0.4-0.4,1-0.7,1.5-0.8
	c11.5-3.6,23-7.3,34.5-10.9c0.8-0.2,1.3-0.6,1.3-1.5c0.1-1,0.3-1.9,0.5-2.8c1.5-8.7,3.1-17.4,4.6-26.2
	C92.6,51.8,93.1,49.4,93.5,46.9L93.5,46.9z" />
</svg>