<svg width="200" height="200" version="1.1" viewBox="0 0 200 200" xml:space="preserve"
	xmlns:xlink="http://www.w3.org/1999/xlink" xmlns="http://www.w3.org/2000/svg">
	<style>
		.springboot--fragment-0 {
			fill: #6CB52D;
		}

		.springboot--fragment-1 {
			fill: #FFFFFF;
		}
	</style>
	<rect width="200" height="200" style="fill: var(--bg, #fff); rx: var(--rx, 24px);" />
	<g>
		<path class="springboot--fragment-0" d="M161.6,33.7c-2.2,5.2-4.9,9.9-8,14C140,33.9,120.9,25.1,99.9,25.1C58.7,25.1,25,58.6,25,100
		c0,21.6,9.3,41.1,23.9,54.8l2.8,2.5c13,11,29.8,17.6,48.2,17.6c39.4,0,71.8-30.7,74.6-69.5C176.7,86.6,171,62.5,161.6,33.7z
		M59.8,155.5c-2.2,2.8-6.2,3.1-9,0.9s-3.1-6.2-0.9-9c2.2-2.8,6.2-3.1,9-0.9C61.5,148.7,61.9,152.7,59.8,155.5z M161.1,133.1
		c-18.4,24.6-57.9,16.2-83.1,17.5c0,0-4.5,0.3-9,0.9c0,0,1.7-0.8,3.9-1.6c17.8-6.2,26.1-7.4,36.9-13c20.3-10.4,40.5-33.1,44.5-56.6
		c-7.7,22.6-31.2,42-52.5,49.9c-14.7,5.4-41.1,10.7-41.1,10.7l-1.1-0.6C41.8,131.5,41.1,92.6,73.9,80c14.4-5.6,28-2.5,43.6-6.2
		c16.5-3.9,35.7-16.2,43.4-32.4C169.5,67.5,180,108,161.1,133.1z" />
		<path class="springboot--fragment-1" d="M59.8,155.5c-2.2,2.8-6.2,3.1-9,0.9s-3.1-6.2-0.9-9c2.2-2.8,6.2-3.1,9-0.9C61.5,148.7,61.9,152.7,59.8,155.5z
		M161.1,133.1c-18.4,24.6-57.9,16.2-83.1,17.5c0,0-4.5,0.3-9,0.9c0,0,1.7-0.8,3.9-1.6c17.8-6.2,26.1-7.4,36.9-13
		c20.3-10.4,40.5-33.1,44.5-56.6c-7.7,22.6-31.2,42-52.5,49.9c-14.7,5.4-41.1,10.7-41.1,10.7l-1.1-0.6C41.8,131.5,41.1,92.6,73.9,80
		c14.4-5.6,28-2.5,43.6-6.2c16.5-3.9,35.7-16.2,43.4-32.4C169.5,67.5,180,108,161.1,133.1z" />
	</g>
</svg>