<svg width="200" height="200" version="1.1" viewBox="0 0 200 200" xml:space="preserve"
	xmlns:xlink="http://www.w3.org/1999/xlink" xmlns="http://www.w3.org/2000/svg">
	<style>
		.sqlite--fragment-0 {
			fill: #0F80CC;
		}

		.sqlite--fragment-1 {
			fill: url(#svgFragment1);
		}

		.sqlite--fragment-2 {
			fill: #003B57;
		}
	</style>
	<defs>
		<linearGradient id="svgFragment1" gradientUnits="userSpaceOnUse" x1="-118.5628" y1="155.2223" x2="-118.227"
			y2="155.2223" gradientTransform="matrix(0 287.15 -287.15 0 44657.7734 34082.6758)">
			<stop stop-color="#97D9F6" offset="0" />
			<stop stop-color="#0F80CC" offset="0.92" />
			<stop stop-color="#0F80CC" offset="1" />
		</linearGradient>
	</defs>
	<rect width="200" height="200" style="fill: var(--bg, #fff); rx: var(--rx, 24px); filter: var(--filter);" />
	<g>
		<path class="sqlite--fragment-0" d="M138.5,31.7H44.4c-6.3,0-11.5,5.1-11.5,11.5v103.8c0,6.3,5.1,11.5,11.5,11.5h62
		C105.7,127.6,116.2,67.7,138.5,31.7z" />
		<path class="sqlite--fragment-1"
			d="M135.1,35H44.4c-4.5,0-8.1,3.6-8.1,8.1v96.2c23.3-8.8,47.8-13.6,72.7-14.4C115.6,94.4,124.3,64.4,135.1,35z" />
		<path class="sqlite--fragment-2" d="M160.5,28.3c-6.4-5.7-14.2-3.4-22,3.4c-1.1,1-2.3,2.1-3.4,3.3c-14.5,17.2-24.5,37.7-29.2,59.6
		c1.4,3.1,2.6,6.4,3.4,9.8c0.2,0.7,0.4,1.5,0.5,2.1c0.3,1.4,0.5,2.3,0.5,2.3s-0.1-0.4-0.6-1.9l-0.3-0.9c-0.1-0.1-0.1-0.3-0.2-0.5
		c-0.9-2-3.2-6.2-4.3-8c-0.9,2.6-1.7,5.1-2.3,7.3c2.2,4.8,3.9,9.8,4.9,15c0,0-0.2-0.6-0.9-2.8c-1.5-3.1-3.1-6.2-4.8-9.1
		c-1.1,2.9-1.6,6.1-1.4,9.2c1.2,2.4,2.1,4.8,2.6,7.4c1.8,6.9,3,15.2,3,15.2s0,0.5,0.1,1.4c-0.2,5.7-0.1,11.5,0.3,17.2
		c0.3,5.7,1.3,11.2,3.1,16.6l1-0.5c-2.2-8.1-3.1-16.4-2.6-24.8c1-17.7,4.5-35.2,10.4-51.9c10.8-28.4,25.7-51.3,39.4-62.1
		c-12.5,11.2-29.3,47.7-34.4,61.2c-5.3,13.9-9.4,28.2-12.1,42.9c3.2-8.2,9.6-14.7,17.6-18.2c0,0,6.6-8.1,14.3-19.8
		c-5,1-9.9,2.4-14.8,3.9c-3.7,1.6-4.8,2.1-4.8,2.1c7.2-4.3,14.7-7.9,22.6-10.8C160.6,74.4,176.2,42.3,160.5,28.3" />
	</g>
</svg>