<svg width="200" height="200" version="1.1" viewBox="0 0 200 200" xml:space="preserve"
	xmlns:xlink="http://www.w3.org/1999/xlink" xmlns="http://www.w3.org/2000/svg">
	<style>
		.storybook--fragment-0 {
			fill: #FF4785;
		}

		.storybook--fragment-1 {
			fill: #FFFFFF;
		}
	</style>
	<rect width="200" height="200" style="fill: var(--bg, #fff); rx: var(--rx, 24px); filter: var(--filter);" />
	<g>
		<path class="storybook--fragment-0" d="M44.5,163.2L39.8,39.4c-0.2-4.1,3-7.6,7.1-7.8L152.2,25c4.2-0.3,7.7,2.9,8,7.1c0,0.2,0,0.3,0,0.5v134.9
		c0,4.2-3.4,7.5-7.5,7.5c-0.1,0-0.2,0-0.3,0l-100.7-4.5C47.7,170.3,44.6,167.1,44.5,163.2z" />
		<path class="storybook--fragment-1" d="M143.9,25.5l-14.5,0.9l-0.7,17c0,0.3,0.1,0.5,0.2,0.7c0.4,0.5,1.1,0.6,1.6,0.2l6.6-5l5.6,4.4
		c0.2,0.2,0.5,0.2,0.7,0.2c0.6,0,1.1-0.5,1.1-1.2L143.9,25.5z M132.6,82.5c-2.7,2.1-22.4,3.5-22.4,0.5c0.4-11.2-4.6-11.7-7.4-11.7
		c-2.6,0-7.1,0.8-7.1,6.8c0,6.1,6.5,9.6,14.2,13.6c10.9,5.8,24,12.7,24,30.2c0,16.8-13.6,26.1-31,26.1c-18,0-33.7-7.3-31.9-32.5
		c0.7-3,23.5-2.3,23.5,0c-0.3,10.4,2.1,13.5,8.1,13.5c4.6,0,6.7-2.5,6.7-6.8c0-6.5-6.8-10.3-14.6-14.6c-10.6-5.9-23-12.9-23-28.9
		c0-16,11-26.7,30.6-26.7C121.9,52,132.6,62.5,132.6,82.5z" />
	</g>
</svg>