<svg width="200" height="200" version="1.1" viewBox="0 0 200 200" xml:space="preserve"
	xmlns:xlink="http://www.w3.org/1999/xlink" xmlns="http://www.w3.org/2000/svg">
	<style>
		.strapi--fragment-0 {
			fill: #FFFFFF;
		}

		.strapi--fragment-1 {
			fill: #9593FF;
		}
	</style>
	<rect width="200" height="200" style="fill: var(--bg, #4945FF); rx: var(--rx, 24px); filter: var(--filter);" />
	<g>
		<path class="strapi--fragment-0"
			d="M140.3,58.3H68.9v36.4h35v1.4h1.4v-1.4h0v36.4h36.4V59.7C141.7,58.9,141.1,58.3,140.3,58.3z" />
		<path class="strapi--fragment-1" d="M68.9,94.7h35c0.8,0,1.4,0.6,1.4,1.4v35h-35c-0.8,0-1.4-0.6-1.4-1.4V94.7z M105.3,131.1h36.4l-35.2,35.2
			c-0.4,0.4-1.2,0.1-1.2-0.5V131.1z M68.9,94.7H34.2c-0.6,0-0.9-0.8-0.5-1.2l35.2-35.2V94.7z" />
	</g>
</svg>