<svg width="200" height="200" version="1.1" viewBox="0 0 200 200" xml:space="preserve"
	xmlns:xlink="http://www.w3.org/1999/xlink" xmlns="http://www.w3.org/2000/svg">
	<style>
		.svelte {
			fill: #FF3E00;
		}
	</style>
	<rect width="200" height="200" style="fill: var(--bg, #fff); rx: var(--rx, 24px); filter: var(--filter);" />
	<path class="svelte"
		d="M165.4,35.6c-17-23.3-48.9-29.9-73.7-15.3l-42,26C38.4,53.1,30.4,64.5,28,77.6c-2,10.8-0.2,22,5,31.6
	c-3.6,5.3-6,11.2-7.2,17.5c-2.4,13.2,0.8,26.9,8.8,37.7c17,23.3,48.8,29.9,73.7,15.4l42-26c11.4-6.9,19.3-18.3,21.8-31.3
	c2-10.8,0.2-22-5-31.6c3.6-5.3,6-11.2,7.2-17.5C176.6,60.1,173.4,46.4,165.4,35.6 M87.6,166.5c-13.4,3.4-27.6-1.7-35.8-12.9
	c-4.8-6.5-6.7-14.7-5.3-22.7c0.2-1.3,0.6-2.6,1-3.8l0.8-2.3l2.2,1.5c5,3.6,10.5,6.2,16.4,8l1.5,0.5l-0.2,1.5
	c-0.2,2.2,0.4,4.3,1.7,6.1c2.4,3.5,6.8,5,10.9,4c0.9-0.2,1.8-0.6,2.6-1.1l41.9-26c2.1-1.3,3.5-3.3,4-5.7c0.5-2.4-0.1-4.9-1.5-6.8
	c-2.5-3.4-6.7-4.9-10.8-3.9c-0.9,0.2-1.8,0.6-2.6,1.1l-16.1,9.9c-2.6,1.6-5.5,2.9-8.5,3.6c-13.4,3.5-27.6-1.7-35.8-12.9
	c-4.8-6.5-6.7-14.7-5.2-22.7c1.5-7.8,6.2-14.7,13.1-18.8l41.9-26c2.6-1.6,5.5-2.9,8.5-3.6c13.4-3.5,27.6,1.6,35.8,12.9
	c4.8,6.5,6.7,14.7,5.3,22.7c-0.2,1.3-0.6,2.6-1,3.8l-0.8,2.3l-2.2-1.5c-5-3.6-10.5-6.3-16.4-8l-1.5-0.5l0.2-1.5
	c0.2-2.2-0.4-4.3-1.7-6.1c-2.5-3.4-6.7-4.9-10.8-3.9c-0.9,0.2-1.8,0.6-2.6,1.1l-42,25.9c-2.1,1.2-3.5,3.3-3.9,5.7
	c-0.5,2.4,0.1,4.9,1.5,6.8c2.5,3.4,6.7,4.9,10.8,3.9c0.9-0.2,1.8-0.6,2.6-1.1l16-9.9c2.6-1.6,5.5-2.9,8.5-3.6
	c13.4-3.5,27.6,1.6,35.8,12.9c4.8,6.5,6.7,14.7,5.3,22.7c-1.5,7.8-6.2,14.7-13.1,18.8l-41.9,26C93.6,164.5,90.7,165.8,87.6,166.5" />
</svg>