<svg width="200" height="200" version="1.1" viewBox="0 0 200 200" xml:space="preserve"
	xmlns:xlink="http://www.w3.org/1999/xlink" xmlns="http://www.w3.org/2000/svg">
	<style>
		.swift {
			fill: #ffffff;
		}
	</style>
	<rect width="200" height="200" style="fill: var(--bg, #F05138); rx: var(--rx, 24px);" />
	<path class="swift" d="M162.5,127.2l0.6-2.2c8.2-32.7-11.8-71.6-45.8-92c15,20.2,21.5,44.7,15.7,66c-0.6,1.9-1.1,3.7-1.9,5.6
	c-0.7-0.6-1.7-1.1-3-1.7c0,0-33.9-20.9-70.5-57.8c-0.9-0.9,19.6,29.4,42.8,53.9c-11-6.2-41.5-28.4-61-46c2.4,3.9,5.2,7.9,8.2,11.4
	c16.1,20.6,37.2,45.8,62.5,65.3c-17.8,10.8-42.8,11.8-67.7,0c-6.2-2.8-12-6.4-17.4-10.3c10.5,16.8,26.7,31.4,46.6,40
	c23.6,10.1,47.1,9.5,64.5,0.2c0,0,0.2,0,0.2-0.2c0.7-0.4,1.5-0.9,2.2-1.3c8.4-4.3,24.9-8.6,33.9,8.6
	C175,170.6,179.7,148.1,162.5,127.2L162.5,127.2z" />
</svg>