<svg width="200" height="200" version="1.1" viewBox="0 0 200 200" xml:space="preserve"
	xmlns:xlink="http://www.w3.org/1999/xlink" xmlns="http://www.w3.org/2000/svg">
	<style>
		.symfony {
			fill: #fff;
		}
	</style>
	<rect width="200" height="200" style="fill: var(--bg, #000); rx: var(--rx, 24);" />
	<path class="symfony" d="M151.3,25c-11.3,0.4-21.1,6.6-28.4,15.2c-8.1,9.4-13.5,20.6-17.4,32C98.5,66.5,93.2,59.1,82,55.9c-8.6-2.5-17.7-1.5-26,4.7
	c-3.9,2.9-6.7,7.4-7.9,11.6c-3.4,10.9,3.5,20.6,6.6,24l6.8,7.3c1.4,1.4,4.8,5.2,3.1,10.5c-1.8,5.8-8.8,9.6-16,7.4
	c-3.2-1-7.8-3.4-6.8-6.8c0.4-1.4,1.4-2.4,1.9-3.6c0.5-1,0.7-1.8,0.9-2.2c1.3-4.3-0.5-9.9-5.1-11.3c-4.3-1.3-8.7-0.3-10.4,5.3
	c-1.9,6.3,1.1,17.7,17.2,22.6c18.8,5.8,34.8-4.5,37.1-17.9c1.4-8.4-2.4-14.6-9.3-22.6l-5.6-6.2c-3.4-3.4-4.6-9.2-1.1-13.7
	c3-3.8,7.2-5.4,14.2-3.5c10.2,2.8,14.7,9.8,22.3,15.5c-3.1,10.2-5.2,20.5-7,29.8l-1.1,6.9c-5.4,28.4-9.5,44-20.3,52.9
	c-2.2,1.5-5.3,3.8-9.9,4c-2.4,0.1-3.2-1.6-3.3-2.3c0-1.7,1.4-2.5,2.4-3.3c1.4-0.8,3.6-2.1,3.5-6.2c-0.2-4.9-4.2-9.2-10.1-9
	c-4.4,0.1-11.1,4.3-10.9,11.9c0.3,7.8,7.6,13.7,18.6,13.3c5.9-0.2,19-2.6,32-18c15.1-17.7,19.3-37.9,22.5-52.7l3.5-19.6
	c2,0.2,4.1,0.4,6.4,0.5c18.8,0.4,28.2-9.3,28.3-16.4c0.1-4.3-2.8-8.5-6.9-8.4c-2.9,0.1-6.6,2-7.4,6c-0.9,3.9,6,7.5,0.6,11
	c-3.8,2.5-10.6,4.2-20.2,2.8l1.7-9.6c3.6-18.3,7.9-40.7,24.6-41.3c1.2-0.1,5.7,0,5.8,3c0,1-0.2,1.2-1.4,3.5
	c-1.2,1.7-1.6,3.2-1.6,4.9c0.2,4.7,3.7,7.7,8.8,7.5c6.9-0.2,8.8-6.9,8.7-10.3C171,29.8,162.5,24.7,151.3,25L151.3,25z" />
</svg>