<svg width="200" height="200" version="1.1" viewBox="0 0 200 200" xml:space="preserve"
	xmlns:xlink="http://www.w3.org/1999/xlink" xmlns="http://www.w3.org/2000/svg">
	<style>
		.tableau--fragment-0 {
			fill: #7099A6;
		}

		.tableau--fragment-1 {
			fill: #EB912C;
		}

		.tableau--fragment-2 {
			fill: #59879B;
		}

		.tableau--fragment-3 {
			fill: #E8762C;
		}

		.tableau--fragment-4 {
			fill: #5B6591;
		}

		.tableau--fragment-5 {
			fill: #C72035;
		}

		.tableau--fragment-6 {
			fill: #1F447E;
		}
	</style>
	<rect width="200" height="200" style="fill: var(--bg, #fff); rx: var(--rx, 24px); filter: var(--filter);" />
	<g>
		<polygon class="tableau--fragment-0" points="97.6,33.3 97.6,40.1 85.4,40.1 85.4,44.6 97.6,44.6 97.6,58.2 102.4,58.2 102.4,44.6 114.9,44.6
		114.9,40.1 102.4,40.1 102.4,26.5 97.6,26.5" />
		<polygon class="tableau--fragment-1" points="57.7,50.6 57.7,60.5 39.3,60.5 39.3,66.7 57.7,66.7 57.7,86.8 64.6,86.8 64.6,66.7 83.3,66.7
		83.3,60.5 64.6,60.5 64.6,40.7 57.7,40.7" />
		<polygon class="tableau--fragment-2" points="135.1,50.6 135.1,60.5 116.7,60.5 116.7,67 135.1,67 135.1,86.8 142.3,86.8 142.3,67 160.7,67
		160.7,60.5 142.3,60.5 142.3,40.7 135.1,40.7" />
		<polygon class="tableau--fragment-3" points="95.8,84.3 95.8,95.4 75.3,95.4 75.3,103.7 95.8,103.7 95.8,125.9 104.2,125.9 104.2,103.7
		124.7,103.7 124.7,95.4 104.2,95.4 104.2,73.2 95.8,73.2" />
		<polygon class="tableau--fragment-4" points="156.3,89.9 156.3,96.9 143.8,96.9 143.8,102.5 156.3,102.5 156.3,116.4 162.5,116.4 162.5,102.5
		175,102.5 175,96.9 162.5,96.9 162.5,83 156.3,83" />
		<polygon class="tableau--fragment-0" points="37.2,90.5 37.2,97.2 25,97.2 25,101.9 37.2,101.9 37.2,115.2 42,115.2 42,101.9 54.5,101.5
		54.5,97.2 42,97.2 42,83.9 37.2,83.9" />
		<polygon class="tableau--fragment-5" points="57.7,121.9 57.7,131.8 39.3,131.8 39.3,138.3 57.7,138.3 57.7,158.1 64.9,158.1 64.9,138.3
		83.3,138.3 83.3,131.8 64.9,131.8 64.9,112 57.7,112" />
		<polygon class="tableau--fragment-6" points="135.1,121.9 135.1,131.8 116.7,131.8 116.7,138 135.1,138 135.1,158.1 142.3,158.1 142.3,138
		160.7,138 160.7,131.8 142.3,131.8 142.3,112 135.1,112" />
		<polygon class="tableau--fragment-4" points="97,147 97,154 84.5,154 84.5,159.6 97,159.6 97,173.5 103.3,173.5 103.3,159.6 115.8,159.6
		115.8,154 103.3,154 103.3,140.1 97,140.1" />
	</g>
</svg>