<svg width="200" height="200" version="1.1" viewBox="0 0 200 200" xml:space="preserve"
	xmlns:xlink="http://www.w3.org/1999/xlink" xmlns="http://www.w3.org/2000/svg">
	<style>
		.tailwind {
			fill: #44A8B3;
		}
	</style>
	<rect width="200" height="200" style="fill: var(--bg, #fff); rx: var(--rx, 24px);" />
	<path class="tailwind" d="M62.5,85c5-20,17.5-30,37.5-30c30,0,33.8,22.5,48.8,26.2c10,2.5,18.8-1.3,26.3-11.3c-5,20-17.5,30-37.5,30
	c-30,0-33.7-22.5-48.8-26.3C78.8,71.3,70,75,62.5,85z M25,130c5-20,17.5-30,37.5-30c30,0,33.8,22.5,48.8,26.3
	c10,2.5,18.8-1.3,26.3-11.3c-5,20-17.5,30-37.5,30c-30,0-33.8-22.5-48.8-26.3C41.3,116.3,32.5,120,25,130z" />
</svg>