<svg width="200" height="200" version="1.1" viewBox="0 0 200 200" xml:space="preserve"
	xmlns:xlink="http://www.w3.org/1999/xlink" xmlns="http://www.w3.org/2000/svg">
	<style>
		.tauri--fragment-0 {
			fill: #24C8DB;
		}

		.tauri--fragment-1 {
			fill: #FFC131;
		}
	</style>
	<rect width="200" height="200" style="fill: var(--bg, #fff); rx: var(--rx, 24);" />
	<g>
		<path class="tauri--fragment-0" d="M102.4,120.3c0,8-6.5,14.5-14.5,14.4c0,0,0,0,0,0c-8,0-14.5-6.4-14.5-14.4c0,0,0,0,0,0c0-8,6.5-14.5,14.5-14.5
		c0,0,0,0,0,0C95.8,105.8,102.3,112.3,102.4,120.3C102.4,120.3,102.4,120.3,102.4,120.3z M76.8,66.7c-25.1,5.1-43.9,27.2-43.9,53.6
		c0,30.2,24.6,54.7,55,54.7c24,0,45.3-15.5,52.5-38.4c-6.6,3.2-13.7,5.3-21,6.1c-7.3,10.1-19,16.1-31.5,16.1
		c-21.3,0.1-38.6-17.2-38.7-38.5c0,0,0,0,0,0c0-16.2,10.2-30.6,25.4-36.2C73.9,78.2,74.7,72.3,76.8,66.7z" />
		<path class="tauri--fragment-1" d="M126.7,79.7c0,8-6.5,14.5-14.5,14.5c0,0,0,0,0,0c-8,0-14.5-6.4-14.5-14.4c0,0,0,0,0,0c0-8,6.5-14.5,14.5-14.4
		c0,0,0,0,0,0C120.2,65.2,126.7,71.7,126.7,79.7C126.7,79.7,126.7,79.7,126.7,79.7z M123.2,133.3c25-5.1,43.9-27.2,43.9-53.6
		c0-30.2-24.6-54.7-55-54.7c-24,0-45.3,15.5-52.5,38.4c6.6-3.2,13.7-5.3,21-6.1c7.3-10.1,19-16.1,31.5-16.1
		c21.3-0.1,38.6,17.2,38.7,38.5c0,0,0,0,0,0c0,16.2-10.2,30.6-25.4,36.2C126.1,121.8,125.3,127.7,123.2,133.3z" />
	</g>
</svg>