<svg width="200" height="200" version="1.1" viewBox="0 0 200 200" xml:space="preserve"
	xmlns:xlink="http://www.w3.org/1999/xlink" xmlns="http://www.w3.org/2000/svg">
	<style>
		.threejs {
			fill: #000;
		}
	</style>
	<rect width="200" height="200" style="fill: var(--bg, #fff); rx: var(--rx, 24px); filter: var(--filter);" />
	<path class="threejs" d="M175,67.8c-0.1-0.6-0.6-1.1-1.2-1.2l-36.5-10.5c-0.1-0.1-0.3-0.1-0.4-0.2c-0.1,0-0.3-0.1-0.4-0.1L64.5,35.1
	c-0.1-0.1-0.3-0.2-0.4-0.2c-0.2,0-0.3-0.1-0.5-0.1L27.2,24.3c-0.6-0.2-1.2,0-1.6,0.4c-0.4,0.4-0.6,1-0.5,1.6l18.3,74c0,0,0,0,0,0
	c0,0,0,0,0,0l18.3,74c0.1,0.6,0.6,1.1,1.2,1.2c0.2,0,0.3,0.1,0.5,0.1c0.4,0,0.9-0.2,1.2-0.5l110-105.9C174.9,69,175.1,68.4,175,67.8
	z M119.2,117.9l-7.8-31.6l31.3,9L119.2,117.9z M91.9,144.1l-7.6-31l30.7,8.8L91.9,144.1z M47.3,102.5l30.8,8.9L55,133.6L47.3,102.5z
	M38.1,65.2l31.3,9L45.9,96.8L38.1,65.2z M82.7,106.8l-7.7-31.1l30.8,8.8L82.7,106.8z M79.6,108.2l-31.3-9l23.5-22.6L79.6,108.2z
	M108.1,87.1l7.8,31.6l-31.3-9L108.1,87.1z M76,72.5l23-22.1l7.6,30.9L76,72.5z M73.7,70.1L66,39l30.7,8.8L73.7,70.1z M70.4,70.9
	l-30.8-8.8l23.1-22.3L70.4,70.9z M80.9,113.3l7.7,31.1l-30.8-8.8L80.9,113.3z M112.4,83l23.1-22.3l7.7,31.1L112.4,83z M110,80.6
	l-7.7-31.1l30.8,8.9L110,80.6z M60.3,37.4L36.8,60L29,28.4L60.3,37.4z M64.2,170.8l-7.9-32.1l31.8,9.1L64.2,170.8z M146.6,91.5
	L138.8,60l31.2,9L146.6,91.5z" />
</svg>