<svg width="200" height="200" version="1.1" viewBox="0 0 200 200" xml:space="preserve"
	xmlns:xlink="http://www.w3.org/1999/xlink" xmlns="http://www.w3.org/2000/svg">
	<style>
		.planetscale {
			fill: #F5FF80;
		}
	</style>
	<rect width="200" height="200" style="fill: var(--bg, #000000); rx: var(--rx, 24px); filter: var(--filter);" />
	<path class="planetscale" d="M175,100c0,30.6-18.3,56.9-44.5,68.6l-24.9-25.1c-1-1-1.6-2.5-1.6-3.9v-10.7c0-1.5,1.3-2.8,2.8-2.8h24.1
	l6.6,2.9c1.2,0.5,2.6,0,3.2-1.1l14.3-26c0.5-0.8,0.7-1.8,0.7-2.7V93c0-0.7-0.3-1.4-0.8-1.9l-28.9-28.8c-0.2-0.2-0.5-0.4-0.9-0.5
	l-28.1-6.7C96,55,95.2,54.6,94.5,54l-1.8-1.5l-9-7.8c-0.3-0.3-0.8-0.3-1.1,0c-3.5,3.2-5.4,5.7-6.3,9.2c-1.5,5.4-0.2,10.1,1.9,13
	c0.1,0.2,0.3,0.4,0.4,0.5l10.7,10.8c0.5,0.5,0.8,1.2,0.8,2l0,12.4c0,0.8-1,1.2-1.5,0.6L71.2,75.7c-0.5-0.5-1.2-0.5-1.7,0l-7.2,7.2
	c-0.5,0.5-0.5,1.2,0,1.7l24.9,24.9c2.9,2.9,4.5,6.8,4.5,10.8V145c0,1.7,0.7,3.2,1.8,4.4l23.7,23.7c-4.5,1-9.1,1.7-13.9,1.9
	l-18.7-18.7c-2.6-2.6-4.1-6.1-4.1-9.8v-25.6c0-1.5-0.6-2.9-1.6-3.9L54.4,92.4c-0.5-0.5-1.2-0.5-1.7,0l-7.3,7.2
	c-0.5,0.5-0.5,1.2,0,1.7l21.1,21.1c0.5,0.5,0.8,1.2,0.8,2v12.4c0,0.8-1,1.2-1.5,0.6l-27.9-27.9c-0.4-0.4-1.2-0.1-1.2,0.5l0,14.8
	c0,0.9,0.4,1.8,1,2.5l45.9,45.9c-34.4-7.7-59.9-39.1-58.5-76.1c1.4-38,31.7-69.3,69.6-72C138.5,22.2,175,56.8,175,100" />
</svg>