<svg width="200" height="200" version="1.1" viewBox="0 0 200 200" xml:space="preserve"
	xmlns:xlink="http://www.w3.org/1999/xlink" xmlns="http://www.w3.org/2000/svg">
	<style>
		.travis-ci--fragment-0 {
			fill: #0E0F0D;
		}

		.travis-ci--fragment-1 {
			fill: #A89983;
		}

		.travis-ci--fragment-2 {
			fill: #FFFFFF;
		}

		.travis-ci--fragment-3 {
			fill: #E1C5A2;
		}

		.travis-ci--fragment-4 {
			fill: #E0D896;
		}

		.travis-ci--fragment-5 {
			fill: #D7C184;
		}

		.travis-ci--fragment-6 {
			fill: #9F8F78;
		}

		.travis-ci--fragment-7 {
			fill: #6E6A67;
		}

		.travis-ci--fragment-8 {
			fill: #93232C;
		}

		.travis-ci--fragment-9 {
			fill: #731B2A;
		}
	</style>
	<rect width="200" height="200" style="fill: var(--bg, #fff); rx: var(--rx, 24px); filter: var(--filter);" />
	<g>
		<path class="travis-ci--fragment-0" d="M174.6,77.9c-0.1-0.5-0.2-1.1-0.3-1.6c-0.1-0.6-0.2-1.1-0.4-1.7l-0.4-0.7c-1.7-1.4-3.6-2.4-5.5-3.3
		c-1.6-0.7-3.1-1.4-4.7-2c-4.5-12.4-12.1-23.3-22.2-31c-10.4-7.9-22.7-12.1-35.4-12.1c-12.8,0-25,4.2-35.4,12.1
		c-10.1,7.6-17.7,18.6-22.2,31c-1.6,0.6-3.2,1.2-4.7,2c-1.9,0.9-3.7,1.9-5.5,3.3l-0.4,0.7c-0.2,0.6-0.3,1.1-0.4,1.7
		c-0.1,0.5-0.2,1.1-0.3,1.6c-0.2,1.1-0.3,2.2-0.3,3.3c-0.1,2.2,0,4.4,0.2,6.6c0.2,2.2,0.6,4.3,1.2,6.5c0.3,1.1,0.6,2.1,1.1,3.1
		c0.2,0.5,0.4,1,0.7,1.6c0.1,0.3,0.3,0.5,0.4,0.8c0.3,0.5,0.4,0.6,0.5,0.8l0.6,0.5c0.4,0.2,0.7,0.3,1,0.5l1,0.4
		c0.2,0.1,0.3,0.1,0.5,0.2c-4.4,4.1-9.2,9.4-13.4,16l-5.3,8.3l7.4-6.5c0.1-0.1,6.3-5.5,16.6-11.5l0.1,1.2c-0.7,0.4-3.9,2.1-4.9,2.9
		c-1.6,1.3-1.7,3.4-1.2,7.2c0.2,2,1,5.8,2,9.3c1.7,6,3,7.1,4.1,7.3c0.5,0.1,1.1,0.2,1.9,0.2c2,0,4.5-0.4,6.2-0.9
		c1.9,6,4.7,11.5,8,16.2c-0.2,0-0.3,0.1-0.5,0.1c-2-0.9-9-4.2-11.4-5.3l-4.9-2.2l2.9,4.6c0.2,0.3,5.3,8.2,9.4,13.5
		c3.9,4.9,9.1,10,19.1,10c1.2,0,2.5-0.1,3.7-0.2c3-0.3,5.2-0.6,6.9-0.8c10.4,3.8,22,4.1,32.9-0.1c3-1.1,5.7-2.5,8.2-4.1
		c4.2-1,8.8-2.1,11.1-2.7c0.4-0.1,0.8-0.2,1.3-0.3c3.2-0.7,8.5-2,11.3-7.6c2.8-5.7,7.5-14.4,7.5-14.5l2.2-4.1l-4.2,1.8
		c-0.2,0.1-5.6,2.4-8.4,3.9c1.9-4.5,3.1-8.1,3.5-9.6c1.6,0.4,3.9,0.3,5.6,0.3c0.8,0,1.7-0.1,2.3-0.3c1.1-0.3,2-1,3.6-7.2
		c0.9-3.6,1.6-7.6,1.8-9.6c0.4-3.9,0.2-6-1.4-7.4c-0.8-0.7-3.2-1.9-4.3-2.6c0.7-0.3,1-0.2,1-0.2l1.1-4.1c0.4-0.2,0.8-0.3,1.2-0.5
		c0.7-0.3,1.3-0.5,2-0.8l1-0.4c0.3-0.2,0.6-0.3,1-0.5l0.6-0.5c0.1-0.2,0.2-0.3,0.3-0.4c0.4-0.6,0.5-0.9,0.6-1.2
		c0.2-0.5,0.5-1,0.7-1.6c0.4-1,0.8-2.1,1.1-3.1c0.6-2.1,1-4.3,1.2-6.5c0.2-2.2,0.3-4.4,0.2-6.6C174.9,80,174.8,78.9,174.6,77.9
		L174.6,77.9z" />
		<path class="travis-ci--fragment-1" d="M111.6,101.1c-1.2,1-2.6,2-3.9,2.8l-4.6,2.8c-2.9,0.4-5.4,1.1-5.5,1.1c-0.1,0-0.2,0.1-0.2,0.1
		c-0.2,0.1-0.4,0.3-0.5,0.6l-4.7,15.3l-24.9,5.5l-7.8-5.5l-2.3-18.5c4.5-0.8,10.4-1.8,17.6-2.6c-0.8,0.9-1.5,1.9-2.2,2.9l-4.3,6.1
		l6.2-4.1c0.1-0.1,4-2.7,10.5-5.8c6.4-0.5,13.5-0.8,21.1-0.8C108,101.1,109.8,101.1,111.6,101.1L111.6,101.1L111.6,101.1z
		M72.9,121.9c1.8-1,3.8-0.8,6.9-0.8c0.3,0,0.7,0,1,0c0.3,0,0.6,0,0.9,0c3.2,0,5.9,0.3,5.9-4.8c0-5.1-2.3-9.1-5.5-9.1
		c-3.2,0-6.3,4.2-6.1,9.2c0.1,1.3,0.2,2.3,0.6,3C73.7,120.1,72.9,121.8,72.9,121.9L72.9,121.9L72.9,121.9z M154.8,105.3l-2.2,15.7
		l-7.9,5.5l-24.9-2.8l-4.6-15.3c-0.1-0.3-0.4-0.6-0.7-0.7c-0.2,0-3.2-0.9-6.5-1.2l0.6,0c0.5,0,9.1-1.1,19.3-4.6
		C139.2,102.8,148.4,104.2,154.8,105.3L154.8,105.3L154.8,105.3z M138.9,119.9c0-0.1-0.7-2.2-3.7-1.8c0.3-0.8,0.5-1.8,0.4-3.2
		c-0.4-5-3.3-9.1-6.6-8.9c-3.2,0.1-5.3,4.3-5.1,9.4c0.2,5.1,2.9,5,6.1,4.9C134.3,120.1,136.7,118.8,138.9,119.9L138.9,119.9
		L138.9,119.9z" />
		<path class="travis-ci--fragment-2" d="M130.4,110.8c0,0.9-0.7,1.7-1.6,1.7c-0.9,0-1.7-0.7-1.7-1.6c0-0.9,0.7-1.7,1.6-1.7
		C129.6,109.1,130.4,109.9,130.4,110.8 M84.2,112c0,0.9-0.7,1.7-1.6,1.7c-0.9,0-1.7-0.7-1.7-1.6c0-0.9,0.7-1.7,1.6-1.7
		C83.5,110.4,84.2,111.1,84.2,112" />
		<path class="travis-ci--fragment-3" d="M112.6,162.6c-0.8,0.1-1.6,0.2-2.4,0.3c-0.5,0-1.1,0.1-1.5,0.1l-0.2,0c0.6-1.4,1.1-2.4,1.4-3.3
		C110.6,160.5,111.6,161.5,112.6,162.6 M165.6,112.2c-0.4-0.3-1.7-1.1-3-1.7l-2.1,14.6c0,0.3-0.2,0.5-0.4,0.7l-3,2.1
		c-0.1,0.4-0.1,0.6-0.2,0.9c2.9,0.7,5.8-1.4,7.4-2.9c0.7-2.9,1.4-6.3,1.6-8.7C166.3,113.4,166,112.6,165.6,112.2 M119.6,167.7
		c-1.9-0.7-3.7-1.8-5.3-3.3c-0.1-0.1-0.3-0.3-0.4-0.4c-1.2,0.2-2.4,0.4-3.7,0.5c-0.5,0-1,0.1-1.6,0.1l-0.8,0l-0.3,0
		c-1.8,2.7-5,4.3-7.4,5.1C107.4,170.9,115.4,169,119.6,167.7 M55.9,132c-0.1-0.2-0.1-0.4-0.2-0.7l-3.9-2.7c-0.2-0.2-0.4-0.4-0.4-0.7
		l-1.9-15.3c-1.4,0.7-3,1.7-3.4,2c-0.4,0.3-0.7,1.1-0.3,4.7c0.3,2.7,1.3,7,2.3,10.1C50,130.9,52.9,132.5,55.9,132 M113.8,131.3
		c-0.4,0-0.8-0.3-0.9-0.7l-4.8-15.7c-0.8-0.1-1.5-0.2-2.1-0.2c-0.6,0-1.3,0.1-2.1,0.2l-4.6,15.3c-0.1,0.4-0.4,0.6-0.8,0.7l-2.2,0.5
		c-0.2,0.8-0.8,1.9-2.9,2.6c-3.3,1-24.4,7.3-26.8,6.9c-1.4-0.2-4.1-1.7-6-2.9c-0.8-1.9-1.2-3.1-1.3-3.4v0l0,0
		c0.3,0.8,3,8.7,8.6,16.4c6-1.8,11.1-3.4,12.8-3.9c3.4-5.2,8.2-10.3,11.6-10.5c0.6,0,1.2,0,1.8,0c1.7,0,3.3,0.1,4.7,0.3
		c-1.3-1.1-1.5-2.5-1.7-3.1c0,0,4.3,3.4,9.9,2.7c5.5-0.7,9-3.9,9-3.9l0.1-1L113.8,131.3 M118.3,133.2c-1.1-0.3-1.9-0.8-2.3-1.3
		l-0.1,0.5c0,0,0,2.3-2.4,4.1c4.6-1.4,6.6-1.9,7.9-1.9c1.4,0,2.2,0.6,2.8,1.1c0.1,0.1,0.2,0.2,0.4,0.3c3.6,2.8,7.9,6.2,9.1,7.2
		c1.5,0.2,6.1,0.7,9,1c1.7,0.2,3.2,0.3,4.7,0.3c0.5,0,0.9,0,1.3,0c1.5-2.9,2.9-6.2,4.2-9.7c-1.7,1.2-5.6,3.8-7.5,4.2
		C142.9,139.5,121.6,134.1,118.3,133.2" />
		<path class="travis-ci--fragment-4" d="M171.9,78.2c0-0.5-0.1-1-0.2-1.5c0-0.4-0.1-0.7-0.2-1.1c-1.3-1.1-2.9-2.1-4.5-3.1c-1.7-1-3.5-1.9-5.4-2.7
		c-1.8-0.9-3.7-1.6-5.6-2.4c-0.9-0.4-1.9-0.8-2.9-1.1c-1-0.4-1.9-0.7-2.9-1.1c2,0.3,4,0.8,6,1.3c1.3,0.3,2.6,0.7,3.9,1.1
		c-9.1-23.7-30.8-39.2-54.5-39.2c-23.7,0-45.4,15.5-54.5,39.2c1.3-0.4,2.6-0.8,3.9-1.1c2-0.5,4-1,6-1.3c-1,0.4-1.9,0.7-2.9,1.1
		c-1,0.4-1.9,0.7-2.8,1.1c-1.9,0.8-3.8,1.5-5.6,2.4c-1.8,0.8-3.6,1.7-5.4,2.7c-1.6,0.9-3.1,1.9-4.5,3.1c-0.1,0.3-0.1,0.7-0.2,1.1
		c-0.1,0.5-0.1,1-0.2,1.5c-0.1,1-0.1,2-0.1,3c0,2,0.1,4.1,0.4,6.1c0.3,2,0.6,4,1.2,6c0.3,1,0.6,1.9,0.9,2.9c0.2,0.5,0.4,0.9,0.6,1.4
		c0.1,0.2,0.2,0.4,0.3,0.6l0.1,0.2c0.1,0.1,0.3,0.2,0.5,0.2l0.9,0.4c0.5,0.2,1.2,0.6,1.8,0.8c0,0,0.1-0.1,0.1-0.1l-1.7-6.4
		c0.4-0.1,3.5-0.9,9-2c-0.4-0.1-0.9-0.2-1.3-0.3c-1.2-0.3-2.5-0.7-3.7-1.2c-0.6-0.3-1.2-0.5-1.7-0.8c-0.6-0.3-1.1-0.7-1.5-1.2
		c6,2,18.5,1.1,29.5-0.1c10.1-1,20.3-1.7,30.5-1.7c10.2,0,20.4,0.7,30.5,1.7c11.1,1.1,23.5,2,29.6,0.1c-0.4,0.5-1,0.8-1.5,1.2
		c-0.6,0.3-1.1,0.6-1.7,0.8c-1.2,0.5-2.4,0.9-3.7,1.2c-0.2,0-0.4,0.1-0.6,0.1c6,1.1,9.5,2,9.9,2.1l-1.6,6.1c0.3-0.1,0.7-0.3,1-0.4
		l0.9-0.4c0.1-0.1,0.3-0.2,0.5-0.2l0.1-0.2c0.1-0.2,0.2-0.4,0.3-0.6c0.2-0.4,0.4-0.9,0.6-1.4c0.4-0.9,0.7-1.9,0.9-2.9
		c0.5-1.9,0.9-3.9,1.2-6c0.3-2,0.4-4,0.4-6.1C172,80.2,172,79.2,171.9,78.2" />
		<path class="travis-ci--fragment-5" d="M130.7,66.4c0.1,2.7,0,7.6-1.2,12.3c-0.1,0.2,0,0.4,0,0.5c-1.6-0.2-3.2-0.3-4.8-0.4c1.8-3.8,2.2-7.8,2.3-9.2
		C128.3,68.5,129.7,67.3,130.7,66.4 M84.6,69.5c0.1,1.4,0.5,5.4,2.3,9.2c-1.6,0.1-3.2,0.3-4.8,0.4c0-0.2,0-0.3,0-0.5
		c-1.3-4.6-1.3-9.5-1.2-12.3C81.8,67.3,83.2,68.5,84.6,69.5 M150.5,82.9c0,0,0,0.1,0,0.1c0.2,0.1,0.4,0.1,0.5,0.2
		c1.5,0.5,3,1,4.4,1.7c-2.4-1.5-3.9-6-4.7-9.4C150.9,79.9,150.5,82.7,150.5,82.9 M78.8,65.5l-15.4,4.4c-0.9,6-0.6,10.6-0.5,12.1
		l0.1,0c0,0,0.5-6.5,1.5-9c0.5-1.3,3.7-2.1,6.2-2.7c2.5-0.6,6.4-1.8,7.1,1.7c0.5,2.1,1.1,3.9,1.7,5.2C78.6,72.4,78.7,67.8,78.8,65.5
		M132.7,65.5c0.1,2.4,0.2,7.3-0.9,12.2c0.7-1.3,1.5-3.3,2-5.8c0.8-3.5,4.7-2.3,7.1-1.7c2.5,0.6,5.7,1.4,6.2,2.7
		c0.9,2.1,1.4,7.1,1.5,8.6c0.1-1.9,0.3-6.2-0.5-11.7L132.7,65.5 M84.5,66.8c0.5,0.4,1.1,0.9,1.7,1.2c0.3,0.2,0.4,0.5,0.4,0.8
		c0,0.1,0.1,5.1,2.4,9.4c0,0.1,0.1,0.1,0.1,0.2c5.6-0.4,11.2-0.5,16.7-0.5c5.6,0,11.2,0.2,16.7,0.5c0-0.1,0-0.1,0.1-0.2
		c2.2-4.3,2.4-9.4,2.4-9.4c0-0.3,0.2-0.6,0.4-0.8c0.5-0.4,1.1-0.8,1.6-1.2l0.1-0.2c1.2-11.3-1-21.8-2.3-27
		c-0.1,3.5-0.9,33.8-8.4,33.8h-9.6h-1.6h-9.6c-8,0-8.6-34.1-8.6-34.1l-0.4,1.2C85.2,46.1,83.3,56.1,84.5,66.8 M61,83
		c0,0,0-0.1,0-0.1c0-0.2-0.4-3-0.2-7.5c-0.8,3.4-2.4,7.9-4.7,9.4c1.4-0.7,2.9-1.2,4.4-1.7C60.7,83.2,60.9,83.1,61,83" />
		<path class="travis-ci--fragment-6"
			d="M157,128.8c-0.1,0.7-0.2,1.2-0.4,2c1.7,0.4,4.5,0.7,5.8,0.4c0.6-0.6,1.3-2.8,2-5.4
		C162.8,127.4,159.9,129.5,157,128.8 M95.8,170.6c4.1,1.1,8.2,1.6,12.4,1.3c4.1-0.3,9.5-1.2,15.1-3.5c-1.3-0.1-2.5-0.4-3.7-0.8
		c-4.2,1.3-12.1,3.2-19.4,1.9c-1.9,0.6-3.4,0.8-3.6,0.8C96.3,170.5,96.1,170.6,95.8,170.6 M56.2,132.9c-0.1-0.3-0.2-0.6-0.3-0.9
		c-3,0.6-5.9-1-7.8-2.5c0.6,2,1.3,3.6,1.8,4.1C51.3,133.8,54.6,133.3,56.2,132.9 M60.6,137.9c2,1.2,4.6,2.7,6,2.9
		c2.4,0.3,23.4-5.9,26.8-6.9c2.1-0.6,2.7-1.8,2.9-2.6L65.9,138c-0.1,0-0.2,0-0.2,0h0h0c-0.2,0-0.4-0.1-0.6-0.2l-1.2-0.8l-3.5-2.5v0
		l-1.4-1c0,0.1,0.1,0.2,0.1,0.2c0.1,0.2,0.2,0.5,0.2,0.7v0C59.4,134.8,59.8,136.1,60.6,137.9 M153.7,132.1c0.2-0.7,0.4-1.4,0.6-2.2
		l-1.1,0.7l-2.8,2l-3.1,2.2c-0.2,0.1-0.3,0.2-0.5,0.2c-0.1,0-0.1,0-0.2,0l-30.6-3.5L116,132c0.5,0.5,1.2,1,2.3,1.3
		c3.4,0.9,24.7,6.2,27,5.8c1.8-0.3,5.7-3,7.5-4.2c0,0,0-0.1,0-0.1c0.1-0.4,0.3-0.8,0.4-1.2C153.4,133.1,153.5,132.6,153.7,132.1" />
		<path class="travis-ci--fragment-7" d="M121.4,90.9c-0.2,0.3-0.5,0.7-0.8,1c-1.5,1.8-3.5,4.2-5.8,6.5c-2.8-0.1-5.6-0.1-8.6-0.1
		c-4.8,0-9.5,0.1-13.9,0.3c6.2-2.6,13.7-5.1,21.8-6.6C116.5,91.5,118.9,91.2,121.4,90.9 M84.9,93.7c-2.2,1.6-4.7,3.6-7.2,6
		c-6.2,0.6-11.7,1.4-16.2,2.1C68.4,98.6,76.3,95.7,84.9,93.7 M161.1,106.6l-2.5,17.8l-12.2,8.5l-31.7-3.6l-4.8-15.7
		c-0.1-0.4-0.4-0.7-0.8-0.7c-1.2-0.2-2.2-0.3-3.1-0.3c-0.9,0-1.9,0.1-3.1,0.3c-0.4,0.1-0.7,0.3-0.8,0.7l-4.7,15.3l-31.5,7l-12.5-8.8
		l-2.5-19.9c0.5-0.3,1.1-0.6,1.6-0.9c0.8-0.2,1.6-0.3,2.6-0.5l2.3,18.8c0,0.3,0.2,0.6,0.4,0.7l8.6,6c0.2,0.1,0.4,0.2,0.6,0.2
		c0.1,0,0.2,0,0.2,0l25.9-5.8c0.1,0,0.2-0.1,0.3-0.1c0.2-0.1,0.4-0.3,0.5-0.6l4.7-15.4c1.3-0.3,4.5-1.1,7.3-1.1c2.8,0,6,0.8,7.3,1.1
		L118,125c0.1,0.4,0.5,0.7,0.9,0.7l25.9,2.9c0.2,0,0.5,0,0.7-0.2l8.6-6c0.2-0.2,0.4-0.4,0.4-0.7l2.3-16.1
		C158.5,106,160,106.3,161.1,106.6 M164.3,95.5l-2.2,8.5c-4.6-1-14.6-3-28.2-4.3c4.5-1.9,9-4.3,13.1-7.3
		C155.1,93.5,161.1,94.7,164.3,95.5 M48,95.5l0.6,2.3c1.7-1.4,3.3-2.5,4.7-3.4C51.1,94.8,49.3,95.2,48,95.5" />
		<path class="travis-ci--fragment-8"
			d="M135.6,90.7c-3.4-0.2-6.8-0.4-10.3-0.5c-0.2,0.3-0.6,0.9-1.2,1.7c-1.8,2.5-5.4,7-10.1,10.9
		c3.5-1.1,17.3-5.7,24.3-11.9C137.4,90.8,136.5,90.8,135.6,90.7 M110.5,89.8C110.5,89.8,110.5,89.8,110.5,89.8c-1.7,0-3.5,0-5.2-0.1
		h0c-2.5,0-5.1,0-7.6,0.1L93,92.1c0,0,0,0-0.1,0c-0.7,0.3-6.9,3.5-12.7,9c0.5-0.3,1-0.5,1.6-0.8c3.2-2.1,11.7-7.2,24.8-10.5
		C108,89.8,109.3,89.8,110.5,89.8 M81.6,90.4c-2.2,0.1-4.4,0.2-6.5,0.3c-2.5,0.1-5,0.3-7.5,0.5c-1.3,0.1-2.5,0.2-3.7,0.3
		c-0.4,0-0.7,0.1-1.1,0.1c-3.3,2-15.8,9.8-24.5,20.2c0.1-0.2,0.3-0.4,0.5-0.5C54.7,97.7,72.2,92.4,81.6,90.4 M153.9,146.5
		c-0.1,0-0.2,0.1-0.3,0.1c-1.6,0.8-3.7,1.3-6.4,1.3c-1.6,0-3.2-0.1-5-0.3c-3.5-0.3-9.4-1-9.5-1l-0.5,0l-0.4-0.3
		c-0.1,0-5.3-4.2-9.5-7.5c-0.2-0.1-0.3-0.3-0.5-0.4c-0.4-0.4-0.4-0.4-0.7-0.4c-1.3,0-5.3,1.2-13.8,3.9L107,142l-0.5-0.2
		c-0.1,0-5.7-2.1-12.4-2.1c-0.6,0-1.1,0-1.6,0c-0.7,0-4.5,1.8-9.3,9.5l-0.3,0.5l-0.6,0.2c-0.1,0-8.4,2.7-17.3,5.3l-0.6,0.2l-0.5-0.3
		c-0.1,0-3.5-1.6-6.8-3.1c0.2,0.1,0.5,0.2,0.7,0.3c3.3,2.8,9.5,8.2,10.2,9c0.1,0.1,0.2,0.2,0.4,0.4c-0.2-0.2-0.3-0.4-0.5-0.6
		c0,0,0,0,0,0l0,0l0,0c1.4,1.4,3,2.5,4.8,3.4c0.9,0.4,1.8,0.7,2.7,0.9c0.5,0.1,0.9,0.1,1.4,0.1c0.5,0,1,0,1.5,0
		c1.9-0.1,3.9-0.2,5.9-0.4c2-0.2,3.9-0.4,5.9-0.6c2-0.2,3.9-0.5,5.8-0.8c1-0.1,1.9-0.3,2.9-0.5c0.5-0.1,0.9-0.2,1.3-0.4
		c0.3-0.2,0.7-0.5,1.1-0.8c0.7-0.6,1.4-1.3,2.1-2c0.7-0.7,1.4-1.4,2.1-2.1c1.1-1.2,2.1-2.5,3.2-3.7c0.1-0.2,0.3-0.3,0.4-0.5
		c0,0,0,0,0,0l0,0c0.2,0.2,0.5,0.3,0.7,0.5c1.3,1,2.7,2.1,4,3c1.7,1.2,3.5,2.4,5.2,3.4c0.4,0.2,0.9,0.5,1.4,0.6c0.1,0,0.1,0,0.1,0
		c0,0,0.2,0,0.2,0c0.1,0,0.2,0,0.3,0c0.2,0,0.5,0,0.7,0c1-0.1,2-0.2,3.1-0.4c2.1-0.3,4.1-0.7,6.2-1.1c2.1-0.4,4.1-0.8,6.1-1.3
		c2-0.4,4.1-0.9,6.1-1.4c1-0.3,2-0.5,2.9-1c0.9-0.4,1.8-1,2.6-1.7c1.6-1.3,2.9-3,4-4.8c0,0,0,0,0,0
		C153.2,148.3,153.7,147.2,153.9,146.5 M115.6,49.9h3.6v-7.3H92.8v7.3h3.6v-3.7h7.5v22.7h-3.1V73h10.4v-4.2h-3.1V46.2h7.5V49.9" />
		<path class="travis-ci--fragment-9" d="M143,91.2C143,91.2,143,91.2,143,91.2c-1.5-0.1-3-0.2-4.5-0.3c0,0-0.1,0-0.1,0c-7,6.1-20.8,10.8-24.3,11.9
		c-0.1,0.1-0.1,0.1-0.2,0.2c4.5-0.8,11.2-2.4,18.1-5.5c3.4-1.5,6.9-3.4,10.2-5.7C142.5,91.6,142.7,91.4,143,91.2 M106.7,89.8
		c-13.2,3.3-21.7,8.4-24.8,10.5c2.5-1.3,5.6-2.7,9-4.1c0,0,0,0,0.1,0c0.3-0.1,0.7-0.3,1-0.4c0.1,0,0.2-0.1,0.3-0.1
		c0.3-0.1,0.6-0.2,0.9-0.4c0.2-0.1,0.3-0.1,0.5-0.2c0.3-0.1,0.6-0.2,0.8-0.3c0.2-0.1,0.4-0.2,0.6-0.2c0.3-0.1,0.5-0.2,0.8-0.3
		c0.2-0.1,0.5-0.2,0.7-0.3c0.2-0.1,0.5-0.2,0.7-0.3c0.3-0.1,0.6-0.2,0.8-0.3c0.2-0.1,0.4-0.2,0.7-0.2c0.3-0.1,0.7-0.2,1-0.3
		c0.2-0.1,0.4-0.1,0.6-0.2c0.5-0.2,1.1-0.3,1.6-0.5c1.2-0.4,2.4-0.7,3.6-1c1.6-0.4,3.2-0.8,4.8-1.2C109.3,89.8,108,89.8,106.7,89.8
		M81.6,90.4c-9.4,2-26.9,7.3-42.9,20.9c-0.2,0.2-0.3,0.4-0.5,0.5c8.1-5.6,22.1-14,39.3-19.1c0.6-0.2,1.1-0.3,1.7-0.5
		c2.9-0.8,5.8-1.5,8.8-2.1C86,90.2,83.8,90.3,81.6,90.4 M157,144.9c-0.1,0-0.1,0-0.2,0.1c-0.1,0.1-0.2,0.1-0.3,0.2
		c-0.1,0-0.2,0.1-0.3,0.1c-0.1,0-0.1,0.1-0.2,0.1c-0.1,0.1-0.2,0.1-0.3,0.2c0,0-0.1,0-0.1,0.1c-0.1,0.1-0.2,0.1-0.4,0.2
		c0,0-0.1,0-0.1,0c-0.1,0.1-0.3,0.1-0.4,0.2c0,0,0,0,0,0c-0.3,0.1-0.5,0.3-0.8,0.4c-0.3,0.7-0.7,1.9-1.4,3.1c0,0,0,0,0,0
		c0,0,0,0,0,0c0,0,0,0,0,0c-1.1,1.8-2.4,3.5-4,4.8c-0.8,0.7-1.6,1.3-2.5,1.7c-0.9,0.4-1.9,0.7-2.9,1c-2,0.5-4.1,1-6.1,1.4
		c-2,0.5-4.1,0.9-6.1,1.3c-2,0.4-4.1,0.8-6.2,1.1c-1,0.2-2.1,0.3-3.1,0.4c-0.3,0-0.5,0-0.7,0c-0.1,0-0.2,0-0.3,0c0,0-0.1,0-0.2,0
		c0,0-0.1,0-0.2,0c-0.4-0.1-0.9-0.4-1.4-0.6c-1.8-1-3.5-2.2-5.2-3.4c-1.3-0.9-2.7-2-4-3l-0.1,0.2l0,0c0.1,0.1,0.2,0.1,0.2,0.2
		c0,0,0,0,0,0c-0.1,0-0.1-0.1-0.2-0.1l1.1,1.3c0,0,0,0.1,0.1,0.2c0.6,0.7,3,3.4,5.8,6.3c2.2,2.1,4.8,3.2,7.8,3.2
		c1,0,2.1-0.1,3.2-0.4c1-0.2,2.1-0.5,3.2-0.8c3.3-0.8,7-1.7,9.4-2.3c0.2,0,0.3-0.1,0.5-0.1c0.3-0.1,0.7-0.2,0.9-0.3
		c0.4-0.1,0.9-0.2,1.4-0.4c3-0.7,7-1.6,9.1-5.9c0.6-1.2,1.3-2.5,1.9-3.8c1-1.9,1.9-3.8,2.8-5.4c0.1-0.3,0.3-0.5,0.4-0.8c0,0,0,0,0,0
		c0.1-0.1,0.1-0.3,0.2-0.4C157.4,144.8,157.2,144.9,157,144.9 M108.6,154.2l-0.2-0.2c-1.1,1.2-2.1,2.5-3.2,3.7
		c-0.7,0.7-1.4,1.4-2.1,2.1c-0.7,0.7-1.4,1.4-2.1,2c-0.4,0.3-0.8,0.6-1.1,0.8c-0.4,0.2-0.8,0.3-1.3,0.4c-0.9,0.2-1.9,0.4-2.9,0.5
		c-1.9,0.3-3.9,0.5-5.8,0.8c-2,0.2-3.9,0.4-5.9,0.6c-2,0.2-3.9,0.3-5.9,0.4c-0.5,0-1,0-1.5,0c-0.5,0-0.9,0-1.4-0.1
		c-0.9-0.2-1.8-0.5-2.7-0.9c-1.7-0.8-3.4-2-4.8-3.4c0,0,0,0,0,0c0.2,0.2,0.4,0.5,0.6,0.7c0,0-0.1-0.1-0.1-0.1
		c-0.2-0.1-0.3-0.3-0.4-0.4c-0.7-0.7-6.9-6.1-10.2-9c-0.2-0.1-0.5-0.2-0.7-0.3c0.6,0.9,1.2,1.8,1.9,2.7c1,1.4,2,2.8,2.9,4.1
		c0.4,0.6,0.9,1.2,1.3,1.7c3.5,4.5,8,8.8,16.5,8.8c1.1,0,2.2-0.1,3.4-0.2c0.3,0,0.5-0.1,0.8-0.1c0.3,0,0.5-0.1,0.7-0.1
		c7.4-0.9,9.5-1.2,10.6-1.4c0.3-0.1,0.5-0.1,0.8-0.1c0.1,0,0.2,0,0.3,0c0,0,2.6-0.3,5-1.5c1.7-0.8,3.4-2.1,4.2-3.9
		c2.1-4.6,2.5-5.7,2.5-5.7L108.6,154.2" />
		<path class="travis-ci--fragment-0" d="M128.8,112.5c0.9,0,1.6-0.8,1.6-1.7c0-0.9-0.8-1.6-1.7-1.6c-0.9,0-1.6,0.8-1.6,1.7
		C127.1,111.7,127.9,112.5,128.8,112.5L128.8,112.5L128.8,112.5z M138.9,119.9c-2.2-1-4.5,0.3-8.9,0.4c-3.2,0.1-5.9,0.1-6.1-4.9
		c-0.2-5.1,1.9-9.2,5.1-9.4c3.2-0.1,6.2,3.9,6.6,8.9c0.1,1.4,0,2.4-0.4,3.2C138.2,117.7,138.8,119.7,138.9,119.9L138.9,119.9
		L138.9,119.9z M82.6,113.7c0.9,0,1.6-0.8,1.6-1.7c0-0.9-0.8-1.6-1.7-1.6c-0.9,0-1.6,0.8-1.6,1.7C81,113,81.7,113.7,82.6,113.7
		L82.6,113.7L82.6,113.7z M87.6,116.3c0,5.1-2.6,4.8-5.9,4.8c-0.3,0-0.6,0-0.9,0c-0.4,0-0.7,0-1,0c-3.1,0-5.1-0.1-6.9,0.8
		c0-0.1,0.8-1.8,3.6-2.6c-0.3-0.7-0.5-1.6-0.6-3c-0.2-5.1,2.9-9.2,6.1-9.2C85.3,107.2,87.6,111.3,87.6,116.3L87.6,116.3L87.6,116.3z
		M148.6,81.6c0,0.4-0.1,0.8-0.1,0.9c-1.3-0.3-2.6-0.7-3.8-1c-4.3-0.9-8.6-1.6-12.9-2.1c-0.1,0-0.3,0-0.5,0c0-0.1,0.1-0.1,0.1-0.2
		c0.1-0.5,0.2-0.9,0.3-1.4c1.1-4.9,1.1-9.9,0.9-12.2l15.4,4.4C148.9,75.4,148.8,79.6,148.6,81.6L148.6,81.6L148.6,81.6z M129.5,78.6
		c-0.1,0.2,0,0.4,0,0.5c-1.6-0.2-3.2-0.3-4.8-0.4c1.8-3.8,2.2-7.8,2.3-9.2c1.4-1,2.8-2.2,3.8-3.1C130.8,69.1,130.7,74,129.5,78.6
		L129.5,78.6L129.5,78.6z M82,79.1c0-0.2,0-0.3,0-0.5c-1.3-4.6-1.3-9.5-1.2-12.3c1,0.9,2.4,2.1,3.8,3.1c0.1,1.4,0.5,5.4,2.3,9.2
		C85.3,78.8,83.7,79,82,79.1L82,79.1L82,79.1z M79.7,79.4c-2.2,0.3-4.3,0.5-6.5,0.9c-2.1,0.4-4.3,0.8-6.4,1.2
		c-1.3,0.3-2.6,0.6-3.8,1c0-0.1,0-0.3,0-0.5c-0.1-1.6-0.4-6.2,0.5-12.1l15.4-4.4c-0.1,2.3-0.2,6.9,0.8,11.7c0.1,0.7,0.3,1.3,0.5,2
		c0,0.1,0,0.1,0.1,0.2C80,79.4,79.9,79.4,79.7,79.4L79.7,79.4L79.7,79.4z M156.9,85.6c-0.1-0.1-0.3-0.1-0.4-0.2
		c-0.2-0.1-0.4-0.2-0.6-0.3c0,0,0,0,0,0c-0.1-0.1-0.3-0.1-0.4-0.2c-1.4-0.7-2.9-1.2-4.4-1.7c-0.2-0.1-0.4-0.1-0.5-0.2
		c0,0,0-0.1,0-0.1c0-0.2,0.4-3,0.2-7.5c-0.1-1.9-0.3-4.1-0.7-6.5c-0.1-0.4-0.3-0.7-0.7-0.8l-2.2-0.6c-0.5-17-7.5-25-7.7-25.2
		c6.2,10,6.2,22,6.1,24.7l-13.6-3.9c0,0,0,0,0,0c-0.1,0-0.1,0-0.2,0c0,0,0,0,0,0c-0.1,0-0.1,0-0.2,0c0,0,0,0,0,0
		c-0.1,0-0.1,0-0.2,0.1c0,0,0,0-0.1,0c0,0-0.1,0.1-0.1,0.1c0,0,0,0,0,0c0,0,0,0,0,0c0,0,0,0,0,0c0,0-0.4,0.4-0.9,0.9
		c0-1.3,0-3.2-0.1-5.6c0-0.2,0-0.5,0-0.7c-0.4-6-1.8-14.4-6.1-21.7c0,0.1,0.5,1.3,1,3.4c1.4,5.2,3.5,15.6,2.3,27c0,0.1,0,0.1,0,0.2
		c0,0,0,0-0.1,0c-0.5,0.4-1.1,0.8-1.6,1.2c-0.3,0.2-0.4,0.5-0.4,0.8c0,0.1-0.1,5.1-2.4,9.4c0,0.1-0.1,0.1-0.1,0.2
		c-5.6-0.4-11.2-0.5-16.7-0.5c-5.6,0-11.2,0.2-16.7,0.5c0-0.1,0-0.1-0.1-0.2c-2.2-4.3-2.4-9.4-2.4-9.4c0-0.3-0.2-0.6-0.4-0.8
		c-0.6-0.4-1.1-0.8-1.7-1.2c-1.1-10.8,0.7-20.8,2.1-26.2c0.6-2.6,1.2-4.1,1.2-4.3c-6.1,10.7-6.3,23.5-6.2,28
		c-0.6-0.5-0.9-0.9-0.9-0.9c0,0,0,0,0,0c0,0,0,0,0,0c0,0,0,0,0,0c0,0-0.1-0.1-0.1-0.1c0,0,0,0-0.1,0c-0.1,0-0.1,0-0.2-0.1
		c0,0,0,0,0,0c-0.1,0-0.2,0-0.2,0c0,0,0,0-0.1,0c-0.1,0-0.1,0-0.2,0c0,0,0,0,0,0L66.1,67c-0.1-2.8-0.2-14.7,6.1-24.7
		c-0.2,0.2-7.2,8.2-7.7,25.2l-2.2,0.6c-0.4,0.1-0.7,0.4-0.7,0.8c-0.4,2.4-0.6,4.6-0.7,6.5c-0.2,4.5,0.2,7.3,0.2,7.5c0,0,0,0.1,0,0.1
		c-0.2,0.1-0.4,0.1-0.5,0.2c-1.5,0.5-3,1-4.4,1.7C56,85,55.8,85,55.7,85.1c0,0,0,0,0,0c-0.2,0.1-0.5,0.2-0.6,0.3
		c-0.1,0.1-0.2,0.1-0.3,0.2c-0.1,0-0.1,0.1-0.2,0.1c1-0.4,2.1-0.7,3.1-0.9c1-0.3,2.1-0.5,3.2-0.7c2.1-0.4,4.2-0.7,6.4-1
		c2.1-0.3,4.3-0.5,6.4-0.7c2.1-0.2,4.3-0.4,6.4-0.5c8.6-0.5,17.2-0.7,25.8-0.7c8.6,0,17.2,0.1,25.8,0.7c2.1,0.1,4.3,0.3,6.4,0.5
		c2.1,0.2,4.3,0.4,6.4,0.7c2.1,0.3,4.3,0.6,6.4,1c1.1,0.2,2.1,0.4,3.1,0.7c1.1,0.3,2.1,0.5,3.1,0.9C157,85.7,156.9,85.6,156.9,85.6
		L156.9,85.6L156.9,85.6z M108.2,46.2v22.7h3.1V73h-10.4v-4.2h3.1V46.2h-7.5v3.7h-3.6v-7.3h26.4v7.3h-3.6v-3.7L108.2,46.2
		L108.2,46.2L108.2,46.2z M122,52.6V39.8H90.1v12.8h9v-3.7h2v17.2h-3.1v9.6H114v-9.6h-3.1V48.9h2v3.7H122L122,52.6z" />
	</g>
</svg>