<svg width="200" height="200" version="1.1" viewBox="0 0 200 200" xml:space="preserve"
	xmlns:xlink="http://www.w3.org/1999/xlink" xmlns="http://www.w3.org/2000/svg">
	<style>
		.trello {
			fill: url(#gradientFragment1);
		}
	</style>
	<defs>
		<linearGradient id="gradientFragment1" gradientUnits="userSpaceOnUse" x1="5.7159" y1="194.0988" x2="5.7159"
			y2="200.8403" gradientTransform="matrix(22.25 0 0 -22.2857 -27.1786 4500.75)">
			<stop offset="0" style="stop-color:#0052CC" />
			<stop offset="1" style="stop-color:#2684FF" />
		</linearGradient>
	</defs>
	<rect width="200" height="200" style="fill: var(--bg, #fff); rx: var(--rx, 24px); filter: var(--filter);" />
	<path class="trello" d="M157.2,24.9H42.8c-9.9,0-17.8,7.9-17.8,17.8v114.6c0,9.9,7.9,17.8,17.8,17.8h114.4c9.9,0,17.8-7.9,17.8-17.8
	V42.7C175,32.8,167.1,24.9,157.2,24.9z M89.5,133c0,3.4-2.6,6-6,6h-25c-3.4,0-6-2.6-6-6V58.6c0-3.4,2.6-6,6-6h25c3.4,0,6,2.6,6,6
	V133z M147.3,98.8c0,3.4-2.6,6-5.8,6h-25.3c-3.4,0-6-2.6-6-6V58.6c0-3.4,2.6-6,6-6h25c3.4,0,6,2.6,6,6V98.8z" />
</svg>