<svg width="200" height="200" version="1.1" viewBox="0 0 200 200" xml:space="preserve"
	xmlns:xlink="http://www.w3.org/1999/xlink" xmlns="http://www.w3.org/2000/svg">
	<style>
		.turso--fragment-0 {
			fill: #1EBCA1;
		}

		.turso--fragment-1 {
			fill: #183134;
		}

		.turso--fragment-2 {
			fill: #4FF8D2;
		}
	</style>
	<rect width="200" height="200" style="fill: var(--bg, #0d1318); rx: var(--rx, 24px);" />
	<g>
		<path class="turso--fragment-0" d="M100,163.8c-1.6,0-13.6-9.6-16-12.3c-1.8,2.8-4.8,6-4.8,6c-8.3-4.2-18.9-15-20.9-18.8
		c-2-3.8-9.1-46.9-9.3-59.5c-0.3-7.1,4.4-21.4,51-21.4c46.6,0,51.2,14.3,51,21.4c-0.2,12.5-7.3,55.7-9.3,59.5
		c-2,3.8-12.6,14.7-20.9,18.8c0,0-3-3.2-4.8-6C113.6,154.1,101.6,163.8,100,163.8z" />
		<path class="turso--fragment-1" d="M100,135.9c-15.5,0-25.5-8.2-25.5-8.2l1.4-20l-16.3-1.5l-2.9-23.7h86.6l-2.9,23.7l-16.3,1.5l1.4,20
		C125.5,127.7,115.6,135.9,100,135.9L100,135.9z" />
		<path class="turso--fragment-2" d="M116.1,93.1L175,72.7c-3.5-21-21.9-36.5-21.9-36.5v23.1l-10.9,2.8l-6.8-8.2l-5.8,11.5L100,73l-29.5-7.6
		l-5.8-11.5l-6.8,8.2l-10.9-2.8V36.3c0,0-18.4,15.5-21.9,36.5l58.9,20.4l-2.1,28c5,1.3,10.3,2.5,18.2,2.5s13.2-1.3,18.2-2.5
		L116.1,93.1L116.1,93.1z" />
	</g>
</svg>