<svg width="200" height="200" version="1.1" viewBox="0 0 200 200" xml:space="preserve"
	xmlns:xlink="http://www.w3.org/1999/xlink" xmlns="http://www.w3.org/2000/svg">
	<style>
		.ts {
			fill: #fff;
		}
	</style>
	<rect width="200" height="200" style="fill: var(--bg, #007ACC); rx: var(--rx, 24);" />
	<path class="ts" d="M43.8,100.3v8.2h26v74h18.5v-74h26v-8c0-4.5,0-8.2-0.2-8.3c0-0.2-15.8-0.2-35.1-0.2l-35,0.2v8.2L43.8,100.3
	L43.8,100.3z M160.7,92c5.1,1.2,9,3.5,12.5,7.2c1.9,2,4.6,5.5,4.8,6.4c0,0.3-8.6,6.2-13.9,9.4c-0.2,0.2-1-0.7-1.8-2
	c-2.6-3.7-5.3-5.3-9.4-5.6c-6-0.4-10,2.8-10,8c0,1.6,0.3,2.5,0.9,3.8c1.4,2.8,3.9,4.4,11.6,7.8c14.3,6.1,20.5,10.2,24.3,16
	c4.3,6.5,5.2,16.7,2.4,24.4c-3.2,8.4-11,14-22.1,15.9c-3.5,0.6-11.5,0.5-15.3-0.1c-8-1.5-15.6-5.5-20.3-10.6c-1.8-2-5.4-7.4-5.2-7.7
	l1.9-1.2l7.5-4.4l5.6-3.3l1.3,1.8c1.6,2.6,5.4,6.1,7.5,7.3c6.5,3.4,15.2,2.9,19.5-1c1.9-1.7,2.6-3.5,2.6-6c0-2.3-0.4-3.4-1.5-5.1
	c-1.6-2.2-4.8-4-13.8-8c-10.4-4.4-14.8-7.2-18.9-11.5c-2.4-2.6-4.5-6.7-5.5-10c-0.8-2.9-1-10-0.3-12.8c2.2-10,9.7-17,20.5-19
	c3.5-0.7,11.8-0.4,15.2,0.5L160.7,92L160.7,92z" />
</svg>