<svg width="200" height="200" version="1.1" viewBox="0 0 200 200" xml:space="preserve"
	xmlns:xlink="http://www.w3.org/1999/xlink" xmlns="http://www.w3.org/2000/svg">
	<style>
		.ubuntu {
			fill: #ffffff;
		}
	</style>
	<rect width="200" height="200" style="fill: var(--bg, #DD4814); rx: var(--rx, 24px); filter: var(--filter);" />
	<path class="ubuntu" d="M30.6,86.2c-7.6,0-13.8,6.2-13.8,13.8s6.2,13.8,13.8,13.8s13.8-6.2,13.8-13.8S38.2,86.2,30.6,86.2L30.6,86.2z
	M129.5,149.1c-6.6,3.9-8.9,12.3-5.1,18.9c3.9,6.6,12.3,8.9,18.9,5.1c6.6-3.9,8.9-12.3,5.1-18.9
	C144.6,147.6,136.2,145.3,129.5,149.1L129.5,149.1z M60.8,100c0-13.7,6.8-25.7,17.1-33.1L67.8,50c-12.2,8.2-21.2,20.5-24.9,35
	c4.4,3.6,7.2,9,7.2,15.1s-2.8,11.5-7.2,15.1c3.7,14.5,12.7,26.8,24.9,35l10.1-17C67.6,125.8,60.8,113.7,60.8,100L60.8,100z
	M101.2,59.6c21.2,0,38.4,16.2,40.2,36.9l19.8-0.3c-1-15.2-7.6-28.9-17.8-39c-5.3,1.9-11.3,1.7-16.6-1.4c-5.3-3-8.6-8.2-9.4-13.7
	c-5.1-1.4-10.5-2.2-16-2.2c-9.5,0-18.7,2.2-26.7,6.2l9.7,17.3C89.3,60.9,95.1,59.6,101.2,59.6L101.2,59.6z M101.2,140.4
	c-6.1,0-11.9-1.4-17-3.7L74.5,154c8,4,17.1,6.2,26.7,6.2c5.5,0,10.9-0.8,16-2.2c1-5.5,4.1-10.6,9.4-13.7s11.3-3.3,16.6-1.4
	c10.2-10.1,16.9-23.8,17.8-39l-19.8-0.3C139.6,124.2,122.3,140.4,101.2,140.4L101.2,140.4z M129.5,50.9c6.6,3.9,15.1,1.5,18.9-5.1
	c3.9-6.6,1.5-15.1-5.1-18.9c-6.6-3.9-15.1-1.5-18.9,5.1C120.7,38.6,122.9,47.1,129.5,50.9L129.5,50.9z" />
</svg>