<svg width="200" height="200" version="1.1" viewBox="0 0 200 200" xml:space="preserve"
	xmlns:xlink="http://www.w3.org/1999/xlink" xmlns="http://www.w3.org/2000/svg">
	<style>
		.unity {
			fill: #FFFFFF;
		}
	</style>
	<rect width="200" height="200" style="fill: var(--bg, #000); rx: var(--rx, 24px); filter: var(--filter);" />
	<path class="unity"
		d="M105.8,51.8l23.7,13.7c0.9,0.5,0.9,1.8,0,2.3c0,0-28.2,16.3-28.2,16.3c-0.9,0.5-1.9,0.5-2.7,0L70.5,67.8
	c-0.9-0.5-0.9-1.8,0-2.3l23.7-13.7l0-26.8L33.6,60v70l0-0.3v0.3l23.2-13.4l0-27.4c0-1,1.1-1.7,2-1.1l28.2,16.3
	c0.9,0.5,1.3,1.4,1.3,2.3l0,32.6c0,1-1.1,1.7-2,1.2l-23.7-13.7L39.4,140l60.6,35l60.6-35l-23.2-13.4l-23.7,13.7
	c-0.8,0.5-2-0.1-2-1.2c0,0,0-32.6,0-32.6c0-1,0.5-1.8,1.3-2.3L141.2,88c0.8-0.5,2,0.1,2,1.2v27.4l23.2,13.4V60l-60.6-35V51.8z" />
</svg>