<svg width="200" height="200" version="1.1" viewBox="0 0 200 200" xml:space="preserve"
	xmlns:xlink="http://www.w3.org/1999/xlink" xmlns="http://www.w3.org/2000/svg">
	<style>
		.unreal-engine {
			fill: #FFFFFF;
		}
	</style>
	<rect width="200" height="200" style="fill: var(--bg, #000); rx: var(--rx, 24px);" />
	<path class="unreal-engine" d="M98.6,34.3C81,39,64.7,48,42.9,73s-17.6,45.6-17.6,45.6s6-14.2,20.4-29.1c6.9-7.1,11.9-9.4,15.5-9.4
	c3.1-0.2,5.8,2.3,5.8,5.5v50.6c0,5-3.2,6.1-6.2,6c-2.5,0-4.9-0.9-4.9-0.9c14.8,21.5,50.3,24.6,50.3,24.6l15.6-16.6l0.4,0.3
	l14.3,12.2c26.1-15.5,38.7-44.2,38.7-44.2c-11.7,12.3-19,15.2-23.5,15.2c-3.9,0-5.4-2.3-5.4-2.3c-0.2-1.1-0.6-16.5-0.7-31.9
	c-0.1-16,0-31.9,0.8-32c4.5-8.5,18.9-25.5,18.9-25.5c-26.8,5.3-41.4,22.9-41.4,22.9c-4.3-3.4-13.1-2.8-13.1-2.8
	c4.1,2.3,8.2,8.9,8.2,14.4v53.9c0,0-9,7.9-15.9,7.9c-4.1,0-6.6-2.2-8-4.1c-0.5-0.7-1-1.5-1.4-2.3V64.1c-1,0.7-2.1,1.1-3.3,1.1
	c-1.5,0-3-0.7-4.1-2.9c-0.8-1.6-1.3-4.1-1.3-7.7C84.8,42.4,98.6,34.2,98.6,34.3L98.6,34.3z" />
</svg>