<svg width="200" height="200" version="1.1" viewBox="0 0 200 200" xml:space="preserve"
	xmlns:xlink="http://www.w3.org/1999/xlink" xmlns="http://www.w3.org/2000/svg">
	<style>
		.vim--fragment-0 {
			fill: #019833;
		}

		.vim--fragment-1 {
			fill: #66FE98;
		}

		.vim--fragment-2 {
			fill: #45FE02;
		}

		.vim--fragment-3 {
			fill: #017D17;
		}

		.vim--fragment-4 {
			fill: #005D04;
		}

		.vim--fragment-5 {
			fill: #FEFEFE;
		}

		.vim--fragment-6 {
			fill: #808080;
		}

		.vim--fragment-7 {
			fill: #CCCCCC;
		}
	</style>
	<rect width="200" height="200" style="fill: var(--bg, #fff); rx: var(--rx, 24px); filter: var(--filter);" />
	<g>
		<path class="vim--fragment-0" d="M100.2,26.1L26.3,99.8l73.9,74l73.6-74L100.2,26.1" />
		<path class="vim--fragment-1" d="M100.2,32.9v-6.2L26.7,99.8H33L100.2,32.9" />
		<path class="vim--fragment-2" d="M100.2,32.9v-6.2l73.7,73.2h-6.8L100.2,32.9" />
		<path class="vim--fragment-3" d="M100.2,167.1v6.9L26.7,99.8H33L100.2,167.1" />
		<path class="vim--fragment-4" d="M100.2,167.1v6.9l73.7-74.1h-6.8L100.2,167.1" />
		<path d="M63.2,159.9H49.1l-5.6-5.4V51.1h-4.4l-3.8-3.8V35.7l3.9-4.2H89l4.5,4.5v11l-3.7,4.5H86v35l35.4-35h-2l-4.1-4.4V35.4
		l4.1-3.7h50.2l4,4v11L63.2,159.9" />
		<path d="M100.2,175L25.1,99.8L100.2,25l74.7,74.8L100.2,175L100.2,175z M27.4,99.8l72.8,72.9l72.4-72.9l-72.4-72.5L27.4,99.8
		L27.4,99.8z" />
		<path class="vim--fragment-5"
			d="M88.3,38.3l2.2-1.4l-2.3-2.3H40.3L37.9,37v9.2l2.7,2.7l1.3-2.7l-1.7-1.7V38l1.3-1.1L86.7,37L88.3,38.3" />
		<path class="vim--fragment-5" d="M49.4,46v107.9l1.5,1.4l-1.2,2.3l-3.2-3.1V48.8L49.4,46" />
		<path class="vim--fragment-6" d="M41.6,46l-1,2.9h5.8l3.4-2.9H41.6" />
		<path class="vim--fragment-5" d="M122.6,46l-2-1.4v-5.8l2.1-2.1h44.1l1.7,2.3l2.4-1.9l-2.5-2.3H121l-2.4,2.4v9.3l2.5,2.3 M82.7,93.3L78,104.5
		l52-52.2l-0.3-6.3L82.7,93.3" />
		<path class="vim--fragment-6"
			d="M88.2,38.3l2.3-1.4V46l-2.6,2.7h-5.1l-0.1,44.7l-4.6,11.2V46h8.6l1.6-1.3L88.2,38.3" />
		<path class="vim--fragment-6" d="M168.3,38.3l2.6-1.3v8.3L61.7,157.5h-12l1.2-2.2h9.2l108.3-112V38.3" />
		<path class="vim--fragment-6" d="M129.9,46l-2.7,2.7l-6.1,0.1l1.5-2.7C122.6,46,129.9,46,129.9,46" />
		<path class="vim--fragment-7" d="M122.2,36.6l-1.7,1.7v6.2L122,46h7.8v6L78,104.5V46.1h8.6l1.8-1.8V38l-1.6-1.3H41.6l-1.5,1.5v6.4l1.5,1.5h7.9
		v107.7l1.5,1.5h9L168.3,43.2v-5l-1.7-1.7L122.2,36.6" />
		<path class="vim--fragment-6" d="M60,155.4h-9.1l-1.6-1.6V46.3h-7.8l-1.6-1.6v-6.6l1.6-1.6h45.3l1.7,1.3v6.4l-1.9,1.9h-8.5v58l51.4-52.2v-5.8
		H122l-1.6-1.6v-6.3l1.8-1.8h44.5l1.8,1.8v5.1l0,0L60,155.4L60,155.4z M51,155.1h8.8l108.5-112v-4.8l-1.6-1.6h-44.3l-1.6,1.6v6.1
		l1.4,1.4h7.9v6.2l0,0l-52,52.8V46h8.7l1.7-1.7v-6.2l-1.5-1.2H41.6l-1.4,1.4v6.3l1.4,1.4h8v107.8L51,155.1L51,155.1z" />
		<path class="vim--fragment-7"
			d="M103.8,109.2c-0.1,0-0.2,0.1-0.2,0.1l-2.1,1.8c-0.1,0.1-0.1,0.1-0.1,0.2l-2.1,5.9c-0.1,0.2,0,0.4,0.1,0.5
		l1.6,1.6c0.1,0.1,0.2,0.1,0.3,0.1h6.5c0.1,0,0.3,0,0.3-0.1l1.7-1.7c0.1-0.1,0.1-0.1,0.1-0.2l1.8-6.2c0-0.2,0-0.4-0.1-0.5l-1.4-1.4
		c-0.1-0.1-0.2-0.1-0.3-0.1L103.8,109.2C103.9,109.2,103.9,109.2,103.8,109.2L103.8,109.2z M92,125.8c-0.2,0-0.3,0.2-0.4,0.4
		l-0.8,3.2c-0.1,0.3,0.1,0.5,0.4,0.6h0.1h3.8l-9.5,27c-0.1,0.3,0.1,0.5,0.3,0.6c0,0,0.1,0,0.2,0h13.8c0.2,0,0.4-0.1,0.5-0.3l0.9-2.9
		c0.1-0.3-0.1-0.5-0.3-0.6h-0.1h-3.1l9.4-27.3c0.1-0.3-0.1-0.5-0.3-0.6c0,0-0.1,0-0.2,0L92,125.8C92,125.8,92,125.8,92,125.8
		L92,125.8z M135.8,125.9c-0.1,0-0.2,0.1-0.3,0.2l-2.9,3.2H128l-3-3.2c-0.1-0.1-0.2-0.1-0.3-0.1h-10.9c-0.2,0-0.4,0.1-0.5,0.3l-1,3
		c-0.1,0.3,0.1,0.5,0.3,0.6c0,0,0.1,0,0.2,0h2.9l-9.1,26.8c-0.1,0.3,0.1,0.5,0.3,0.6c0,0,0.1,0,0.2,0h11.6c0.2,0,0.4-0.1,0.5-0.3
		l0.9-2.6c0.1-0.3-0.1-0.5-0.3-0.6h-0.1h-2l5.8-18.2H134l-6.6,21.2c-0.1,0.3,0.1,0.5,0.3,0.6h0.1h11.2c0.2,0,0.4-0.1,0.4-0.3l1-2.4
		c0.1-0.3,0-0.5-0.3-0.6c-0.1,0-0.1,0-0.2,0h-2l5.9-18.5h10l-6.7,21.3c-0.1,0.3,0.1,0.5,0.3,0.6h0.1h12.3c0.2,0,0.4-0.1,0.5-0.3
		l1-2.6c0.1-0.3,0-0.5-0.3-0.6c-0.1,0-0.1,0-0.2,0h-2.4l7.4-24.1c0-0.2,0-0.3-0.1-0.4l-2.3-3.1c-0.1-0.1-0.2-0.2-0.4-0.2h-8.8
		c-0.1,0-0.3,0.1-0.4,0.1l-2.8,3h-4.8l-2.9-3.1c-0.1-0.1-0.2-0.2-0.4-0.1h-7.1C135.9,125.9,135.8,125.9,135.8,125.9L135.8,125.9z" />
		<path d="M100.2,120.1c0.3,0.3,0.7,0.5,1.1,0.5l0,0h6.5c0.4,0,0.8-0.2,1.2-0.5l1.7-1.7c0.2-0.2,0.3-0.4,0.4-0.7l1.8-6.2
		c0.2-0.6,0-1.2-0.4-1.6l-1.4-1.4c-0.3-0.3-0.7-0.5-1.1-0.5h-6c-0.1,0-0.2,0-0.3,0h-0.1c-0.3,0.1-0.5,0.2-0.7,0.4l-2.1,1.8l0,0
		c-0.2,0.2-0.4,0.4-0.4,0.7l-2.1,5.9c-0.2,0.6-0.1,1.3,0.4,1.7L100.2,120.1L100.2,120.1z M109.7,110.3l0.9,0.9l-1.6,5.7l-1.4,1.4h-6
		l-1.1-1.1l1.9-5.3l1.8-1.5L109.7,110.3L109.7,110.3z" />
		<path d="M166.5,128.6l-2.3-3.1l0,0c-0.3-0.4-0.8-0.6-1.3-0.6h-8.8c-0.5,0-0.9,0.2-1.2,0.5l-2.5,2.7h-3.8l-2.5-2.8l0,0
		c-0.3-0.3-0.7-0.5-1.2-0.5h-7c-0.1,0-0.2,0-0.3,0h-0.1c-0.4,0.1-0.7,0.3-0.9,0.5l-2.5,2.9h-3.6l-2.7-2.8c-0.3-0.3-0.7-0.5-1.2-0.5
		h-10.9c-0.7,0-1.3,0.4-1.5,1.1l-1,3c-0.3,0.9,0.2,1.8,1,2.1c0.2,0.1,0.3,0.1,0.5,0.1h1.3l-8.6,25.3c-0.3,0.9,0.2,1.8,1,2.1
		c0.2,0.1,0.3,0.1,0.5,0.1h11.6c0.7,0,1.3-0.4,1.5-1.1l0.9-2.6c0.3-0.9-0.2-1.8-1-2.1c-0.2-0.1-0.3-0.1-0.5-0.1H119l5.1-15.9h8.1
		l-6.1,19.7c-0.3,0.9,0.2,1.8,1.1,2c0.2,0,0.3,0.1,0.5,0.1h11.2c0.7,0,1.2-0.4,1.5-1l1-2.4c0.3-0.8-0.1-1.8-0.9-2.1
		c-0.2-0.1-0.4-0.1-0.6-0.1h-0.5l5.2-16.2h7.6l-6.2,19.8c-0.3,0.9,0.2,1.8,1.1,2c0.2,0,0.3,0.1,0.5,0.1l0,0h12.3
		c0.7,0,1.3-0.4,1.5-1l1-2.6c0.3-0.8-0.1-1.8-1-2.1c-0.2-0.1-0.4-0.1-0.6-0.1h-0.9l6.9-22.6C166.9,129.5,166.8,129,166.5,128.6
		L166.5,128.6z M156.7,154.8h3l-0.5,1.3h-10.9l6.9-21.9h-12.4l-6.6,20.8h2.6l-0.4,1.1h-9.9l6.8-21.8h-12.9l-6.5,20.5h2.7l-0.4,1.3
		h-10.2l9.3-27.4h-3.6l0.6-1.7h10.1l3.2,3.3h5.6l3-3.4h6.5l3,3.3h5.9l2.9-3.2h8.2l1.9,2.6L156.7,154.8L156.7,154.8z" />
		<path d="M101.2,152.6c-0.2,0-0.3-0.1-0.5-0.1h-1.5l8.9-25.8c0.3-0.9-0.2-1.8-1-2.1c-0.2-0.1-0.3-0.1-0.5-0.1H92.1
		c-0.1,0-0.2,0-0.3,0h-0.1c-0.6,0.1-1.1,0.6-1.2,1.2l-0.8,3.2c-0.2,0.9,0.3,1.8,1.2,2c0.1,0,0.3,0,0.4,0h2.2l-8.9,25.6
		c-0.3,0.9,0.2,1.8,1,2.1c0.2,0.1,0.3,0.1,0.5,0.1h13.8l0,0c0.7,0,1.3-0.4,1.6-1.1l0.9-2.9C102.6,153.8,102.1,152.9,101.2,152.6
		L101.2,152.6z M87,156.4l9.7-27.7h-4.6l0.5-1.9h13l-9.6,28h3.8l-0.5,1.6H87L87,156.4z" />
	</g>
</svg>