<svg width="200" height="200" version="1.1" viewBox="0 0 200 200" xml:space="preserve"
	xmlns:xlink="http://www.w3.org/1999/xlink" xmlns="http://www.w3.org/2000/svg">
	<style>
		.vitest--fragment-0 {
			fill: #FCC72B;
		}

		.vitest--fragment-1 {
			fill: #B9CD8D;
		}

		.vitest--fragment-2 {
			fill: #729B1B;
		}
	</style>
	<rect width="200" height="200" style="fill: var(--bg, #fff); rx: var(--rx, 24px); filter: var(--filter);" />
	<g>
		<path class="vitest--fragment-0" d="M137.6,73.1l-35.9,51.8c-0.4,0.5-0.9,1-1.6,1.2c-0.6,0.2-1.3,0.2-2,0c-0.6-0.2-1.2-0.6-1.6-1.2
		c-0.4-0.6-0.6-1.2-0.5-1.9l1.4-28.6l-23.2-4.9c-0.5-0.1-1-0.3-1.3-0.7c-0.4-0.3-0.7-0.7-0.9-1.2c-0.2-0.5-0.3-1-0.2-1.5
		c0.1-0.5,0.2-1,0.5-1.4l35.9-51.8c0.4-0.6,0.9-1,1.6-1.2c0.6-0.2,1.3-0.2,2,0c0.6,0.2,1.2,0.6,1.6,1.2c0.4,0.6,0.6,1.2,0.5,1.9
		l-1.4,28.6l23.2,4.9c0.5,0.1,1,0.3,1.3,0.7c0.4,0.3,0.7,0.7,0.9,1.2c0.2,0.5,0.3,1,0.2,1.5C138,72.2,137.9,72.7,137.6,73.1
		L137.6,73.1z" />
		<path class="vitest--fragment-1" d="M100,168.4c1,0,1.9-0.2,2.8-0.6c0.9-0.4,1.7-0.9,2.4-1.6l33.9-33.9c1.4-1.4,2.1-3.2,2.1-5.1
		c0-1.9-0.8-3.8-2.1-5.1c-1.4-1.4-3.2-2.1-5.1-2.1c-1.9,0-3.8,0.8-5.1,2.1L100,150.9L37.4,88.3c-1.4-1.3-3.2-2.1-5.1-2.1
		c-1.9,0-3.8,0.8-5.1,2.1c-1.4,1.4-2.1,3.2-2.1,5.1c0,1.9,0.7,3.8,2.1,5.1l67.8,67.8c0.7,0.7,1.5,1.2,2.4,1.6
		C98.1,168.2,99,168.4,100,168.4z" />
		<path class="vitest--fragment-2" d="M100,168.4c-1,0-1.9-0.2-2.8-0.6c-0.9-0.4-1.7-0.9-2.4-1.6L61,132.4c-1.4-1.4-2.1-3.2-2.1-5.1
		c0-1.9,0.8-3.8,2.1-5.1c1.4-1.4,3.2-2.1,5.1-2.1c1.9,0,3.8,0.8,5.1,2.1l28.8,28.7l62.6-62.6c1.4-1.3,3.2-2.1,5.1-2.1
		c1.9,0,3.8,0.8,5.1,2.1c1.4,1.4,2.1,3.2,2.1,5.1c0,1.9-0.7,3.8-2.1,5.1l-67.8,67.8c-0.7,0.7-1.5,1.2-2.4,1.6
		C101.9,168.2,101,168.4,100,168.4z" />
	</g>
</svg>