<svg width="200" height="200" version="1.1" viewBox="0 0 200 200" xml:space="preserve"
	xmlns:xlink="http://www.w3.org/1999/xlink" xmlns="http://www.w3.org/2000/svg">
	<style>
		.vite--fragment-0 {
			fill: url(#svgFragment1);
		}

		.vite--fragment-1 {
			fill: url(#svgFragment2);
		}
	</style>
	<defs>
		<linearGradient id="svgFragment2" gradientUnits="userSpaceOnUse" x1="103.8946" y1="177.7582" x2="119.7385"
			y2="69.071" gradientTransform="matrix(1 0 0 -1 0 200)">
			<stop stop-color="#FFEA83" offset="0" />
			<stop stop-color="#FFDD35" offset="8.333330e-02" />
			<stop stop-color="#FFA800" offset="1" />
		</linearGradient>
		<linearGradient id="svgFragment1" gradientUnits="userSpaceOnUse" x1="62.5932" y1="195.8315" x2="150.1791"
			y2="76.8829" gradientTransform="matrix(1 0 0 -1 0 200)">
			<stop stop-color="#41D1FF" offset="0" />
			<stop stop-color="#BD34FE" offset="1" />
		</linearGradient>
	</defs>
	<rect width="200" height="200" style="fill: var(--bg, #101010); rx: var(--rx, 24px); filter: var(--filter);" />
	<g>
		<path class="vite--fragment-0" d="M174.5,42.8l-70.4,125.8c-1.5,2.6-5.2,2.6-6.7,0L25.7,42.8c-1.6-2.8,0.8-6.2,4-5.7l70.4,12.6
		c0.4,0.1,0.9,0.1,1.4,0l69-12.6C173.7,36.6,176.1,39.9,174.5,42.8z" />
		<path class="vite--fragment-1"
			d="M133.7,20.6L81.6,30.8c-0.9,0.2-1.5,0.9-1.5,1.8l-3.2,54.1c-0.1,1.3,1.1,2.3,2.3,2l14.5-3.3
		c1.4-0.3,2.6,0.9,2.3,2.2l-4.3,21.1c-0.3,1.4,1,2.6,2.4,2.2l9-2.7c1.4-0.4,2.7,0.8,2.4,2.2l-6.8,33.1c-0.4,2.1,2.3,3.2,3.5,1.4
		l0.8-1.2L145.4,59c0.7-1.4-0.5-3-2.1-2.7l-14.9,2.9c-1.4,0.3-2.6-1-2.2-2.4l9.7-33.8C136.3,21.6,135.1,20.3,133.7,20.6z" />
	</g>
</svg>