<svg width="200" height="200" version="1.1" viewBox="0 0 200 200" xml:space="preserve"
	xmlns:xlink="http://www.w3.org/1999/xlink" xmlns="http://www.w3.org/2000/svg">
	<style>
		.windsurf {
			fill: #0B100F;
		}
	</style>
	<rect width="200" height="200" style="fill: var(--bg, #fff); rx: var(--rx, 24px); filter: var(--filter);" />
	<path class="windsurf" d="M173.6,56.7h-1.4c-7.5,0-13.6,6.1-13.6,13.6v30.4c0,6.1-5,11-11,11c-3.6,0-7.1-1.8-9.2-4.8l-31.1-44.4
	c-2.6-3.7-6.8-5.9-11.3-5.9c-7.1,0-13.5,6-13.5,13.5v30.6c0,6.1-5,11-11,11c-3.6,0-7.1-1.8-9.2-4.8L27.5,57.2
	c-0.8-1.1-2.5-0.6-2.5,0.8v26.5c0,1.3,0.4,2.6,1.2,3.7l34.2,48.9c2,2.9,5,5,8.4,5.8c8.6,2,16.5-4.7,16.5-13.1V99.3
	c0-6.1,4.9-11,11-11h0c3.7,0,7.1,1.8,9.2,4.8l31.1,44.4c2.6,3.7,6.6,5.9,11.3,5.9c7.2,0,13.4-6,13.4-13.5V99.3c0-6.1,4.9-11,11-11
	h1.2c0.8,0,1.4-0.6,1.4-1.4V58C175,57.3,174.4,56.7,173.6,56.7L173.6,56.7z" />
</svg>