<svg width="200" height="200" version="1.1" viewBox="0 0 200 200" xml:space="preserve"
	xmlns:xlink="http://www.w3.org/1999/xlink" xmlns="http://www.w3.org/2000/svg">
	<style>
		.woo {
			fill: #7f54b3;
		}
	</style>
	<rect width="200" height="200" style="fill: var(--bg, #fff); rx: var(--rx, 24);" />
	<path class="woo" d="M151.5,80.5c-2.4,0.3-4.5,1.8-5.5,3.8l0,0c-1.5,2.1-2.6,4.5-3.2,7.2l0,0.1c-0.3,1.3-0.4,2.8-0.4,4.3c0,0.1,0,0.1,0,0.2v0
	c0,2,0.4,3.9,1.1,5.7l0-0.1c0.9,2.4,2.2,3.7,3.6,4c0.2,0,0.4,0,0.5,0c1.8,0,3.3-0.8,4.4-2l0,0c2.4-2.4,4.1-5.5,4.6-9l0-0.1
	c0.3-1.4,0.4-2.9,0.4-4.5v0c0-2-0.4-3.9-1.1-5.7l0,0.1c-0.9-2.4-2.2-3.7-3.6-4C152.1,80.5,151.8,80.5,151.5,80.5L151.5,80.5
	L151.5,80.5z M113,80.5c-2.4,0.3-4.5,1.8-5.5,3.8l0,0c-1.5,2.1-2.6,4.5-3.2,7.2l0,0.1c-0.3,1.3-0.4,2.7-0.4,4.2c0,0.1,0,0.2,0,0.3v0
	c0,2,0.4,3.9,1.1,5.7l0-0.1c0.9,2.4,2.1,3.7,3.6,4c0.2,0,0.4,0,0.5,0c1.8,0,3.3-0.8,4.4-2l0,0c2.4-2.4,4.1-5.5,4.6-9l0-0.1
	c0.3-1.3,0.4-2.7,0.4-4.3c0-0.1,0-0.2,0-0.3v0c0-2-0.4-3.9-1.1-5.7l0,0.1c-0.9-2.4-2.2-3.7-3.6-4C113.6,80.5,113.3,80.5,113,80.5
	L113,80.5L113,80.5z M151.2,70.2c1.2,0,2.3,0.1,3.4,0.4l-0.1,0c4.3,0.8,7.8,3.4,9.8,7l0,0.1c1.9,3.3,3,7.2,3,11.3c0,0.3,0,0.5,0,0.8
	v0c0,0.1,0,0.2,0,0.3c0,6.3-1.8,12.2-4.9,17.2l0.1-0.1c-2.7,5.4-8.1,9.1-14.4,9.2h0c-1.2,0-2.3-0.1-3.4-0.4l0.1,0
	c-4.3-0.8-7.8-3.4-9.8-7l0-0.1c-1.9-3.3-3-7.3-3-11.5c0-0.2,0-0.5,0-0.7v0c0-0.1,0-0.2,0-0.3c0-6.3,1.8-12.1,4.9-17.1l-0.1,0.1
	C139.5,74,144.9,70.3,151.2,70.2L151.2,70.2L151.2,70.2z M112.8,70.2c1.2,0,2.3,0.1,3.4,0.4l-0.1,0c4.3,0.8,7.8,3.5,9.8,7l0,0.1
	c1.9,3.3,3,7.2,3,11.3c0,0.3,0,0.5,0,0.8v0c0,0.1,0,0.2,0,0.3c0,6.3-1.8,12.2-4.9,17.2l0.1-0.1c-2.7,5.4-8.1,9.1-14.4,9.2h0
	c-1.2,0-2.3-0.1-3.4-0.4l0.1,0c-4.3-0.8-7.8-3.4-9.8-7l0-0.1c-1.9-3.3-3-7.3-3-11.5c0-0.2,0-0.5,0-0.7v0c0-0.1,0-0.2,0-0.3
	c0-6.3,1.8-12.1,4.9-17.1l-0.1,0.1C101.1,74,106.5,70.3,112.8,70.2L112.8,70.2L112.8,70.2z M89.4,63.6c1.3,0,2.4,0.5,3.4,1.3l0,0
	c1.1,0.8,1.8,2.1,1.9,3.5v0c0,0.1,0,0.3,0,0.4c0,0.9-0.2,1.8-0.6,2.5l0,0c-2.9,6.5-5,13.9-5.9,21.8l0,0.3c-1.1,6-1.8,12.9-1.8,20
	c0,1.2,0,2.4,0.1,3.5l0-0.2c0,0.2,0,0.5,0,0.8c0,1.2-0.3,2.3-0.8,3.3l0,0c-0.6,1.2-1.8,2.1-3.2,2.2h0c0,0,0,0-0.1,0
	c-1.9,0-3.6-0.9-4.8-2.3l0,0c-6.4-7.2-11.1-16-13.5-25.7L64,94.6c-3,5.9-5.9,11.7-8.8,17.7c-3.6,6.9-6.7,10.5-9.3,10.7
	c-1.7,0.1-3.1-1.3-4.3-4.2c-4.3-13.3-7.9-29-10-45.2l-0.1-1.3c0-0.3-0.1-0.6-0.1-0.9c0-1.2,0.4-2.3,1.1-3.2l0,0
	c0.9-1.2,2.3-1.9,3.9-1.9l0,0c0.3-0.1,0.6-0.1,0.9-0.1c2.5,0,4.5,2,4.5,4.5c0,0,0,0,0,0l0,0c1.9,12.8,4,23.7,6.2,32.6l13.4-25.6
	c0.8-2,2.5-3.4,4.6-3.7l0,0c2.7-0.2,4.4,1.5,5,5.2c1.4,8,3.5,15,6.1,21.8l-0.3-0.8c0.6-12.3,3.6-23.8,8.3-34.3l-0.2,0.6
	c0.7-1.5,2.3-2.6,4-2.7h0C89.1,63.6,89.2,63.6,89.4,63.6L89.4,63.6z M38.9,55.4c-7.7,0-13.9,6.2-13.9,13.9c0,0,0,0,0,0.1v0v46.6v0
	c0,7.7,6.3,14,14,14h0h57.8l26.4,14.7l-6-14.7H161c0,0,0,0,0,0c7.7,0,14-6.3,14-14c0,0,0,0,0,0l0,0V69.3c0,0,0,0,0,0
	c0-7.7-6.3-14-14-14c0,0,0,0,0,0l0,0L38.9,55.4z" />
</svg>