<svg width="200" height="200" version="1.1" viewBox="0 0 200 200" xml:space="preserve"
	xmlns:xlink="http://www.w3.org/1999/xlink" xmlns="http://www.w3.org/2000/svg">
	<style>
		.wordpress {
			fill: #fff;
		}
	</style>
	<rect width="200" height="200" style="fill: var(--bg, #3858e9); rx: var(--rx, 24px);" />
	<path class="wordpress"
		d="M100,25.1c41.3,0,75,33.5,75,74.7c0,41.4-33.6,75-75,75s-75-33.6-75-75C25,58.6,58.6,25.1,100,25.1z M101.2,105.7
		l-20.3,58.5c13.6,4,28.1,3.6,41.5-1c-0.2-0.3-0.3-0.6-0.5-1C121.9,162.3,101.2,105.7,101.2,105.7z M38.4,72.5
		c-14.8,33.2-0.6,72.1,32.2,87.9L38.4,72.5z M159.2,67.6c0.3,2.2,0.5,4.4,0.5,6.9c0,6.8-1.3,14.5-5.1,24.1l-20.6,59.3
		C165.4,139.6,176.6,99.6,159.2,67.6z
		M100,32.8c-23.5,0-44.3,12-56.4,30.3c7.4,0.2,14.9,0,22.3-0.9c3.7-0.2,4.1,5.1,0.5,5.6
		c0,0-3.7,0.4-7.7,0.7l24.5,72.7L98,97L87.5,68.3c-3.7-0.2-7.1-0.7-7.1-0.7c-3.6-0.2-3.2-5.7,0.5-5.5c0,0,11.1,0.9,17.7,0.9
		c7.1,0.1,18-0.8,18-0.8c3.6-0.2,4.1,5.1,0.5,5.6c0,0-3.7,0.4-7.7,0.7l24.3,72.2l6.7-22.4c3-6.9,4.8-14.2,5.2-21.7
		c-0.1-6.6-2-13-5.6-18.5c-3.5-5.6-6.7-10.2-6.7-15.7c0-6.2,4.7-12,11.4-12h0.9C133.1,39,116.9,32.7,100,32.8L100,32.8z" />
</svg>