<svg width="200" height="200" version="1.1" viewBox="0 0 200 200" xml:space="preserve"
	xmlns:xlink="http://www.w3.org/1999/xlink" xmlns="http://www.w3.org/2000/svg">
	<style>
		.word--fragment-0 {
			fill: #41A5EE;
		}

		.word--fragment-1 {
			fill: #2B7CD3;
		}

		.word--fragment-2 {
			fill: #185ABD;
		}

		.word--fragment-3 {
			fill: #103F91;
		}

		.word--fragment-4 {
			fill: #000;
			opacity: 0.1;
		}

		.word--fragment-5 {
			fill: #000;
			opacity: 0.2;
		}

		.word--fragment-6 {
			fill: url(#gradientFragment1);
		}

		.word--fragment-7 {
			fill: #FFFFFF;
		}
	</style>
	<defs>
		<linearGradient id="gradientFragment1" gradientUnits="userSpaceOnUse" x1="1.5344" y1="1917.7328" x2="3.5354"
			y2="1914.2672" gradientTransform="matrix(25 0 0 -25 0 48000)">
			<stop stop-color="#2368C4" offset="0" />
			<stop stop-color="#1A5DBE" offset="0.5" />
			<stop stop-color="#1146AC" offset="1" />
		</linearGradient>
	</defs>
	<rect width="200" height="200" style="fill: var(--bg, #fff); rx: var(--rx, 24px); filter: var(--filter);" />
	<g>
		<path class="word--fragment-0" d="M168.6,30.4H66.3c-3.5,0-6.4,2.9-6.4,6.4v0l0,0v28.4l59.3,17.4L175,65.2V36.7
		C175,33.2,172.1,30.4,168.6,30.4C168.6,30.4,168.6,30.4,168.6,30.4z" />
		<path class="word--fragment-1" d="M175,65.2H59.9V100l59.3,10.4L175,100V65.2z" />
		<path class="word--fragment-2" d="M59.9,100v34.8l55.8,7l59.3-7V100H59.9z" />
		<path class="word--fragment-3" d="M66.3,169.6h102.3c3.5,0,6.4-2.8,6.4-6.4c0,0,0,0,0,0l0,0v-28.4H59.9v28.4C59.9,166.8,62.8,169.6,66.3,169.6
		C66.3,169.6,66.3,169.6,66.3,169.6z" />
		<path class="word--fragment-4"
			d="M102.3,58.2H59.9v87.1h42.4c3.5,0,6.4-2.9,6.4-6.4V64.6C108.7,61.1,105.8,58.2,102.3,58.2z" />
		<path class="word--fragment-5"
			d="M98.8,61.7h-39v87.1h39c3.5,0,6.4-2.9,6.4-6.4V68.1C105.2,64.6,102.4,61.7,98.8,61.7z" />
		<path class="word--fragment-5"
			d="M98.8,61.7h-39v80.1h39c3.5,0,6.4-2.9,6.4-6.4V68.1C105.2,64.6,102.4,61.7,98.8,61.7z" />
		<path class="word--fragment-5"
			d="M95.3,61.7H59.9v80.1h35.5c3.5,0,6.4-2.9,6.4-6.4V68.1C101.7,64.6,98.9,61.7,95.3,61.7z" />
		<path class="word--fragment-6" d="M31.4,61.7h64c3.5,0,6.4,2.9,6.4,6.4v63.8c0,3.5-2.9,6.4-6.4,6.4h-64c-3.5,0-6.4-2.8-6.4-6.4c0,0,0,0,0,0
		V68.1C25,64.6,27.9,61.7,31.4,61.7C31.4,61.7,31.4,61.7,31.4,61.7z" />
		<path class="word--fragment-7" d="M51.3,110.7c0.1,1,0.2,1.8,0.2,2.6h0.1c0.1-0.7,0.2-1.5,0.3-2.5c0.2-1,0.3-1.8,0.5-2.5l6.7-29h8.7l7,28.5
		c0.4,1.8,0.7,3.6,0.9,5.4h0.1c0.1-1.8,0.4-3.5,0.7-5.2l5.6-28.7H90l-9.8,41.5H71l-6.6-27.5c-0.2-0.8-0.4-1.8-0.7-3.1
		s-0.4-2.2-0.4-2.8h-0.1c-0.1,0.7-0.2,1.7-0.4,3c-0.2,1.3-0.4,2.3-0.5,3L56,120.7h-9.4l-9.8-41.5h8l6.1,29
		C51,109.1,51.1,109.9,51.3,110.7z" />
	</g>
</svg>