<svg width="200" height="200" version="1.1" viewBox="0 0 200 200" xml:space="preserve"
	xmlns:xlink="http://www.w3.org/1999/xlink" xmlns="http://www.w3.org/2000/svg">
	<style>
		.yarn {
			fill: #fff;
		}
	</style>
	<rect width="200" height="200" style="fill: var(--bg, #368FB9); rx: var(--rx, 24px);" />
	<path class="yarn" d="M159.6,141.1c-7,1.7-10.6,3.2-19.3,8.9c-13.6,8.8-28.5,12.9-28.5,12.9s-1.2,1.8-4.8,2.7
	c-6.2,1.5-29.4,2.8-31.5,2.8c-5.7,0-9.2-1.5-10.1-3.8c-2.9-7,4.2-10.1,4.2-10.1s-1.6-1-2.5-1.8c-0.8-0.8-1.7-2.5-2-1.9
	c-1.1,2.7-1.7,9.2-4.6,12.2c-4.1,4.1-11.7,2.7-16.2,0.4c-5-2.6,0.4-8.8,0.4-8.8s-2.7,1.6-4.8-1.7c-1.9-3-3.7-8.1-3.3-14.4
	c0.5-7.2,8.5-14.1,8.5-14.1s-1.4-10.6,3.2-21.5c4.2-9.9,15.5-17.9,15.5-17.9s-9.5-10.5-5.9-19.9c2.3-6.2,3.2-6.1,4-6.4
	c2.6-1,5.2-2.1,7.1-4.2c9.5-10.2,21.5-8.3,21.5-8.3s5.7-17.4,11-14c1.6,1.1,7.5,14.1,7.5,14.1s6.3-3.7,7-2.3
	c3.8,7.4,4.2,21.4,2.6,29.9c-2.8,14.1-9.9,21.7-12.7,26.4c-0.7,1.1,7.6,4.6,12.8,19c4.8,13.2,0.5,24.2,1.3,25.4
	c0.1,0.2,0.2,0.3,0.2,0.3s5.5,0.4,16.6-6.4c5.9-3.7,12.9-7.7,20.9-7.8C165,130.6,165.4,139.6,159.6,141.1L159.6,141.1z M170.1,134.6
	c-0.8-6.3-6.1-10.6-12.9-10.5c-10.1,0.1-18.6,5.4-24.3,8.8c-2.2,1.4-4.1,2.4-5.7,3.1c0.4-5.1,0-11.8-2.6-19.2
	c-3.2-8.8-7.5-14.2-10.6-17.3c3.6-5.2,8.5-12.8,10.7-24.5c2-10,1.4-25.5-3.2-34.3c-0.9-1.8-2.5-3-4.4-3.6c-0.8-0.2-2.3-0.7-5.2,0.2
	c-4.4-9.2-6-10.2-7.2-11c-2.5-1.6-5.4-1.9-8.1-0.9c-3.7,1.3-6.8,4.8-9.7,11.1c-0.4,0.9-0.8,1.8-1.2,2.7c-5.6,0.4-14.4,2.4-21.8,10.5
	c-0.9,1-2.7,1.8-4.6,2.5h0c-3.9,1.4-5.6,4.5-7.8,10.3c-3,8,0.1,15.9,3.1,21c-4.1,3.7-9.6,9.6-12.5,16.5c-3.6,8.5-4,16.9-3.9,21.4
	c-3.1,3.3-7.8,9.4-8.4,16.2c-0.7,9.6,2.8,16.1,4.3,18.5c0.4,0.7,0.9,1.3,1.5,1.8c-0.2,1.2-0.2,2.5,0,3.8c0.6,3.1,2.5,5.6,5.5,7.2
	c5.8,3.1,13.9,4.4,20.2,1.3c2.2,2.4,6.3,4.7,13.8,4.7h0.4c1.9,0,25.9-1.3,32.9-3c3.1-0.7,5.3-2.1,6.7-3.3
	c4.5-1.4,16.9-5.6,28.6-13.2c8.3-5.4,11.1-6.5,17.3-8C167.1,146.1,170.8,140.6,170.1,134.6L170.1,134.6z" />
</svg>