<svg width="200" height="200" version="1.1" viewBox="0 0 200 200" xml:space="preserve"
	xmlns:xlink="http://www.w3.org/1999/xlink" xmlns="http://www.w3.org/2000/svg">
	<style>
		.zed {
			fill: #FFFFFF;
		}
	</style>

	<rect width="200" height="200" style="fill: var(--bg, #0751cf); rx: var(--rx, 24px); filter: var(--filter);" />
	<path class="zed" d="M39.1,34.4c-2.6,0-4.7,2.1-4.7,4.7v103.1H25V39.1C25,31.3,31.3,25,39.1,25h125.6c6.3,0,9.4,7.6,5,12l-77.4,77.4
	h21.8v-9.7h9.4v12c0,3.9-3.1,7-7,7H82.9l-16.1,16.1h73.1V81.3h9.4v58.6c0,5.2-4.2,9.4-9.4,9.4H57.4L41,165.6h119.9
	c2.6,0,4.7-2.1,4.7-4.7V57.8h9.4v103.1c0,7.8-6.3,14.1-14.1,14.1H35.3c-6.3,0-9.4-7.6-5-12l77.1-77.1H85.9v9.4h-9.4V83.6
	c0-3.9,3.1-7,7-7h33.2l16.4-16.4H60.2v58.6h-9.4V60.2c0-5.2,4.2-9.4,9.4-9.4h82.4L159,34.4H39.1z" />
</svg>