<svg version="1.1" xmlns="http://www.w3.org/2000/svg" xmlns:xlink="http://www.w3.org/1999/xlink" x="0px" y="0px"
	viewBox="0 0 190 190" xml:space="preserve">
	<style>
		.i {
			fill: #1A2B35;
		}

		.p {
			fill: #F3C922;
		}

		@media (prefers-color-scheme: dark) {
			.i {
				fill: #dadada;
			}
		}
	</style>
	<g>
		<path class="i" d="M188.1,189h-48.6V1h48.6V189z" />
		<path class="p"
			d="M28.6,140.3h48.7V189H28.6V140.3z M28.8,109.7c0-18.8,11.6-30.9,34.1-44.4c4.4-2.7,9-7.1,9-12.4
		c0-8.7-6.7-14-19.1-14c-14.8,0-27.4,8-32.7,18L2,24.2C5.1,19.9,15.4,1,55.8,1c38.4,0,62.8,24.8,62.8,43.9
		c0,16.4-3.4,25.4-17.1,36.1c-11.2,8.9-24.9,13.4-24.9,27.4c0,5.8,0.1,7.3,0.6,8.9L29,117.4C28.8,116.2,28.8,114.9,28.8,109.7z" />
	</g>
</svg>